<?xml version="1.0" encoding="utf-8"?>
<!-- Generator: Adobe Illustrator 16.0.0, SVG Export Plug-In . SVG Version: 6.00 Build 0)  -->
<!DOCTYPE svg PUBLIC "-//W3C//DTD SVG 1.1//EN" "http://www.w3.org/Graphics/SVG/1.1/DTD/svg11.dtd">
<svg version="1.1" id="图层_1" xmlns="http://www.w3.org/2000/svg" xmlns:xlink="http://www.w3.org/1999/xlink" x="0px" y="0px"
	 width="180px" height="70px" viewBox="0 0 180 70" enable-background="new 0 0 180 70" xml:space="preserve">
<g>
	<path fill="#306AB3" d="M64.598,24.156C64.231,22.063,64.131,20,63.07,18.63c-1.061-1.368-3.113-1.533-5.167-1.932
		c-3.747-0.727-8.234-0.661-12.668-0.629c-1.107,0.06-2.216,0.12-3.324,0.18c-3.328,0.518-7.356,0.355-8.805,2.74
		c-0.897,1.477-0.95,3.536-1.303,5.571c-0.451,2.594-0.45,5.515-0.45,8.49c0,2.833-0.01,5.611,0.404,8.086
		c0.381,2.278,0.424,4.581,1.573,6.063c1.248,1.614,3.88,1.686,6.334,2.112c1.651,0.288,3.535,0.183,5.301,0.45h5.3
		c2.047-0.303,4.08-0.052,5.93-0.359c2.056-0.343,4.183-0.336,5.705-1.213c2.033-1.172,2.165-3.633,2.65-6.38
		C65.396,37.045,65.438,28.966,64.598,24.156z M39.979,22.18c0.604-1.084,1.394-1.239,2.606-1.752
		c2.41-0.004,3.227,1.583,5.255,1.977c0.75,0.146,1.458-0.151,1.932-0.359c1.08-0.473,1.926-1.312,3.19-1.573
		c2.373-0.489,4.46,1.793,3.774,4.223c-0.137,0.484-0.432,0.876-0.719,1.213c-2.943,3.45-5.324-1.253-7.996-0.809
		c-2.174,0.362-3.854,2.834-6.469,1.708C40.171,26.212,38.941,24.039,39.979,22.18z M62.082,33.5
		c-0.32,1.625-1.967,3.336-4.222,2.65c-1.829-0.555-3.398-2.472-6.155-1.977c-3.544,0.636-5.782,3.173-6.829,6.289
		c0.403,0.441,3.081,0.006,3.639-0.135c2.696-0.682,5.938-2.65,7.997-0.045c1.261,1.595,1.473,4.002-0.629,4.896
		c-0.421,0.181-1.257,0.353-1.887,0.181c-1.659-0.454-2.105-1.813-2.65-3.414c-2.796,0.635-7.754,5.219-11.052,2.65
		c-0.922-0.719-1.547-2.731-0.764-4.088c0.652-1.131,1.921-2.029,2.919-2.83c1.035-0.831,1.824-1.83,2.65-2.876v-0.179
		c-3.237-1.71-5.241,2.289-8.266,1.527c-1.765-0.445-3.353-2.786-2.111-4.896c0.571-0.972,1.326-1.188,2.426-1.662
		c2.616-0.004,3.589,1.534,6.11,1.932c1.8,0.284,3.146-0.981,4.537-1.258c1.976-0.393,3.293,1.63,5.66,1.213
		c2.095-0.369,3.145-1.553,5.122-1.887C60.483,29.271,62.487,31.439,62.082,33.5z M97.707,21.28h-3.774v23.585h3.774V21.28z
		 M104.67,27.031c2.665-0.733,2.189-4.553-1.214-4.448c-0.907,0.407-1.618,0.683-1.886,1.708
		C101.099,26.088,102.816,27.541,104.67,27.031z M75.694,39.879c3.189-0.016,6.379-0.029,9.568-0.045
		c0.673,1.677,1.348,3.354,2.021,5.031h4.538c-3.159-7.352-6.32-14.706-9.479-22.057h-3.459c-3.189,7.337-6.38,14.676-9.569,22.012
		v0.046h4.448C74.405,43.204,75.05,41.542,75.694,39.879z M80.5,27.615c1.123,2.935,2.247,5.87,3.369,8.805h-6.783
		C78.225,33.485,79.362,30.55,80.5,27.615z M153.547,34.354c0.848,1.916,0.426,7.736,0.404,10.512h3.772
		c0.018-4.337,0.695-11.159-1.212-13.612c-1.977-2.541-7.95-2.321-8.805,1.033c-0.017-0.809-0.029-1.616-0.045-2.426h-3.595v15.005
		h3.774v-6.245c0-1.232-0.104-2.609,0.225-3.549c0.416-1.198,1.685-2.508,3.593-2.157C152.567,33.083,153.22,33.615,153.547,34.354z
		 M105.836,29.861h-3.771v15.005h3.771V29.861z M120.123,29.861c-1.228,3.444-2.456,6.889-3.684,10.333h-0.045
		c-1.393-3.444-2.786-6.889-4.178-10.333h-4.134c2.112,5.001,4.225,10.004,6.335,15.005c-0.18,0.464-0.359,0.928-0.539,1.393
		c-1.209,2.962-1.637,2.755-5.032,2.291c-0.15,1.092-0.3,2.186-0.449,3.279v0.135c1.905,0.217,4.392,0.662,5.976-0.27
		c2.108-1.239,2.728-4.03,3.683-6.424c2.008-5.12,4.014-10.243,6.02-15.364C122.759,29.892,121.441,29.877,120.123,29.861z
		 M136.251,42.576v-0.09c0.015,0.793,0.03,1.586,0.044,2.381h3.595V29.862h-3.774v6.289c0.002,1.277,0.106,2.71-0.269,3.641
		c-0.462,1.144-1.696,2.371-3.595,2.021c-0.896-0.165-1.521-0.704-1.842-1.437c-0.847-1.944-0.427-7.716-0.403-10.514h-3.774V36.6
		c0,2.137-0.098,4.318,0.539,5.796c0.929,2.15,4.212,3.737,7.233,2.425C135.07,44.358,135.576,43.433,136.251,42.576z
		 M39.754,66.385h0.674v-8.221h-0.674V66.385L39.754,66.385z M45.459,62.072v0.089c-0.015-1.332-0.03-2.665-0.045-3.997h-0.718
		v8.221h0.718v-0.81h0.045c0.179,0.417,0.551,0.6,0.989,0.764c1.899,0.719,3.354-0.533,3.638-2.065
		C50.652,61.235,47.151,60.603,45.459,62.072z M47.796,65.891c-1.516,0.324-2.832-1.112-2.381-2.606
		c0.255-0.847,0.89-1.09,1.662-1.437C49.967,61.755,50.074,65.401,47.796,65.891z M57.769,62.117l-0.09,0.044v-3.997h-0.674v8.221
		h0.674v-0.81h0.044c0.171,0.374,0.511,0.552,0.899,0.719c1.833,0.788,3.433-0.412,3.729-1.932
		C62.917,61.457,58.691,60.087,57.769,62.117z M60.285,65.845c-1.555,0.46-3.074-0.956-2.606-2.516
		c0.266-0.884,0.881-1.102,1.662-1.483C62.128,61.758,62.378,65.227,60.285,65.845z M80.007,66.43h0.673v-8.266h-0.673V66.43z
		 M99.369,62.161h-0.045c-0.176-0.38-0.52-0.536-0.898-0.719c-1.877-0.902-3.451,0.551-3.729,2.067
		c-0.505,2.752,3.677,4.135,4.582,2.157c0.03-0.017,0.06-0.031,0.091-0.046v0.809h0.719v-8.266h-0.719V62.161z M97.796,65.891
		c-1.665,0.364-2.85-1.239-2.29-2.786c0.275-0.764,0.834-0.936,1.571-1.257C99.861,61.763,100.127,65.38,97.796,65.891z
		 M76.727,65.801c-2.333,0.73-3.737-1.121-4.043-2.83c-0.343-1.925,0.987-3.298,2.247-3.683c1.183-0.363,2.643,0.075,3.01,0.942
		c0.209-0.149,0.419-0.299,0.629-0.449l0.045-0.09c-0.774-0.833-1.551-1.253-3.234-1.214c-1.11,0.456-1.942,0.537-2.606,1.394
		c-1.316,1.698-0.936,4.752,0.584,5.93c1.535,1.188,4.524,0.997,5.436-0.629c-0.165-0.12-0.33-0.239-0.494-0.358
		C78.102,64.728,77.181,65.658,76.727,65.801z M108.802,65.845c-2.315,0.643-3.613-1.228-3.907-2.874
		c-0.332-1.859,0.938-3.223,2.111-3.641c1.22-0.433,2.777,0.031,3.145,0.898c0.194-0.134,0.389-0.27,0.584-0.403
		c0.258-0.794-1.909-1.392-3.056-1.35c-1.167,0.46-2.008,0.508-2.694,1.394c-1.332,1.719-0.925,4.815,0.629,5.976
		c1.355,1.011,4.842,1.111,5.39-0.719c-0.164-0.105-0.328-0.21-0.494-0.315C110.438,64.781,109.292,65.709,108.802,65.845z
		 M34.723,58.657c-1.123,2.576-2.247,5.152-3.369,7.728h0.854c0.27-0.674,0.539-1.349,0.809-2.021h3.999
		c0.367,0.365,0.752,1.464,0.854,2.021h0.898c-1.078-2.575-2.156-5.151-3.234-7.728H34.723z M33.375,63.644
		c0.569-1.362,1.139-2.725,1.707-4.087c0.569,1.362,1.138,2.725,1.707,4.087H33.375z M42.944,58.928
		c-0.15-0.016-0.3-0.03-0.449-0.046c-0.15,0.141-0.222,0.142-0.27,0.405c-0.089,0.234,0.064,0.451,0.27,0.539
		c0.164,0.079,0.375,0.04,0.494-0.046c0.142-0.081,0.151-0.126,0.225-0.271c-0.03-0.164-0.06-0.328-0.09-0.493
		C43.064,58.987,43.004,58.957,42.944,58.928z M144.383,58.882c-0.233,0.194-0.327,0.262-0.315,0.719
		c0.136,0.104,0.27,0.21,0.404,0.315C145.289,59.913,145.293,58.815,144.383,58.882z M142.989,65.755
		c-0.573,0.121-0.9,0.225-1.347-0.088c-0.247-1.007-0.1-2.52-0.091-3.685h1.438v-0.629h-1.438v-1.438h-0.719v1.438h-1.078v0.629
		h1.078c-0.045,1.902-0.425,5.777,2.111,4.403c0.104-0.104,0.108-0.205,0.046-0.359L142.989,65.755L142.989,65.755z M52.737,61.263
		c-0.458,0.113-0.796,0.368-1.168,0.539c-0.079,0.256,0.088,0.356,0.27,0.585c1.042-0.351,3.043-1.331,2.965,0.943
		c-1.651-0.054-3.91,0.065-3.549,1.932c0.245,1.267,2.811,1.889,3.415,0.539c0.045-0.029,0.09-0.061,0.134-0.09
		c0.016,0.21,0.03,0.419,0.045,0.629c0.225,0.016,0.45,0.03,0.673,0.046C55.476,63.889,55.954,60.478,52.737,61.263z M51.973,65.172
		c0.031-0.18,0.06-0.358,0.09-0.539c0.343-0.744,1.623-0.803,2.74-0.764C54.882,65.783,52.7,66.771,51.973,65.172z M65.001,61.263
		c-0.505,0.125-0.851,0.437-1.258,0.629c0.12,0.165,0.24,0.33,0.359,0.495c1.043-0.33,3.046-1.349,2.965,0.943
		c-1.692-0.05-4.001,0.065-3.504,2.112c0.411,1.689,2.629,1.111,3.504,0.269v-0.09c0.03,0.255,0.06,0.51,0.09,0.765h0.673
		C67.241,64.102,68.729,60.338,65.001,61.263z M64.328,65.396c-0.755-1.313,1.621-1.579,2.74-1.526
		C67.153,65.723,65.084,66.714,64.328,65.396z M84.454,61.219c-1.072,0.444-1.802,0.661-2.157,1.796
		c-0.665,2.126,1.106,4.064,3.324,3.46C88.5,65.689,88.18,61.114,84.454,61.219z M85.262,65.891
		c-1.575,0.339-2.737-1.12-2.291-2.649c0.245-0.843,0.811-1.054,1.572-1.394C87.389,61.758,87.533,65.401,85.262,65.891z
		 M114.104,61.219c-1.048,0.434-1.765,0.602-2.157,1.662c-0.783,2.127,0.968,4.092,3.102,3.639
		C118.075,65.875,117.875,61.114,114.104,61.219z M114.911,65.891c-1.593,0.348-2.798-1.102-2.335-2.649
		c0.259-0.869,0.826-1.042,1.616-1.394C116.963,61.771,117.128,65.406,114.911,65.891z M122.504,62.252l-0.539-0.764
		c-0.862-0.597-2.342-0.151-2.65,0.629l-0.089,0.044c-0.017-0.27-0.029-0.539-0.045-0.809h-0.675
		c0.016,1.691,0.03,3.385,0.047,5.077h0.673c-0.044-1.861-0.223-5.085,1.931-4.582c1.197,0.279,0.846,3.1,0.811,4.582h0.718
		c-0.043-1.831-0.448-4.984,1.707-4.582c1.435,0.267,1.076,2.888,1.033,4.582h0.675c0.03-1.422,0.27-3.729-0.358-4.582
		C125.011,60.858,122.86,61.099,122.504,62.252z M129.558,61.309c-0.544,0.167-0.841,0.523-1.213,0.852v-0.808h-0.675v7.547h0.675
		v-3.324h0.044c0.867,2.018,4.233,0.801,4.627-1.167C133.44,62.285,131.56,60.692,129.558,61.309z M130.814,65.891
		c-1.436,0.328-2.921-0.984-2.47-2.517c0.273-0.935,0.898-1.155,1.752-1.526C132.848,61.768,133.025,65.384,130.814,65.891z
		 M149.729,61.309c-0.466-0.123-1.088-0.104-1.482,0.089c-0.354,0.172-0.563,0.442-0.81,0.719v0.089
		c-0.029-0.283-0.06-0.568-0.089-0.853h-0.675c0.016,1.691,0.029,3.383,0.045,5.076h0.674c-0.044-1.943-0.291-4.983,1.933-4.583
		c1.454,0.263,1.073,2.884,1.032,4.583h0.719C151.119,64.256,151.471,61.765,149.729,61.309z M157.814,61.353h-0.673v0.765
		c-1.572-1.483-4.118-0.965-4.584,1.213c-0.578,2.709,3.589,4.216,4.493,2.246c0.029-0.016,0.06-0.029,0.091-0.045
		c0.034,1.24-0.119,2.151-0.854,2.605c-0.966,0.597-2.682,0.145-3.055-0.674c-1.883,0.486,1.789,2.202,3.368,1.258
		C158.302,67.704,157.863,64.053,157.814,61.353z M155.389,65.801c-1.317,0.227-2.454-1.157-2.111-2.471
		c0.238-0.909,0.891-1.128,1.706-1.482C157.705,61.788,157.749,65.395,155.389,65.801z M42.36,66.385h0.674
		c0.015-1.677,0.03-3.354,0.045-5.032H42.36V66.385z M92.54,61.353c0.046,1.969,0.341,5.114-2.065,4.538
		c-1.27-0.304-0.938-2.962-0.899-4.538h-0.674c-0.043,2.189-0.437,4.726,1.394,5.122c0.422,0.091,1.066,0.063,1.393-0.09
		c0.372-0.178,0.596-0.475,0.853-0.764c0.016,0.27,0.03,0.539,0.045,0.809h0.718c-0.014-1.692-0.029-3.384-0.043-5.077H92.54z
		 M138.048,61.353c0.044,1.957,0.307,4.828-1.797,4.583c-1.613-0.189-1.21-2.807-1.168-4.583h-0.674
		c-0.029,1.378-0.276,3.676,0.314,4.538c0.646,0.943,2.807,0.847,3.233-0.224l0.091-0.046c0.016,0.27,0.029,0.539,0.045,0.809h0.674
		c-0.016-1.692-0.03-3.384-0.046-5.077H138.048z M144.203,66.43h0.718v-5.077h-0.718V66.43z"/>
</g>
</svg>
