<?xml version="1.0" encoding="utf-8"?>
<!-- Generator: Adobe Illustrator 16.0.0, SVG Export Plug-In . SVG Version: 6.00 Build 0)  -->
<!DOCTYPE svg PUBLIC "-//W3C//DTD SVG 1.1 Tiny//EN" "http://www.w3.org/Graphics/SVG/1.1/DTD/svg11-tiny.dtd">
<svg version="1.1" baseProfile="tiny" id="图层_1"
	 xmlns="http://www.w3.org/2000/svg" xmlns:xlink="http://www.w3.org/1999/xlink" x="0px" y="0px" width="180px" height="70px"
	 viewBox="0 0 180 70" xml:space="preserve">
<g>
	<path fill-rule="evenodd" fill="#306AB3" d="M103.533,25.6c-0.821,0.127-1.394,0.551-2.219,0.646v0.093h-0.092v3.327H95.77
		c-0.037-2.318-0.096-5.58,2.588-4.99c0.41,0.09,0.762,0.296,1.201,0.369V22.92c-5.083-0.687-6.186,1.645-6.1,6.746h-2.402v2.033
		h2.402v11.922h2.311V31.699h5.453c-0.031,2.711-0.43,8.891,0.462,10.628c0.337,0.657,0.851,0.989,1.571,1.294
		c0.813,0.343,2.711,0.623,3.512,0c0.093-0.031,0.185-0.062,0.277-0.093v-2.033c-0.56,0.292-1.906,0.828-2.588,0.185
		c-0.786-0.283-0.629-0.945-0.832-1.848c-0.173-0.769-0.092-1.942-0.092-2.865v-5.268h3.512v-2.033h-3.512V25.6z M26.734,23.289
		c-0.353,0.343-0.674,0.664-1.017,1.017c-0.015,1.145,0.281,1.268,0.739,1.849c0.475,0.069,1.129,0.19,1.479-0.093
		c0.686-0.228,0.782-0.888,0.739-1.849c-0.237-0.239-0.542-0.57-0.739-0.831C27.535,23.351,27.135,23.32,26.734,23.289z
		 M18.694,25.229c-0.382,0.866-0.79,1.747-1.202,2.681c-1.213,2.748-2.667,5.568-3.881,8.317c-0.471,1.066-0.828,2.707-1.479,3.604
		v0.092c-0.323-0.408-0.333-1.062-0.554-1.57c-0.511-1.176-1.026-2.369-1.571-3.604c-1.002-2.274-2.013-4.589-3.05-6.932
		c-0.51-1.152-1.367-2.407-1.664-3.696H2.151v19.5h2.311C4.46,38.2,4.586,32.529,4.37,27.263c0.185,0.586,0.37,1.171,0.554,1.756
		c0.621,1.422,1.286,2.86,1.941,4.344c1.021,2.312,2.086,4.646,3.142,7.024c0.449,1.01,1.216,2.089,1.479,3.234h1.293
		c0.208-0.148,1.154-2.86,1.386-3.327c1.308-2.634,2.389-5.386,3.604-8.133c0.613-1.386,1.783-2.932,1.941-4.621
		c0.271,0.438,0,3.44,0,4.344v11.737h2.403v-19.5h-2.958C18.886,24.27,18.831,24.921,18.694,25.229z M120.353,24.121
		c-0.239,0.176-0.244,0.9-0.369,1.201c-0.477,1.147-0.875,2.395-1.387,3.604c-1.425,3.368-2.662,6.978-4.066,10.351
		c-0.521,1.255-0.817,3.139-1.571,4.158v0.186h2.588c0.306-0.165,0.318-1.037,0.462-1.387c0.47-1.142,1.248-2.553,1.387-3.881
		c0.1-0.085,0.009,0.008,0.093-0.093h8.225c0.326,1.893,1.55,3.479,1.94,5.36h2.681c-2.495-6.5-4.991-13.001-7.486-19.5H120.353z
		 M124.881,35.95v0.093h-6.562c0.3-1.182,0.854-2.347,1.294-3.42c0.784-1.909,1.295-3.745,1.94-5.729
		c0.396,0.566,0.38,1.474,0.647,2.125c0.682,1.664,1.35,3.513,2.033,5.176C124.483,34.802,124.493,35.494,124.881,35.95z
		 M36.9,29.389c-0.473,0.299-1.243,0.242-1.756,0.462c-1.666,0.714-2.993,2.116-3.697,3.789c-0.233,0.554-0.331,1.272-0.462,1.849
		c-0.215,0.941-0.103,2.068,0.093,2.865c0.827,3.372,2.236,4.863,5.637,5.637c1.946,0.443,3.485-0.586,4.713-0.924v-2.218
		c-0.747,0.221-1.344,0.778-2.125,1.017c-3.298,1.004-5.363-1.495-5.915-3.697c-0.778-3.103,1.038-5.762,2.957-6.562
		c1.598-0.665,4.107-0.092,4.991,0.832h0.092c0.007-0.778,0.116-1.878-0.092-2.495C39.888,29.591,38.934,29.354,36.9,29.389z
		 M64.256,32.346c-1.368-2.229-3.302-3.009-7.024-2.957c-0.497,0.313-1.305,0.234-1.848,0.462c-1.512,0.634-2.782,2.003-3.419,3.512
		c-0.222,0.526-0.333,1.215-0.462,1.756c-0.895,3.741,1.294,7.125,3.419,8.226c0.752,0.389,1.443,0.335,2.403,0.555
		c0.659,0.15,1.785,0.177,2.496,0c3.512-0.874,6.283-4.197,5.175-8.965C64.756,33.905,64.725,33.111,64.256,32.346z M61.76,40.571
		c-0.48,0.667-1.498,1.157-2.403,1.386c-4.1,1.036-6.468-3.569-5.36-7.301c0.402-1.354,1.343-2.531,2.587-3.05
		c0.372-0.154,0.879-0.078,1.202-0.277c2.37-0.038,3.838,0.799,4.528,2.403C63.184,35.752,62.807,39.116,61.76,40.571z
		 M75.068,38.076c-0.907-1.552-3.928-2.633-5.545-3.604c-0.134-0.485-0.51-1.375-0.185-2.033c0.801-1.622,4.296-1.228,5.36-0.093
		h0.092v-2.402c-1.308-0.319-2.305-0.587-4.159-0.555c-0.23,0.15-0.525,0.074-0.832,0.185c-0.721,0.261-1.54,0.777-2.033,1.294
		c-0.397,0.416-0.526,0.856-0.739,1.479c-1.203,3.505,2.192,4.708,4.159,5.73c0.494,0.257,1.146,0.423,1.479,0.831
		c0.344,0.423,0.362,0.982,0.37,1.756c-0.228,0.234-0.479,0.654-0.647,0.925c-2.081,0.552-4.188,0.429-5.453-0.925h-0.092v2.496
		c0.178,0.33,1.444,0.517,1.941,0.646c2.597,0.678,5.221-0.371,6.192-1.94c0.366-0.592,0.559-1.665,0.37-2.495
		C75.225,38.837,75.301,38.474,75.068,38.076z M89.485,32.161c-1.315-2.136-3.363-2.822-6.931-2.772
		c-0.552,0.349-1.444,0.298-2.033,0.555c-1.438,0.627-2.633,2.041-3.234,3.512c-2.218,5.421,1.683,11.94,7.855,10.443
		c2.472-0.6,4.17-2.106,4.99-4.344c0.222-0.605,0.121-1.07,0.277-1.756c0.226-0.986,0.159-2.595-0.092-3.512
		C90.126,33.591,89.848,32.75,89.485,32.161z M84.68,41.957c-4.056,1.018-6.441-3.549-5.36-7.208c0.381-1.29,1.243-2.54,2.403-3.05
		c0.414-0.183,1.005-0.134,1.386-0.37c2.509-0.04,3.896,0.875,4.621,2.588c0.321,0.757,0.37,1.635,0.37,2.68
		C88.1,39.643,87.094,41.352,84.68,41.957z M169.611,37.244h9.796c0.037-3.587-0.659-5.992-2.865-7.301
		c-0.529-0.314-1.07-0.291-1.756-0.462c-3.175-0.792-5.501,1.242-6.562,2.957c-0.435,0.702-0.714,1.724-0.924,2.588
		c-0.194,0.795-0.165,2.11,0,2.864c0.133,0.61,0.015,1.037,0.185,1.571c0.765,2.399,2.019,3.648,4.528,4.344
		c0.585,0.162,1.763,0.363,2.588,0.185c0.503-0.109,1.119-0.115,1.663-0.277c0.772-0.229,1.463-0.677,2.126-1.017v-2.218
		c-0.896,0.468-1.69,1.06-2.772,1.387C172.043,42.943,169.569,40.275,169.611,37.244z M172.106,31.606
		c2.854-1.226,4.936,0.987,4.897,3.697h-7.393C170.152,33.698,170.632,32.239,172.106,31.606z M49.099,29.481
		c-1.243,0.308-2.588,1.518-2.772,2.864c-0.31-0.479-0.107-1.992-0.092-2.68h-2.311v13.955h2.311
		c-0.045-3.948-0.467-8.619,1.202-10.905c0.557-0.764,2.692-1.885,3.696-0.647h0.093v-2.495
		C50.668,29.524,49.769,29.315,49.099,29.481z M164.897,29.481c-1.261,0.313-2.585,1.496-2.772,2.864
		c-0.31-0.479-0.107-1.992-0.092-2.68h-2.311v13.955h2.311c-0.044-3.851-0.576-9.071,1.294-11.09c0.61-0.66,2.676-1.605,3.604-0.463
		h0.093v-2.495C166.466,29.524,165.567,29.315,164.897,29.481z M25.995,43.621h2.311V29.666h-2.311V43.621z M131.997,31.699h7.301
		c-0.64,1.053-1.521,1.968-2.218,2.957c-1.224,1.738-2.378,3.438-3.604,5.176c-0.654,0.928-1.859,1.911-2.218,3.05
		c-0.105,0.154-0.101,0.453-0.092,0.739h11.552V41.68h-8.04c0.406-1.138,1.551-2.103,2.218-3.05
		c1.377-1.955,2.688-3.868,4.066-5.822c0.522-0.739,1.453-1.496,1.756-2.402c0.105-0.154,0.101-0.454,0.093-0.739h-10.813V31.699z
		 M153.715,36.043c0,1.004,0.161,2.291-0.092,3.142c-0.234,0.789-0.688,1.341-1.201,1.849c-0.578,0.57-1.708,1.28-3.143,0.924
		c-0.796-0.197-1.566-0.762-1.94-1.386c-0.982-1.638-0.589-8.144-0.555-10.905h-2.311c-0.022,3.363-0.494,10.177,0.739,12.199
		c0.78,1.278,1.702,1.629,3.42,2.033c0.827,0.194,2.077,0.101,2.772-0.186c0.995-0.409,1.449-1.247,2.218-1.848V41.68h0.092v1.941
		h2.403V29.666h-2.403V36.043z"/>
</g>
<g>
</g>
<g>
</g>
<g>
</g>
<g>
</g>
<g>
</g>
<g>
</g>
</svg>
