<?xml version="1.0" ?><!DOCTYPE svg  PUBLIC '-//W3C//DTD SVG 1.1//EN'  'http://www.w3.org/Graphics/SVG/1.1/DTD/svg11.dtd'><svg style="enable-background:new 0 0 500 500;" version="1.1" viewBox="0 0 500 500" xml:space="preserve" xmlns="http://www.w3.org/2000/svg" xmlns:xlink="http://www.w3.org/1999/xlink"><g id="internet-network"><g><circle cx="250" cy="250" r="250" style="fill:#F4F1F0;"/><g id="_x31_3"><path d="M250.021,118.047c-61.393,0-111.133,49.764-111.133,111.146     c0,61.361,49.74,111.122,111.133,111.122c61.35,0,111.09-49.761,111.09-111.122C361.111,167.812,311.371,118.047,250.021,118.047     z M238.544,153.521h5.401v-6.418h-3.727h-1.015v-16.531h6.76v-8.458l0.388-0.893c1.193-0.046,2.406-0.122,3.67-0.122     c5.38,0,10.688,0.418,15.864,1.196v5.561h7.764v8.781v12.327h-5.903l-5.105,5.072l-12.288,12.337l-6.407,6.419l-5.401-5.404     V153.521z M217.792,126.036l2.002,1.994l-3.556,3.556h-6.077v6.049h8.456h4.362v28.044h-9.787v-20.274h-6.774v-9.771h-4.378     v5.724l-4.213,4.232h-9.955l-2.753-2.751C194.849,135.498,205.87,129.752,217.792,126.036z M253.062,282.883h-9.117l-4.742,6.771     v15.18l-13.859,10.135v18.234l-15.533-14.154v-37.196l-16.56-15.527v-18.892l-11.456-8.441h-10.162l-7.243-7.287v-9.961     l-4.885-3.022l-1.381,3.711l2.384,1.346v8.463l-6.082-7.438l-3.036-11.844l-2.726-0.673V191.65     c5.428-14.551,13.854-27.637,24.598-38.444l33.827,0.315l-1.315,7.107l-10.148,0.651l1.009,3.38l2.382,2.729l-2.726,4.368     l-8.092-0.982l4.736,6.413l8.073,5.718l2.726,6.423l3.355-1.009v-16.563h9.148v2.045h9.456v11.485h-4.053v4.715h-4.058v3.049     h5.732l-3.697,3.706l-1.53-1.514l-3.567,3.526v3.054l-3.19,3.206l-4.034,4.058l-4.758,4.731l-3.179,3.223v10.129h-4.433v-5.425     h-14.491v6.115l14.187,13.498h28.356v2.691h10.143l11.154,14.182h8.786V282.883z M339.171,220.047v8.805h-14.513l-7.118-7.107     v-4.704h-4.193v6.586l9.613,9.614h10.986v7.932l-9.988,9.967v14.54v13.492h-7.573v14.361l-5.914,5.892h-13.905v-12.761     l-7.503-7.492v-23.497l-9.337-9.337h-19.52l-7.669-7.677V219.2l6.611-6.543h11.11l7.107-7.107h3.722h4.742v3.722h25.977v-4.563     h-6.554l3.868-3.89l3.728-3.7h6.374l-4.02-4.037h-6.044l-6.375,6.391v4.97l-6.819-6.836h-4.243l6.239,6.255h-5.051l-4.063-4.064     v-2.713l-6.082-6.087l-4.547,4.568l-3.884,3.906v7.069h-7.786v-3.337v-10.829h2.859v-2.539l1.861-1.872l-3.342-3.369     l-4.417,4.395l-3.554-3.56l1.893-1.844v-3.364v-6.771h7.08v4.058l6.039,6.077h4.438v-4.742h13.504v-4.72h5.388v-6.738h-5.725     v-6.423h-3.043v12.836l-2.371,2.366l-4.726-2.04l-8.1-2.029l0.635-7.737l8.148-6.093l4.709-8.111l8.8-2.034l-1.02,4.053     l5.734,1.003l-0.331,4.058l6.413-0.673l3.049-2.018l0.662-3.38h13.542c20.54,19.666,33.388,47.374,33.388,78.027     c0,1.649-0.038,3.266-0.125,4.921l-23.497-23.497l-2.371,2.344L339.171,220.047z" id="icon_1_" style="fill:#675F58;"/><g><g><rect height="18.382" style="fill:#FF931E;" width="81.483" x="209.261" y="363.568"/><rect height="27.582" style="fill:#FF931E;" width="11.041" x="244.48" y="344.569"/></g><g><rect height="6.065" style="fill:#FF931E;" width="65.324" x="138.889" y="369.325"/><rect height="6.065" style="fill:#FF931E;" width="65.311" x="295.801" y="369.325"/></g></g></g></g></g><g id="Layer_1"/></svg>