<?xml version="1.0" ?><!DOCTYPE svg  PUBLIC '-//W3C//DTD SVG 1.1//EN'  'http://www.w3.org/Graphics/SVG/1.1/DTD/svg11.dtd'><svg style="enable-background:new 0 0 499.997 500.002;" version="1.1" viewBox="0 0 499.997 500.002" xml:space="preserve" xmlns="http://www.w3.org/2000/svg" xmlns:xlink="http://www.w3.org/1999/xlink"><g id="hard-disk-hdd"><g><path d="M250.001,0C111.93,0,0,111.939,0,249.996c0,138.076,111.93,250.006,250.001,250.006    c138.066,0,249.996-111.93,249.996-250.006C499.997,111.939,388.067,0,250.001,0z" style="fill:#DFC97A;"/><g id="_x32_1"><g><path d="M349.318,169.335c0-13.806-11.183-24.992-24.992-24.992H175.69      c-13.823,0-25.016,11.186-25.016,24.992c0,13.796,11.193,25.002,25.016,25.002h148.637      C338.135,194.337,349.318,183.131,349.318,169.335z" style="fill:#FFFFFF;"/><path d="M349.318,229.603c0-13.815-11.183-24.982-24.992-24.982H175.69      c-13.823,0-25.016,11.167-25.016,24.982c0,13.796,11.193,24.982,25.016,24.982h148.637      C338.135,254.585,349.318,243.399,349.318,229.603z" style="fill:#FFFFFF;"/><path d="M349.318,289.861c0-13.796-11.183-24.992-24.992-24.992H175.69      c-13.823,0-25.016,11.196-25.016,24.992c0,13.816,11.193,24.982,25.016,24.982h148.637      C338.135,314.843,349.318,303.676,349.318,289.861z" style="fill:#FFFFFF;"/><path d="M187.517,229.603c0,4.725-3.83,8.547-8.562,8.547c-4.711,0-8.557-3.822-8.557-8.547      c0-4.724,3.847-8.557,8.557-8.557C183.687,221.046,187.517,224.878,187.517,229.603z" style="fill:#DFC97A;"/><path d="M187.517,289.861c0,4.734-3.83,8.547-8.562,8.547c-4.711,0-8.557-3.813-8.557-8.547      c0-4.725,3.847-8.547,8.557-8.547C183.687,281.314,187.517,285.136,187.517,289.861z" style="fill:#7DBEBD;"/><path d="M187.517,169.335c0,4.725-3.83,8.547-8.562,8.547c-4.711,0-8.557-3.822-8.557-8.547      c0-4.724,3.847-8.557,8.557-8.557C183.687,160.778,187.517,164.611,187.517,169.335z" style="fill:#E5E6E7;"/></g><g><rect height="6.093" style="fill:#EFEFF0;" width="65.708" x="296.053" y="342.968"/><rect height="6.093" style="fill:#EFEFF0;" width="65.713" x="138.231" y="342.968"/><polygon points="244.456,318.074 255.55,318.074 255.55,337.167 290.986,337.167 290.986,355.668       209.026,355.668 209.026,337.167 244.456,337.167     " style="fill:#656D78;"/></g></g></g></g><g id="Layer_1"/></svg>