<?xml version="1.0" encoding="utf-8"?>
<!-- Generator: Adobe Illustrator 16.0.0, SVG Export Plug-In . SVG Version: 6.00 Build 0)  -->
<!DOCTYPE svg PUBLIC "-//W3C//DTD SVG 1.1 Tiny//EN" "http://www.w3.org/Graphics/SVG/1.1/DTD/svg11-tiny.dtd">
<svg version="1.1" baseProfile="tiny" id="图层_1"
	 xmlns="http://www.w3.org/2000/svg" xmlns:xlink="http://www.w3.org/1999/xlink" x="0px" y="0px" width="180px" height="70px"
	 viewBox="0 0 180 70" xml:space="preserve">
<g>
	<path fill-rule="evenodd" fill="#306AB3" d="M46.765,26.534c-1.176-3.648-3.382-7.488-6.886-8.798
		c-0.84-0.314-1.833-0.293-2.964-0.287c-0.492,0.361-1.301,0.353-1.817,0.669c-1.118,0.687-2.178,1.964-2.582,3.348
		c-1.17,4.006,3.728,7.096,6.407,4.494h0.096c-0.449,0.858-1.13,1.663-1.53,2.582c-0.607,1.396-0.867,2.971-1.243,4.591
		c-0.064,1.275-0.127,2.551-0.191,3.825c0.11,0.511,0.353,1.858,0.096,2.296c-0.19,0.522-0.797,0.564-1.147,0.19
		c-0.478-0.642-0.073-1.717-0.287-2.678c-0.636-2.862,1.271-5.612,0-7.555c-1.891-2.892-4.837-5.012-8.511-6.12
		c-5.403-1.63-11.589,1.324-13.771,4.208c-0.726,0.959-1.796,1.773-2.2,3.06c-4.76,0.172-7.553,2.69-8.894,6.312
		c-0.537,1.45-0.853,3.97-0.287,5.738c0.321,1.002,0.855,2.153,1.435,2.965c1.051,1.471,2.539,2.183,4.112,3.155
		c5.358,3.314,18.178,5.324,26.395,3.061c7.888-2.173,12.141-5.909,14.249-13.866c0.405-1.528,0.691-5.736,0.287-7.556
		C47.275,28.957,47.02,27.745,46.765,26.534z M130.156,26.534v20.179h3.635V32.846c0-1.585,0.313-5.065-0.096-6.312H130.156z
		 M179.12,45.087V32.272c0-1.573,0.333-4.437-0.096-5.738c-1.073-0.008-2.647-0.203-3.538,0.096v7.555h-0.096
		c-0.534-1.528-3.853-2.046-5.738-1.339c-2.397,0.899-3.365,2.832-4.016,5.547c-0.126,0.521-0.343,1.398-0.191,2.104
		c0.263,1.228,0.357,2.368,0.86,3.348c1.069,2.082,4.118,4.136,7.363,2.773c0.905-0.38,1.378-1.192,2.104-1.722v-0.191h0.096
		c0.031,0.67,0.063,1.339,0.096,2.009h3.251C179.229,46.241,179.318,45.389,179.12,45.087z M175.486,39.444
		c0,2.363-0.187,3.508-1.722,4.304c-0.241,0.126-0.867,0.416-1.243,0.383c-2.941-0.259-4.301-3.717-2.964-6.79
		c0.324-0.748,1.056-1.5,1.816-1.817c0.269-0.111,0.641-0.057,0.86-0.191c1.813,0.008,2.857,0.982,3.252,2.392V39.444z
		 M86.835,31.029c0.436-0.227,2.048-0.981,2.582-0.67c1.095-0.071,3.438-0.039,4.208,0.67c0.342-0.192,0.857-2.335,0.956-2.869
		c-1.576-0.671-3.481-0.908-5.833-0.86c-0.599,0.367-2.07,0.292-2.773,0.573c-2.199,0.881-3.903,2.293-5.068,4.208
		c-0.592,0.972-0.862,2.301-1.147,3.538c-0.333,1.441-0.051,3.367,0.286,4.495c1.203,4.018,3.313,5.821,7.556,6.79
		c2.396,0.546,4.859-0.407,6.694-0.67c0.087-0.103-0.009-0.009,0.095-0.096c-0.045-0.591-0.303-2.268-0.573-2.678V43.27
		c-0.764,0.205-1.621,0.472-2.486,0.67c-0.71,0.162-2.022,0.041-2.582-0.096c-3.228-0.788-4.507-2.126-5.26-5.355
		c-0.166-0.713-0.035-2.018,0.096-2.582C84.176,33.34,84.79,32.093,86.835,31.029z M121.358,30.742
		c0.609-0.247,1.933-0.668,2.869-0.479c0.955,0.193,2.348,0.503,3.347,0.766c0.286-0.758,0.302-1.956,0.766-2.582
		c-0.237-1.059-4.202-1.2-5.834-1.147c-0.21,0.13-0.541,0.016-0.86,0.095c-0.797,0.224-1.595,0.447-2.391,0.67
		c-3.026,1.286-4.777,3.698-5.643,7.172c-0.236,0.947-0.209,2.709,0,3.635c0.166,0.735,0.071,1.258,0.287,1.912
		c1.104,3.354,3.328,4.97,6.885,5.93c1.649,0.444,5.916,0.429,7.077-0.479c0.096-0.031,0.191-0.063,0.287-0.096
		c-0.028-0.653-0.282-2.354-0.574-2.773c-0.136-0.055-1.978,0.458-2.486,0.574c-3.019,0.688-5.96-1.194-6.885-2.678
		c-0.408-0.653-0.657-1.584-0.861-2.391c-0.188-0.743-0.156-1.975,0-2.678C118.071,32.915,118.489,31.907,121.358,30.742z
		 M61.779,27.873v18.744c1.647,0.322,4.334,0.571,6.121,0.191c1.343-0.286,2.392-0.109,3.539-0.479
		c3.392-1.091,5.264-3.034,6.312-6.503c0.648-2.147,0.518-5.695-0.383-7.459C74.81,27.354,68.919,26.984,61.779,27.873z
		 M72.395,42.409c-1.754,1.334-3.952,1.647-6.981,1.53V30.455c3.042-0.232,6.239-0.064,7.746,2.008
		C74.967,34.948,74.714,40.645,72.395,42.409z M55.85,27.586v19.127c1.101,0.008,2.718,0.211,3.634-0.096V33.516
		c0-1.502,0.292-4.75-0.096-5.93H55.85z M96.303,27.586v19.127h3.538V38.68h6.981v-2.965h-4.781c-0.704,0-1.654,0.085-2.2-0.096
		v-5.068h7.556c0.008-0.912,0.153-2.226-0.096-2.965H96.303z M148.805,35.715c-1.333-2.17-3.382-3.209-6.981-3.155
		c-0.657,0.414-1.697,0.355-2.391,0.669c-1.5,0.679-2.76,2.232-3.347,3.825c-1.993,5.402,2.358,11.31,8.129,9.851
		c2.67-0.676,4.44-2.263,5.26-4.782c0.179-0.552,0.05-0.996,0.19-1.626c0.185-0.821,0.135-2.058-0.095-2.868
		C149.406,37.051,149.119,36.226,148.805,35.715z M142.876,44.417c-2.479,0.397-4.088-3.47-3.348-6.12
		c0.297-1.061,0.787-2.153,1.626-2.678c0.293-0.183,0.678-0.191,0.956-0.383C147.5,35.117,147.105,43.74,142.876,44.417z
		 M163.819,36.958c0-1.243,0.251-3.06-0.096-4.112c-1.074-0.008-2.647-0.203-3.538,0.096v6.121c0,0.964,0.165,2.26-0.096,3.06
		c-0.163,0.5-0.526,0.817-0.861,1.147c-0.69,0.683-2.504,1.2-3.442,0.287c-0.547-0.532-0.437-1.42-0.861-2.104v-5.834
		c0-0.865,0.136-2.076-0.095-2.773c-1.074-0.008-2.647-0.203-3.539,0.096c-0.032,5.456-0.92,11.708,2.773,13.58
		c0.872,0.442,2.626,0.716,3.825,0.287c1.283-0.459,1.669-1.258,2.582-1.913v-0.191h0.096c0.064,0.67,0.128,1.339,0.191,2.009h3.156
		c-0.018-0.333-0.058-0.67-0.096-0.766V36.958z"/>
</g>
<g>
</g>
<g>
</g>
<g>
</g>
<g>
</g>
<g>
</g>
<g>
</g>
</svg>
