<?xml version="1.0" encoding="utf-8"?>
<!-- Generator: Adobe Illustrator 16.0.0, SVG Export Plug-In . SVG Version: 6.00 Build 0)  -->
<!DOCTYPE svg PUBLIC "-//W3C//DTD SVG 1.1 Tiny//EN" "http://www.w3.org/Graphics/SVG/1.1/DTD/svg11-tiny.dtd">
<svg version="1.1" baseProfile="tiny" id="图层_1"
	 xmlns="http://www.w3.org/2000/svg" xmlns:xlink="http://www.w3.org/1999/xlink" x="0px" y="0px" width="180px" height="70px"
	 viewBox="0 0 180 70" xml:space="preserve">
<g>
	<path fill-rule="evenodd" fill="#306AB3" d="M42.981,31.56c-0.052,1.395-0.107,2.791-0.161,4.186
		c-1.02-0.67-2.039-1.341-3.058-2.012c-1.728,0.298-3.187,1.913-4.67,2.656c-0.08-1.528-0.161-3.059-0.241-4.587
		c-1.503-0.993-3.005-1.986-4.509-2.979c-0.026-0.054-0.054-0.107-0.08-0.161c1.369-0.697,2.737-1.395,4.106-2.092
		c0.625-1.093,0.099-3.504,0.08-4.992C34.26,17.419,34.073,13.26,33.885,9.1c-1.314-0.644-2.629-1.288-3.944-1.931
		c-2.069-0.915-5.992-3.593-8.131-3.865C17.759,4.592,13.706,5.88,9.654,7.169c-1.319,0.416-2.78,0.634-3.864,1.288
		c1.18,5.795,2.362,11.593,3.542,17.388c1.609,1.261,3.22,2.522,4.83,3.783c-1.207,0.591-2.414,1.182-3.622,1.771
		c0.912,4.427,1.824,8.856,2.737,13.283c1.02,0.912,2.039,1.825,3.058,2.737c0.081,0.107,0.161,0.214,0.242,0.321
		c-0.698,0.403-1.395,0.805-2.094,1.208c-0.654,1.178,0.566,4.342,0.886,5.716c0.296,1.556,0.59,3.112,0.886,4.668
		c1.663,1.771,3.327,3.543,4.99,5.313c0.711,0.881,2.812,3.585,3.864,3.864c3.649-2.898,7.3-5.797,10.949-8.693
		c-0.081-1.959-0.162-3.919-0.242-5.878h0.08c1.128,0.967,2.254,1.933,3.381,2.898c1.245-0.089,1.875-1.172,2.657-1.771l6.52-5.232
		c0.107-1.45,0.215-2.898,0.322-4.348c0.886,0.617,1.772,1.234,2.656,1.852c1.262-0.245,2.301-1.71,3.22-2.414l4.267-3.302
		c0.403-3.219,0.805-6.44,1.208-9.659c-3.032-1.69-6.064-3.381-9.096-5.071C49.122,27.112,44.935,30.591,42.981,31.56z
		 M33.966,32.768c0.278,0.595,0.039,1.525,0.161,2.334c0.134,3.167,0.269,6.333,0.403,9.5c-3.811,2.549-7.622,5.098-11.432,7.646
		c-0.59-4.051-1.18-8.104-1.771-12.155C25.539,37.651,29.754,35.209,33.966,32.768z M33,9.905
		c0.268,5.286,0.537,10.574,0.805,15.859c-4.481,2.362-8.963,4.723-13.443,7.084H20.28c-0.832-5.688-1.663-11.377-2.495-17.065
		C22.855,13.824,27.928,11.864,33,9.905z M10.137,25.281C9.064,20.076,7.99,14.869,6.917,9.664c3.328,2.066,6.655,4.132,9.982,6.198
		c0.778,5.473,1.557,10.949,2.334,16.422C16.202,29.951,13.169,27.615,10.137,25.281z M14.082,44.118
		c-0.778-3.729-1.557-7.46-2.334-11.189c2.843,2.334,5.689,4.669,8.532,7.003c0.59,3.864,1.181,7.729,1.772,11.593
		C19.396,49.056,16.738,46.587,14.082,44.118z M17.142,59.011c-0.537-2.656-1.074-5.313-1.611-7.969
		c2.523,2.441,5.045,4.883,7.567,7.324c0.403,2.737,0.806,5.475,1.208,8.211C21.917,64.056,19.529,61.533,17.142,59.011z
		 M25.594,66.98c-0.081,0.081-0.162,0.161-0.242,0.242c-0.457-2.952-0.912-5.904-1.369-8.856c3.596-2.603,7.191-5.206,10.787-7.809
		c0.135,2.926,0.268,5.851,0.403,8.774C31.981,61.881,28.787,64.432,25.594,66.98z M35.817,52.57l-0.161-3.059
		c-0.939-0.752-1.879-1.503-2.817-2.254c-0.082-0.107-0.161-0.215-0.242-0.322c0.886-0.617,1.771-1.235,2.656-1.852
		c0.181-0.18,0.178-0.416,0.161-0.805c1.208,0.912,2.416,1.824,3.623,2.736c0.026,2.791,0.054,5.582,0.08,8.373
		C38.018,54.449,36.917,53.51,35.817,52.57z M47.731,49.431c-2.575,2.04-5.151,4.079-7.728,6.119
		c-0.026-2.898-0.054-5.797-0.08-8.695c2.736-1.959,5.473-3.917,8.21-5.876C47.999,43.796,47.866,46.614,47.731,49.431z
		 M52.723,37.758c2.12-1.529,4.239-3.059,6.359-4.588c0.317,0.872-0.242,2.643-0.403,3.542c-0.187,1.476-0.375,2.951-0.563,4.428
		c-2.013,1.583-4.026,3.166-6.038,4.749C52.293,43.179,52.508,40.468,52.723,37.758z M51.193,45.97h-0.081
		c-0.751-0.51-1.502-1.021-2.253-1.529c0.107-1.503,0.214-3.006,0.322-4.509c-1.772-1.206-3.542-2.414-5.314-3.622
		c-0.424-0.468-0.106-2.651-0.08-3.542c2.682,1.663,5.366,3.327,8.05,4.99C51.622,40.495,51.408,43.232,51.193,45.97z
		 M77.356,45.406c-0.777-1.754-0.403-5.025-0.403-7.406V22.142c-1.448,0.322-2.898,0.644-4.347,0.966v16.02
		c0,2.323-0.452,5.56,0.161,7.566c0.866,2.84,5.009,2.658,6.198,0.242C78.381,46.412,77.698,46.179,77.356,45.406z M145.299,30.434
		c-6.471-2.03-11.092,0.793-12.479,6.359c-2.198,8.817,5.261,14.857,12.479,10.707v0.966h4.347V22.142
		c-1.45,0.322-2.899,0.644-4.347,0.966V30.434z M145.299,44.037c-4.654,3.409-9.664-1.246-7.891-7.084
		c0.679-2.234,1.951-2.661,4.025-3.542c1.871-0.008,2.548,0.408,3.703,0.886C145.73,35.608,145.313,42.039,145.299,44.037z
		 M85.083,22.867c-3.364,1.677-1.87,6.032,1.369,4.99C89.12,26.999,88.695,22.698,85.083,22.867z M104.323,30.03
		c-1.279-0.404-3.276-0.56-4.75-0.161c-1.231,0.333-2.019,1.03-2.898,1.69c-0.24-0.51-0.482-1.02-0.725-1.53h-3.219v18.436h4.347
		V35.183c0.559-0.521,1.104-1.123,1.852-1.45c1.894-0.827,4.384-0.288,5.151,1.208c1.033,2.011,0.53,10.335,0.483,13.525h4.428
		C109.053,40.558,110.502,31.982,104.323,30.03z M120.503,29.627c-0.671,0.107-1.342,0.216-2.011,0.323
		c-2.565,0.762-4.504,2.637-5.476,4.99c-2.953,7.152,1.83,15.168,9.66,13.846C133.082,47.03,133.02,29.425,120.503,29.627z
		 M121.791,45.245c-4.287,0.822-5.697-4.321-4.749-8.211c0.544-2.233,1.585-2.863,3.461-3.784
		C127.482,33.088,126.849,44.275,121.791,45.245z M161.235,29.627c-0.751,0.135-1.502,0.27-2.253,0.403
		c-2.211,0.692-4.069,2.419-5.152,4.267c-0.348,1.045-0.696,2.092-1.046,3.139c-1.59,8.021,4.449,12.818,12.074,11.189
		c1.431-0.306,2.48-0.968,3.623-1.449c0.305-0.904-1.115-2.536-1.449-3.542c-0.616,0.377-1.232,0.752-1.852,1.128
		c-4.486,1.769-7.094-0.727-7.97-4.187h13.202C171.536,33.725,168.085,29.522,161.235,29.627z M157.453,37.275
		c0.506-5.086,8.815-5.428,8.855,0H157.453z M81.059,33.572h2.334v14.894h4.428V30.03h-6.762V33.572z"/>
</g>
<g>
</g>
<g>
</g>
<g>
</g>
<g>
</g>
<g>
</g>
<g>
</g>
</svg>
