<?xml version="1.0" ?><!DOCTYPE svg  PUBLIC '-//W3C//DTD SVG 1.1//EN'  'http://www.w3.org/Graphics/SVG/1.1/DTD/svg11.dtd'><svg height="100%" style="fill-rule:evenodd;clip-rule:evenodd;stroke-miterlimit:1.41421;" version="1.1" viewBox="0 0 110 110" width="100%" xml:space="preserve" xmlns="http://www.w3.org/2000/svg" xmlns:xlink="http://www.w3.org/1999/xlink"><circle cx="55" cy="55" id="circle6" r="55" style="fill:rgb(37,183,211);"/><g id="g4190"><path d="M78.2675,25.1972C69.6902,22.6565 66.9967,27.4704 55,27.4704C43.0033,27.4704 40.3098,22.6373 31.7325,25.1972C23.1552,27.7379 18.8761,36.7354 14.8263,53.6225C10.7764,70.5287 11.5215,82.7355 16.2972,85.0088C21.073,87.2821 26.46,82.0669 31.5988,75.6292C35.7632,70.586 37.8455,70.2612 55,70.2612C72.1354,70.2612 73.912,70.395 78.4012,75.6292C83.54,82.0669 88.927,87.2821 93.7028,85.0088C98.4785,82.7355 99.2235,70.5287 95.1737,53.6225C91.1239,36.7354 86.8257,27.757 78.2675,25.1972ZM30.5863,56.4497C26.4409,56.4497 23.0788,53.0685 23.0788,48.8849C23.0788,44.7205 26.4409,41.3201 30.5863,41.3201C34.7317,41.3201 38.0938,44.7205 38.0938,48.8849C38.0938,53.0494 34.7317,56.4497 30.5863,56.4497ZM65.2583,52.61C63.2334,52.61 61.5714,50.9481 61.5714,48.904C61.5714,46.86 63.2334,45.198 65.2583,45.198C67.3024,45.198 68.9643,46.86 68.9643,48.904C68.9452,50.9481 67.3024,52.61 65.2583,52.61ZM73.3198,60.7097C71.2949,60.7097 69.6329,59.0478 69.6329,57.0037C69.6329,54.9406 71.2949,53.2977 73.3198,53.2977C75.3638,53.2977 77.0258,54.9597 77.0258,57.0037C77.0258,59.0669 75.3638,60.7097 73.3198,60.7097ZM73.3198,44.4912C71.2949,44.4912 69.6329,42.8293 69.6329,40.7852C69.6329,38.7412 71.2949,37.0793 73.3198,37.0793C75.3638,37.0793 77.0258,38.7412 77.0258,40.7852C77.0258,42.8293 75.3638,44.4912 73.3198,44.4912ZM81.4004,52.61C79.3564,52.61 77.7135,50.9481 77.7135,48.904C77.7135,46.86 79.3755,45.198 81.4004,45.198C83.4253,45.198 85.0873,46.86 85.0873,48.904C85.0873,50.9481 83.4444,52.61 81.4004,52.61L81.4004,52.61Z" id="path3" style="fill:rgb(255,249,249);fill-rule:nonzero;"/><g id="g4175"><circle cx="66.5253" cy="49.5158" id="path4167" r="4.69392" style="fill:rgb(76,144,195);stroke-width:0.22px;stroke:rgb(10,124,222);"/><circle cx="80.8229" cy="49.5158" id="circle4169" r="4.69392" style="fill:rgb(216,149,58);stroke-width:0.22px;stroke:rgb(184,118,22);"/><circle cx="73.5392" cy="41.5847" id="circle4171" r="4.69392" style="fill:rgb(194,68,78);stroke-width:0.22px;stroke:rgb(184,32,22);"/><circle cx="73.5932" cy="57.1232" id="circle4173" r="4.69392" style="fill:rgb(82,197,87);stroke-width:0.22px;stroke:rgb(22,184,53);"/></g><g id="g4161"><circle cx="30.991" cy="48.849" id="path4157" r="7.58858" style="fill:rgb(110,120,114);"/><circle cx="30.991" cy="48.849" id="circle4159" r="6.64381" style="fill:rgb(74,75,75);"/></g></g></svg>