<?xml version="1.0" encoding="utf-8"?>
<!-- Generator: Adobe Illustrator 16.0.0, SVG Export Plug-In . SVG Version: 6.00 Build 0)  -->
<!DOCTYPE svg PUBLIC "-//W3C//DTD SVG 1.1 Tiny//EN" "http://www.w3.org/Graphics/SVG/1.1/DTD/svg11-tiny.dtd">
<svg version="1.1" baseProfile="tiny" id="图层_1"
	 xmlns="http://www.w3.org/2000/svg" xmlns:xlink="http://www.w3.org/1999/xlink" x="0px" y="0px" width="180px" height="70px"
	 viewBox="0 0 180 70" xml:space="preserve">
<g>
	<path fill-rule="evenodd" fill="#306AB3" d="M81.566,19.965c-0.089,0-0.177,0-0.265,0c-1.175-0.301-3.444-0.397-4.791-0.159
		c-0.501,0.088-1.192,0.573-1.573,0.477c-0.2-0.153-0.401-0.307-0.601-0.459c-0.006,0-0.012,0-0.018,0
		c-0.867-1.23-2.002-3.252-2.935-4.49c-0.243-0.322-1.226-0.575-1.538-0.902c-0.395,0-0.79,0-1.184,0
		c-0.023,0.059-0.047,0.118-0.071,0.177c-0.147,0.376,0.391,2.849,0.513,3.571c-0.064,1.308-0.13,2.616-0.195,3.925
		c-0.141,0.147-0.282,0.294-0.424,0.442c-0.018,0.259-0.036,0.518-0.053,0.777c-0.472,0.166-0.943,0.331-1.415,0.495
		c-1.532,0.726-3.064,1.45-4.596,2.175c-0.012-0.018-0.023-0.035-0.035-0.053c0.029-0.336,0.059-0.672,0.088-1.008
		c-0.511-0.547-0.72-1.998-1.043-2.545c-0.012-0.012-0.024-0.024-0.035-0.035c-0.75,0.439-3.308,7.154-3.783,8.609
		c-0.157,0.48-0.407,2.543-0.141,2.952c0.003-0.065,0.357,0.341,0.389,0.406c0.249,0.52,0.346,1.11,0.601,1.433
		c0.094,0.018,0.728,0.467,0.831,0.706c0.498-0.17,1.023-0.49,1.662-0.477c0.135,0.63,0.271,1.261,0.407,1.892
		c1.043,1.176,5.849-0.851,7.194-1.114c0.81,0.986,0.175,1.672,0.46,3.307c0.096,0.55,0.19,0.941,0.389,1.308
		c-0.029,0.783-0.059,1.567-0.088,2.352c-0.004,0.853,0.251,1.367,0.301,1.962c0.032,0.389-0.326,0.814-0.212,1.361
		c0.159,0.548,0.318,1.096,0.477,1.644c0.478,1.895,0.045,2.456,1.786,2.952c0.369,0.105,0.313,0.241,0.689,0.229
		c0.306-0.949,1.253-1.516,1.414-2.403c-0.023-0.342-0.047-0.685-0.071-1.025c0.077-1.061,0.153-2.122,0.23-3.182
		c0.4-1.073,0.801-2.146,1.202-3.218c0.174-0.765-0.13-3.907,0.619-3.748c0.147-0.276,0.294-0.554,0.442-0.831
		c0.053-0.188,0.106-0.377,0.159-0.565c0.373-1.332,0.585-2.467,1.591-3.146c0.529-0.357,2.424-0.223,2.651-0.689
		c0.136-0.278,0.507-0.616,0.672-1.025c0.041-0.235,0.082-0.472,0.123-0.707c0.185-1.352,0.194-2.359,0.531-3.482
		c0.206-0.513,0.412-1.025,0.619-1.538c0.239-0.71,0.755-5.201,0.442-5.445C82.568,20.546,81.944,20.323,81.566,19.965z
		 M68.927,30.342c-1.425,2.392-2.773,1.828-5.303,2.793c-0.691,0.264-1.169,1.662-2.281,1.432c-0.347-0.545,0.803-2.294,1.061-2.545
		c0.307-0.66,0.613-1.32,0.919-1.979c1.329-2.135,3.896-1.952,5.144-3.624c0.16,0.671,0.318,1.343,0.478,2.015
		C69.279,28.976,69.215,29.857,68.927,30.342z M79.516,26.771c-0.388,0.407-1.694,0.733-2.475,0.777
		c-0.012-0.018-0.023-0.035-0.035-0.053c-0.136-0.104-0.462-2.499-0.354-2.917c-0.839-1.503,4.38-2.991,5.674-3.606
		C83.285,22.212,80.06,26.198,79.516,26.771z M47.854,18.427c-0.766-0.377-1.532-0.754-2.297-1.131
		c-0.648-0.23-1.297-0.459-1.945-0.69c-1.773-0.657-4.817-1.262-7.089-1.237c0.218,0.925,0.436,1.85,0.654,2.775
		c0.76,0.212,1.52,0.425,2.28,0.637c1.906,0.79,3.711,2.053,2.598,5.162c-0.314,0.879-1.015,1.258-1.432,2.016
		c-0.047-0.018-0.094-0.035-0.142-0.054c0.067,0.291-1.823,1.874-2.262,1.998c-1.211,1.783-9.744,5.257-12.729,5.675
		c0.602-4.359,1.428-9.505,4.632-10.907c1.249-0.547,2.105,0.556,2.811,0.796c0.648-0.194,1.296-0.389,1.945-0.584
		c-0.471-0.818-0.943-1.638-1.414-2.458c-1.176-1.767-4.057-4.935-6.895-4.508c-0.894,0.135-1.742,0.172-2.333,0.548
		c-0.186,0.118-2.054,1.546-2.139,1.521c0,0-2.417,3.496-2.687,4.013c-1.742,3.335-2.614,7.58-3.412,11.95
		c-2.418-0.04-5.729-1.301-6.665-2.599c-0.167-0.23-0.392-0.802-0.459-0.884c-0.331-0.121-0.476-1.292-0.283-1.697
		c-0.15-0.16,0.512-1.654,0.601-1.768c1.968-2.508,5.074-4.885,8.733-6.258c-0.248-0.66-0.495-1.32-0.743-1.98
		c-0.626,0.068-1.356,0.547-1.909,0.795c-1.836,0.824-4.589,1.863-5.852,3.04c-0.794,0.741-1.675,1.064-2.458,1.697
		c-0.076,0.042-0.153,0.083-0.229,0.124c-0.112,0.089-0.224,0.177-0.336,0.266c-0.837,0.634-1.629,1.882-2.475,2.421
		c-0.131,0.085-0.139,0.321-0.335,0.23C2.7,28.2,2.474,29.67,1.574,30.73c-0.076,0.336-0.153,0.672-0.229,1.008
		c-0.442,1.499-0.12,3.309,0.371,4.385c0.012,0.059,0.024,0.117,0.036,0.177c0.267,0.265,0.487,0.723,0.548,1.007
		c0.291,0.223,0.926,0.767,0.972,1.114c1.649,1.291,3.268,2.104,5.604,2.935c0.565,0.201,4.625,0.854,4.667,0.901
		c0.771,0.035,1.544,0.07,2.315,0.106c0.392,2.155,0.398,4.208,0.778,6.187c0.035,0.295,0.071,0.59,0.106,0.884
		c0.418,1.604,0.837,3.206,1.255,4.809c1.818,3.867,2.491,5.756,5.551,8.344c1.181,0.999,4.33,1.341,5.674,0.442
		c0.442-0.283,0.884-0.566,1.326-0.849c0.507-0.05,1.989-2.235,2.44-2.669c0.429-0.413,0.773-1.192,1.078-1.768
		c1.507-2.844,2.406-5.922,3.323-9.794c0.147-0.843,0.295-1.686,0.442-2.527c-1.213,0.288-2.428,0.577-3.641,0.865
		c-0.36,2.553-2.118,10.092-4.543,9.688c-2.627-0.438-4.573-9.968-4.508-14.125c2.433-0.671,4.867-1.343,7.3-2.015
		c1.703-0.654,3.407-1.308,5.109-1.962c1.426-0.72,2.853-1.438,4.278-2.157c0.393-0.431,1.536-0.734,1.839-1.113
		c0.425-0.533,0.965-0.521,1.378-0.973c0.634-0.693,1.425-1.332,2.086-1.82c0.786-0.581,2.331-2.144,2.758-3.023
		c0.605-1.247,1.246-2.375,1.503-4.277c0.152-1.128-0.92-3.66-0.92-3.66S48.048,18.626,47.854,18.427z M110.629,49.611
		c0.43,0.405,1.747,0.781,2.422,1.06c0.303-0.472,1.013-0.892,1.22-1.696c0-0.595,0-1.19,0-1.785
		c0.105-0.825,0.212-1.65,0.318-2.476c-0.123-0.617-0.595-1.287-0.442-2.104c0.364-1.955,0.393-6.321,0.089-8.609
		c-0.035-1.378-0.071-2.757-0.106-4.137c-0.024-1.113-0.047-2.228-0.071-3.341c-0.272-0.915-0.313-1.559-0.07-2.439
		c0.289-1.052-0.15-1.831-0.247-2.528c-0.113-0.813,0.364-1.43,0.424-2.104c0.087-0.981-1.476-3.196-1.927-3.43
		c-1.755-0.906-4.597,0.255-6.028,0.619c-0.355,0.091-4.295,0.637-4.295,0.637c-1.108,0.477-2.217,0.955-3.324,1.432
		c-0.359,0.229-0.719,0.46-1.078,0.689c-0.018,0.012-0.035,0.024-0.054,0.035c-0.683,0.13-1.366,0.259-2.05,0.389
		c-0.572,0.253-1.144,0.507-1.715,0.76c0.307,0.112,0.612,0.225,0.919,0.336c0.124,0.165,0.248,0.331,0.371,0.496
		c0.018,0,0.036,0,0.054,0c0.224,0.023,0.447,0.046,0.672,0.07c1.622,0.226,2.265-0.147,3.446-0.654
		c2.434-1.042,4.97-2.049,8.592-2.227c0.501,0.03,1.002,0.059,1.502,0.089c1.706,0.705,1.242,4.081,0.938,6.275
		c-0.111,1.615-0.224,3.229-0.336,4.844c0.018,0.919,0.036,1.839,0.053,2.758c-0.282,1.822-0.066,4.791,0.213,6.947
		c-0.183,0.53-0.366,1.061-0.548,1.592c0,0.718,0,1.437,0,2.156c-0.6-0.008-1.667-1.846-2.21-1.272
		c-0.381,0.401,0.773,2.628,0.937,2.951c0.368,0.73,0.823,1.359,1.185,2.033C109.937,47.829,110,49.019,110.629,49.611z
		 M161.753,24.597c1.743-0.578,3.328-0.985,5.32-1.344c2.41-0.041,4.821-0.082,7.231-0.124c1.088-0.6,2.567,0.867,2.651-1.272
		c0.442-0.467,0.963-0.353,0.954-1.379c-1.119-0.25-3.135-0.088-4.543-0.229c-0.012-0.819-0.023-1.638-0.035-2.457
		c-0.736-0.462-3.003-1.784-4.208-1.768c-0.673,0.292-0.433,0.732-0.813,1.025c-0.223,0.053-0.447,0.106-0.671,0.159
		c-0.818,0.587-1.29,1.533-2.369,1.856c0.023,0.129,0.048,0.26,0.07,0.389c0.313-0.053,0.625-0.106,0.938-0.159
		c1.188-0.185,2.311,0.371,2.775,0.919c0.076-0.139,0.324,0.468,0.142,0.725c-0.486,0.684-5.061,1.235-6.471,1.361
		c-0.111-0.012-0.224-0.024-0.335-0.036c0,0-1.6,0.598-1.608,0.601c-0.358,0.13-0.685-0.054-0.938,0.141
		C159.889,23.811,160.453,25.027,161.753,24.597z M137.64,47.349c0.366-0.194,0.731-0.39,1.097-0.584c0.437,0,0.872,0,1.309,0
		c0.73-0.167,4.247-1.635,4.737-1.379c0.176-0.793,2.047-1.525,1.979-2.334c-0.042-0.504-0.743-0.829-1.007-1.131
		c-0.203-0.231-0.141-0.518-0.39-0.707c-0.788-0.6-1.979,0.387-2.669,0.619c-2.025,0.681-10.255,3.188-9.387-1.008
		c0.029,0.006,0.059,0.012,0.088,0.018c0.465-0.373,0.975-1.154,1.415-1.662c0.017,0.036,0.035,0.071,0.052,0.106
		c0.007-0.064,0.013-0.13,0.019-0.194c0.519-0.029,1.037-0.06,1.556-0.089c0.458-0.467,3.683-1.252,4.932-0.989
		c0.131-0.784,0.834-1.264,1.309-1.874c0-0.184,0-0.365,0-0.548c0-1.123-0.306-2.427-0.866-2.794
		c0.399-1.793,2.82-5.995,1.521-7.901c-0.212-0.311-0.532-0.525-0.672-0.849c-0.418-0.968-0.382-1.598-1.803-1.591
		c-0.153-0.165-0.307-0.33-0.46-0.495c-0.555,0.175-1.574-0.352-2.051-0.211c-1.47,0.43-2.357,2.021-4.119,1.962
		c0.453-3.44,0.98-4.251-2.616-5.003c0.216,1.157-0.623,1.709-0.849,2.422c-0.171,1.208-0.342,2.416-0.513,3.624
		c-0.006,0.054-0.012,0.105-0.018,0.159c-0.142,0.13-0.283,0.259-0.424,0.389c-0.698,0.769-3.044,1.363-3.271,2.281
		c0.224,0,0.447,0,0.671,0c0.067,0.116,0.336,0.303,0.407,0.529c0.624-0.067,0.898-0.325,1.645-0.318
		c0.035,0.325,0.07,0.648,0.105,0.973c-0.398,0.807-2.094,3.066-3.165,3.059c-0.11-0.601,0.053-1.282,0.142-1.804
		c0.297-1.733-0.28-2.411-1.379-3.058c-0.053-0.259,0.064-0.795-0.123-0.919c-0.182-0.121-0.416,0.243-0.46,0.406
		c-0.323,1.212-0.843,1.704-1.325,2.563c0.012,0.642,0.022,1.284,0.035,1.927c-0.185,1.545-0.118,3.123-0.425,4.225
		c-0.08,0.289-0.965,2.227-0.583,2.828c0.657,0.137,1.034,0.72,1.909,0.92c1.014,1.225,1.148,1.896,3.412,1.998
		c0.319,1.195,0.719,3.957,1.467,4.454c0.675,0.448,0.986,0.972,1.785,1.361c1.407,0.687,3.614,0.636,5.834,0.636
		C136.874,47.359,137.257,47.354,137.64,47.349z M137.34,32.905c-0.177,0.277-2.832,1.576-3.288,1.078
		c-0.197-0.215-0.384-0.641-0.266-1.22c0.284-1.381,1.866-2.084,3.183-2.422c0.354-0.035,0.707-0.07,1.061-0.105
		c0.023,0.206,0.047,0.412,0.07,0.618C137.992,31.84,137.71,32.325,137.34,32.905z M136.12,25.251
		c0.147-0.159,0.294-0.318,0.441-0.478c0.39-0.018,0.778-0.035,1.167-0.053c0.611,0.002,0.678,0.214,1.309,0.212
		c0.086,0.244,0.479,0.74,0.265,1.096c-0.012,0.006-0.023,0.013-0.035,0.019c-0.327,0.37-0.799,0.293-1.309,0.618
		c-0.554,0.406-1.107,0.813-1.661,1.22c-0.446,0.236-2.525-0.092-2.634-0.229C132.479,26.158,135.944,24.975,136.12,25.251z
		 M127.528,36.936c-1.024,0.044-1.729,0.516-2.315,0.92c-0.018-0.007-0.035-0.013-0.054-0.018c0.054-0.496,0.106-0.991,0.159-1.485
		c0.281-1.742,0.362-2.095,1.786-2.563c0.318,0.041,0.636,0.083,0.954,0.124C128.467,35.034,127.827,36.097,127.528,36.936z
		 M105.944,22.104c-0.207-0.318-0.413-0.637-0.619-0.955c-0.996,0.224-1.991,0.448-2.987,0.672
		c-1.839,0.489-3.879,1.027-5.374,1.962c-0.253,0.106-0.507,0.213-0.761,0.318c-0.424,0.324-0.848,0.648-1.272,0.973
		c-0.48,0.288-1.113-0.017-0.901,0.849c0.471,0.281,1.33,0.223,1.556,0.76c0.203,0.487-0.171,0.621,0.247,1.078
		c0.617,0.675,2.851-1.136,2.828,1.185c-0.082,0.413-0.165,0.825-0.247,1.237c-0.571,0.188-1.144,0.377-1.715,0.566
		c-0.785,0.301-1.465,1.035-2.191,1.573c0.171,0.336-0.119,0.583-0.39,0.654c0.078,0.776,0.566,1.175,1.379,1.131
		c0.188,0.301,0.377,0.602,0.566,0.901c0.312,0.041,0.624,0.083,0.937,0.124c0.241,0.308-0.71,1.918-1.061,1.979
		c0.12,0.269-2.121,2.8-0.442,4.013c1.454,1.052,9.195-2.966,10.377-3.835c0.269-0.198,0.657-0.92,0.743-1.344
		c-0.159-0.03-0.318-0.06-0.478-0.089c-0.067-0.221,0.122-0.517,0.318-0.583c-0.028-0.396-2.023-0.359-2.6-0.354
		c0.009-0.633,0.185-1.074,0.159-1.696c0.729-0.31,1.128-0.804,1.592-1.662c0.194-0.188,0.389-0.377,0.583-0.565
		c0.752-1.029-0.216-1.937-0.849-2.404c-0.364-0.27-0.795-0.593-1.237-0.637C103.339,26.386,108.051,24.893,105.944,22.104z
		 M156.503,33.383c-0.079,0.114,0.459,3.288,0.354,4.013c-0.288,1.978-0.779,3.514-1.079,5.409c-0.189,1.207-0.104,2.644-0.142,3.96
		c0.255,0.005,0.627,0.493,0.955,0.654c0.55-0.4,1.661-1.208,2.121-2.068c0.106-0.884,0.213-1.768,0.318-2.652
		c0.2-1.867,0.401-3.735,0.602-5.604c0.041-0.736,0.082-1.473,0.123-2.21c0.019-0.865,0.035-1.732,0.054-2.598
		c0.215-0.532,0.752-1.098,0.459-1.98c-0.006-0.029-0.012-0.059-0.018-0.089c-0.354-0.499-1.658-1.165-2.669-1.148
		c0.001-0.663,0.266-0.804,0.389-1.273c0.114-0.433,0.101-0.933,0.159-1.202c0.062-0.286-1.42-4.304-1.573-4.489
		c-0.178-0.216-0.409-0.238-0.742-0.301c-0.194,0.492-0.23,1.155-0.389,1.715c-0.242,0.653-0.484,1.308-0.726,1.962
		c-0.813,2.026-1.821,3.687-2.898,5.269c-0.066,0.096-0.036,0.174-0.159,0.123c-0.486,0.507-0.34,2.616-0.442,3.554
		c0.852,0.553,0.617,0.989,0.672,2.439c0.218-0.095,0.436-0.188,0.654-0.283c0.094-0.307,0.188-0.612,0.282-0.919
		c0.391-0.569,0.985-0.777,1.45-1.167C154.322,34.014,155.991,32.27,156.503,33.383z M93.993,26.647c0-0.023,0-0.048,0-0.07
		c-0.077-0.163-0.309-0.316-0.37-0.654c-0.007-0.437-0.013-0.872-0.019-1.309c-0.11-0.479-0.453-1.136-0.706-1.538
		c-0.306-0.484-0.062-0.938-0.619-1.149c-0.219,0.648-0.437,1.296-0.654,1.945c-0.099,1.164,0.4,2.441,0.194,3.783
		c-0.116,0.754-0.345,1.381-0.513,1.997c-0.035,0.837-0.07,1.674-0.105,2.511c-0.077,0.742-0.153,1.484-0.23,2.228
		c-0.235,0.423-0.054,1.083-0.142,1.679c-0.117,0.483-0.235,0.967-0.354,1.45c0.019,0.37,0.075,1.045,0.053,1.308
		c-0.146,1.806-0.471,5.353,1.097,5.64c1.41,0.258,0.634-3.154,0.796-4.207c0.047-0.578,0.094-1.155,0.141-1.732
		c-0.434-2.839,0.461-6.443,1.309-8.433c0-0.023,0-0.047,0-0.071c-0.036-0.4-0.071-0.801-0.106-1.201
		C93.862,28.24,94.049,27.354,93.993,26.647z M168.453,27.125c0.677,0.424,1.354,0.849,2.033,1.272
		c0.611,0.322,2.43,0.505,3.217,0.478c2.597-2.678-0.661-4.26-4.013-4.226c-0.938,0.302-2.05,0.195-2.723,0.778
		c-0.012,0.023-0.023,0.047-0.035,0.07c-0.239,0.38,0.017,0.775,0.159,0.92c0.018,0.035,0.035,0.07,0.053,0.105
		C167.58,26.724,168.017,26.925,168.453,27.125z M165.695,30.271c-0.445,1.253,1.799,2.489,2.227,2.935
		c0.637,0.006,1.273,0.012,1.91,0.018c0.563,0.257,2.065,1.006,2.951,0.406c0.392-0.265,0.833-0.528,1.097-1.025
		c0.565-1.065-0.237-0.907,0.884-1.573c-0.029-0.3-0.059-0.601-0.089-0.901c-0.544-0.282-1.286,0.069-1.909-0.035
		c-0.814-0.138-1.327-0.489-2.439-0.478C169.18,29.994,165.991,29.439,165.695,30.271z M105.731,33.754
		c0.006,0.006,0.012,0.012,0.019,0.018c0.499,0.017,3.31-0.332,3.659-0.584c0.258-0.186,0.139-0.656,0.212-1.131
		c0.045-0.29,0.114-0.787-0.053-0.937c-0.023-0.035-0.048-0.07-0.071-0.106c-0.041-0.006-0.082-0.012-0.124-0.018
		c-0.617-0.318-1.69-0.601-2.368-0.813c0.307,1.674-0.467,1.98-0.955,3.076C105.937,33.514,105.742,33.381,105.731,33.754z
		 M166.721,48.038c0.011-0.06,0.023-0.118,0.035-0.178c0.237-0.447,1.245-4.873,1.007-5.728c-0.115-0.416-0.295-0.353-0.406-0.689
		c-0.083-0.253-0.21-0.897,0.054-0.954c0.141,0.012,0.282,0.023,0.424,0.035c1.795,0.293,2-1.495,2.581-1.414
		c0.119,0.017,0.235-0.129,0.477-0.071c0.936,2.162-2.091,3.11-2.492,5.286c-0.012,0.171-0.023,0.342-0.035,0.513
		c0.083,0.265,0.165,0.53,0.247,0.795c0.287,0.111,1.137,0.744,1.591,1.026c0,0,2.892-0.294,3.06-0.266
		c0.415,0.07,1.65,0.408,2.015,0.247c0.96-0.424,1.25-0.739,1.344-2.139c0.018-0.212,0.035-0.424,0.053-0.637
		c-0.296-0.551-1.346-0.234-1.061-1.379c0.298-1.197,0.985-2.264,0.742-4.065c-0.023-0.235-0.047-0.472-0.07-0.707
		c-0.676-0.819-1.394-1.42-2.139-2.175c-0.66-0.094-1.32-0.188-1.98-0.282c-0.174,0.33-5.06,2.923-5.551,2.775
		c-0.922-0.277-0.66-1.199-1.361-1.485c-0.539-0.22-1.382-0.231-1.379-0.901c-0.159-0.036-0.318-0.071-0.477-0.106
		c-0.664,0.911-0.054,3.478,0.07,4.349c0.213,1.498-0.254,2.861,0.07,4.102c0.275,1.052,0.839,2.083,0.548,3.076
		c0.527-0.188,1.906,0.875,2.157,1.167C166.402,48.167,166.562,48.103,166.721,48.038z M108.03,40.117
		c-0.118-0.017-0.236-0.035-0.354-0.052c-0.042,0.035-0.083,0.07-0.124,0.105c-0.269,0.118-2.985,1.291-3.288,1.167
		c-0.194,0.213-0.925,0.152-1.202,0.301c-1.354,0.722-3.888,1.394-5.834,1.785c-0.265-0.036-0.53-0.071-0.795-0.106
		c-0.838-0.155-1.917,0.097-2.528,0.283c0,0.006,0,0.012,0,0.018c0.357,0.821,0.774,2.205,1.485,2.599
		c1.074,0.596,6.214-1.965,7.106-2.281c0.521-0.734,1.627-1.172,2.298-1.731C105.511,41.607,107.927,40.88,108.03,40.117z
		 M64.242,54.189c-0.872,0.07-1.744,0.142-2.616,0.212c-1.553,0.29-2.857,1.009-3.553,2.439c-0.352,0.724-0.487,2.005-0.319,3.041
		c0.595,3.657,4.195,3.644,8.097,3.306c0.018-0.501,0.035-1.002,0.053-1.503c-2.813,0.781-4.857,0.583-5.303-2.387
		c-0.097-0.644-0.046-1.551,0.194-2.015c0.878-1.692,2.666-1.62,5.109-1.309c0-0.513,0-1.025,0-1.537
		c-0.006-0.006-0.012-0.013-0.018-0.019C65.536,54.414,64.535,54.415,64.242,54.189z M149.909,54.313
		c-0.407,0.018-0.813,0.035-1.221,0.053c-0.005,0.018-0.011,0.035-0.018,0.053c-1.056,0.584-2.029,0.346-2.846,1.202
		c-0.723,0.758-1.471,1.993-1.272,3.5c0.551,4.198,3.296,4.594,8.148,4.119c0.036-0.501,0.071-1.002,0.106-1.503
		c-2.718,0.837-5.139,0.406-5.339-2.351c-0.047-0.647-0.086-1.452,0.142-1.944c0.777-1.68,2.797-1.762,5.197-1.468
		c0.012-0.489,0.023-0.979,0.036-1.467C152.077,54.234,150.909,54.306,149.909,54.313z M161.559,55.056
		c-0.306-0.376-1.87-0.611-2.829-0.742c-0.347,0.018-0.695,0.035-1.043,0.053c-0.459,0.147-0.919,0.295-1.378,0.442
		c-0.425,0.324-0.849,0.647-1.273,0.972c-1.962,2.083-1.25,4.663,0.336,6.559c0.543,0.648,1.731,0.982,2.775,1.149
		c0.536-0.006,1.072-0.013,1.608-0.019c0.13-0.209,1.656-0.627,1.98-0.849c0.307-0.209,0.511-0.701,0.884-0.865
		c0.982-1.344,1.383-3.926,0.177-5.428C162.383,55.904,161.971,55.48,161.559,55.056z M158.89,62.232
		c-0.951,0.145-1.982-0.53-2.175-1.184c-0.006-0.808-0.012-1.615-0.018-2.422c-0.012-0.619-0.024-1.238-0.035-1.856
		c0.227-0.731,0.928-1.066,1.732-1.29c2.151,0.112,2.475,0.868,2.475,3.217C160.869,60.858,160.595,61.975,158.89,62.232z
		 M100.464,54.349c-0.171,0.109-2.108,0.1-2.422,0c-1.361,3.028-2.723,6.058-4.084,9.086c0.772-0.029,1.544-0.059,2.316-0.088
		c0.313-0.725,0.625-1.45,0.938-2.175c1.242,0.007,2.486,0.012,3.729,0.018c0.306,0.736,0.612,1.474,0.919,2.21
		c0.954-0.023,1.909-0.047,2.864-0.07c-0.761-1.608-1.521-3.218-2.281-4.826C101.784,57.118,101.124,55.733,100.464,54.349z
		 M100.446,59.899c-0.919,0.018-1.839,0.035-2.758,0.053c-0.012-0.012-0.023-0.023-0.035-0.035c0.441-1.031,0.884-2.063,1.326-3.094
		c0.488,1.014,0.978,2.027,1.467,3.041C100.446,59.876,100.446,59.888,100.446,59.899z M175.842,54.489
		c0.072,0.255-3.833,5.548-4.313,6.276c-0.019,0-0.036,0-0.054,0c-0.393-0.64-4.429-6.108-4.366-6.382c-0.707,0-1.414,0-2.122,0
		c0,2.987,0,5.976,0,8.963c0.643,0,1.285,0,1.928,0c0-1.662,0-3.323,0-4.985c1.096,1.668,2.191,3.335,3.287,5.003
		c0.537,0,1.073,0,1.609,0c1.107-1.579,2.216-3.159,3.323-4.737c0.023,0,0.048,0,0.07,0c0.007,1.572,0.013,3.146,0.019,4.72
		c0.896,0,1.791,0,2.687,0c0-2.987,0-5.976,0-8.963c-0.647-0.006-1.296-0.012-1.944-0.018
		C175.96,54.541,175.965,54.466,175.842,54.489z M73.311,58.008c-1.002,0-2.003,0-3.005,0c0-1.19,0-2.381,0-3.57
		c-0.878-0.019-1.756-0.036-2.634-0.054c-0.017,2.987-0.035,5.976-0.053,8.963c0.896,0,1.791,0,2.687,0c0-1.261,0-2.522,0-3.783
		c1.001,0,2.003,0,3.005,0c0,1.261,0,2.522,0,3.783c0.896,0,1.792,0,2.687,0c0-2.987,0-5.976,0-8.963
		c-0.896,0.018-1.792,0.035-2.687,0.054C73.311,55.627,73.311,56.817,73.311,58.008z M120.67,59.635
		c0.006-0.007,0.012-0.013,0.018-0.019c1.148,0,2.298,0,3.447,0c0-0.519,0-1.037,0-1.556c-1.149,0-2.299,0-3.447,0
		c-0.006-0.73-0.012-1.461-0.018-2.191c1.531,0,3.063,0,4.596,0c0-0.489,0-0.979,0-1.468c-2.444,0.012-4.891,0.023-7.336,0.036
		c-0.006,2.986-0.012,5.975-0.018,8.962c2.545,0,5.091,0,7.637,0c0-0.53,0-1.061,0-1.591c-1.627,0-3.253,0-4.879,0
		C120.67,61.084,120.67,60.358,120.67,59.635z M138.666,61.791c0-0.725,0-1.45,0-2.175c1.154,0,2.31,0,3.465,0
		c0-0.519,0-1.037,0-1.556c-1.155,0-2.311,0-3.465,0c0-0.73,0-1.461,0-2.191c1.52,0,3.041,0,4.561,0
		c0.005-0.266,0.107-1.346-0.071-1.432c-2.386,0-4.773,0-7.159,0c-0.162,0.145-0.076,7.979-0.07,8.962c2.539,0,5.079,0,7.619,0
		c0-0.53,0-1.061,0-1.591c-1.62,0-3.241,0-4.862,0C138.677,61.803,138.672,61.797,138.666,61.791z M90.971,59.581
		c-1.521-1.455-3.041-2.911-4.561-4.366c-0.08-0.079-0.063-0.053-0.018-0.159c-0.814-0.678-0.756-0.396-2.457-0.637
		c0,2.993,0,5.987,0,8.98c0.66,0,1.32,0,1.98,0c0.018-1.832,0.035-3.666,0.053-5.497c0.006-0.007,0.012-0.013,0.017-0.019
		c0.532,0.258,1.066,0.965,1.309,1.326c0.006-0.126,0.511,0.459,0.513,0.46c1.096,1.036,2.192,2.074,3.288,3.11
		c0.065,0.069,0.354,0.407,0.354,0.407c0.117,0.071,0.235,0.142,0.354,0.212c0.406,0,0.813,0,1.22,0c0-2.987,0-5.976,0-8.962
		c-0.666,0-1.332,0-1.998,0C91.007,56.151,90.988,57.866,90.971,59.581z M78.614,63.399c0.949,0,1.898,0,2.847,0
		c0-2.987,0-5.976,0-8.962c-0.949,0-1.898,0-2.847,0C78.614,57.424,78.614,60.412,78.614,63.399z M108.701,55.815
		c0.92,0,1.84,0,2.759,0c0.017,2.552,0.035,5.104,0.053,7.654c0.152-0.157,2.327-0.074,2.758-0.07c0-2.527,0-5.056,0-7.584
		c0.813,0,1.626,0,2.439,0c0-0.459,0-0.919,0-1.378c-2.669,0-5.34,0-8.009,0C108.701,54.896,108.701,55.356,108.701,55.815z
		 M129.827,61.791c0-2.451,0-4.903,0-7.354c-0.949,0-1.898,0-2.847,0c0,2.986,0,5.975,0,8.962c2.41-0.018,4.82-0.035,7.23-0.053
		c0-0.513,0-1.025,0-1.538c-1.455,0-2.911,0-4.366,0C129.839,61.803,129.833,61.797,129.827,61.791z"/>
</g>
<g>
</g>
<g>
</g>
<g>
</g>
<g>
</g>
<g>
</g>
<g>
</g>
</svg>
