<?xml version="1.0" encoding="utf-8"?>
<!-- Generator: Adobe Illustrator 18.0.0, SVG Export Plug-In . SVG Version: 6.00 Build 0)  -->
<!DOCTYPE svg PUBLIC "-//W3C//DTD SVG 1.1//EN" "http://www.w3.org/Graphics/SVG/1.1/DTD/svg11.dtd">
<svg version="1.1" id="Warstwa_1" xmlns="http://www.w3.org/2000/svg" xmlns:xlink="http://www.w3.org/1999/xlink" x="0px" y="0px"
	 viewBox="93.6 0 108.2 80" enable-background="new 93.6 0 108.2 80" xml:space="preserve">
<path fill="#186FBA" d="M173.6,18.4c0,0,1.9-3.2,0.4-3.5s-4,2.7-4,2.7L173.6,18.4z"/>
<g id="Layer_1">
	<g id="bird">
		<path fill="#FCA426" d="M130.4,74.6L130.4,74.6c-3.2,0-6-0.5-7.6-1.4c-1.5,0.1-3.5,0.6-4.7,1.7s-1.6,3.3,0.1,3.8
			c1.1,0.3,0.5-0.4,1.7-1.8c-0.2,0.9,0.1,1.8,1.1,2.2c1.3,0.3,0.3-0.6,2.3-2.3l0.1-0.1c-0.5,1.1-0.3,2.3,0.9,2.7
			c1.3,0.3,0.3-0.6,2.3-2.3s3.7-1.7,3.9-1.9l0,0v-0.6H130.4z"/>
		<path fill="#E6951F" d="M142.6,74.9c-0.3-0.2-0.6-0.5-0.9-0.6l-2.2-0.8c-0.6-0.1-1.1-0.2-1.6-0.2c-1.7,0.9-4.5,1.4-7.5,1.4l0,0
			v0.7l0,0c0.2,0.2,1.9,0.2,3.9,1.9s1,2.6,2.3,2.3c1.2-0.4,1.4-1.7,0.9-2.7l0.1,0.1c1.9,1.7,1,2.6,2.3,2.3c1-0.3,1.3-1.3,1.1-2.2
			c1.3,1.4,0.6,2.1,1.7,1.8C144.3,78.2,143.9,76,142.6,74.9z"/>
		<path fill="#3594E8" d="M157.6,29c0.1,0.1,0.1,0.2,0.1,0.3c-1.5-5.7-4.3-10.7-7.8-14.7c-0.2-0.3-0.8-1.4-0.7-2.9
			c0-2.7,0.3-5.8,0.3-5.8s-2.7,5.1-6.1,3.8c-2.3-0.9-0.2-4.4-0.2-4.4s-1.5,0.9-3.2,1.7c-1.8,0.9-3.8,1.8-5.1,1.4
			c-2.7-0.8,1.3-8.4,1.3-8.4s-8.7,7.7-10.5,7.8c-2.3,0.1-2.1-3.4-2.1-3.4s-2.6,2.7-3.9,3.4c-7.9,3.8-14.1,11.7-16.7,21.6
			c-1.3,1.4-1.3,1.4-0.1,0.1c-4.1,4.4-6.6,9.9-6.6,15.8c0,1.7,0.2,3.3,0.6,4.9c-1.4-1.8-2.5-3.8-3.4-5.9c1.1,8.7,6.4,16.3,13.7,20.6
			c0.1,0.1,0.1,0.1,0.1,0.1l0.8-2.3c-4.2-6.1-6.7-13.9-6.7-22.4c0-3.8,0.5-7.5,1.4-10.9l0,0c-0.9,3.4-1.4,7.1-1.4,10.9
			c0,8.5,2.5,16.3,6.7,22.4v-0.1c5.3,7.7,13.2,12.6,22.1,12.6c8.9,0,16.9-4.9,22.1-12.6l0,0c4.2-6.1,6.6-13.8,6.6-22.3
			C159.1,36.3,158.6,32.6,157.6,29z"/>
		<path fill="#1E88E6" d="M159.1,40.3c0-3.9-0.5-7.7-1.5-11.3c0.1,0.1,0.1,0.2,0.1,0.3c-1.5-5.7-4.3-10.7-7.8-14.7
			c-0.2-0.3-0.8-1.4-0.7-2.9c0-2.7,0.3-5.8,0.3-5.8s-2.7,5.1-6.1,3.8c-2.3-0.9-0.2-4.4-0.2-4.4s-1.5,0.9-3.2,1.7
			c-1.8,0.9-3.8,1.8-5.1,1.4c-2.7-0.8,1.3-8.4,1.3-8.4s0,0-0.1,0.1l0,0l-0.1,0.1c0,0,0,0-0.1,0.1c-0.1,0-0.1,0.1-0.1,0.1
			c-0.1,0-0.1,0.1-0.1,0.1l-0.1,0.1c-0.1,0.1-0.1,0.1-0.1,0.1c0.1,0,0,0.1-0.1,0.1c-0.1,0.1-0.1,0.1-0.1,0.1
			c-0.1,0.1-0.2,0.1-0.2,0.2c0.1-0.1,0-0.1-0.1,0c-0.1,0-0.1,0-0.2,0.1c-0.1,0.1-0.1,0.1-0.2,0.2c-0.1,0.1-0.1,0.1-0.2,0.1
			c-0.1,0.1-0.2,0.1-0.2,0.2c-0.1,0.1-0.1,0.1-0.1,0.1c-0.1,0.1-0.2,0.2-0.3,0.3c-0.1,0-0.1,0.1-0.1,0.1c-0.6,0.5-1.3,1.1-2.1,1.7
			l0,0c-0.4,0.3-0.9,0.7-1.3,1v70.4c0.3,0,0.6,0,0.9-0.1c0.2,0,0.5,0,0.7,0c0.3,0,0.6-0.1,1-0.1c0.2,0,0.5-0.1,0.6-0.1
			c0.3-0.1,0.7-0.1,1.1-0.2c0.2-0.1,0.3-0.1,0.5-0.1c0.4-0.1,0.7-0.2,1.1-0.3c0.2-0.1,0.3-0.1,0.5-0.1c0.4-0.1,0.8-0.2,1.2-0.4
			c0.1-0.1,0.2-0.1,0.3-0.1c0.5-0.2,0.9-0.3,1.3-0.5c0.1,0,0.1-0.1,0.2-0.1c5-2.1,9.3-5.8,12.6-10.7l0,0
			C156.6,56.6,159.1,48.8,159.1,40.3z"/>
		<path fill="#FFFFFF" d="M124.1,40.3c-0.1-2-0.2-4.3-0.4-7.2c-0.4-5.2-1.3-11.1-6.2-11.1c-5.5,0-10.8,6.5-10.8,14.3
			c0,4.4,1.5,8.3,3.9,11C114.8,43.9,119.3,41.5,124.1,40.3z"/>
		<path fill="#FFFFFF" d="M136.6,40.3c0.1-2,0.2-4.3,0.4-7.2c0.4-5.3,1.3-11.1,6.2-11.1c5.5,0,10.8,6.5,10.8,14.3
			c0,4.4-1.5,8.3-3.9,11C145.9,43.9,141.4,41.5,136.6,40.3z"/>
		<path fill="#2B2A29" d="M150.3,37.5c0-5.7-3.5-10.4-7.8-10.4c-2,0-3.8,1-5.2,2.7c-0.2,1.1-0.3,2.3-0.3,3.4
			c-0.2,2.9-0.3,5.2-0.4,7.2c3.9,0.9,7.5,2.6,11,5C149.3,43.5,150.3,40.6,150.3,37.5z"/>
		<path fill="#2B2A29" d="M110.4,37.5c0,3.1,1,5.9,2.7,7.9c3.4-2.4,7.1-4.1,11-5c-0.1-2-0.2-4.3-0.4-7.2c-0.1-1.1-0.2-2.3-0.3-3.4
			c-1.4-1.7-3.2-2.6-5.1-2.6C113.9,27.1,110.4,31.7,110.4,37.5z"/>
		<g>
			<path fill="#2B2A29" d="M124.1,40.3c0,0-2.6,0.6-6.1,2.2c-3.5,1.7-5,2.7-5,2.7s-4.2-5.3-1.9-11.9c2.3-6.6,7.7-6.5,8.9-5.9
				c1.2,0.5,3.4,1.5,3.5,2.8C123.6,31.4,124.1,40.3,124.1,40.3z"/>
			<path fill="#2B2A29" d="M136.6,40.3c0,0,2.6,0.6,6.1,2.2c3.5,1.7,5,2.7,5,2.7s4.2-5.3,1.9-11.9c-2.3-6.6-7.7-6.4-8.9-5.9
				c-1.2,0.5-3.4,1.5-3.5,2.8C137.1,31.4,136.6,40.3,136.6,40.3z"/>
		</g>
		<g>
			<ellipse fill="#FFFFFF" cx="143.9" cy="32.2" rx="2.4" ry="2.5"/>
			<ellipse fill="#FFFFFF" cx="119.6" cy="32.2" rx="2.4" ry="2.5"/>
		</g>
		<path fill="#FFFFFF" d="M142.4,61.3c0-0.1,0.1-2.7-1.7-4.1c-3.1-2.5-8.9-1.4-10.4,1.1c-5.5-3.1-9.8-0.5-11.3,1.7c-1,1.5-1,3.9-1,4
			c0,0-3.4-0.5-4.4,2.4c-0.9,2.7,2.9,4.9,4.7,5.9c2.5,1.4,6.7,3.1,11.9,3.1c5.7,0,10.2-2.1,12.3-3.3c3.3-1.9,5.1-4.2,4.7-7
			C146.9,61,143.3,61.3,142.4,61.3z M130.6,72.7L130.6,72.7L130.6,72.7L130.6,72.7L130.6,72.7z"/>
		<path fill="#E1E4E5" d="M147.4,65c-0.6-4-4.2-3.8-5-3.8c0-0.1,0.1-2.7-1.7-4.1c-3.1-2.4-8.6-1.5-10.3,1v17.3
			c5.7,0,10.2-2.1,12.3-3.3C146.1,70.1,147.9,67.8,147.4,65z M130.6,72.7L130.6,72.7L130.6,72.7L130.6,72.7L130.6,72.7z"/>
		<path fill="#FCA426" d="M133.4,40.5c-1.2-1.4-3-1.4-3-1.4l0,0c0,0-1.8,0-3,1.4c-1.7,1-3.1,2.6-1.2,4.5c0.1,0.1,0.2,0.2,0.2,0.2
			c0.5,3.5,2.6,6.7,3.9,8.6l0,0c1.4-1.9,3.5-5.2,3.9-8.6c0.1-0.1,0.1-0.2,0.2-0.2C136.4,43.1,135.1,41.5,133.4,40.5z"/>
		<path fill="#E6951F" d="M133.4,40.5c-1.2-1.4-3-1.4-3-1.4l0,0v14.7l0,0c1.4-1.9,3.5-5.2,3.9-8.6c0.1-0.1,0.1-0.2,0.2-0.2
			C136.4,43.1,135.1,41.5,133.4,40.5z"/>
		<g>
			<ellipse fill="#2B2A29" cx="128.6" cy="43.3" rx="0.6" ry="1.3"/>
			<ellipse fill="#2B2A29" cx="132.1" cy="43.2" rx="0.6" ry="1.3"/>
		</g>
		<path fill="#2B2A29" d="M130.1,69.5l2.8-7c0.1-0.2,0.3-0.4,0.5-0.4s0.3,0.1,0.5,0.2c0.1,0.1,0.2,0.2,0.2,0.3s0,0.2-0.1,0.3l-3,7.2
			c-0.2,0.3-0.4,0.6-0.7,0.6h-0.3c-0.3,0-0.6-0.2-0.7-0.6l-1.3-2.8h0.7h0.5L130.1,69.5z"/>
		<path fill="#1E88E5" d="M127.3,62.5L127.3,62.5c-0.1-0.2-0.3-0.4-0.6-0.4l0,0l0,0h-1.5l0,0l0,0c-0.3,0-0.5,0.2-0.5,0.5
			s0.2,0.5,0.5,0.5l0,0h1.2l0.6,1.5l0.6,1.6h1.1L127.3,62.5z"/>
		<path opacity="0.5" fill="#1972BF" enable-background="new    " d="M143.4,16.9c-0.2-0.1-0.4-0.1-0.6-0.1v-0.1
			c-0.8-0.2-1.3-1.1-1-1.9c0.2-0.8,1.1-1.3,1.9-1c2.6,0.7,4.2,3.4,3.7,6.1C146.4,18.4,144.9,17.3,143.4,16.9z"/>
		<path opacity="0.5" fill="#1D79C9" enable-background="new    " d="M113.6,19.8c-0.6-2.6,1-5.3,3.7-6.1c0.8-0.2,1.7,0.2,1.9,1
			c0.2,0.8-0.2,1.7-1,1.9v0.1c-0.2,0.1-0.4,0.1-0.6,0.1C115.9,17.3,114.6,18.4,113.6,19.8z"/>
		<path fill="#0277BD" d="M101.4,41.4c0.1-0.6,0.2-1.9,0.2-2c0,0.3,0,0.6,0,0.9c0,8.5,2.5,16.3,6.7,22.3l-0.9,2.4
			C103.3,58.6,100.9,50.3,101.4,41.4z"/>
	</g>
	<g id="Server" display="none">
		<path display="inline" fill="#39444D" d="M149.4,16h47.2c1.2,0,2.1,0.9,2.1,2.1v59.7c0,1.2-1,2.2-2.2,2.2h-47.2
			c-1.2,0-2.1-0.9-2.1-2.1V18.1C147.4,16.9,148.3,16,149.4,16z"/>
		<g display="inline">
			<path fill="#22292E" d="M192.6,49.1h-38.9c-0.6,0-1.1,0.5-1.1,1.1v6.9c0,0.6,0.5,1.1,1.1,1.1h38.9c0.6,0,1.1-0.5,1.1-1.1v-6.9
				C193.6,49.7,193.1,49.1,192.6,49.1z"/>
			<path fill="#22292E" d="M192.6,60.6h-38.9c-0.6,0-1.1,0.5-1.1,1.1v6.9c0,0.6,0.5,1.1,1.1,1.1h38.9c0.6,0,1.1-0.5,1.1-1.1v-6.9
				C193.6,61.1,193.1,60.6,192.6,60.6z"/>
			<path fill="#22292E" d="M193.6,34.3c0,0.6-0.5,1.1-1.1,1.1h-38.9c-0.6,0-1.1-0.5-1.1-1.1v-6.9c0-0.6,0.5-1.1,1.1-1.1h38.9
				c0.6,0,1.1,0.5,1.1,1.1V34.3z"/>
			<path fill="#22292E" d="M193.6,45.7c0,0.6-0.5,1.1-1.1,1.1h-38.9c-0.6,0-1.1-0.5-1.1-1.1v-6.9c0-0.6,0.5-1.1,1.1-1.1h38.9
				c0.6,0,1.1,0.5,1.1,1.1V45.7z"/>
		</g>
		<g display="inline">
			<rect x="192.6" y="72" fill="#22292E" width="0.6" height="4"/>
			<rect x="159.3" y="72" fill="#22292E" width="0.6" height="4"/>
			<rect x="158.3" y="72" fill="#22292E" width="0.6" height="4"/>
			<rect x="157.1" y="72" fill="#22292E" width="0.6" height="4"/>
			<rect x="155.9" y="72" fill="#22292E" width="0.6" height="4"/>
			<rect x="152.6" y="72" fill="#22292E" width="0.6" height="4"/>
			<rect x="153.6" y="72" fill="#22292E" width="0.6" height="4"/>
			<rect x="154.8" y="72" fill="#22292E" width="0.6" height="4"/>
			<rect x="160.6" y="72" fill="#22292E" width="0.6" height="4"/>
			<rect x="161.6" y="72" fill="#22292E" width="0.6" height="4"/>
			<rect x="162.8" y="72" fill="#22292E" width="0.6" height="4"/>
			<rect x="163.9" y="72" fill="#22292E" width="0.6" height="4"/>
			<rect x="165.1" y="72" fill="#22292E" width="0.6" height="4"/>
			<rect x="166.3" y="72" fill="#22292E" width="0.6" height="4"/>
			<rect x="167.3" y="72" fill="#22292E" width="0.6" height="4"/>
			<rect x="168.6" y="72" fill="#22292E" width="0.6" height="4"/>
			<rect x="169.6" y="72" fill="#22292E" width="0.6" height="4"/>
			<rect x="170.8" y="72" fill="#22292E" width="0.6" height="4"/>
			<rect x="171.9" y="72" fill="#22292E" width="0.6" height="4"/>
			<rect x="173.1" y="72" fill="#22292E" width="0.6" height="4"/>
			<rect x="174.3" y="72" fill="#22292E" width="0.6" height="4"/>
			<rect x="175.3" y="72" fill="#22292E" width="0.6" height="4"/>
			<rect x="176.6" y="72" fill="#22292E" width="0.6" height="4"/>
			<rect x="177.6" y="72" fill="#22292E" width="0.6" height="4"/>
			<rect x="178.8" y="72" fill="#22292E" width="0.6" height="4"/>
			<rect x="179.9" y="72" fill="#22292E" width="0.6" height="4"/>
			<rect x="181.1" y="72" fill="#22292E" width="0.6" height="4"/>
			<rect x="182.3" y="72" fill="#22292E" width="0.6" height="4"/>
			<rect x="183.3" y="72" fill="#22292E" width="0.6" height="4"/>
			<rect x="184.6" y="72" fill="#22292E" width="0.6" height="4"/>
			<rect x="185.6" y="72" fill="#22292E" width="0.6" height="4"/>
			<rect x="186.8" y="72" fill="#22292E" width="0.6" height="4"/>
			<rect x="187.9" y="72" fill="#22292E" width="0.6" height="4"/>
			<rect x="189.1" y="72" fill="#22292E" width="0.6" height="4"/>
			<rect x="190.3" y="72" fill="#22292E" width="0.6" height="4"/>
			<rect x="191.3" y="72" fill="#22292E" width="0.6" height="4"/>
		</g>
		<g display="inline">
			<rect x="192.6" y="20" fill="#22292E" width="0.6" height="4"/>
			<rect x="159.3" y="20" fill="#22292E" width="0.6" height="4"/>
			<rect x="158.3" y="20" fill="#22292E" width="0.6" height="4"/>
			<rect x="157.1" y="20" fill="#22292E" width="0.6" height="4"/>
			<rect x="155.9" y="20" fill="#22292E" width="0.6" height="4"/>
			<rect x="152.6" y="20" fill="#22292E" width="0.6" height="4"/>
			<rect x="153.6" y="20" fill="#22292E" width="0.6" height="4"/>
			<rect x="154.8" y="20" fill="#22292E" width="0.6" height="4"/>
			<rect x="160.6" y="20" fill="#22292E" width="0.6" height="4"/>
			<rect x="161.6" y="20" fill="#22292E" width="0.6" height="4"/>
			<rect x="162.8" y="20" fill="#22292E" width="0.6" height="4"/>
			<rect x="163.9" y="20" fill="#22292E" width="0.6" height="4"/>
			<rect x="165.1" y="20" fill="#22292E" width="0.6" height="4"/>
			<rect x="166.3" y="20" fill="#22292E" width="0.6" height="4"/>
			<rect x="167.3" y="20" fill="#22292E" width="0.6" height="4"/>
			<rect x="168.6" y="20" fill="#22292E" width="0.6" height="4"/>
			<rect x="169.6" y="20" fill="#22292E" width="0.6" height="4"/>
			<rect x="170.8" y="20" fill="#22292E" width="0.6" height="4"/>
			<rect x="171.9" y="20" fill="#22292E" width="0.6" height="4"/>
			<rect x="173.1" y="20" fill="#22292E" width="0.6" height="4"/>
			<rect x="174.3" y="20" fill="#22292E" width="0.6" height="4"/>
			<rect x="175.3" y="20" fill="#22292E" width="0.6" height="4"/>
			<rect x="176.6" y="20" fill="#22292E" width="0.6" height="4"/>
			<rect x="177.6" y="20" fill="#22292E" width="0.6" height="4"/>
			<rect x="178.8" y="20" fill="#22292E" width="0.6" height="4"/>
			<rect x="179.9" y="20" fill="#22292E" width="0.6" height="4"/>
			<rect x="181.1" y="20" fill="#22292E" width="0.6" height="4"/>
			<rect x="182.3" y="20" fill="#22292E" width="0.6" height="4"/>
			<rect x="183.3" y="20" fill="#22292E" width="0.6" height="4"/>
			<rect x="184.6" y="20" fill="#22292E" width="0.6" height="4"/>
			<rect x="185.6" y="20" fill="#22292E" width="0.6" height="4"/>
			<rect x="186.8" y="20" fill="#22292E" width="0.6" height="4"/>
			<rect x="187.9" y="20" fill="#22292E" width="0.6" height="4"/>
			<rect x="189.1" y="20" fill="#22292E" width="0.6" height="4"/>
			<rect x="190.3" y="20" fill="#22292E" width="0.6" height="4"/>
			<rect x="191.3" y="20" fill="#22292E" width="0.6" height="4"/>
		</g>
		<g display="inline">
			<g>
				<circle fill="#3FB6A1" cx="157.1" cy="65.1" r="1.1"/>
				<circle fill="#3FB6A1" cx="161.1" cy="65.1" r="1.1"/>
				<circle fill="#3FB6A1" cx="165.1" cy="65.1" r="1.1"/>
			</g>
			<circle fill="#3FB6A1" cx="157.1" cy="30.9" r="1.1"/>
			<circle fill="#3FB6A1" cx="161.1" cy="30.9" r="1.1"/>
			<circle fill="#3FB6A1" cx="165.1" cy="30.9" r="1.1"/>
			<circle fill="#3FB6A1" cx="157.1" cy="42.3" r="1.1"/>
			<circle fill="#3FB6A1" cx="161.1" cy="42.3" r="1.1"/>
			<circle fill="#3FB6A1" cx="165.1" cy="42.3" r="1.1"/>
			<circle fill="#3FB6A1" cx="157.1" cy="53.7" r="1.1"/>
			<circle fill="#3FB6A1" cx="161.1" cy="53.7" r="1.1"/>
			<circle fill="#3FB6A1" cx="165.1" cy="53.7" r="1.1"/>
		</g>
		<g display="inline">
			<rect x="186.8" y="28" fill="#2A3239" width="1.1" height="1.1"/>
			<rect x="189.1" y="28" fill="#2A3239" width="1.1" height="1.1"/>
			<rect x="191.3" y="28" fill="#2A3239" width="1.1" height="1.1"/>
			<rect x="186.8" y="30.3" fill="#2A3239" width="1.1" height="1.1"/>
			<rect x="189.1" y="30.3" fill="#2A3239" width="1.1" height="1.1"/>
			<rect x="191.3" y="30.3" fill="#2A3239" width="1.1" height="1.1"/>
			<rect x="186.8" y="32.6" fill="#2A3239" width="1.1" height="1.1"/>
			<rect x="189.1" y="32.6" fill="#2A3239" width="1.1" height="1.1"/>
			<rect x="191.3" y="32.6" fill="#2A3239" width="1.1" height="1.1"/>
		</g>
		<g display="inline">
			<rect x="186.8" y="39.4" fill="#2A3239" width="1.1" height="1.1"/>
			<rect x="189.1" y="39.4" fill="#2A3239" width="1.1" height="1.1"/>
			<rect x="191.3" y="39.4" fill="#2A3239" width="1.1" height="1.1"/>
			<rect x="186.8" y="41.7" fill="#2A3239" width="1.1" height="1.1"/>
			<rect x="189.1" y="41.7" fill="#2A3239" width="1.1" height="1.1"/>
			<rect x="191.3" y="41.7" fill="#2A3239" width="1.1" height="1.1"/>
			<rect x="186.8" y="44" fill="#2A3239" width="1.1" height="1.1"/>
			<rect x="189.1" y="44" fill="#2A3239" width="1.1" height="1.1"/>
			<rect x="191.3" y="44" fill="#2A3239" width="1.1" height="1.1"/>
		</g>
		<g display="inline">
			<rect x="186.8" y="50.9" fill="#2A3239" width="1.1" height="1.1"/>
			<rect x="189.1" y="50.9" fill="#2A3239" width="1.1" height="1.1"/>
			<rect x="191.3" y="50.9" fill="#2A3239" width="1.1" height="1.1"/>
			<rect x="186.8" y="53.1" fill="#2A3239" width="1.1" height="1.1"/>
			<rect x="189.1" y="53.1" fill="#2A3239" width="1.1" height="1.1"/>
			<rect x="191.3" y="53.1" fill="#2A3239" width="1.1" height="1.1"/>
			<rect x="186.8" y="55.4" fill="#2A3239" width="1.1" height="1.1"/>
			<rect x="189.1" y="55.4" fill="#2A3239" width="1.1" height="1.1"/>
			<rect x="191.3" y="55.4" fill="#2A3239" width="1.1" height="1.1"/>
		</g>
		<g display="inline">
			<rect x="186.8" y="62.3" fill="#2A3239" width="1.1" height="1.1"/>
			<rect x="189.1" y="62.3" fill="#2A3239" width="1.1" height="1.1"/>
			<rect x="191.3" y="62.3" fill="#2A3239" width="1.1" height="1.1"/>
			<rect x="186.8" y="64.6" fill="#2A3239" width="1.1" height="1.1"/>
			<rect x="189.1" y="64.6" fill="#2A3239" width="1.1" height="1.1"/>
			<rect x="191.3" y="64.6" fill="#2A3239" width="1.1" height="1.1"/>
			<rect x="186.8" y="66.9" fill="#2A3239" width="1.1" height="1.1"/>
			<rect x="189.1" y="66.9" fill="#2A3239" width="1.1" height="1.1"/>
			<rect x="191.3" y="66.9" fill="#2A3239" width="1.1" height="1.1"/>
		</g>
		<path display="inline" opacity="0.1" enable-background="new    " d="M196.6,16h-23.5v64h23.5c1.2,0,2.2-1,2.2-2.2V18.1
			C198.8,16.9,197.8,16,196.6,16z"/>
	</g>
</g>
<g id="Globe">
	<path fill="#39444D" d="M169.9,16.4c17.5,0,31.7,14.2,31.7,31.7s-14.2,31.6-31.7,31.6s-31.7-14.2-31.7-31.6S152.4,16.4,169.9,16.4z
		"/>
	<path fill="#313B42" d="M170.9,16.4v63.3c17.1-0.4,30.8-14.4,30.8-31.6S187.9,16.9,170.9,16.4z"/>
	<path fill="#4F5B66" d="M191.8,25.2c0.2,0.9-0.6,1.9-1.6,1.8c0.2-0.8-0.7-1.5-1-2.3c-0.3,0.2-1.6,0.7-1.8,0.8
		c-0.2-0.1-0.8-0.7-0.2-0.4c0-0.1,0-0.3,0-0.4c-0.2,0.2,0,0.1-0.2,0c0-0.1-0.2,0.3,0.2-0.2c-0.2,0.1-0.4-0.1-0.4-0.2
		c0.2-0.2,0.5-0.7,1.1-1.2c-0.8-0.1,0.7-0.4,0.6-0.4C189.6,23.2,190.8,24.2,191.8,25.2C191.8,25.2,191.8,25.2,191.8,25.2
		C191.8,25.3,191.8,25.2,191.8,25.2z M182.1,27C181.8,27.2,182.1,26.6,182.1,27C182.1,27,182.1,26.9,182.1,27z M185.1,28.7
		c-0.2,0.2-0.4,0.3-0.6,0.4c0,0.2,0.3,0,0.5,0c0,0.3-3,0.8-3.2,0.7c0.3-0.6,1.2-0.4,1.4-0.8c-0.4,0.1-0.8,0.1-1.1-0.1
		c0.8-0.7,0.3-0.3,0.3-0.5c0.1-0.2,0.8-1.1,0.7-1.1c-0.3-0.1-0.6,0.1-0.9,0c0.1-0.3,0.3-0.5,0.2-0.7c-0.2,0-0.3,0.1-0.4,0.2
		c0.1-0.9,0.2-0.2-0.2-0.4c0.4-0.5,0.2-1.5,1.4-1.1c0.1,0.2-0.5,0.3-0.5,0.5c0.1,0.1,0.8-0.1,1,0c0.2,0.5-0.8,0.5-0.4,0.7
		C182.6,26.9,185.1,28.1,185.1,28.7C185.1,28.8,185.1,28.6,185.1,28.7z M175.8,17.5c0.1,0,0.2,0,0.4,0c-0.1,0-0.4,0.1-0.5,0.1
		C175.8,17.5,175.8,17.5,175.8,17.5C175.9,17.5,175.8,17.5,175.8,17.5z M176.8,17.5c-0.1,0.1-0.7,0.2-0.8,0.2
		C176.1,17.5,176.6,17.5,176.8,17.5C176.8,17.5,176.6,17.5,176.8,17.5z M177.1,17.7c-0.2,0.1-0.9-0.2-1,0c0.1-0.1,1.4-0.1,0.7,0
		C176.8,17.7,177.1,17.7,177.1,17.7L177.1,17.7L177.1,17.7z M176.3,18.6c-0.2,0-0.6,0.3-0.8,0.2C175.3,18.6,177.1,18.4,176.3,18.6
		C176.3,18.6,176.4,18.6,176.3,18.6z M166.4,20.8c-0.1,0-0.1-0.1,0.1-0.2C166.6,20.7,166.4,20.7,166.4,20.8
		C166.4,20.8,166.4,20.7,166.4,20.8z M166.1,19.7C166.1,19.7,166.3,19.8,166.1,19.7C165.9,19.8,165.9,19.8,166.1,19.7L166.1,19.7
		L166.1,19.7z M165.9,19.9C166.1,20.2,165.6,20,165.9,19.9L165.9,19.9z M165.4,18.9c0,0.2,0,0.2-0.2,0.1
		C165.3,18.9,165.3,18.9,165.4,18.9C165.4,18.9,165.4,18.9,165.4,18.9z M165.4,20.9c0,0-0.7-0.1-0.2-0.1c-0.1-0.1-0.2-0.1,0-0.1
		c0-0.6,0.9,0.2,1,0.1c-0.1,0-1,0.2-1,0.2C165.3,20.9,165.6,20.9,165.4,20.9L165.4,20.9z M150.4,23.5c0,0.4,0,0.6-0.8,0.4
		C149.9,23.3,150.1,23.1,150.4,23.5C150.4,23.6,150.4,23.4,150.4,23.5z M154.9,26.1c-0.1-0.1-2.1,0.3-2.4,0.4c0-0.2,0.8-1.1,1-1.4
		C153.9,25.4,154.4,25.9,154.9,26.1C155.1,26.1,154.9,26,154.9,26.1z M159.9,18.1c0,0-0.1,0-0.2,0C159.8,18.1,159.9,18.1,159.9,18.1
		L159.9,18.1L159.9,18.1z M158.9,18.3c-0.1,0-0.2,0.1-0.2,0.1C158.9,18.4,158.9,18.4,158.9,18.3L158.9,18.3
		C158.9,18.4,158.9,18.3,158.9,18.3z M158.9,18.6c0.2,0.3-1,0.4-1.2,0.5C157.4,18.6,158.6,18.5,158.9,18.6
		C158.9,18.7,158.9,18.6,158.9,18.6z M156.4,19.8c-0.4,0.2-0.9,0.3-1.4,0.4c-0.2,0.1,2.6-1.6,2.9-0.6
		C157.1,20.1,156.9,20,156.4,19.8C156.3,19.8,156.4,19.8,156.4,19.8z M157.4,23.4c0.7,0-0.2,0.9-0.6,0.6
		C156.6,23.8,157.4,23.5,157.4,23.4C157.6,23.4,157.4,23.5,157.4,23.4z M153.1,22c0.3-0.6,1.3-1.7,2.2-1.4c-1,0.7-0.6,0.8-0.9,1.5
		c0.6,0,0.5-0.2,0.3-0.5c0.2-0.2,0.3-0.2,0.5-0.2c0-0.1-0.2-0.1-0.3-0.2c0.1-0.4,0.4-0.3,0.7-0.3c0-0.1-0.1-0.2-0.2-0.1
		c1.2-1,1.4-0.1,1,0.6c0.5,0.1,2-0.9,2.5-0.2c0,0.2-0.2,0.3-0.4,0.3c0.2,0.3,1.9-0.3,1.1,0.3c0,0,1.1,0,1.2,0.1
		c-0.2,0-0.4,0.1-0.6,0.3c0.2,0.2,1-0.4,0.9,0.1c-0.2-0.1-0.4,0-0.5,0.1c0.2,0,0.4,0,0.5,0.2c0,0-1,0.3-0.9,0.2
		c0.2,0.7,1.4,0.2,1.6,0.7c-0.2,0-0.2,0-0.3,0.2c0.6-0.2,0.8-0.2,0.6,0.1c0.3-0.2,0.5-0.1,0.7,0.1c-0.2,0.3-0.4,0.1-0.6,0.2
		c0.2,0.7-0.5-0.1-0.5,0.8c-0.3,0-1.6-0.6-1.8-0.6c0,0.6,0.6,0.8,1,1c-0.4,0,0.2,0.3,0.1,0.6c-0.1-0.1-0.2-0.2-0.2-0.3
		c0,0.1,0,0.8,0,0.8c-0.7-0.2-0.8-0.7-1.4-0.6c0,0.4,0.8,0.6,0.9,1c-1.1-0.3-1.6-0.8-2-1c-0.4,0-1.7-0.1-2.2-0.2
		c0,0,5.1-2.7,1.4-2.4c0-0.4,0.3,0,0.5-0.3c-0.4-0.2-1.1-0.9-1.6-0.7c0,0,0.6,0.2,0.6,0.3c0,0.5-3.7,0-3.6-0.2c0.2,0,0.6,0,0.7-0.1
		C153.9,21.9,153.4,22,153.1,22C153.1,21.8,153.4,22,153.1,22z M154.1,49.7c0,0.1-0.7,0-0.8-0.2C153.6,49.3,153.9,49.3,154.1,49.7
		C154.1,49.7,154.1,49.5,154.1,49.7z M154.4,40.8C154.4,40.9,154.4,40.9,154.4,40.8L154.4,40.8z M154.4,40.8L154.4,40.8L154.4,40.8z
		 M154.6,41.1c-0.1,0-0.1-0.1-0.1-0.2C154.6,40.9,154.6,41,154.6,41.1C154.6,41.1,154.6,41,154.6,41.1z M154.9,48.7
		c-0.1,0.2-1.2,0.1-1.4,0.1c0-1-1-0.4-1.7-1.2c0.8-0.2-1.1,0.2-0.9,0.3C151.9,46.7,153.9,47.9,154.9,48.7
		C154.9,48.7,154.8,48.5,154.9,48.7z M155.3,48.9c0-0.5,1.9,0.4,2,0.6c-0.1,0.2-2.2,0.4-2.4,0c0.1-0.3,0.5,0.2,0.8,0
		C155.4,49.1,155.6,49.1,155.3,48.9L155.3,48.9z M158.1,49.7c-0.7,0-0.1-0.5,0.3-0.2C158.3,49.7,158.3,49.7,158.1,49.7
		S158.3,49.7,158.1,49.7z M158.4,54.9c0,0.4,0,0.4-0.4,0.4C158.1,55.1,158.3,54.9,158.4,54.9L158.4,54.9z M161.4,35.6
		c-0.2,0.3-0.4,0.3-0.7,0c0.1-0.2,0.2-0.4,0.4-0.6c0.4,0.3-0.2,0.4-0.2,0.6C161.1,35.8,161.1,35.3,161.4,35.6
		C161.3,35.9,161.1,35.3,161.4,35.6z M164.1,60.3c-0.6,0.4-0.9,0.2-0.8-0.5C163.6,59.8,164.6,59.7,164.1,60.3
		C164.1,60.4,164.1,60.2,164.1,60.3z M164.4,34.7c0,1.2-0.8-0.2-0.6-0.1c-0.2,0.4-0.4,0.5-0.7,0.4c0-0.2,0.2-0.4,0.5-0.4
		c0,0-1.6,0-1.8,0.1c-0.1-0.3,0.1-0.4,0.5-0.5c-0.2,0,0.6-1.9,1.3-1.6c0,0.1-0.6,0.8-0.7,1c0.2,0,0.8-0.2,1.3,0.2
		c-0.4,0.4-0.2,0.2,0.1,0.4C164.3,34.3,163.8,34.8,164.4,34.7C164.4,34.9,164.3,34.7,164.4,34.7z M167.8,25.9
		C168.1,25.2,167.9,26.5,167.8,25.9C167.9,25.9,167.8,25.9,167.8,25.9z M179.1,21.7c0.3,0.3-3.1,1.7-3.8,0.9c1.1-0.8-0.2,0-0.4-0.4
		c0.2-0.2,0.9,0,0.8-0.4c-0.2,0-0.9,0.1-1-0.1c0,0,0.7-0.6,1.2,0.1C176.8,21.5,178.3,20.9,179.1,21.7
		C179.3,21.8,179.1,21.7,179.1,21.7z M199.6,38c0-0.2-0.5-0.1,0.3-0.4C200.1,37.9,199.9,38,199.6,38C199.6,38,199.8,38,199.6,38z
		 M200.9,41.6c-0.4-0.5-0.7-1.6-0.5-2.3c0.2,0.8,0.4,1.6,0.6,2.5C200.9,41.7,200.9,41.7,200.9,41.6
		C200.8,41.5,200.9,41.7,200.9,41.6z M199.3,37.3c-0.8-0.2-2.4-1-2.9-1.1c0-0.2,0.6-0.8-0.2-0.7c0-1,1.2-0.2,1.4-0.5
		c0,0-0.1,0-0.2,0c0.1-0.2,0.2-0.2,0.5-0.1c0-0.1-0.5,0.1-0.3-0.2C199.1,34.7,199.6,37.3,199.3,37.3
		C199.3,37.2,199.6,37.3,199.3,37.3z M196.4,37.7c0,0.3-1.6,0.2-1.2-0.2C195.1,37.6,196.3,37.7,196.4,37.7
		C196.3,37.7,196.3,37.7,196.4,37.7z M191.3,36.8c-0.3,0.2-1.2,0-1.3-0.4c0.1-0.4,1.2-0.3,1.4-0.2C191.3,35.1,191.1,37,191.3,36.8
		C191.1,36.8,191.3,36.7,191.3,36.8z M188.4,33.7c0.1-0.4,0.4,0.3,0,0.7C187.8,34.4,188.3,34,188.4,33.7L188.4,33.7z M187.9,34.8
		c1-1,0.4,0.8,0.3,1C188.1,35.7,187.9,34.9,187.9,34.8C187.9,34.8,187.9,34.9,187.9,34.8z M181.6,28.4c-0.4,1-1.9,0.4-2,0.4
		c0-0.1,0.6-0.2,0.6-0.3c-0.1,0-0.2,0-0.2,0c0.5-0.4,0.3-0.2-0.2-0.4c0.2-0.2,0.7-0.3,0.9-0.7c-0.1,0-0.2,0-0.3,0
		c0.2-0.2,1-0.5,1.3-0.3C181.8,27.4,181.8,28.2,181.6,28.4C181.6,28.5,181.8,28.3,181.6,28.4z M189.1,26.1c-0.2,0-0.8,0.2-0.9,0.1
		C188.3,25.9,189.3,25.2,189.1,26.1C188.8,26.1,189.1,26,189.1,26.1z M189.9,27c-0.2,0.2-0.7,0-0.6-0.2
		C189.8,26.3,189.8,27,189.9,27L189.9,27z M197.3,33.2c-0.1,1.1-0.5,0.3,0.3,1.4c0,0-1.2,0.6-1.4,0.6c0.2-0.6-0.6-0.4-1.2-0.3
		c0,0.2,0.3,0.2,0.3,0.3c-0.1,0-0.2-0.1-0.2-0.1c-0.1,0.1-0.2,0.1,0,0.2c-0.3,0-0.3-0.2-0.4-0.4c-0.5-0.1,0.3,0.9,0.2,0.8
		c-0.1,0.1,0,0-0.1,0s-0.2,0.2-0.2,0.2c0.2,0.1,0.5,0.2,0.7,0.4c0,0-0.2,0-0.5,0.1c0.2,0.2,0.1,0.1,0.2,0.2c-0.3,0,0,0-0.4-0.1
		c0,0.2,0,0.4,0.2,0.5c-1.3-0.7,0-0.5,0-0.8c-0.6,0-1.5-0.4-1.8-1.1c0.4,0.1-1.6-2.1-1.8-2.1c-0.7-0.2-0.1-0.6-0.8-0.3
		c-0.2-0.4,0-0.4-0.1-0.5c-0.2,0-0.6,0-0.7,0.3c0,0,2.8,3.1,2.9,2.9c0,0-0.5-0.5-0.6-0.4c0,0-0.2,1.7-0.8,1.3c0-0.4,0.2-1.6-0.6-1.4
		c0,0.1-2.3-2.4-3-1.8c-0.4,0.1-3.7,1.3-3.4,1.7c-0.6,1.1-0.8,2.1-2.5,2.1c-0.9,0.7-1-0.6-2.1-0.1c0-0.5,0.1-0.9,0-1
		c-0.2,0.1-0.1-2.4,0.4-2.4c0.2-0.4,1.6,0,2.1,0c0.9,0,0.9-0.5,1.2-0.7c0-0.6,0-0.5,0.2-0.3c-0.3-1.3-1.3-0.8-1.7-1.6
		c0.3,0,0.1,0,0.2-0.2c-0.7,0,1.4-0.2,1.3-0.2c0-0.2,0-0.4-0.2-0.6c0.3,0,0.7,0.4,1,0.1c-0.5-0.1,1.5-1,1.6-1c0-0.1,0.4-0.7,0.6-0.8
		c0.1,0.1-0.2,0.6,0.2,0.3c0.2-0.3-0.2-0.1,0-0.5c2-0.6,0.1,0,0.8,0c0.1-0.3,0.5-0.1,0.5-0.2c0.1,0,0.2-0.1,0.4-0.1l-0.2-0.2
		c0.1,0-0.3-1.2,1-1.2c-0.7-0.6,0.2,1.7,0.1,1.4c1.4,0,1.5-0.4,3-0.5C194.3,27.2,197.8,30.9,197.3,33.2
		C197.3,33.3,197.3,32.9,197.3,33.2z M196.6,34.3C196.3,34.2,196.8,34.5,196.6,34.3C196.4,34.3,196.6,34.3,196.6,34.3z M184.4,52.3
		c-1.6,0.2-5.8,1.4-6.6-1.2c0.3,0-1.4-1.7-1.4-1.8c-0.2-0.6-0.6-4-0.4-4.2c-0.3-2,2.6-3.2,3.4-4.4c1.2-1.7,1-2.5,3-2.9
		c1.6-0.3,5.8-0.4,6.9-1c0,0.7,0,1-0.5,1.5c0.2,0.7,1.8,0.7,2.4,0.9c0.6,0.2,1.2,1,1.9,1.1s0.2-1.9,1.7-1.3c1.5,0.7,6.6,0.4,5.5,2.5
		c-0.5,0-0.7-0.4-0.8-1c-0.4,0.1,1.6,3.4,2,3.9c0.6,5.5-0.2,11.2-2.4,16.3c-0.4,1-5.5,9.6-6.1,8.9c-0.7,0-0.2-0.5-0.4-1
		c-0.7-1.2-4.3-7.2-2.1-8c1.5-0.9-2.8-5.8-1.6-5.7c0-0.6,0-1.4-0.4-1.9C188.1,52.6,185.3,51.7,184.4,52.3
		C184.3,52.3,184.6,52.2,184.4,52.3z M187.9,53.4C188.6,53.2,187.9,53.5,187.9,53.4C188.1,53.3,187.9,53.4,187.9,53.4z M159.1,75
		c-0.3,0.1-0.4-0.3-0.4-0.4C158.9,74.5,158.9,74.8,159.1,75C159.1,75,159.1,74.9,159.1,75z M161.1,77.4
		C160.9,77.4,161.4,77.6,161.1,77.4L161.1,77.4z M163.4,77.7c0.3,0,0.6,0.1,1,0.2c-0.1-0.2-1.6,0.2-1.8,0c-0.1-0.3,0.3,0,0.5-0.1
		c-0.4-0.2-0.6,0-0.8-0.2C162.1,77.2,163.6,77.7,163.4,77.7C163.8,77.8,163.3,77.6,163.4,77.7z M149.6,24.5c0.4-0.5-0.4,0-0.2-0.4
		c1.1-0.2,0.2,0.4,0.8,0.6c0.3-0.8,0.4-0.5,1-1c0-0.2-0.1-0.3-0.4-0.1c0.2-0.5,0.5,0.1,0.7-0.4c-0.2,0-0.8,0-1-0.2
		c1.4-1.1,1.9-1,1.2,0c0.1,0,0.6,0,0.7,0.1c-0.3,0.3,0,0.2-0.2,0.6c0.3-0.1,0.6-0.9,0.9-0.4c0.4,0.7-0.8,0.1,0,1
		c0.7-0.2,1.7-2.6,2.5-1.3c0.5,0.2-0.6,0.4-0.5,0.3c-0.3,1.2-1,1-0.8,1.4c-0.4,0.1-0.8-0.4-1.1,0c0.6,0-1.2,0.4-1.5,0.4
		c0.3,0.2,0.8,0.4,1.2,0.4c-0.3,1-2.3,0.6-2.4,0.8c-0.1,0,1,0.6,0.8,0.4c0,0-0.8,0.6-0.6,0.4c-0.5,0.7-0.9,0.6-1.3,1.4
		c-0.6,1.2,0.7,0.5,0.4,1.7c0.2,0,3.2,0.5,3.5,0.8c-0.4,0.9-0.3,1.7,0.7,2.2c-0.1-0.3,0-0.5,0.2-0.2c0.2-0.6,0.3-1.3,0.1-1.6
		c0.4,0.7,1.2-3.1,1.2-3c0.2-0.2,0.2-1.1,0.2-1.3c-0.2-1,3,0.3,3.1,0.3c0.2,0.4-0.5,1.2-0.4,1.4c1.2-0.1,1.3,0.2,2.2-1
		c0.6,0.7,1.1,1.6,0.6,1.9c0.2,0.4,0.8,0.4,0.6,0.9c0.5,0,0.8,0.1,1.2,0.2c-0.3,0.4-1.1,0.2-1.2,0.8c0.3-0.1,1-0.7,1.3-0.4
		c-0.2,0.3,1.4,1.1-0.8,1.4c-1.7,1.7-3.9,0-5.4,2.7c0.3-0.2,2.6-2.3,2.9-1.1c-0.1,0.2-1,0.4-1,0.4c0.1,0,0.6,0.1,0.7,0.2
		c-1,1,1.2,1,1.4,1.3c-0.2,0.1-1.2,0.4-1.2,0.4c-0.3,0.2-0.7,0.4-0.9,0.5c-0.1-0.2,0-0.4,0.1-0.4c-0.4,0.2,0.1,0,0-0.1
		c0.3,0,0.3-0.4,0.6-0.4c-0.1,0.4,0.3-0.2,0.4,0c-1.1-0.1-0.6,0.2-0.3-0.2c-0.2,0,0.1,0.1-0.2-0.1c0.1,0.3-0.4,0.5-0.6,0.4
		c0.1,0.2-0.3,0.2-0.4,0.1c0.2,0.5-0.7,0.4-0.7,0.4c0.1,0-0.5,0.6-0.4,0.3c-0.4,0.3-0.5,0.6-0.4,1.2c0.1,0,0.2,0,0.2-0.1
		c0,0-0.1,0-0.1-0.1c0.2,0.1-1.6,0.8-1.5,0.6c-0.2,0.4-0.1,0.8-0.5,1.2l-0.2-0.5c-0.1,0.1,0.2,1.2-0.3,1.4c0-0.1,0.1-0.5,0.1-0.6
		c-0.2,0.2-0.1-0.3-0.1-0.4c-0.2,0,0-0.1,0.1-0.1c-0.1,0-0.1,0,0-0.1l-0.1,0.1l0,0c0,0.1,0,0,0,0c-0.1,0.4-0.1,0.4,0,0.7
		c-0.1,0-0.2-0.1-0.2-0.2c0,0.1-0.2,0-0.1-0.2c-0.2,0.1,0.6,0.8,0.1,0.4c0,0,0.4,0.6,0,0.3c0,0,0.3,0.2,0.3,0.4l0,0
		c-0.1,0.2,0.2,0.4-0.1,0.2c0.1,0.1,0,0.1-0.1,0c0.1,0.2-0.1,0-0.1,0c0,0.2,0.1,0.2,0.2,0.3c0-0.5,0,0.6-0.2,0.1c0,0-0.1,0-0.2-0.1
		c0,0,0.4,0.5,0,0.2c0.1,0.4,0.1,0.2-0.8,0.8c-1.8,1.2-0.2,2.6-0.7,4.2c-0.2,0-2.6-4.5-3.6-2.4c0,0.1,0.4,0.2,0.5,0.5
		c-0.2,0-1-0.2-1-0.2c-0.2,0-1,0.1-1-0.1c-0.2,0.2-0.7,0.6-0.9,0.9c0,0-0.2,2.8,0,3.1c0.6,1.2,2,1,2,1c0.5,0,0.4-2.2,1.7-1.1
		c0,0.2-0.3,1-0.3,1.3c-0.1,0-0.1-0.1-0.1-0.2c-0.1,0.1,0,0-0.1,0.2c0.4-0.1-0.2,1,0,1.2c0.4-0.2,2.5-0.2,1.9,1
		c-0.2,0.9,0.3,2.4,1.4,2c0.8-0.3,1.2,0.8,1.1,0.8c0,0.2,0.4-0.5,0.6,0c-0.2,0.2-0.6,0.9-0.1,1.3c0.4-0.1,0-0.8,0-0.8
		c0.2,0,0.4-0.2,0.6-0.3c-0.1-0.1-0.1,0-0.2-0.2c-0.2,0.9,2.9,0.6,3.3,0.7c0.1,0.2-0.4,0.1-0.3,0.1c0,0.4,0.6,0.3,0.9,0.5l-0.4,0.4
		c0.7,0.1,1.2,0.1,1.4,0.9c0,0.4,6,1.1,3,3.5c0.2,0.2,1.1-0.1,1.2,0.4c1-0.5,1.6-0.8,2.1,0.4c3.3-2.3,5.4,4.3,3,3.9
		c0.3,1.9,0.4,3.7-1.6,3.8c0,0.2-1.3,0.8-1.4,0.8c0.2,0.8,0.3,1.6-0.4,2.1c0-0.5,0.4-0.4-0.1-0.5c0.6,1.8-2.2,1.1-2.3,1.2
		c1.6,2.1,0.4,0-0.8,1.3l0.3,0.6c0,0.2-1,0-1,0c-0.1,0.2,0.5,0.5,0.6,0.5c0,0,0,0-0.1,0c0.9-0.1-0.2,0.2-0.2,0.2
		c0.5,0.4-0.3,0,0.2,0.6c-1,0-0.1,0.5,0.4,0.6c0.2,0.1-0.5,0.8-0.5,0.8c0.2,0.2,0.4,0.4,0.6,0.4c-0.6,0.1-0.6-0.2-0.6,0.3
		c0.1,0-0.9-0.2-0.9-0.2c0.1,0,0.2,0,0.4,0c-0.6-0.2-1.1-0.2-1.2-0.5c-0.4,0-0.5-0.3-0.8-0.6c0.7,0-0.6-0.4-0.7-0.4
		c-0.2-0.2,0.6,0,0.6,0c0.1-0.3-0.2-1.4-0.6-1.4c-0.1,0.3-1-3.1-1.1-3.2c-1-1.7-0.4-3.4-1.6-5.1c-2-1-2.4-2.2-3.8-3.8
		c-1-1.4-0.4-0.7-0.5-2.2c0,0,0.5-3.6,0.2-4.5c0.5,0,2.1-2.3,0.9-1.9c-0.1,0.5-0.2,0,0,0.6c-0.4,0-0.4-0.2-0.4-0.1
		c-0.1,0-1-0.4-0.9-0.5c0.1,0,0.1,0.1,0.1,0.1c-0.2,0-0.6-0.7-0.8-0.8c0,0.2,0.2,0.1,0.1,0.3c-0.3-0.2-0.1-0.5-0.3-0.6
		c0.3,0-1.2-1-0.6-0.9c-0.7-1.7-6.1-0.9-6.3-3.6c0.3-0.4-2.7-4.8-2.8-4.9c-0.1,1,1.9,3.5,1.4,4c-1.5-0.9-1.6-3.5-2.4-5
		c-2,0.1,0.2-5.2,0.4-5.7C141.8,33.1,145.6,24.9,149.6,24.5C149.8,24.4,149.6,24.5,149.6,24.5z M154.4,40.8
		C154.4,40.7,154.4,40.7,154.4,40.8C154.4,40.7,154.4,40.8,154.4,40.8C154.4,40.7,154.4,40.8,154.4,40.8z M154.4,40.7L154.4,40.7
		L154.4,40.7L154.4,40.7z M176.8,17.3c-1,0-0.4,0.3-0.4,0c-0.2,0-0.6,0-0.6,0.2c-0.1,0-0.2,0-0.2,0s0.1,0,0.2,0
		c-0.2,0.1-0.4,0.2-0.7,0.2c0,0,0,0.2-0.1,0.2c0,0,0.7-0.2,0.8-0.2c-1,0.6,0.2-0.2,0.3,0.1c0,0.1-0.1,0.1-0.2,0.1
		c0.4-0.4,1.6,0.2,1.8,0.2c-0.2,0.4,0.6-0.1-0.2,0.2c-0.1,0.3-2-0.1-2.6,0c0,0,1.2,0.4,1.4,0.1c-0.2,0.2-0.7,0.3-0.9,0.3
		c0.5,0.2-0.2,0.2-0.1,0.3c0.2,0,1-0.1,1-0.2c0,0-0.6,0.3-0.7,0.3c0.8-0.1,1.6-0.4,2.4-0.6c0,0.2-0.3,0.3-0.3,0.2
		c-0.1,0.1-0.5,0.1-0.2,0.2c-0.1,0-0.1,0-0.2,0c0,0,0,0,0.1,0c-0.3,0.4-1.6,1-2.2,1c0,0,0.2,0,0.1,0.1c-0.4,0.4-0.7,0-0.8,0.1
		c0,0,0,0-0.1,0c0.1,0-0.3,0.6-0.4,0.8c0.4,0-1,0.7-0.8,0.4c0,0.2,0.3,0.2-0.3,0.3l-0.5,0.3c-0.3,0,0-0.3,0.1-0.4
		c0.4-0.1-0.6,0.1-0.3,0.1c0.1-0.1-1.1,0.8-1.1,0.6c0,0,0.6,0,0.2,0.2c-0.2,0.1-0.4,0-0.6,0.1c0.2,0.1,0.5,0.2,0.5,0.4
		c-0.2,0.1-0.4,0.1-0.6,0.2c0,0,0.6,0.1,0.5,0.2c-0.1,0.1-0.4,0-0.5,0c0,0.1,0.5,0,0.4,0c0,0.2-0.7,0.6-1,0.8
		c0.3,0.3,0.4,0.1-0.2,0.2c0.5,0.3,0.3,0.5,0.4,0.4c0,0-0.4,0.6-0.5,0.4c0,0.1,0.6,0.1,0,0.2h0.1c-0.1,0-0.2,0-0.3,0
		c0,0.2,0.4,0,0.4,0c0,0.1-0.4,0.2-0.6,0.2c0,0.2,0.2,0.5-0.9,0.4c-0.1-0.1,0.2-0.2,0.2-0.2l0,0c0,0,0.1-0.1,0.1-0.2
		c-0.1,0-0.2,0.1-0.3,0.2c-0.1-0.2,0-0.1-0.4-0.1c0,0,0.7-0.7-0.1-0.2c0.3-0.6-0.7,0.3-1.2,0.2c0.5-0.1-0.3-0.3-0.4-0.3
		c0.6-0.2-0.3,0-0.4,0c0,0,0.3-0.2,0.3-0.3c-0.1,0-0.2,0.1-0.4,0.1c0.1-0.2,0.3-0.3-0.3-0.3c0.2,0,0.2-0.8,0-0.4c-0.1,0-0.1,0-0.2,0
		c-0.1-0.2-0.3-0.2,0.1-0.4c-0.3,0.1-0.3,0-0.5,0c0.3-0.6,0,0.4,0.1-0.2c0.2,0,0.5-0.1,0.7-0.2c-0.2-0.2-0.7,0.3-0.8,0.1
		c0.6-0.5,0.6-0.2,1.1-0.2c0-0.1-0.5-0.4-0.6-0.4c0,0-0.6,0.8-0.8,0.6c0.2,0.1,0-0.6,0.1-0.5c-0.1,0,0.2-0.3,0.2-0.3
		c-0.3-0.1-0.7,0.2-0.4-0.2c-0.9,0.2,1.4-0.7,1.5-0.8c-0.3,0-1.7,0.4-1.8,0.6c0.1-0.2,0.2-0.1,0.5-0.3c-0.1,0-0.2,0-0.3,0
		c1-0.2,0.1-0.1-0.1-0.3c0.4-0.1,0.8-0.2,1.2-0.1c-0.3-0.3-0.9,0.1-1.2,0c0.4-0.3,0.8-0.3,1.3-0.3c0-0.6-0.2,0.3-0.5,0l0,0
		c-0.1,0-0.7,0.3-0.8,0.3c-0.2-0.2,0.7-0.3,0.7-0.3c0-0.1-0.1-0.1-0.2-0.1c0.5-0.5,0.8,0.4,0.9-0.2c-0.1-0.1-0.7,0.2-1,0.2
		c0.1,0,1-0.4,1.2-0.4c-0.1,0-0.1,0-0.2,0.1c0.1-0.1,0.5-0.2,0.6-0.3c0,0-0.6,0-0.1-0.2c-0.1,0,0.1-0.2,0.2-0.3
		c-0.2,0-1.5,0.1-1.5-0.2c0.2-0.1,1.5,0.1,1.5,0c-0.2,0-0.3,0-0.2-0.1c0.1,0,0.2,0,0.2,0c0-0.1-0.4,0-0.4-0.1c0.1,0,0.6-0.2,0.3,0
		c-0.1-0.2-0.5,0-0.5,0c0.1,0,0.7-0.3,0.3-0.2c-0.7,0.2,0.2-0.1,0.2-0.1c-0.5,0.1-0.4,0.1-0.4-0.1c-0.4,0-0.8,0.6-1.1,0.3
		c-0.2-0.1,0.5-0.2,0.6-0.3c-0.2,0-0.2,0.3-0.4,0c0.4-0.4,0.4,0,0.1-0.2c0-0.1,0.4,0,0.5,0c0.1-0.3-0.2-0.2-0.3-0.2
		c0.2-0.2,0.4-0.5-0.2-0.5c0.8-0.7-0.6-1-1.4-0.8c-0.1,0,0.1-0.1,0.1-0.1c-0.3-0.1-1.3,0-0.4-0.2c-0.1,0-0.4-0.2-0.4-0.2
		c0.7-0.3,0.6,0.1,0.6-0.1c0.1,0,0.6,0,0.7-0.1h-0.8h0.2c0,0-0.1,0-0.2,0c0.1,0,0.1,0,0.2,0l0,0c1.2-0.2,12.3-1,12.1,0.1
		c0,0,0.3,0.2,0.2,0C176.6,16.9,177.3,17.2,176.8,17.3C176.8,17.3,176.8,17.2,176.8,17.3z M176.1,17.1
		C176.1,17.1,176.3,17.1,176.1,17.1L176.1,17.1z M176.3,17L176.3,17L176.3,17z"/>
	<g opacity="0.2">
		<path fill="#46CBB3" d="M188.3,31.8c-0.5,0-0.8-0.4-0.8-0.8c0-0.5,0.4-0.8,0.8-0.8c0.5,0,0.8,0.4,0.8,0.8S188.6,31.8,188.3,31.8z
			 M186.8,29.9c-0.5,0-0.8-0.4-0.8-0.8c0-0.5,0.4-0.8,0.8-0.8c0.5,0,0.8,0.4,0.8,0.8S187.3,29.9,186.8,29.9z M184.8,32.1
			c-0.5,0-0.8-0.4-0.8-0.8c0-0.5,0.4-0.8,0.8-0.8c0.5,0,0.8,0.4,0.8,0.8C185.8,31.7,185.3,32.1,184.8,32.1z M183.4,29.9
			c-0.5,0-0.8-0.4-0.8-0.8c0-0.5,0.4-0.8,0.8-0.8c0.5,0,0.8,0.4,0.8,0.8C184.3,29.5,183.9,29.9,183.4,29.9z M155.4,40.2
			c-0.5,0-0.8-0.4-0.8-0.8c0-0.5,0.4-0.8,0.8-0.8c0.5,0,0.8,0.4,0.8,0.8S155.9,40.2,155.4,40.2z M152.6,46.6c-0.5,0-0.8-0.4-0.8-0.8
			c0-0.5,0.4-0.8,0.8-0.8c0.5,0,0.8,0.4,0.8,0.8C153.4,46.2,153.1,46.6,152.6,46.6z M150.4,42.7c-0.5,0-0.8-0.4-0.8-0.8
			c0-0.5,0.4-0.8,0.8-0.8c0.5,0,0.8,0.4,0.8,0.8S150.9,42.7,150.4,42.7z M149.9,38.2c-0.5,0-0.8-0.4-0.8-0.8c0-0.5,0.4-0.8,0.8-0.8
			c0.5,0,0.8,0.4,0.8,0.8C150.6,37.8,150.4,38.2,149.9,38.2z M146.6,42.7c-0.5,0-0.8-0.4-0.8-0.8c0-0.5,0.4-0.8,0.8-0.8
			c0.5,0,0.8,0.4,0.8,0.8S146.9,42.7,146.6,42.7z M141.8,44.1c-0.5,0-0.8-0.4-0.8-0.8c0-0.5,0.4-0.8,0.8-0.8c0.5,0,0.8,0.4,0.8,0.8
			C142.6,43.7,142.3,44.1,141.8,44.1z M140.4,40.4c-0.5,0-0.8-0.4-0.8-0.8c0-0.5,0.4-0.8,0.8-0.8c0.5,0,0.8,0.4,0.8,0.8
			C141.3,40.1,140.9,40.4,140.4,40.4z"/>
		<g>
			<path fill="#46CBB3" d="M148.3,41.8c0-1-0.8-1.8-1.8-1.8s-1.8,0.8-1.8,1.8s0.8,1.8,1.8,1.8S148.3,42.8,148.3,41.8z M146.5,42.6
				c-0.5,0-0.8-0.4-0.8-0.8c0-0.4,0.3-0.8,0.8-0.8s0.8,0.4,0.8,0.8C147.3,42.2,147,42.6,146.5,42.6z"/>
			<path fill="#46CBB3" d="M149.8,35.5c-1,0-1.8,0.8-1.8,1.8s0.8,1.8,1.8,1.8s1.8-0.8,1.8-1.8C151.7,36.4,150.8,35.5,149.8,35.5z
				 M149.8,38.1c-0.5,0-0.8-0.4-0.8-0.8c0-0.4,0.3-0.8,0.8-0.8s0.8,0.4,0.8,0.8C150.7,37.8,150.3,38.1,149.8,38.1z"/>
			<path fill="#46CBB3" d="M155.5,37.5c-1,0-1.8,0.8-1.8,1.8s0.8,1.8,1.8,1.8s1.8-0.8,1.8-1.8S156.5,37.5,155.5,37.5z M155.5,40.1
				c-0.5,0-0.8-0.4-0.8-0.8c-0.1-0.4,0.3-0.8,0.8-0.8s0.8,0.4,0.8,0.8C156.3,39.8,155.8,40.1,155.5,40.1z"/>
			<path fill="#46CBB3" d="M150.8,45.7c0,1,0.8,1.8,1.8,1.8s1.8-0.8,1.8-1.8s-0.8-1.8-1.8-1.8S150.8,44.7,150.8,45.7z M152.7,44.9
				c0.5,0,0.8,0.4,0.8,0.8c0,0.5-0.4,0.8-0.8,0.8c-0.5,0-0.8-0.4-0.8-0.8C151.8,45.3,152.2,44.9,152.7,44.9z"/>
			<path fill="#46CBB3" d="M141.8,45c1,0,1.8-0.8,1.8-1.8c0.1-1-0.8-1.8-1.8-1.8s-1.8,0.8-1.8,1.8S140.8,45,141.8,45z M141.8,42.4
				c0.5,0,0.8,0.4,0.8,0.8c0,0.5-0.4,0.8-0.8,0.8c-0.5,0-0.8-0.4-0.8-0.8C141,42.8,141.3,42.4,141.8,42.4z"/>
			<path fill="#46CBB3" d="M188.5,29.1c0-0.1,0-0.1,0-0.2c0.2-0.9-0.6-1.7-1.6-1.7c-0.7,0-1.4,0.4-1.7,1.1c-0.3-0.6-0.9-1.1-1.7-1.1
				c-1,0-1.8,0.8-1.8,1.8c0,0.9,0.6,1.6,1.4,1.8c0,0.1-0.1,0.3-0.1,0.4c0,1,0.8,1.8,1.8,1.8c0.8,0,1.5-0.5,1.7-1.2
				c0.3,0.6,0.9,0.9,1.6,0.9c1,0,1.8-0.8,1.8-1.8C189.8,30,189.3,29.3,188.5,29.1z M183.5,29.8c-0.5,0-0.8-0.4-0.8-0.8
				s0.4-0.8,0.8-0.8c0.5,0,0.8,0.4,0.8,0.8C184.3,29.5,183.9,29.8,183.5,29.8z M184.8,32c-0.5,0-0.8-0.4-0.8-0.8
				c0-0.4,0.4-0.8,0.8-0.8c0.5,0,0.8,0.4,0.8,0.8C185.7,31.7,185.3,32,184.8,32z M186.8,29.8c-0.5,0-0.8-0.4-0.8-0.8
				c-0.1-0.4,0.3-0.8,0.8-0.8s0.8,0.4,0.8,0.8C187.7,29.5,187.3,29.8,186.8,29.8z M188.3,31.8c-0.5,0-0.8-0.4-0.8-0.8
				c-0.1-0.5,0.3-0.8,0.8-0.8s0.8,0.4,0.8,0.8C189,31.5,188.7,31.8,188.3,31.8z"/>
			<path fill="#46CBB3" d="M150.5,40c-1,0-1.8,0.8-1.8,1.8s0.8,1.8,1.8,1.8s1.8-0.8,1.8-1.8S151.5,40,150.5,40z M150.5,42.6
				c-0.5,0-0.8-0.4-0.8-0.8c0-0.4,0.3-0.8,0.8-0.8s0.8,0.4,0.8,0.8C151.3,42.2,150.8,42.6,150.5,42.6z"/>
			<path fill="#46CBB3" d="M140.3,41.4c1,0,1.8-0.8,1.8-1.8c0.1-1-0.7-1.8-1.8-1.8c-0.1,0-0.3,0-0.4,0c-0.3,1-0.6,2-0.9,3
				C139.4,41.2,139.9,41.4,140.3,41.4z M140.3,38.8c0.5,0,0.8,0.4,0.8,0.8c0,0.5-0.4,0.8-0.8,0.8c-0.5,0-0.8-0.4-0.8-0.8
				C139.5,39.1,140,38.8,140.3,38.8z"/>
		</g>
	</g>
	<g>
		<path fill="#46CBB3" d="M188.3,31.8c-0.5,0-0.8-0.4-0.8-0.8c0-0.5,0.4-0.8,0.8-0.8c0.5,0,0.8,0.4,0.8,0.8S188.6,31.8,188.3,31.8z
			 M186.8,29.9c-0.5,0-0.8-0.4-0.8-0.8c0-0.5,0.4-0.8,0.8-0.8c0.5,0,0.8,0.4,0.8,0.8S187.3,29.9,186.8,29.9z M184.8,32.1
			c-0.5,0-0.8-0.4-0.8-0.8c0-0.5,0.4-0.8,0.8-0.8c0.5,0,0.8,0.4,0.8,0.8C185.8,31.7,185.3,32.1,184.8,32.1z M183.4,29.9
			c-0.5,0-0.8-0.4-0.8-0.8c0-0.5,0.4-0.8,0.8-0.8c0.5,0,0.8,0.4,0.8,0.8C184.3,29.5,183.9,29.9,183.4,29.9z M155.4,40.2
			c-0.5,0-0.8-0.4-0.8-0.8c0-0.5,0.4-0.8,0.8-0.8c0.5,0,0.8,0.4,0.8,0.8S155.9,40.2,155.4,40.2z M152.6,46.6c-0.5,0-0.8-0.4-0.8-0.8
			c0-0.5,0.4-0.8,0.8-0.8c0.5,0,0.8,0.4,0.8,0.8C153.4,46.2,153.1,46.6,152.6,46.6z M150.4,42.7c-0.5,0-0.8-0.4-0.8-0.8
			c0-0.5,0.4-0.8,0.8-0.8c0.5,0,0.8,0.4,0.8,0.8S150.9,42.7,150.4,42.7z M149.9,38.2c-0.5,0-0.8-0.4-0.8-0.8c0-0.5,0.4-0.8,0.8-0.8
			c0.5,0,0.8,0.4,0.8,0.8C150.6,37.8,150.4,38.2,149.9,38.2z M146.6,42.7c-0.5,0-0.8-0.4-0.8-0.8c0-0.5,0.4-0.8,0.8-0.8
			c0.5,0,0.8,0.4,0.8,0.8S146.9,42.7,146.6,42.7z M141.8,44.1c-0.5,0-0.8-0.4-0.8-0.8c0-0.5,0.4-0.8,0.8-0.8c0.5,0,0.8,0.4,0.8,0.8
			C142.6,43.7,142.3,44.1,141.8,44.1z M140.4,40.4c-0.5,0-0.8-0.4-0.8-0.8c0-0.5,0.4-0.8,0.8-0.8c0.5,0,0.8,0.4,0.8,0.8
			C141.3,40.1,140.9,40.4,140.4,40.4z"/>
	</g>
</g>
<path fill="#3594E8" d="M174.3,14.9c-0.6,0.2-3.3,1.3-5.5,4.1c-2.2,2.7-3,4.1-3,4.1s-2.7-3.8-1.9-5.1c0.8-1.3-5.8,3.1-6.4,5.1
	c-0.6,2.1-0.2,3.3-0.2,3.3s-7.3-5.3-1.8-12.1C157.3,11.9,168.6,13.9,174.3,14.9z"/>
</svg>
