<?xml version="1.0" encoding="utf-8"?>
<!-- Generator: Adobe Illustrator 18.0.0, SVG Export Plug-In . SVG Version: 6.00 Build 0)  -->
<!DOCTYPE svg PUBLIC "-//W3C//DTD SVG 1.1//EN" "http://www.w3.org/Graphics/SVG/1.1/DTD/svg11.dtd">
<svg version="1.1" id="Warstwa_1" xmlns="http://www.w3.org/2000/svg" xmlns:xlink="http://www.w3.org/1999/xlink" x="0px" y="0px"
	 viewBox="-95 0 400 280" enable-background="new -95 0 400 280" xml:space="preserve">
<path fill-rule="evenodd" clip-rule="evenodd" fill="#186FBA" d="M198.1,64.7c0,0,5.3-9,1.2-9.8c-4.1-0.8-19.6,9.8-19.6,9.8
	L198.1,64.7z"/>
<g id="bird_1_">
	<path fill="#FCA426" d="M33.7,263.8c-0.8,0.8-6.7,0.8-13.4,6.7c-6.7,5.9-3.6,9.1-7.9,7.9c-4.2-1.4-4.7-5.7-3-9.5l-0.2,0.2
		c-6.7,5.9-3.6,9.1-7.9,7.9c-3.6-1.2-4.4-4.4-3.8-7.5c-4.4,4.7-2.2,7.1-5.9,6.1c-5.9-1.8-4.5-9.5-0.4-13.3c4-3.6,11.1-5.5,16.2-5.7
		l0,0l0,0l0,0c5.7,3,15.4,4.7,26.1,4.7s20.4-2,26.1-4.7c1.8,0,3.6,0.4,5.5,0.8l7.7,2.8c1.2,0.6,2.2,1.4,3.2,2.2
		c4.2,3.8,5.5,11.5-0.4,13.3c-3.8,1.2-1.6-1.2-5.9-6.1c0.8,3.2-0.2,6.5-3.8,7.5c-4.2,1.4-1-1.8-7.9-7.9l-0.2-0.2
		c1.6,3.8,1.2,8.1-3,9.5s-1-1.8-7.9-7.9C40.4,264.6,34.5,264.8,33.7,263.8z"/>
	<path fill="#E6951F" d="M76.2,262.2c-1-0.8-2-1.6-3.2-2.2l-7.7-2.8c-2-0.4-3.8-0.8-5.5-0.8c-5.7,3-15.4,4.7-26.1,4.7l0,0v2.4l0,0
		c0.8,0.8,6.7,0.8,13.5,6.7c6.7,5.9,3.6,9.1,7.9,7.9c4.2-1.4,4.7-5.7,3-9.5l0.2,0.2c6.7,5.9,3.6,9.1,7.9,7.9
		c3.6-1.2,4.4-4.4,3.8-7.5c4.4,4.7,2.2,7.1,5.9,6.1C81.8,273.7,80.4,266,76.2,262.2z"/>
	<path fill="#3594E8" d="M128,103.8c0.2,0.4,0.2,0.8,0.4,1c-5.3-19.8-14.8-37.2-27.1-51c-0.8-1-2.8-4.9-2.6-9.9c0-9.3,1-20,1-20
		s-9.3,17.6-21.2,13.3c-7.9-3-0.6-15.2-0.6-15.2s-4.9,2.8-10.7,5.7c-6.1,3.2-13.3,6.3-17.8,4.7c-9.3-2.8,4.7-29.1,4.7-29.1
		S24,29.8,17.9,30.2c-8.1,0.4-7.1-11.9-7.1-11.9S1.9,27.8-2.9,30.2c-27.3,13.3-48.7,40.5-58,74.8c-4.5,4.7-4.5,4.9-0.2,0.2
		c-14.2,15.2-22.7,34.2-22.7,54.8c0,5.7,0.8,11.5,2,17c-4.7-6.3-8.7-13.3-11.9-20.6c4,30.5,22.2,56.6,47.5,71.6
		c0.2,0.2,0.4,0.2,0.4,0.4l2.8-7.9c-14.4-21-23.1-48.1-23.1-77.5c0-13.3,1.8-25.9,4.9-37.8l0,0c-3.2,11.9-4.9,24.5-4.9,37.8
		c0,29.5,8.7,56.6,23.1,77.5v-0.2C-24.8,247,2.6,264,33.5,264s58.3-17,76.5-43.7l0,0c14.4-21,22.9-47.9,22.9-77.3
		C133.4,129.1,131.4,116,128,103.8z"/>
	<path fill="#1E88E6" d="M132.4,142.8c0-13.6-1.8-26.7-5.3-39c0.2,0.4,0.2,0.8,0.4,1c-5.3-19.8-14.8-37.2-27.1-51
		c-0.8-1-2.8-4.9-2.6-9.9c0-9.3,1-20,1-20s-9.3,17.6-21.2,13.3c-7.9-3-0.6-15.2-0.6-15.2s-4.9,2.8-10.7,5.7
		c-6.1,3.2-13.3,6.3-17.8,4.7c-9.3-2.8,4.7-29.1,4.7-29.1s0,0-0.2,0.2l0,0l-0.2,0.2c0,0,0,0-0.2,0.2c-0.2,0-0.2,0.2-0.4,0.2
		s-0.2,0.2-0.4,0.2c-0.2,0-0.2,0.2-0.4,0.4s-0.2,0.2-0.4,0.4c0.2,0,0,0.2-0.2,0.2c-0.2,0.2-0.2,0.2-0.4,0.4
		c-0.2,0.2-0.6,0.4-0.8,0.8c-0.2,0.2-0.4,0.4-0.8,0.6c-0.2,0.2-0.4,0.2-0.6,0.4c-0.2,0.2-0.4,0.4-0.8,0.6c-0.2,0.2-0.4,0.4-0.6,0.4
		c-0.2,0.2-0.6,0.4-0.8,0.8c-0.2,0.2-0.4,0.2-0.4,0.4c-0.4,0.2-0.6,0.6-1,0.8c-0.2,0-0.2,0.2-0.4,0.2c-2.2,1.8-4.4,3.8-7,5.7l0,0
		C36,17.5,34,18.7,33,19.9v243.7c1,0,1.7,0.4,2.9-0.6c0.8,0,1.8,0,2.6,0c1.2,0,2.2,0,3.4-0.2c0.8,0,1.6-0.1,2.2-0.1
		c1.2-0.2,2.6-0.3,3.8-0.5c0.6-0.2,1.2-0.2,1.8-0.4c1.4-0.2,2.6-0.6,4-1c0.6-0.2,1-0.2,1.6-0.4c1.4-0.4,2.8-0.8,4.2-1.4
		c0.4-0.2,0.8-0.2,1.2-0.4c1.6-0.6,3.2-1.2,4.5-1.8c0.2,0,0.4-0.2,0.6-0.2c17.2-7.3,32.2-20.2,43.7-37l0,0
		C123.7,199.1,132.4,172.2,132.4,142.8z"/>
	<path fill="#FFFFFF" d="M11.1,142.9c-0.2-6.9-0.6-15-1.4-24.9C8.4,99.8,5.2,79.5-11.6,79.5c-19,0-37.4,22.4-37.4,49.4
		c0,15.2,5.1,28.9,13.5,38C-21.3,155.2-5.7,146.9,11.1,142.9z"/>
	<path fill="#FFFFFF" d="M54,142.9c0.2-6.9,0.6-15,1.4-24.9c1.4-18.2,4.5-38.6,21.4-38.6c19,0,37.4,22.4,37.4,49.4
		c0,15.2-5.1,28.9-13.5,38C86.2,155.2,70.6,146.9,54,142.9z"/>
	<path fill="#2B2A29" d="M101.5,133c0-19.8-12.1-36-26.9-36c-6.9,0-13.3,3.6-18,9.3c-0.6,4-1,7.9-1.2,11.7c-0.8,9.9-1.2,18-1.4,24.9
		c13.5,3.2,26.1,8.9,38,17.2C97.9,153.8,101.5,143.9,101.5,133z"/>
	<path fill="#2B2A29" d="M-35.3,133.1c0,10.9,3.6,20.6,9.3,27.3c11.9-8.3,24.7-14.2,38-17.2c-0.2-6.9-0.6-15-1.4-24.9
		c-0.2-4-0.6-7.9-1.2-11.9c-4.7-5.7-11.1-9.1-17.8-9.1C-23.2,97.1-35.3,113.1-35.3,133.1z"/>
	<g>
		<ellipse fill="#FFFFFF" cx="80.6" cy="114.9" rx="8.3" ry="8.7"/>
		<ellipse fill="#FFFFFF" cx="-3.3" cy="114.9" rx="8.3" ry="8.7"/>
	</g>
	<path fill="#FFFFFF" d="M75.6,215.3c0-0.2,0.2-9.5-5.9-14.2c-10.9-8.5-30.7-4.9-36,3.8c-19.2-10.9-34-1.8-39,5.9
		c-3.4,5.1-3.6,13.6-3.4,13.8c0,0-11.9-1.8-15.2,8.3c-3.2,9.5,9.9,16.8,16.2,20.4c8.5,4.9,23.3,10.9,41.3,10.9
		c19.8,0,35.4-7.1,42.7-11.5c11.5-6.7,17.8-14.4,16.4-24.1C90.9,214.6,78.4,215.3,75.6,215.3z M34.3,255.1L34.3,255.1L34.3,255.1
		L34.3,255.1L34.3,255.1z"/>
	<path fill="#E1E4E5" d="M92.8,228.4c-2-13.8-14.6-13.1-17.2-13.1c0-0.2,0.2-9.5-5.9-14.2c-10.7-8.3-29.9-5.1-35.8,3.4v59.7
		c19.8,0,35.4-7.1,42.7-11.5C88.1,245.8,94.4,238.1,92.8,228.4z M34.3,255.1L34.3,255.1L34.3,255.1L34.3,255.1L34.3,255.1z"/>
	<path fill="#FCA426" d="M43.2,143.3c-4.2-4.7-10.3-4.7-10.3-4.7l0,0c0,0-6.1,0-10.3,4.7c-5.9,3.6-10.7,9.1-4.2,15.6
		c0.2,0.2,0.6,0.6,0.8,0.8c1.6,12.1,8.9,23.3,13.6,29.9l0,0c4.9-6.5,12.1-18,13.6-29.9c0.2-0.4,0.4-0.6,0.8-0.8
		C53.9,152.4,48.9,146.9,43.2,143.3z"/>
	<path fill="#E6951F" d="M43.2,143.3c-4.2-4.7-10.2-4.7-10.2-4.7l0,0v51l0,0c0-2.1,2.3-3.6,4-6.6c3.7-6.3,8.5-15.2,9.6-23.2
		c0.2-0.4,0.4-0.6,0.8-0.8C53.9,152.4,49,146.9,43.2,143.3z"/>
	<g>
		<ellipse fill="#2B2A29" cx="27.4" cy="153.2" rx="2" ry="4.4"/>
		<ellipse fill="#2B2A29" cx="39.8" cy="152.8" rx="2" ry="4.4"/>
	</g>
	<path fill="#2B2A29" d="M32.5,244l9.7-24.3c0.4-0.8,1-1.4,1.6-1.4c0.8,0,1.2,0.2,1.6,0.6c0.4,0.4,0.6,0.8,0.6,1.2s0,0.8-0.2,1
		L35.5,246c-0.6,1.2-1.4,2-2.6,2h-1c-1.2,0-2-0.6-2.6-2l-4-9.7h2.4h1.6L32.5,244z"/>
	<path fill="#1E88E5" d="M22.8,219.7L22.8,219.7c-0.4-0.8-1.2-1.4-2.2-1.4l0,0l0,0h-5.1l0,0l0,0c-1,0-1.8,0.8-1.8,1.8
		s0.8,1.8,1.8,1.8l0,0h4.2l2.2,5.1l2.2,5.5h4L22.8,219.7z"/>
	<path opacity="0.5" fill="#1972BF" enable-background="new    " d="M78.6,61.7c-0.6-0.2-1.4-0.4-2-0.4v-0.2
		c-2.8-0.8-4.4-3.8-3.6-6.5c0.8-2.8,3.8-4.4,6.5-3.6c9.1,2.6,14.6,11.9,12.7,21C89.1,67,84.3,63.2,78.6,61.7z"/>
	<path opacity="0.5" fill="#1D79C9" enable-background="new    " d="M-24.1,71.9c-2-9.1,3.6-18.4,12.7-21c2.8-0.8,5.7,0.8,6.5,3.6
		c0.8,2.8-0.8,5.7-3.6,6.5v0.2c-0.6,0.2-1.4,0.2-2,0.4C-16.5,63.2-21.1,67-24.1,71.9z"/>
	<path fill="#0277BD" d="M-66.4,146.5c0.2-2,0.6-6.5,0.6-6.9c0,1,0,2.2,0,3.2c0,29.5,8.7,56.4,23.1,77.3l-3,8.1
		C-60.3,206.2-68.4,177.6-66.4,146.5z"/>
</g>
<g id="Warstwa_3">
	<circle opacity="0.3" fill-rule="evenodd" clip-rule="evenodd" fill="#AAD4F7" cx="-12" cy="117" r="33"/>
	<circle opacity="0.3" fill-rule="evenodd" clip-rule="evenodd" fill="#AAD4F7" cx="79" cy="117" r="33"/>
	<path fill-rule="evenodd" clip-rule="evenodd" fill="#2B3338" d="M130.5,107.4c-3.9,0-7-3.2-7-7c0-3.9,3.2-7,7-7c3.9,0,7,3.2,7,7
		C137.5,104.2,134.4,107.4,130.5,107.4z M-63.6,107.4c-3.9,0-7-3.2-7-7c0-3.9,3.2-7,7-7s7,3.2,7,7
		C-56.6,104.2-59.7,107.4-63.6,107.4z"/>
	<path fill-rule="evenodd" clip-rule="evenodd" fill="#5C4C38" d="M147.3,170.2c-0.6,0.2-14,6.6-22.9-34
		c-3.1-14.2-1.6-26.8-4.3-35.6C110.7,70.7,89.3,68.7,33,68.7c-0.1,0,0,0,0,0s0.1,0,0,0c-56.4,0-76.4,1.8-85.8,31.6
		c-2.8,8.8-1.2,21.3-4.3,35.5c-9,40.5-22.4,34.1-23,33.9c-4.2-1.6-7.6-1.9-10.2-1.4c0.1-0.5,0.1-1.1,0.2-1.6
		c0.9-6.9,16.7-19.8,21.8-35.8c6.6-20.9,1.8-33.5,6.6-54C-51.2,32.8-24.3,2.5,33.2,3c0.1,0,0.3,0,0.4,0c0,0,0.1,0,0.1,0l0,0
		c0,0,0.1,0,0.1,0c0.1,0,0.3,0,0.4,0c57.4-0.5,84.3,29.8,94.7,74.1c4.8,20.5,0.1,33.2,6.6,54.1c5,16.1,20.8,29,21.8,35.9
		c0.1,0.5,0.1,1.1,0.2,1.6C154.9,168.2,151.5,168.6,147.3,170.2z"/>
	<path fill-rule="evenodd" clip-rule="evenodd" fill="#544533" d="M157.3,167.5c-0.9-6.9-16.7-19.8-21.8-35.9
		c-6.5-20.9-1.8-33.6-6.6-54.1C118.5,33.2,91.6,2.8,34.2,3.3c-0.1,0-0.3,0-0.4,0c0,0-0.1,0-0.1,0c0,0-0.1,0-0.1,0
		c-0.1,0-0.3,0-0.4,0c-0.1,0-0.1,0-0.2,0V69c56.3,0,77.7,2,87.1,31.9c2.8,8.8,1.2,21.4,4.3,35.6c9,40.6,22.3,34.2,22.9,34
		c4.2-1.6,7.6-1.9,10.2-1.4C157.4,168.5,157.3,168,157.3,167.5z"/>
	<path fill-rule="evenodd" clip-rule="evenodd" fill="#495760" d="M139.9,118.7c0,0-4.4,3.9-9.3,6.1c-6,2.7-15.7,5.7-15.7,5.7
		l-3-18.6c0,0,8-2.8,14.9-6.9c5.3-3.1,10-7.9,10-7.9s1.8,5,2.6,10.6C140.2,112.8,139.9,118.7,139.9,118.7z M-63.7,124.8
		c-4.9-2.2-9.3-6.1-9.3-6.1s-0.3-5.8,0.4-11c0.8-5.7,2.6-10.6,2.6-10.6s4.7,4.7,10,7.9c7,4.1,15,6.9,15,6.9l-3,18.6
		C-48,130.5-57.7,127.5-63.7,124.8z"/>
	<path fill-rule="evenodd" clip-rule="evenodd" fill="#39444C" d="M79.4,158.6c-14.2,0-26.5-7.8-33-19.3c-2.1-2.2-5.7-7.7-13.5-7.7
		c-8.3,0-11.9,6.5-13.6,8.8C12.8,151.5,0.7,159-13.2,159c-20.9,0-37.8-16.9-37.8-37.8s16.9-37.8,37.8-37.8c13.3,0,25,6.9,31.7,17.2
		c2.9,4,7.6,10.1,14.1,10.2c7.4,0,11.3-4.9,13.7-8.7c6.5-11.5,18.8-19.3,33-19.3c20.9,0,37.8,16.9,37.8,37.8S100.3,158.6,79.4,158.6
		z M-13.2,95c-14.5,0-26.2,11.7-26.2,26.2s11.7,26.2,26.2,26.2S13,135.7,13,121.2S1.2,95-13.2,95z M78.9,94.4
		c-14.8,0-26.7,12-26.7,26.7c0,14.8,12,26.7,26.7,26.7c14.8,0,26.7-12,26.7-26.7C105.6,106.4,93.7,94.4,78.9,94.4z"/>
	<path opacity="7.000000e-002" fill-rule="evenodd" clip-rule="evenodd" d="M79.9,83.3c-14.2,0-26.5,7.8-33,19.3
		c-2.4,3.8-6.3,8.7-13.7,8.7c-0.1,0-0.1,0-0.2,0V132c0.2,0,0.3,0,0.5,0c7.7,0,11.3,5.5,13.5,7.7c6.5,11.5,18.8,19.3,33,19.3
		c20.9,0,37.8-16.9,37.8-37.8S100.8,83.3,79.9,83.3z M79.5,148.3c-14.8,0-26.7-12-26.7-26.7c0-14.8,12-26.7,26.7-26.7
		c14.8,0,26.7,12,26.7,26.7C106.2,136.4,94.2,148.3,79.5,148.3z"/>
</g>
<g id="browser">
	<path fill-rule="evenodd" clip-rule="evenodd" fill="#39444C" d="M305,274c0,3.3-2.7,6-6,6H87c-3.3,0-6-2.7-6-6V67c0-3.3,2.7-6,6-6
		h212c3.3,0,6,2.7,6,6V274z"/>
	<path fill-rule="evenodd" clip-rule="evenodd" fill="#FFFFFF" d="M87,85h212v189H87V85z"/>
	<rect x="87" y="85" fill-rule="evenodd" clip-rule="evenodd" fill="#1E84DF" width="28" height="189"/>
	<g>
		<g>
			<path fill-rule="evenodd" clip-rule="evenodd" fill="#DFE2E5" d="M160,100h-34v6h34V100z M156,121h19v-2h-19V121z M185,121h19v-2
				h-19V121z M214,121h18v-2h-18V121z M242,119v2h19v-2H242z"/>
		</g>
	</g>
	<g>
		<g>
			<path fill-rule="evenodd" clip-rule="evenodd" fill="#399EF7" d="M101.5,132c2.5,0,4.5-2,4.5-4.5s-2-4.5-4.5-4.5s-4.5,2-4.5,4.5
				S99,132,101.5,132z M96,136v2h11v-2H96z M106,152.5c0-2.5-2-4.5-4.5-4.5s-4.5,2-4.5,4.5s2,4.5,4.5,4.5S106,155,106,152.5z
				 M96,163h11v-2H96V163z M106,177.5c0-2.5-2-4.5-4.5-4.5s-4.5,2-4.5,4.5s2,4.5,4.5,4.5S106,180,106,177.5z M96,188h11v-2H96V188z
				 M106,202.5c0-2.5-2-4.5-4.5-4.5s-4.5,2-4.5,4.5s2,4.5,4.5,4.5S106,205,106,202.5z M96,213h11v-2H96V213z M101.5,108
				c2.5,0,4.5-2,4.5-4.5s-2-4.5-4.5-4.5s-4.5,2-4.5,4.5S99,108,101.5,108z"/>
		</g>
	</g>
	<rect x="115" y="125" fill-rule="evenodd" clip-rule="evenodd" fill="#E9ECF0" width="184" height="1"/>
	<g>
		<g>
			<path fill-rule="evenodd" clip-rule="evenodd" fill="#1E84DF" d="M126,119v2h19v-2H126z M126,126h19v-1h-19V126z"/>
		</g>
	</g>
	<g>
		<g>
			<path fill-rule="evenodd" clip-rule="evenodd" fill="#2D363D" d="M284,68H118c-0.5,0-1,0.5-1,1v10c0,0.4,0.3,1,1,1h166
				c0.5,0,1-0.4,1-1V69C285,68.3,284.5,68,284,68z M290,71v1h9v-1H290z M290,75h9v-1h-9V75z M290,78h9v-1h-9V78z"/>
		</g>
	</g>
	<path fill-rule="evenodd" clip-rule="evenodd" fill="#46CBB3" d="M108.5,72c1.4,0,2.5,1.1,2.5,2.5c0,1.4-1.1,2.5-2.5,2.5
		c-1.4,0-2.5-1.1-2.5-2.5C106,73.1,107.1,72,108.5,72z"/>
	<path fill-rule="evenodd" clip-rule="evenodd" fill="#D7C045" d="M100.5,72c1.4,0,2.5,1.1,2.5,2.5c0,1.4-1.1,2.5-2.5,2.5
		c-1.4,0-2.5-1.1-2.5-2.5C98,73.1,99.1,72,100.5,72z"/>
	<path fill-rule="evenodd" clip-rule="evenodd" fill="#D74645" d="M92.5,72c1.4,0,2.5,1.1,2.5,2.5c0,1.4-1.1,2.5-2.5,2.5
		c-1.4,0-2.5-1.1-2.5-2.5C90,73.1,91.1,72,92.5,72z"/>
	<path fill-rule="evenodd" clip-rule="evenodd" fill="#E9ECF0" d="M126,235v-1h157v1H126z M126,223h157v1H126V223z M126,212h157v1
		H126V212z M126,201h157v1H126V201z M126,190h157v1H126V190z M126,179h157v1H126V179z M126,168h157v1H126V168z M126,157h157v1H126
		V157z M126,146h157v1H126V146z"/>
	<path fill-rule="evenodd" clip-rule="evenodd" fill="#C6C9CC" d="M277,230v-2h2v2H277z M277,217h2v2h-2V217z M277,206h2v2h-2V206z
		 M277,195h2v2h-2V195z M277,184h2v2h-2V184z M277,173h2v2h-2V173z M277,162h2v2h-2V162z M277,151h2v2h-2V151z M242,228h12v2h-12
		V228z M242,217h12v2h-12V217z M242,206h12v2h-12V206z M242,195h12v2h-12V195z M242,184h12v2h-12V184z M242,173h12v2h-12V173z
		 M242,162h12v2h-12V162z M242,151h12v2h-12V151z M222,228h12v2h-12V228z M222,217h12v2h-12V217z M222,206h12v2h-12V206z M222,195
		h12v2h-12V195z M222,184h12v2h-12V184z M222,173h12v2h-12V173z M222,162h12v2h-12V162z M222,151h12v2h-12V151z M202,228h12v2h-12
		V228z M202,217h12v2h-12V217z M202,206h12v2h-12V206z M202,195h12v2h-12V195z M202,184h12v2h-12V184z M202,173h12v2h-12V173z
		 M202,162h12v2h-12V162z M202,151h12v2h-12V151z M182,228h15v2h-15V228z M182,217h15v2h-15V217z M182,206h15v2h-15V206z M182,195
		h15v2h-15V195z M182,184h15v2h-15V184z M182,173h15v2h-15V173z M182,162h15v2h-15V162z M182,151h15v2h-15V151z M126,162h42v2h-42
		V162z M126,151h32v2h-32V151z M148,175h-22v-2h22V175z M158,186h-32v-2h32V186z M151,197h-25v-2h25V197z M165,208h-39v-2h39V208z
		 M139,219h-13v-2h13V219z M158,230h-32v-2h32V230z"/>
	<path fill-rule="evenodd" clip-rule="evenodd" fill="#DFE2E5" d="M242,141v-2h12v2H242z M222,139h12v2h-12V139z M202,139h12v2h-12
		V139z M182,139h12v2h-12V139z M126,139h12v2h-12V139z"/>
	<path opacity="7.000000e-002" fill-rule="evenodd" clip-rule="evenodd" d="M299,61H192v219h107c3.3,0,6-2.7,6-6V67
		C305,63.7,302.3,61,299,61z"/>
</g>
<path fill-rule="evenodd" clip-rule="evenodd" fill="#3594E8" d="M199.7,55c-2.2,0.7-10.6,4.5-18.1,13.9
	c-7.6,9.4-10.1,13.9-10.1,13.9S161,71,163.7,66.7c2.7-4.3-14.6,3.2-18.3,7.4c-4.8,5.5-8,14.9-8,15c0,0-13.7-17.7-1.1-36.2
	C142,44.5,177.3,46.1,199.7,55z"/>
</svg>
