<?xml version="1.0" encoding="utf-8"?>
<!-- Generator: Adobe Illustrator 19.0.0, SVG Export Plug-In . SVG Version: 6.00 Build 0)  -->
<svg version="1.1" id="Layer_1" xmlns="http://www.w3.org/2000/svg" xmlns:xlink="http://www.w3.org/1999/xlink" x="0px" y="0px"
	 viewBox="-260.9 351.3 206.1 139.5" style="enable-background:new -260.9 351.3 206.1 139.5;" xml:space="preserve">
<style type="text/css">
	.st0{fill:#FCA426;}
	.st1{fill:#E6951F;}
	.st2{fill-rule:evenodd;clip-rule:evenodd;fill:#3594E8;}
	.st3{fill-rule:evenodd;clip-rule:evenodd;fill:#1E88E6;}
	.st4{fill:#FFFFFF;}
	.st5{fill:#2B2A29;}
	.st6{fill:#1972BF;}
	.st7{fill:#0277BD;}
	.st8{fill:#E1E4E5;}
	.st9{fill:#1E88E5;}
	.st10{display:none;fill-rule:evenodd;clip-rule:evenodd;fill:#CCCCCC;}
	.st11{fill:#CCCCCC;}
	.st12{fill:#B2B2B2;}
	.st13{fill-rule:evenodd;clip-rule:evenodd;fill:#54AFFF;}
	.st14{display:none;fill-rule:evenodd;clip-rule:evenodd;fill:#E5E5E5;}
</style>
<g id="Bird">
	<path class="st0" d="M-156.7,483.3c-0.4,0.4-3.4,0.4-6.9,3.4c-3.4,3-1.8,4.6-4,4c-2.2-0.7-2.4-2.9-1.5-4.8l-0.1,0.1
		c-3.4,3-1.8,4.6-4,4c-1.8-0.6-2.2-2.2-1.9-3.8c-2.2,2.4-1.1,3.7-3,3.1c-3-0.9-2.3-4.8-0.2-6.7c2-1.8,5.6-2.8,8.2-2.9l0,0l0,0l0,0
		c2.9,1.5,7.8,2.4,13.3,2.4c5.5,0,10.3-1,13.3-2.4c0.9,0,1.8,0.2,2.8,0.4l3.9,1.4c0.6,0.3,1.1,0.7,1.6,1.1c2.1,1.9,2.8,5.8-0.2,6.7
		c-1.9,0.6-0.8-0.6-3-3.1c0.4,1.6-0.1,3.3-1.9,3.8c-2.1,0.7-0.5-1-4-4l-0.1-0.1c0.8,1.9,0.6,4.1-1.5,4.8c-2.1,0.7-0.5-1-4-4
		C-153.3,483.7-156.3,483.8-156.7,483.3z"/>
	<path class="st1" d="M-135.2,482.5c-0.5-0.4-1-0.8-1.6-1.1l-3.9-1.4c-1-0.2-1.9-0.4-2.8-0.4c-3,1.5-7.8,2.4-13.3,2.4l0,0v1.2l0,0
		c0.4,0.4,3.4,0.4,6.9,3.4c3.4,3,1.8,4.6,4,4c2.2-0.7,2.4-2.9,1.5-4.8l0.1,0.1c3.4,3.1,1.8,4.7,4,4c1.8-0.6,2.3-2.2,1.9-3.8
		c2.2,2.4,1.1,3.7,3,3.1C-132.4,488.3-133.1,484.4-135.2,482.5z"/>
	<path class="st2" d="M-88.9,432.4c-0.8,12.4-10.6,19-23.8,20.7c-8.9,18.1-25.2,30.2-43.8,30.2c-18.6,0-34.9-12.1-43.8-30.1
		c-13.7-1.5-23.9-8-23.9-20.8c0-10.9,7.5-20.3,18.1-24.5c3.5-18.2,13.8-33.2,27.4-41.1c0,0,0.1-0.1,0.1-0.1c1.1-0.7,2.5-1.3,3.7-1.9
		c3.2-1.7,5.3-3.8,6.8-5.7l0,0.4c0,3,0.6,5.6,3.7,5.6c2.2,0,7.5-4.5,12.6-8.9c2-1.7,4-3.4,5.7-4.8l-0.9,2.1
		c-0.9,2.2-1.9,4.4-2.6,6.3c-1.1,3.3-1.1,5.9,1.5,6.5c2.5,0.7,7.7-2.1,12.2-4.5l1.8-1c-0.7,1.3-1.4,2.7-1.6,3.9
		c-0.3,2.2,0.4,3.8,3.2,4.1c3.5,0.4,7.3-3.3,9.4-7c-0.1,5.4-1.4,12.2,0.7,14.7c0.5,0.6,1.1,1.3,1.9,2.3c0.3,0.4,0.6,0.7,0.9,1.1
		c6.1,7.8,10.5,17.6,12.6,28.4C-96.2,412.9-88.3,422.6-88.9,432.4z"/>
	<path class="st3" d="M-106.9,408.3c-2-10.8-6.5-20.6-12.6-28.4c-0.3-0.4-0.6-0.7-0.9-1.1c-0.8-0.9-1.5-1.7-1.9-2.3
		c-2.1-2.5-0.8-9.3-0.7-14.7c-2.1,3.7-5.9,7.4-9.4,7c-2.8-0.4-3.6-1.9-3.2-4.1c0.2-1.2,0.9-2.6,1.6-3.9l-1.8,1
		c-4.5,2.4-9.7,5.2-12.2,4.5c-2.6-0.7-2.6-3.3-1.5-6.5c0.6-1.9,1.6-4.1,2.6-6.3l0.9-2.1c-1.6,1.3-3.7,3.1-5.7,4.8
		c-1.6,1.4-3.2,2.8-4.8,4v123.2c18.7,0,35-12.1,43.8-30.2c13.3-1.7,23-8.3,23.8-20.7C-88.3,422.6-96.2,412.9-106.9,408.3z"/>
	<path class="st4" d="M-167.7,422.1c-0.1-3.5-0.3-7.7-0.7-12.7c-0.7-9.2-2.3-19.5-10.9-19.5c-9.6,0-19,11.3-19,25.1
		c0,7.7,2.7,14.6,6.8,19.2C-184.1,428.3-176.2,424.1-167.7,422.1z"/>
	<path class="st4" d="M-145.8,422.1c0.1-3.5,0.3-7.7,0.7-12.7c0.7-9.2,2.3-19.5,10.9-19.5c9.6,0,19,11.3,19,25.1
		c0,7.7-2.7,14.6-6.8,19.2C-129.4,428.3-137.4,424.1-145.8,422.1z"/>
	<path class="st5" d="M-121.8,417.1c0-10.1-6.1-18.2-13.6-18.2c-3.5,0-6.7,1.8-9.1,4.7c-0.3,2-0.5,4-0.6,6c-0.4,5-0.6,9.2-0.7,12.6
		c6.8,1.6,13.2,4.5,19.3,8.8C-123.6,427.6-121.8,422.6-121.8,417.1z"/>
	<path class="st5" d="M-191.7,417.1c0,5.5,1.8,10.5,4.7,13.8c6-4.2,12.5-7.2,19.2-8.7c-0.1-3.5-0.3-7.7-0.7-12.7c-0.1-2-0.3-4-0.6-6
		c-2.4-2.9-5.6-4.6-9-4.6C-185.6,398.9-191.7,407-191.7,417.1z"/>
	<ellipse class="st4" cx="-132" cy="407.9" rx="4.2" ry="4.4"/>
	<ellipse class="st4" cx="-175.5" cy="407.9" rx="4.2" ry="4.4"/>
	<path class="st0" d="M-151.5,422.3c-2.1-2.4-5.2-2.4-5.2-2.4l0,0c0,0-3.1,0-5.2,2.4c-3,1.8-5.5,4.6-2.1,7.9
		c0.1,0.1,0.3,0.3,0.4,0.4c0.8,6.1,4.5,11.8,6.9,15.1l0,0c2.5-3.3,6.1-9.1,6.9-15.1c0.1-0.2,0.2-0.3,0.4-0.4
		C-146,426.9-148.5,424.1-151.5,422.3z"/>
	<path class="st1" d="M-151.5,422.3c-2.1-2.4-5.2-2.4-5.2-2.4l0,0v25.8l0,0c2.5-3.3,6.1-9.1,6.9-15.1c0.1-0.2,0.2-0.3,0.4-0.4
		C-146,426.9-148.5,424.1-151.5,422.3z"/>
	<ellipse class="st5" cx="-160.4" cy="427.3" rx="1" ry="2.2"/>
	<ellipse class="st5" cx="-153.1" cy="427.3" rx="1" ry="2.2"/>
	<path class="st6" d="M-134.1,380.9c-0.4-0.1-0.7-0.2-1-0.2l0-0.1c-1.4-0.4-2.2-1.9-1.8-3.3c0.4-1.4,1.9-2.2,3.3-1.8
		c4.6,1.3,7.4,6,6.4,10.6C-128.7,383.6-131.1,381.7-134.1,380.9z"/>
	<path class="st7" d="M-186,386.1c-1-4.6,1.8-9.3,6.4-10.6c1.4-0.4,2.9,0.4,3.3,1.8c0.4,1.4-0.4,2.9-1.8,3.3l0,0.1
		c-0.3,0.1-0.7,0.1-1,0.2C-182.2,381.7-184.6,383.6-186,386.1z"/>
	<path class="st4" d="M-135.6,459.2c0-0.1,0.1-4.8-3-7.2c-5.5-4.3-15.6-2.5-18.3,1.9c-9.8-5.5-17.3-0.9-19.7,3
		c-1.7,2.6-1.8,6.9-1.7,7c0,0-6-0.9-7.7,4.2c-1.6,4.8,5.1,8.5,8.3,10.3c4.3,2.5,11.8,5.5,21,5.5c10,0,18-3.6,21.7-5.8
		c5.8-3.4,9-7.3,8.3-12.2C-127.9,458.8-134.2,459.3-135.6,459.2z M-156.6,479.3L-156.6,479.3L-156.6,479.3L-156.6,479.3
		L-156.6,479.3z"/>
	<path class="st8" d="M-126.8,465.8c-1-7-7.4-6.6-8.8-6.6c0-0.1,0.1-4.8-3-7.2c-5.4-4.2-15.2-2.6-18.1,1.7v30.2
		c10,0,17.9-3.6,21.6-5.8C-129.3,474.6-126.1,470.8-126.8,465.8z M-156.6,479.3L-156.6,479.3L-156.6,479.3L-156.6,479.3
		L-156.6,479.3z"/>
	<path class="st5" d="M-156.8,476.2l7.4-18.4c0.3-0.6,0.7-1,1.2-1c0.5,0,0.9,0.1,1.2,0.4c0.2,0.3,0.4,0.6,0.4,0.9s0,0.6-0.1,0.7
		l-7.8,18.8c-0.4,1-1.1,1.4-1.9,1.4h-0.7c-0.9,0-1.5-0.5-1.9-1.4l-3-7.3h1.9h1.1L-156.8,476.2z"/>
	<path class="st9" d="M-164.1,457.9L-164.1,457.9c-0.3-0.6-0.9-1.1-1.6-1.1c0,0,0,0,0,0h0h-3.9l0,0h0c-0.8,0-1.4,0.6-1.4,1.4
		s0.6,1.4,1.4,1.4c0,0,0,0,0,0l3.1,0l1.6,3.9l1.7,4.2h3L-164.1,457.9z"/>
</g>
<path class="st10" d="M-128.2,419.7l40.2,8.7l-27.5,56.7l-25.2-2.5l-26.2,2.5l0,0l-27.1-2.5l-36-62.9l52.5,8.7l0,0L-128.2,419.7
	L-128.2,419.7z"/>
<path class="st11" d="M-58.7,387l-14.4,21.6c0,0-5.4,1.1-11.9-3.2s-7.6-9.7-7.6-9.7l14.4-21.8c-10.7-0.4-22.3,5.4-28.2,14.5
	c-8.9,13.5,4,25.8,1.7,29.3c-12.4,19.7-26.1,35.5-26.4,36.2c-3.8,5.8-2.4,13.5,3.1,17.1s13.2,1.9,17-3.9
	c0.5-0.8,10.4-20.3,22.8-39.1c2.3-3.5,18.2,4.3,27.5-9.5C-55.1,409.5-54.1,396.7-58.7,387z M-119.3,464.7c-2.9,0.6-5.7-1.2-6.3-4.1
	c-0.6-3.1,1.2-5.9,4.1-6.5c2.9-0.6,5.7,1.2,6.3,4.1C-114.6,461.1-116.3,464.1-119.3,464.7z"/>
<path class="st0" d="M-226.8,423.7l29.6,51.7l17.7-10.9l-29.7-51.4L-226.8,423.7z"/>
<path class="st11" d="M-248.1,434.3c0,0,13.6-8.6,14-8.9c-1.7-2.6-0.2-5.2,0.7-5.7c2.5-1.5,3.1-1.9,3.2-2l0,0l1.5,2.6
	c0,0,0,0.1,0,0.1l2.8,4.9l17.8-10.2l-2.3-4c-0.1-0.1-0.1-0.2-0.2-0.4c-0.8-1.4-1-1.8-1.1-1.9c-1.9-3.2,3.2-7.5,7.7-10.5
	c10.2-6.7,17.3-7.1,17.7-7.1c-0.1,0,1.3-0.1,1.3-0.1l1.1-4.4c0,0-1.1-0.3-1.9-0.5c0,0,0,0,0,0c-2.5-0.6-24.3-5.8-31.9-1.1
	c-0.9,0.5-4.3,2.7-8.1,5.1l-1.8,1.1c-0.1,0-0.2,0.1-0.2,0.1l-8.5,5.4c-1.2,0.7-2,1.9-2.4,3.3c-0.3,1.1-0.2,2.2,0.2,3.2l-3.3,2
	c-0.9,0.5-4,0.7-5.4-1.5l-13.9,8.3L-248.1,434.3z"/>
<path class="st12" d="M-234.1,425.5c-1.7-2.6-0.2-5.2,0.7-5.7c2.4-1.5,3-1.9,3.2-2l-8.2-14.3l-3.2,2c-0.9,0.5-4,0.7-5.4-1.5
	L-234.1,425.5z"/>
<path class="st13" d="M-93.5,451.4c-1.2,1.7-2.6,3.4-5.8,3.7c-3.4,0.3-7.1-4.7-7.1-4.7c0,0,3,0.5,4.9,0.1c1.5-0.4,2.5-1.6,2.5-1.6
	s-1.8-1.2-2.8-2.4c-1.4-1.8-2.3-3.9-2.3-3.9s7.9,0.4,11.3-2.5c2.5-2.1,3.9-10,3.9-10S-88,443.8-93.5,451.4z M-215.1,454.4
	c-11.2-11.2-8.9-24.2-8.9-24.2s1.9,10.7,7.2,13.2c2.6,1.2,9.7,1.1,9.7,1.1s0.1,1.4-0.6,3.1c-0.6,1.4-2.4,2.6-2.4,2.6
	s1.2,1.8,3.6,2.3c2.2,0.5,4.3,0.7,4.3,0.6C-202.2,453.2-206.5,463-215.1,454.4z"/>
<path class="st14" d="M-128.2,419.7l-49.5,8.7l10.6,56.8l26.3-2.5L-128.2,419.7z"/>
</svg>
