<?xml version="1.0" encoding="utf-8"?>
<!-- Generator: Adobe Illustrator 18.0.0, SVG Export Plug-In . SVG Version: 6.00 Build 0)  -->
<!DOCTYPE svg PUBLIC "-//W3C//DTD SVG 1.1//EN" "http://www.w3.org/Graphics/SVG/1.1/DTD/svg11.dtd">
<svg version="1.1" id="Warstwa_1" xmlns="http://www.w3.org/2000/svg" xmlns:xlink="http://www.w3.org/1999/xlink" x="0px" y="0px"
	 viewBox="0 0 202.8 63" enable-background="new 0 0 202.8 63" xml:space="preserve">
<g opacity="0.2">
	<g>
		<path fill-rule="evenodd" clip-rule="evenodd" fill="#C4E3FF" d="M46.4,21.5c0-0.8-0.8-1.5-1.8-1.5H6.3c-1,0-1.8,0.7-1.8,1.5
			c0,0.8,0.8,1.5,1.8,1.5h38.3C45.6,23,46.4,22.3,46.4,21.5z M56,20c-1,0-1.8,0.7-1.8,1.5c0,0.8,0.8,1.5,1.8,1.5h12
			c1,0,1.8-0.7,1.8-1.5c0-0.8-0.8-1.5-1.8-1.5H56z M177.5,40H15.3c-1,0-1.8,0.7-1.8,1.5c0,0.8,0.8,1.5,1.8,1.5h162.3
			c1,0,1.8-0.7,1.8-1.5C179.3,40.7,178.5,40,177.5,40z M201,40h-12c-1,0-1.8,0.7-1.8,1.5c0,0.8,0.8,1.5,1.8,1.5h12
			c1,0,1.8-0.7,1.8-1.5C202.8,40.7,202,40,201,40z M26.3,3h98.3c1,0,1.8-0.7,1.8-1.5c0-0.8-0.8-1.5-1.8-1.5H26.3
			c-1,0-1.8,0.7-1.8,1.5C24.4,2.3,25.2,3,26.3,3z M135.9,3h12c1,0,1.8-0.7,1.8-1.5c0-0.8-0.8-1.5-1.8-1.5h-12c-1,0-1.8,0.7-1.8,1.5
			C134.1,2.3,134.9,3,135.9,3z"/>
	</g>
</g>
<g>
	<g>
		<path fill-rule="evenodd" clip-rule="evenodd" fill="#FFA726" d="M88.1,60H1.8c-1,0-1.8,0.7-1.8,1.5C0,62.3,0.8,63,1.8,63h86.3
			c1,0,1.8-0.7,1.8-1.5C89.9,60.7,89.1,60,88.1,60z M111.5,60h-12c-1,0-1.8,0.7-1.8,1.5c0,0.8,0.8,1.5,1.8,1.5h12
			c1,0,1.8-0.7,1.8-1.5C113.4,60.7,112.5,60,111.5,60z"/>
	</g>
</g>
</svg>
