<?xml version="1.0" encoding="utf-8"?>
<!-- Generator: Adobe Illustrator 18.0.0, SVG Export Plug-In . SVG Version: 6.00 Build 0)  -->
<!DOCTYPE svg PUBLIC "-//W3C//DTD SVG 1.1//EN" "http://www.w3.org/Graphics/SVG/1.1/DTD/svg11.dtd">
<svg version="1.1" id="Layer_1" xmlns="http://www.w3.org/2000/svg" xmlns:xlink="http://www.w3.org/1999/xlink" x="0px" y="0px"
	 viewBox="0 0 189.9 140" enable-background="new 0 0 189.9 140" xml:space="preserve">
<g id="Bird">
	<path fill="#FCA426" d="M70.3,132.4c-0.4,0.4-3.4,0.4-6.9,3.4c-3.4,3-1.8,4.6-4,4c-2.2-0.7-2.4-2.9-1.5-4.8l-0.1,0.1
		c-3.4,3-1.8,4.6-4,4c-1.8-0.6-2.2-2.2-1.9-3.8c-2.2,2.4-1.1,3.7-3,3.1c-3-0.9-2.3-4.8-0.2-6.7c2-1.8,5.6-2.8,8.2-2.9l0,0l0,0l0,0
		c3,1.5,7.8,2.4,13.3,2.4c5.5,0,10.3-1,13.3-2.4c0.9,0,1.8,0.2,2.8,0.4l3.9,1.4c0.6,0.3,1.1,0.7,1.6,1.1c2.1,1.9,2.8,5.8-0.2,6.7
		c-1.9,0.6-0.8-0.6-3-3.1c0.4,1.6-0.1,3.3-1.9,3.8c-2.1,0.7-0.5-1-4-4l-0.1-0.1c0.8,1.9,0.6,4.1-1.5,4.8c-2.1,0.7-0.5-1-4-4
		C73.7,132.8,70.7,132.9,70.3,132.4z"/>
	<path fill="#E6951F" d="M91.8,131.6c-0.5-0.4-1-0.8-1.6-1.1l-3.9-1.4c-1-0.2-1.9-0.4-2.8-0.4c-3,1.5-7.8,2.4-13.3,2.4l0,0v1.2l0,0
		c0.4,0.4,3.4,0.4,6.9,3.4c3.4,3,1.8,4.6,4,4c2.2-0.7,2.4-2.9,1.5-4.8l0.1,0.1c3.4,3.1,1.8,4.7,4,4c1.8-0.6,2.3-2.2,1.9-3.8
		c2.2,2.4,1.1,3.7,3,3.1C94.6,137.4,93.9,133.5,91.8,131.6z"/>
	<path fill="#3594E8" d="M128.8,88.7c0.7-2.9,1.1-5.8,1.1-8.8c0-10.4-4.3-20.1-11.7-27.9c-2.7-10-7.5-18.9-13.7-25.9
		c-0.4-0.5-1.4-2.5-1.3-5c0-4.7,0.5-10.1,0.5-10.1s-4.7,9-10.7,6.7c-4-1.5-0.3-7.7-0.3-7.7s-2.5,1.4-5.4,2.9c-3.1,1.6-6.7,3.2-9,2.4
		c-4.6-1.5,2.5-14.8,2.5-14.8S65.3,13.9,62.3,14.1c-4.1,0.2-3.6-6-3.6-6s-4.5,4.8-6.9,6c-13.8,6.7-24.7,20.6-29.3,37.9
		C15,59.7,10.7,69.4,10.7,79.8c0,3,0.4,5.8,1,8.6c-2.4-3.2-4.4-6.7-6-10.4c2.1,15.5,11.2,28.6,24.1,36.2c0.1,0.1,0.2,0.1,0.3,0.2
		l1.5-4.1c9.3,13.5,23.2,22.1,38.8,22.1c15.6,0,29.5-8.6,38.8-22.2l1.5,4.1c0,0,0,0,0,0c13-7.5,22.3-20.8,24.4-36.4
		C133.4,81.8,131.3,85.4,128.8,88.7z"/>
	<path fill="#1E88E6" d="M128.8,88.7c0.7-2.9,1.1-5.8,1.1-8.8c0-10.4-4.3-20.1-11.7-27.9c-2.7-10-7.5-18.9-13.7-25.9
		c-0.4-0.5-1.4-2.5-1.3-5c0-4.7,0.5-10.1,0.5-10.1s-4.7,9-10.7,6.7c-4-1.5-0.3-7.7-0.3-7.7s-2.5,1.4-5.4,2.9c-3.1,1.6-6.7,3.2-9,2.4
		c-4.6-1.5,2.5-14.8,2.5-14.8S75.3,5.1,70.3,9v123.5c15.6,0,29.5-8.6,38.7-22.2l1.5,4.1c0,0,0,0,0,0c13-7.5,22.3-20.8,24.4-36.4
		C133.4,81.8,131.3,85.4,128.8,88.7z"/>
	<path fill="#FFFFFF" d="M59.3,71.2c-0.1-3.5-0.3-7.7-0.7-12.7c-0.7-9.2-2.3-19.5-10.9-19.5c-9.6,0-19,11.3-19,25.1
		c0,7.7,2.7,14.6,6.8,19.2C42.9,77.4,50.8,73.2,59.3,71.2z"/>
	<path fill="#FFFFFF" d="M81.2,71.2c0.1-3.5,0.3-7.7,0.7-12.7c0.7-9.2,2.3-19.5,10.9-19.5c9.6,0,19,11.3,19,25.1
		c0,7.7-2.7,14.6-6.8,19.2C97.6,77.4,89.6,73.2,81.2,71.2z"/>
	<path fill="#2B2A29" d="M105.2,66.2c0-10.1-6.1-18.2-13.6-18.2c-3.5,0-6.7,1.8-9.1,4.7c-0.3,2-0.5,4-0.6,6c-0.4,5-0.6,9.2-0.7,12.6
		c6.8,1.6,13.2,4.5,19.3,8.8C103.4,76.7,105.2,71.7,105.2,66.2z"/>
	<path fill="#2B2A29" d="M35.3,66.2c0,5.5,1.8,10.5,4.7,13.8c6-4.2,12.5-7.2,19.2-8.7c-0.1-3.5-0.3-7.7-0.7-12.7c-0.1-2-0.3-4-0.6-6
		c-2.4-2.9-5.6-4.6-9-4.6C41.4,48,35.3,56.1,35.3,66.2z"/>
	<ellipse fill="#FFFFFF" cx="94" cy="57" rx="4.2" ry="4.4"/>
	<ellipse fill="#FFFFFF" cx="51.5" cy="57" rx="4.2" ry="4.4"/>
	<path fill="#FFFFFF" d="M91.5,107.8c0-0.1,0.1-4.8-3-7.2c-5.5-4.3-15.6-2.6-18.3,1.9c-9.8-5.5-17.3-0.9-19.7,3
		c-1.7,2.6-1.8,6.9-1.7,7c0,0-6-0.9-7.7,4.2c-1.6,4.8,5.1,8.5,8.3,10.3c4.3,2.5,11.8,5.5,21,5.5c10,0,18-3.6,21.7-5.8
		c5.8-3.4,9-7.3,8.3-12.2C99.2,107.4,92.8,107.9,91.5,107.8z M70.5,128L70.5,128L70.5,128L70.5,128L70.5,128z"/>
	<path fill="#E1E4E5" d="M100.2,114.5c-1-7-7.4-6.6-8.8-6.6c0-0.1,0.1-4.8-3-7.2c-5.4-4.2-15.2-2.6-18.1,1.7v30.2
		c10,0,17.9-3.6,21.6-5.8C97.8,123.3,100.9,119.4,100.2,114.5z M70.5,128L70.5,128L70.5,128L70.5,128L70.5,128z"/>
	<path fill="#FCA426" d="M75.5,71.4C73.4,69,70.3,69,70.3,69l0,0c0,0-3.1,0-5.2,2.4c-3,1.8-5.5,4.6-2.1,7.9c0.1,0.1,0.3,0.3,0.4,0.4
		c0.8,6.1,4.5,11.8,6.9,15.1l0,0c2.5-3.3,6.1-9.1,6.9-15.1c0.1-0.2,0.2-0.3,0.4-0.4C81,76,78.5,73.2,75.5,71.4z"/>
	<path fill="#E6951F" d="M75.5,71.4C73.4,69,70.3,69,70.3,69l0,0v25.8l0,0c2.5-3.3,6.1-9.1,6.9-15.1c0.1-0.2,0.2-0.3,0.4-0.4
		C81,76,78.5,73.2,75.5,71.4z"/>
	<ellipse fill="#2B2A29" cx="66.6" cy="76.4" rx="1" ry="2.2"/>
	<ellipse fill="#2B2A29" cx="73.9" cy="76.4" rx="1" ry="2.2"/>
	<path fill="#2B2A29" d="M69.7,122.4l5.2-12.9c0.2-0.5,0.5-0.7,0.8-0.7c0.4,0,0.6,0.1,0.8,0.3c0.2,0.2,0.3,0.4,0.3,0.6
		s0,0.4-0.1,0.5l-5.4,13.2c-0.3,0.7-0.8,1-1.4,1h-0.5c-0.6,0-1.1-0.3-1.4-1l-2.1-5.1h1.3h0.8L69.7,122.4z"/>
	<path fill="#1E88E5" d="M64.6,109.6L64.6,109.6c-0.2-0.4-0.6-0.7-1.1-0.7c0,0,0,0,0,0h0h-2.7l0,0h0c-0.5,0-1,0.4-1,1s0.4,1,1,1
		c0,0,0,0,0,0l2.2,0l1.1,2.7l1.2,2.9h2.1L64.6,109.6z"/>
	<path fill="#1972BF" d="M120.8,73c-0.1-1-0.3-3.3-0.3-3.5c0,0.5,0,1.1,0,1.6c0,14.9-4.2,28.5-11.5,39.1l1.5,4.1
		C117.9,103.2,121.8,88.7,120.8,73z"/>
	<path fill="#0277BD" d="M19.6,73c0.1-1,0.3-3.3,0.3-3.5c0,0.5,0,1.1,0,1.6c0,14.9,4.4,28.5,11.7,39.2l-1.5,4.1
		C22.7,103.2,18.6,88.7,19.6,73z"/>
	<path opacity="0.5" fill="#1972BF" d="M92.9,30c-0.3-0.1-0.7-0.2-1-0.2l0-0.1c-1.4-0.4-2.2-1.9-1.8-3.3s1.9-2.2,3.3-1.8
		c4.6,1.3,7.4,6,6.4,10.6C98.3,32.7,95.9,30.8,92.9,30z"/>
	<path opacity="0.5" fill="#0277BD" d="M41,35.2c-1-4.6,1.8-9.3,6.4-10.6c1.4-0.4,2.9,0.4,3.3,1.8c0.4,1.4-0.4,2.9-1.8,3.3l0,0.1
		c-0.3,0.1-0.7,0.1-1,0.2C44.8,30.8,42.4,32.7,41,35.2z"/>
</g>
<path fill="#39444D" d="M140.2,15.7c0,0-24.8,24.9-49.7,24.9c0,0-3.6,71.5,49.7,99.5c52.3-28,49.7-99.5,49.7-99.5c0,0,0,0,0,0
	C161.9,40.5,140.2,15.7,140.2,15.7L140.2,15.7z"/>
<path fill="#3594E8" d="M140.2,27.7c0,0-20.2,20.2-40.5,20.2c0,0-2.9,58.2,40.5,81c42.5-22.8,40.4-81,40.4-81c0,0,0,0,0,0
	C157.9,48,140.2,27.7,140.2,27.7L140.2,27.7z"/>
<path display="none" fill="#3FB29C" d="M180.6,49c-22.7,0-40.3-20.1-40.4-20.2v101.2c0,0,0,0,0.1,0C182.8,107.2,180.6,49,180.6,49
	C180.6,49,180.6,49,180.6,49z"/>
<path opacity="7.000000e-002" d="M189.9,40.5c-27.9,0-49.6-24.7-49.7-24.9V140C192.5,112,189.9,40.5,189.9,40.5
	C189.9,40.5,189.9,40.5,189.9,40.5z"/>
<path fill="#FFFFFF" d="M140.2,91.6l8.9-22.1c0.3-0.8,0.8-1.2,1.5-1.2c0.6,0,1.1,0.2,1.4,0.5c0.3,0.3,0.4,0.7,0.4,1.1
	c0,0.4,0,0.7-0.1,0.8L143,93.3c-0.5,1.2-1.3,1.7-2.3,1.7h-0.8c-1,0-1.8-0.6-2.3-1.7l-3.6-8.7h2.2h1.3L140.2,91.6z"/>
<path fill="#145180" d="M131.4,69.6L131.4,69.6c-0.3-0.8-1-1.3-1.9-1.3c0,0,0,0,0,0h0h-4.7l0,0h0c-0.9,0-1.7,0.7-1.7,1.7
	c0,0.9,0.7,1.7,1.7,1.7c0,0,0,0,0,0l3.7,0l1.9,4.6l2,5.1h3.6L131.4,69.6z"/>
</svg>
