<?xml version="1.0" encoding="utf-8"?>
<!-- Generator: Adobe Illustrator 16.0.0, SVG Export Plug-In . SVG Version: 6.00 Build 0)  -->
<!DOCTYPE svg PUBLIC "-//W3C//DTD SVG 1.1//EN" "http://www.w3.org/Graphics/SVG/1.1/DTD/svg11.dtd">
<svg version="1.1" id="Warstwa_1" xmlns="http://www.w3.org/2000/svg" xmlns:xlink="http://www.w3.org/1999/xlink" x="0px" y="0px"
	 width="138.119px" height="102.564px" viewBox="-0.119 6.936 138.119 102.564"
	 enable-background="new -0.119 6.936 138.119 102.564" xml:space="preserve">
<path fill="#186FBA" d="M102.009,30.425c0,0,2.426-4.085,0.511-4.468c-1.915-0.383-5.106,3.447-5.106,3.447L102.009,30.425z"/>
<g id="Layer_1">
	<g id="bird">
		<path fill="#FCA426" d="M46.859,102.17L46.859,102.17c-4.084,0-7.659-0.639-9.701-1.787c-1.915,0.128-4.469,0.766-6,2.17
			c-1.532,1.404-2.043,4.213,0.127,4.852c1.404,0.383,0.639-0.511,2.17-2.298c-0.255,1.149,0.129,2.298,1.404,2.809
			c1.66,0.383,0.384-0.767,2.937-2.937l0.128-0.127c-0.639,1.404-0.383,2.936,1.148,3.446c1.66,0.383,0.383-0.767,2.937-2.937
			s4.724-2.17,4.979-2.426l0,0v-0.766H46.859z"/>
		<path fill="#E6951F" d="M62.563,102.553c-0.383-0.255-0.767-0.638-1.149-0.766l-2.809-1.021c-0.766-0.127-1.404-0.255-2.042-0.255
			c-2.17,1.149-5.745,1.787-9.574,1.787l0,0v0.894l0,0c0.255,0.256,2.425,0.256,4.979,2.426c2.553,2.17,1.276,3.318,2.936,2.936
			c1.532-0.51,1.787-2.17,1.148-3.446l0.129,0.128c2.425,2.17,1.275,3.318,2.936,2.936c1.277-0.383,1.66-1.659,1.404-2.809
			c1.66,1.787,0.766,2.682,2.17,2.299C64.604,106.766,64.094,103.957,62.563,102.553z"/>
		<path fill="#3594E8" d="M81.711,43.958c0.128,0.127,0.128,0.255,0.128,0.383c-1.915-7.276-5.489-13.66-9.958-18.766
			c-0.255-0.383-1.021-1.787-0.893-3.702c0-3.447,0.383-7.404,0.383-7.404s-3.447,6.51-7.787,4.851
			c-2.938-1.149-0.256-5.617-0.256-5.617s-1.915,1.149-4.085,2.17c-2.298,1.149-4.851,2.298-6.511,1.788
			c-3.447-1.021,1.66-10.724,1.66-10.724s-11.107,9.83-13.404,9.958c-2.938,0.128-2.682-4.34-2.682-4.34s-3.318,3.447-4.979,4.34
			c-10.085,4.851-18,14.936-21.319,27.575c-1.66,1.787-1.66,1.787-0.127,0.127c-5.234,5.617-8.426,12.638-8.426,20.17
			c0,2.17,0.255,4.213,0.766,6.256c-1.787-2.298-3.191-4.852-4.34-7.532c1.404,11.106,8.17,20.809,17.489,26.298
			c0.127,0.128,0.127,0.128,0.127,0.128l1.021-2.937c-5.362-7.787-8.553-17.744-8.553-28.596c0-4.851,0.638-9.574,1.787-13.915l0,0
			c-1.149,4.34-1.787,9.063-1.787,13.915c0,10.852,3.191,20.809,8.553,28.596v-0.127c6.766,9.829,16.852,16.084,28.213,16.084
			s21.574-6.255,28.213-16.084l0,0c5.361-7.787,8.426-17.617,8.426-28.469C83.626,53.276,82.859,48.553,81.711,43.958z"/>
		<path fill="#1E88E6" d="M83.626,58.383c0-4.979-0.638-9.83-1.915-14.425c0.128,0.127,0.128,0.255,0.128,0.383
			c-1.915-7.276-5.489-13.66-9.958-18.766c-0.255-0.383-1.021-1.787-0.893-3.702c0-3.447,0.383-7.404,0.383-7.404
			s-3.447,6.51-7.787,4.851c-2.938-1.149-0.256-5.617-0.256-5.617s-1.915,1.149-4.085,2.17c-2.298,1.149-4.851,2.298-6.511,1.788
			c-3.447-1.021,1.66-10.724,1.66-10.724s0,0-0.129,0.128l0,0l-0.127,0.127c0,0,0,0-0.128,0.128c-0.128,0-0.128,0.127-0.128,0.127
			c-0.127,0-0.127,0.127-0.127,0.127l-0.128,0.128C53.498,7.83,53.498,7.83,53.498,7.83c0.128,0,0,0.128-0.127,0.128
			c-0.128,0.127-0.128,0.127-0.128,0.127c-0.128,0.128-0.255,0.128-0.255,0.255c0.127-0.127,0-0.127-0.129,0
			c-0.127,0-0.127,0-0.255,0.128c-0.128,0.127-0.128,0.127-0.255,0.255c-0.128,0.127-0.128,0.127-0.256,0.127
			c-0.127,0.127-0.255,0.127-0.255,0.255c-0.128,0.127-0.128,0.127-0.128,0.127c-0.127,0.128-0.256,0.255-0.383,0.383
			c-0.128,0-0.128,0.127-0.128,0.127c-0.766,0.638-1.659,1.404-2.681,2.17l0,0c-0.511,0.383-1.148,0.894-1.66,1.276v89.873
			c0.384,0,0.767,0,1.149-0.129c0.255,0,0.639,0,0.894,0c0.383,0,0.766-0.127,1.277-0.127c0.255,0,0.638-0.128,0.766-0.128
			c0.383-0.128,0.894-0.128,1.404-0.255c0.255-0.128,0.383-0.128,0.639-0.128c0.51-0.128,0.893-0.255,1.404-0.383
			c0.254-0.128,0.383-0.128,0.638-0.128c0.511-0.127,1.021-0.256,1.532-0.511c0.127-0.128,0.255-0.128,0.383-0.128
			c0.639-0.255,1.148-0.383,1.659-0.638c0.128,0,0.128-0.128,0.255-0.128c6.384-2.681,11.873-7.404,16.086-13.659l0,0
			C80.435,79.191,83.626,69.234,83.626,58.383z"/>
		<path fill="#FFFFFF" d="M38.945,58.383c-0.128-2.553-0.256-5.489-0.511-9.191c-0.511-6.638-1.659-14.17-7.915-14.17
			c-7.021,0-13.787,8.298-13.787,18.255c0,5.617,1.915,10.596,4.979,14.043C26.945,62.979,32.689,59.915,38.945,58.383z"/>
		<path fill="#FFFFFF" d="M54.902,58.383c0.128-2.553,0.256-5.489,0.511-9.191c0.511-6.766,1.659-14.17,7.915-14.17
			c7.021,0,13.787,8.298,13.787,18.255c0,5.617-1.915,10.596-4.979,14.043C66.775,62.979,61.03,59.915,54.902,58.383z"/>
		<path fill="#2B2A29" d="M72.264,54.809c0-7.277-4.468-13.277-9.957-13.277c-2.553,0-4.852,1.277-6.639,3.447
			c-0.255,1.404-0.383,2.937-0.383,4.341c-0.255,3.702-0.383,6.638-0.51,9.191c4.979,1.149,9.574,3.319,14.042,6.383
			C70.988,62.469,72.264,58.766,72.264,54.809z"/>
		<path fill="#2B2A29" d="M21.456,54.809c0,3.957,1.277,7.531,3.447,10.085c4.341-3.063,9.064-5.233,14.043-6.383
			c-0.128-2.553-0.256-5.489-0.511-9.191c-0.128-1.404-0.255-2.937-0.384-4.341c-1.787-2.17-4.084-3.319-6.51-3.319
			C25.796,41.532,21.456,47.404,21.456,54.809z"/>
		<g>
			<path fill="#2B2A29" d="M38.945,58.383c0,0-3.319,0.766-7.787,2.809c-4.469,2.17-6.383,3.447-6.383,3.447
				s-5.362-6.767-2.426-15.192c2.936-8.425,9.83-8.298,11.361-7.532c1.532,0.638,4.34,1.915,4.469,3.574
				C38.307,47.021,38.945,58.383,38.945,58.383z"/>
			<path fill="#2B2A29" d="M54.775,58.383c0,0,3.318,0.766,7.787,2.809c4.468,2.17,6.383,3.447,6.383,3.447
				s5.361-6.767,2.426-15.192c-2.937-8.425-9.83-8.17-11.362-7.532c-1.532,0.638-4.341,1.915-4.468,3.574
				C55.413,47.021,54.775,58.383,54.775,58.383z"/>
		</g>
		<g>
			<ellipse fill="#FFFFFF" cx="64.094" cy="48.042" rx="3.064" ry="3.191"/>
			<ellipse fill="#FFFFFF" cx="33.2" cy="48.042" rx="3.063" ry="3.191"/>
		</g>
		<path fill="#FFFFFF" d="M62.307,85.191c0-0.127,0.128-3.447-2.17-5.234c-3.957-3.191-11.361-1.787-13.277,1.404
			c-7.021-3.957-12.51-0.638-14.425,2.17c-1.276,1.916-1.276,4.979-1.276,5.107c0,0-4.341-0.639-5.617,3.063
			c-1.148,3.446,3.702,6.255,6,7.532c3.191,1.787,8.553,3.957,15.191,3.957c7.276,0,13.021-2.681,15.702-4.213
			c4.213-2.426,6.511-5.361,6-8.936C67.924,84.809,63.328,85.191,62.307,85.191z M47.115,99.744L47.115,99.744L47.115,99.744
			L47.115,99.744L47.115,99.744z"/>
		<path fill="#E1E4E5" d="M68.689,89.915c-0.766-5.106-5.361-4.851-6.383-4.851c0-0.129,0.128-3.447-2.17-5.234
			c-3.957-3.064-10.979-1.915-13.148,1.276v22.085c7.275,0,13.021-2.681,15.701-4.213C66.902,96.426,69.2,93.489,68.689,89.915z
			 M47.115,99.744L47.115,99.744L47.115,99.744L47.115,99.744L47.115,99.744z"/>
		<path fill="#FCA426" d="M50.689,58.639c-1.531-1.788-3.83-1.788-3.83-1.788l0,0c0,0-2.297,0-3.829,1.788
			c-2.171,1.276-3.958,3.318-1.532,5.744c0.128,0.128,0.256,0.256,0.256,0.256c0.639,4.468,3.318,8.553,4.979,10.979l0,0
			c1.787-2.426,4.468-6.639,4.979-10.979c0.128-0.128,0.128-0.256,0.256-0.256C54.647,61.957,52.859,59.915,50.689,58.639z"/>
		<path fill="#E6951F" d="M50.689,58.639c-1.531-1.788-3.83-1.788-3.83-1.788l0,0v18.766l0,0c1.788-2.426,4.469-6.639,4.979-10.979
			c0.128-0.128,0.128-0.256,0.255-0.256C54.647,61.957,52.859,59.915,50.689,58.639z"/>
		<g>
			<ellipse fill="#2B2A29" cx="44.563" cy="62.212" rx="0.766" ry="1.66"/>
			<ellipse fill="#2B2A29" cx="49.158" cy="62.085" rx="0.766" ry="1.659"/>
		</g>
		<path fill="#2B2A29" d="M46.477,95.66l3.574-8.937c0.129-0.255,0.384-0.511,0.639-0.511c0.256,0,0.383,0.127,0.639,0.256
			c0.127,0.127,0.256,0.255,0.256,0.383c0,0.127,0,0.255-0.129,0.383l-3.829,9.191c-0.255,0.383-0.511,0.766-0.894,0.766H46.35
			c-0.383,0-0.766-0.256-0.895-0.766l-1.659-3.574h0.894h0.639L46.477,95.66z"/>
		<path fill="#1E88E5" d="M42.902,86.724L42.902,86.724c-0.127-0.255-0.383-0.511-0.766-0.511l0,0l0,0h-1.915l0,0l0,0
			c-0.383,0-0.638,0.256-0.638,0.639s0.255,0.638,0.638,0.638l0,0h1.532l0.766,1.915l0.766,2.043h1.404L42.902,86.724z"/>
		<path opacity="0.5" fill="#1972BF" enable-background="new    " d="M63.455,28.511c-0.255-0.128-0.51-0.128-0.766-0.128v-0.127
			C61.668,28,61.03,26.851,61.413,25.83c0.255-1.021,1.404-1.659,2.426-1.276c3.319,0.894,5.361,4.34,4.724,7.787
			C67.285,30.425,65.498,29.021,63.455,28.511z"/>
		<path opacity="0.5" fill="#1D79C9" enable-background="new    " d="M25.541,32.213c-0.766-3.319,1.276-6.766,4.723-7.788
			c1.021-0.255,2.171,0.255,2.426,1.277c0.256,1.021-0.255,2.17-1.276,2.425v0.128c-0.255,0.127-0.511,0.127-0.766,0.127
			C28.35,29.021,26.689,30.425,25.541,32.213z"/>
		<path fill="#0277BD" d="M9.966,59.787c0.128-0.766,0.255-2.425,0.255-2.553c0,0.383,0,0.766,0,1.149
			c0,10.852,3.191,20.809,8.553,28.469l-1.149,3.063C12.264,81.744,9.2,71.148,9.966,59.787z"/>
	</g>
	<g id="Server" display="none">
		<path display="inline" fill="#39444D" d="M71.243,27.362h60.255c1.532,0,2.682,1.149,2.682,2.681v76.213
			c0,1.531-1.277,2.809-2.809,2.809H71.115c-1.531,0-2.681-1.149-2.681-2.682v-76.34C68.563,28.511,69.711,27.362,71.243,27.362z"/>
		<g display="inline">
			<path fill="#22292E" d="M126.264,69.617H76.604c-0.766,0-1.404,0.639-1.404,1.404v8.809c0,0.766,0.639,1.404,1.404,1.404h49.659
				c0.767,0,1.404-0.639,1.404-1.404v-8.809C127.668,70.383,127.03,69.617,126.264,69.617z"/>
			<path fill="#22292E" d="M126.264,84.298H76.604c-0.766,0-1.404,0.638-1.404,1.404v8.809c0,0.766,0.639,1.404,1.404,1.404h49.659
				c0.767,0,1.404-0.639,1.404-1.404v-8.809C127.668,84.936,127.03,84.298,126.264,84.298z"/>
			<path fill="#22292E" d="M127.668,50.724c0,0.766-0.638,1.404-1.404,1.404H76.604c-0.766,0-1.404-0.638-1.404-1.404v-8.809
				c0-0.766,0.639-1.404,1.404-1.404h49.659c0.767,0,1.404,0.638,1.404,1.404V50.724z"/>
			<path fill="#22292E" d="M127.668,65.276c0,0.767-0.638,1.404-1.404,1.404H76.604c-0.766,0-1.404-0.638-1.404-1.404v-8.808
				c0-0.766,0.639-1.404,1.404-1.404h49.659c0.767,0,1.404,0.638,1.404,1.404V65.276z"/>
		</g>
		<g display="inline">
			<rect x="126.264" y="98.852" fill="#22292E" width="0.767" height="5.105"/>
			<rect x="83.881" y="98.852" fill="#22292E" width="0.766" height="5.105"/>
			<rect x="82.477" y="98.852" fill="#22292E" width="0.767" height="5.105"/>
			<rect x="80.945" y="98.852" fill="#22292E" width="0.766" height="5.105"/>
			<rect x="79.541" y="98.852" fill="#22292E" width="0.766" height="5.105"/>
			<rect x="75.2" y="98.852" fill="#22292E" width="0.767" height="5.105"/>
			<rect x="76.604" y="98.852" fill="#22292E" width="0.767" height="5.105"/>
			<rect x="78.137" y="98.852" fill="#22292E" width="0.766" height="5.105"/>
			<rect x="85.413" y="98.852" fill="#22292E" width="0.767" height="5.105"/>
			<rect x="86.817" y="98.852" fill="#22292E" width="0.767" height="5.105"/>
			<rect x="88.35" y="98.852" fill="#22292E" width="0.766" height="5.105"/>
			<rect x="89.754" y="98.852" fill="#22292E" width="0.766" height="5.105"/>
			<rect x="91.158" y="98.852" fill="#22292E" width="0.766" height="5.105"/>
			<rect x="92.689" y="98.852" fill="#22292E" width="0.766" height="5.105"/>
			<rect x="94.094" y="98.852" fill="#22292E" width="0.766" height="5.105"/>
			<rect x="95.626" y="98.852" fill="#22292E" width="0.767" height="5.105"/>
			<rect x="97.03" y="98.852" fill="#22292E" width="0.766" height="5.105"/>
			<rect x="98.563" y="98.852" fill="#22292E" width="0.766" height="5.105"/>
			<rect x="99.967" y="98.852" fill="#22292E" width="0.766" height="5.105"/>
			<rect x="101.371" y="98.852" fill="#22292E" width="0.766" height="5.105"/>
			<rect x="102.902" y="98.852" fill="#22292E" width="0.766" height="5.105"/>
			<rect x="104.307" y="98.852" fill="#22292E" width="0.766" height="5.105"/>
			<rect x="105.839" y="98.852" fill="#22292E" width="0.766" height="5.105"/>
			<rect x="107.243" y="98.852" fill="#22292E" width="0.766" height="5.105"/>
			<rect x="108.775" y="98.852" fill="#22292E" width="0.766" height="5.105"/>
			<rect x="110.18" y="98.852" fill="#22292E" width="0.766" height="5.105"/>
			<rect x="111.584" y="98.852" fill="#22292E" width="0.766" height="5.105"/>
			<rect x="113.115" y="98.852" fill="#22292E" width="0.766" height="5.105"/>
			<rect x="114.52" y="98.852" fill="#22292E" width="0.766" height="5.105"/>
			<rect x="116.051" y="98.852" fill="#22292E" width="0.767" height="5.105"/>
			<rect x="117.455" y="98.852" fill="#22292E" width="0.767" height="5.105"/>
			<rect x="118.988" y="98.852" fill="#22292E" width="0.766" height="5.105"/>
			<rect x="120.393" y="98.852" fill="#22292E" width="0.766" height="5.105"/>
			<rect x="121.796" y="98.852" fill="#22292E" width="0.767" height="5.105"/>
			<rect x="123.328" y="98.852" fill="#22292E" width="0.766" height="5.105"/>
			<rect x="124.732" y="98.852" fill="#22292E" width="0.766" height="5.105"/>
		</g>
		<g display="inline">
			<rect x="126.264" y="32.468" fill="#22292E" width="0.767" height="5.106"/>
			<rect x="83.881" y="32.468" fill="#22292E" width="0.766" height="5.106"/>
			<rect x="82.477" y="32.468" fill="#22292E" width="0.767" height="5.106"/>
			<rect x="80.945" y="32.468" fill="#22292E" width="0.766" height="5.106"/>
			<rect x="79.541" y="32.468" fill="#22292E" width="0.766" height="5.106"/>
			<rect x="75.2" y="32.468" fill="#22292E" width="0.767" height="5.106"/>
			<rect x="76.604" y="32.468" fill="#22292E" width="0.767" height="5.106"/>
			<rect x="78.137" y="32.468" fill="#22292E" width="0.766" height="5.106"/>
			<rect x="85.413" y="32.468" fill="#22292E" width="0.767" height="5.106"/>
			<rect x="86.817" y="32.468" fill="#22292E" width="0.767" height="5.106"/>
			<rect x="88.35" y="32.468" fill="#22292E" width="0.766" height="5.106"/>
			<rect x="89.754" y="32.468" fill="#22292E" width="0.766" height="5.106"/>
			<rect x="91.158" y="32.468" fill="#22292E" width="0.766" height="5.106"/>
			<rect x="92.689" y="32.468" fill="#22292E" width="0.766" height="5.106"/>
			<rect x="94.094" y="32.468" fill="#22292E" width="0.766" height="5.106"/>
			<rect x="95.626" y="32.468" fill="#22292E" width="0.767" height="5.106"/>
			<rect x="97.03" y="32.468" fill="#22292E" width="0.766" height="5.106"/>
			<rect x="98.563" y="32.468" fill="#22292E" width="0.766" height="5.106"/>
			<rect x="99.967" y="32.468" fill="#22292E" width="0.766" height="5.106"/>
			<rect x="101.371" y="32.468" fill="#22292E" width="0.766" height="5.106"/>
			<rect x="102.902" y="32.468" fill="#22292E" width="0.766" height="5.106"/>
			<rect x="104.307" y="32.468" fill="#22292E" width="0.766" height="5.106"/>
			<rect x="105.839" y="32.468" fill="#22292E" width="0.766" height="5.106"/>
			<rect x="107.243" y="32.468" fill="#22292E" width="0.766" height="5.106"/>
			<rect x="108.775" y="32.468" fill="#22292E" width="0.766" height="5.106"/>
			<rect x="110.18" y="32.468" fill="#22292E" width="0.766" height="5.106"/>
			<rect x="111.584" y="32.468" fill="#22292E" width="0.766" height="5.106"/>
			<rect x="113.115" y="32.468" fill="#22292E" width="0.766" height="5.106"/>
			<rect x="114.52" y="32.468" fill="#22292E" width="0.766" height="5.106"/>
			<rect x="116.051" y="32.468" fill="#22292E" width="0.767" height="5.106"/>
			<rect x="117.455" y="32.468" fill="#22292E" width="0.767" height="5.106"/>
			<rect x="118.988" y="32.468" fill="#22292E" width="0.766" height="5.106"/>
			<rect x="120.393" y="32.468" fill="#22292E" width="0.766" height="5.106"/>
			<rect x="121.796" y="32.468" fill="#22292E" width="0.767" height="5.106"/>
			<rect x="123.328" y="32.468" fill="#22292E" width="0.766" height="5.106"/>
			<rect x="124.732" y="32.468" fill="#22292E" width="0.766" height="5.106"/>
		</g>
		<g display="inline">
			<g>
				<circle fill="#3FB6A1" cx="80.945" cy="90.043" r="1.404"/>
				<circle fill="#3FB6A1" cx="86.051" cy="90.043" r="1.404"/>
				<circle fill="#3FB6A1" cx="91.158" cy="90.043" r="1.404"/>
			</g>
			<circle fill="#3FB6A1" cx="80.945" cy="46.383" r="1.404"/>
			<circle fill="#3FB6A1" cx="86.051" cy="46.383" r="1.404"/>
			<circle fill="#3FB6A1" cx="91.158" cy="46.383" r="1.404"/>
			<circle fill="#3FB6A1" cx="80.945" cy="60.936" r="1.404"/>
			<circle fill="#3FB6A1" cx="86.051" cy="60.936" r="1.404"/>
			<circle fill="#3FB6A1" cx="91.158" cy="60.936" r="1.404"/>
			<circle fill="#3FB6A1" cx="80.945" cy="75.489" r="1.404"/>
			<circle fill="#3FB6A1" cx="86.051" cy="75.489" r="1.404"/>
			<circle fill="#3FB6A1" cx="91.158" cy="75.489" r="1.404"/>
		</g>
		<g display="inline">
			<rect x="118.988" y="42.681" fill="#2A3239" width="1.404" height="1.404"/>
			<rect x="121.796" y="42.681" fill="#2A3239" width="1.404" height="1.404"/>
			<rect x="124.732" y="42.681" fill="#2A3239" width="1.404" height="1.404"/>
			<rect x="118.988" y="45.617" fill="#2A3239" width="1.404" height="1.404"/>
			<rect x="121.796" y="45.617" fill="#2A3239" width="1.404" height="1.404"/>
			<rect x="124.732" y="45.617" fill="#2A3239" width="1.404" height="1.404"/>
			<rect x="118.988" y="48.553" fill="#2A3239" width="1.404" height="1.404"/>
			<rect x="121.796" y="48.553" fill="#2A3239" width="1.404" height="1.404"/>
			<rect x="124.732" y="48.553" fill="#2A3239" width="1.404" height="1.404"/>
		</g>
		<g display="inline">
			<rect x="118.988" y="57.234" fill="#2A3239" width="1.404" height="1.405"/>
			<rect x="121.796" y="57.234" fill="#2A3239" width="1.404" height="1.405"/>
			<rect x="124.732" y="57.234" fill="#2A3239" width="1.404" height="1.405"/>
			<rect x="118.988" y="60.17" fill="#2A3239" width="1.404" height="1.404"/>
			<rect x="121.796" y="60.17" fill="#2A3239" width="1.404" height="1.404"/>
			<rect x="124.732" y="60.17" fill="#2A3239" width="1.404" height="1.404"/>
			<rect x="118.988" y="63.106" fill="#2A3239" width="1.404" height="1.404"/>
			<rect x="121.796" y="63.106" fill="#2A3239" width="1.404" height="1.404"/>
			<rect x="124.732" y="63.106" fill="#2A3239" width="1.404" height="1.404"/>
		</g>
		<g display="inline">
			<rect x="118.988" y="71.915" fill="#2A3239" width="1.404" height="1.404"/>
			<rect x="121.796" y="71.915" fill="#2A3239" width="1.404" height="1.404"/>
			<rect x="124.732" y="71.915" fill="#2A3239" width="1.404" height="1.404"/>
			<rect x="118.988" y="74.724" fill="#2A3239" width="1.404" height="1.403"/>
			<rect x="121.796" y="74.724" fill="#2A3239" width="1.404" height="1.403"/>
			<rect x="124.732" y="74.724" fill="#2A3239" width="1.404" height="1.403"/>
			<rect x="118.988" y="77.66" fill="#2A3239" width="1.404" height="1.404"/>
			<rect x="121.796" y="77.66" fill="#2A3239" width="1.404" height="1.404"/>
			<rect x="124.732" y="77.66" fill="#2A3239" width="1.404" height="1.404"/>
		</g>
		<g display="inline">
			<rect x="118.988" y="86.469" fill="#2A3239" width="1.404" height="1.403"/>
			<rect x="121.796" y="86.469" fill="#2A3239" width="1.404" height="1.403"/>
			<rect x="124.732" y="86.469" fill="#2A3239" width="1.404" height="1.403"/>
			<rect x="118.988" y="89.404" fill="#2A3239" width="1.404" height="1.404"/>
			<rect x="121.796" y="89.404" fill="#2A3239" width="1.404" height="1.404"/>
			<rect x="124.732" y="89.404" fill="#2A3239" width="1.404" height="1.404"/>
			<rect x="118.988" y="92.34" fill="#2A3239" width="1.404" height="1.404"/>
			<rect x="121.796" y="92.34" fill="#2A3239" width="1.404" height="1.404"/>
			<rect x="124.732" y="92.34" fill="#2A3239" width="1.404" height="1.404"/>
		</g>
		<path display="inline" opacity="0.1" enable-background="new    " d="M131.498,27.362h-30v81.703h30
			c1.532,0,2.809-1.277,2.809-2.809V30.042C134.307,28.511,133.03,27.362,131.498,27.362z"/>
	</g>
</g>
<path fill="#EDEFF2" d="M97.083,109.5c-22.597,0-40.916-18.319-40.916-40.916c0-22.598,18.319-40.917,40.916-40.917
	c22.598,0,40.917,18.319,40.917,40.917C138,91.181,119.681,109.5,97.083,109.5z M97.083,64.488c-2.638,0-4.776,2.139-4.776,4.777
	c0,2.638,2.139,4.776,4.776,4.776c2.639,0,4.777-2.139,4.777-4.776C101.86,66.627,99.722,64.488,97.083,64.488z"/>
<g>
	<g>
		<defs>
			<path id="SVGID_1_" d="M97.083,109.5c-22.597,0-40.916-18.319-40.916-40.916c0-22.598,18.319-40.917,40.916-40.917
				c22.598,0,40.917,18.319,40.917,40.917C138,91.181,119.681,109.5,97.083,109.5z M97.083,64.492c-2.636,0-4.773,2.137-4.773,4.773
				s2.138,4.773,4.773,4.773c2.637,0,4.774-2.137,4.774-4.773S99.72,64.492,97.083,64.492z"/>
		</defs>
		<clipPath id="SVGID_2_">
			<use xlink:href="#SVGID_1_"  overflow="visible"/>
		</clipPath>
		<path clip-path="url(#SVGID_2_)" fill="#E1E3E5" d="M86.173,26.985h20.458l-8.184,41.599l8.184,42.28H86.173l8.865-42.28
			L86.173,26.985z"/>
	</g>
	<g>
		<defs>
			<path id="SVGID_3_" d="M97.083,109.5c-22.597,0-40.916-18.319-40.916-40.916c0-22.598,18.319-40.917,40.916-40.917
				c22.598,0,40.917,18.319,40.917,40.917C138,91.181,119.681,109.5,97.083,109.5z M97.083,64.492c-2.636,0-4.773,2.137-4.773,4.773
				s2.138,4.773,4.773,4.773c2.637,0,4.774-2.137,4.774-4.773S99.72,64.492,97.083,64.492z"/>
		</defs>
		<clipPath id="SVGID_4_">
			<use xlink:href="#SVGID_3_"  overflow="visible"/>
		</clipPath>
		<path clip-path="url(#SVGID_4_)" fill="#E1E3E5" d="M58.54,49.148l3.41-5.442L96.61,68.865l37.979,20.189l-2.727,6.125
			L96.27,69.09L58.54,49.148z"/>
	</g>
	<g>
		<defs>
			<path id="SVGID_5_" d="M97.083,109.5c-22.597,0-40.916-18.319-40.916-40.916c0-22.598,18.319-40.917,40.916-40.917
				c22.598,0,40.917,18.319,40.917,40.917C138,91.181,119.681,109.5,97.083,109.5z M97.083,64.492c-2.636,0-4.773,2.137-4.773,4.773
				s2.138,4.773,4.773,4.773c2.637,0,4.774-2.137,4.774-4.773S99.72,64.492,97.083,64.492z"/>
		</defs>
		<clipPath id="SVGID_6_">
			<use xlink:href="#SVGID_5_"  overflow="visible"/>
		</clipPath>
		<path clip-path="url(#SVGID_6_)" fill="#F5F6F7" d="M68.154,37.896l-2.093,2.092l30.358,28.43l28.912,30.841l2.093-2.093
			l-30.64-29.111L68.154,37.896z"/>
	</g>
	<g>
		<defs>
			<path id="SVGID_7_" d="M97.083,109.5c-22.597,0-40.916-18.319-40.916-40.916c0-22.598,18.319-40.917,40.916-40.917
				c22.598,0,40.917,18.319,40.917,40.917C138,91.181,119.681,109.5,97.083,109.5z M97.083,64.492c-2.636,0-4.773,2.137-4.773,4.773
				s2.138,4.773,4.773,4.773c2.637,0,4.774-2.137,4.774-4.773S99.72,64.492,97.083,64.492z"/>
		</defs>
		<clipPath id="SVGID_8_">
			<use xlink:href="#SVGID_7_"  overflow="visible"/>
		</clipPath>
		<path clip-path="url(#SVGID_8_)" fill="#F5F6F7" d="M126.359,37.866l2.094,2.094L98.074,68.41l-28.933,30.86l-2.094-2.094
			l30.662-29.132L126.359,37.866z"/>
	</g>
</g>
<path opacity="0.1" enable-background="new    " d="M97.083,82.904c-7.532,0-13.639-6.106-13.639-13.639
	c0-7.533,6.106-13.639,13.639-13.639c7.533,0,13.64,6.106,13.64,13.639C110.723,76.798,104.616,82.904,97.083,82.904z
	 M97.128,63.216c-3.366,0-6.095,2.729-6.095,6.094s2.728,6.094,6.095,6.094c3.364,0,6.093-2.729,6.093-6.094
	C103.221,65.944,100.492,63.216,97.128,63.216z"/>
<path fill="#F5F6F7" d="M97.083,82.223c-7.155,0-12.956-5.802-12.956-12.957c0-7.156,5.801-12.957,12.956-12.957
	c7.156,0,12.957,5.801,12.957,12.957C110.04,76.421,104.239,82.223,97.083,82.223z M97.083,64.492c-2.636,0-4.773,2.137-4.773,4.773
	s2.138,4.773,4.773,4.773c2.637,0,4.774-2.137,4.774-4.773S99.721,64.492,97.083,64.492z"/>
<path opacity="0.08" enable-background="new    " d="M97.083,27.667v36.821c2.639,0,4.777,2.139,4.777,4.777
	c0,2.638-2.139,4.776-4.777,4.776V109.5C119.681,109.5,138,91.181,138,68.584C138,45.986,119.681,27.667,97.083,27.667z"/>
<path fill="#3594E8" d="M102.902,25.958c-0.766,0.255-4.213,1.66-7.021,5.234c-2.809,3.447-3.83,5.234-3.83,5.234
	s-3.446-4.851-2.425-6.51c1.021-1.66-7.404,3.957-8.171,6.51c-0.766,2.681-0.255,4.213-0.255,4.213s-9.319-6.766-2.298-15.447
	C81.2,22.127,95.754,24.681,102.902,25.958z"/>
</svg>
