<?xml version="1.0" encoding="utf-8"?>
<!-- Generator: Adobe Illustrator 18.0.0, SVG Export Plug-In . SVG Version: 6.00 Build 0)  -->
<!DOCTYPE svg PUBLIC "-//W3C//DTD SVG 1.1//EN" "http://www.w3.org/Graphics/SVG/1.1/DTD/svg11.dtd">
<svg version="1.1" id="Warstwa_1" xmlns="http://www.w3.org/2000/svg" xmlns:xlink="http://www.w3.org/1999/xlink" x="0px" y="0px"
	 viewBox="0 0 238 152" enable-background="new 0 0 238 152" xml:space="preserve">
<path fill-rule="evenodd" clip-rule="evenodd" fill="#FFFFFF" d="M3.3,0l231.5,0c1.8,0,3.3,1.5,3.3,3.3v145.4c0,1.8-1.5,3.3-3.3,3.3
	H3.3c-1.8,0-3.3-1.5-3.3-3.3V3.3C0,1.5,1.5,0,3.3,0z"/>
<path fill-rule="evenodd" clip-rule="evenodd" fill="#DCDEE0" d="M238,19V3.3c0-1.8-1.5-3.3-3.3-3.3H3.2C1.4,0,0,1.5,0,3.3V19H238z"
	/>
<image display="none" overflow="visible" width="260" height="174" xlink:href="8E424B43.html"  transform="matrix(1 0 0 1 -12.9063 -16.8594)">
</image>
<circle fill-rule="evenodd" clip-rule="evenodd" fill="#F38C28" cx="8" cy="6" r="2"/>
<circle fill-rule="evenodd" clip-rule="evenodd" fill="#FCAF15" cx="14" cy="6" r="2"/>
<circle fill-rule="evenodd" clip-rule="evenodd" fill="#31BB37" cx="20" cy="6" r="2"/>
<path fill="#919294" d="M9,10.5L8,12h3v1H8L9,14.6L8.5,15L6,12.5L8.5,10L9,10.5z"/>
<path fill="#919294" d="M18.5,10l2.5,2.5L18.5,15l-0.4-0.4L19,13h-3v-1h3l-0.9-1.6L18.5,10z"/>
<path fill-rule="evenodd" clip-rule="evenodd" fill="#D0D2D5" d="M31,3h34c0.6,0,1,0.4,1,1v6c0,0.6-0.4,1-1,1H31c-0.6,0-1-0.4-1-1V4
	C30,3.5,30.5,3,31,3z"/>
<path fill-rule="evenodd" clip-rule="evenodd" fill="#FFFFFF" d="M27.1,9h195.8c0.6,0,1.1,0.5,1.1,1.2v3.7c0,0.6-0.5,1.2-1.1,1.2
	H27.1c-0.6,0-1.1-0.5-1.1-1.2V10C26,9.4,26.5,9,27.1,9z"/>
<path fill-rule="evenodd" clip-rule="evenodd" fill="#A1A3A4" d="M232.5,12h-5c-0.3,0-0.5-0.2-0.5-0.5s0.2-0.5,0.5-0.5h5
	c0.3,0,0.5,0.2,0.5,0.5S232.8,12,232.5,12z M232.5,10h-5c-0.3,0-0.5-0.2-0.5-0.5s0.2-0.5,0.5-0.5h5c0.3,0,0.5,0.2,0.5,0.5
	S232.8,10,232.5,10z M227.5,13h5c0.3,0,0.5,0.2,0.5,0.5s-0.2,0.5-0.5,0.5h-5c-0.3,0-0.5-0.2-0.5-0.5S227.3,13,227.5,13z"/>
<path fill-rule="evenodd" clip-rule="evenodd" fill="#E6E8EB" d="M87,93v-2h113v2H87z M197,70H41c-0.6,0-1-0.4-1-1V29
	c0-0.6,0.4-1,1-1h156c0.6,0,1,0.4,1,1v40C198,69.6,197.6,70,197,70z M41,80h35c0.6,0,1,0.4,1,1v51c0,0.6-0.4,1-1,1H41
	c-0.6,0-1-0.4-1-1V81C40,80.5,40.5,80,41,80z M142,83H87v-3h55V83z M170,98H87v-2h83V98z M100,103H87v-2h13V103z M150,101v2h-46v-2
	H150z M170,108H87v-2h83V108z M130,114H87v-2h43V114z M91,125h22c2.2,0,4,1.8,4,4c0,2.2-1.8,4-4,4H91c-2.2,0-4-1.8-4-4
	C87,126.8,88.8,125,91,125z M147,114h-13v-2h13V114z M154,101h33v2h-33V101z M184,114h-33v-2h33V114z"/>
</svg>
