<?xml version="1.0" encoding="utf-8"?>
<!-- Generator: Adobe Illustrator 18.0.0, SVG Export Plug-In . SVG Version: 6.00 Build 0)  -->
<!DOCTYPE svg PUBLIC "-//W3C//DTD SVG 1.1//EN" "http://www.w3.org/Graphics/SVG/1.1/DTD/svg11.dtd">
<svg version="1.1" id="Warstwa_1" xmlns="http://www.w3.org/2000/svg" xmlns:xlink="http://www.w3.org/1999/xlink" x="0px" y="0px"
	 viewBox="0 0 238 152" enable-background="new 0 0 238 152" xml:space="preserve">
<path fill-rule="evenodd" clip-rule="evenodd" fill="#FFFFFF" d="M3.2,0l231.5,0c1.8,0,3.3,1.5,3.3,3.3v145.4c0,1.8-1.5,3.3-3.3,3.3
	H3.2c-1.8,0-3.3-1.5-3.3-3.3V3.3C0,1.5,1.4,0,3.2,0z"/>
<path fill-rule="evenodd" clip-rule="evenodd" fill="#DCDEE0" d="M238,19V3.3c0-1.8-1.5-3.3-3.3-3.3H3.2C1.4,0,0,1.5,0,3.3V19H238z"
	/>
<image display="none" overflow="visible" width="260" height="174" xlink:href="2D224DD4.html"  transform="matrix(1 0 0 1 -12.9063 -16.8594)">
</image>
<circle fill-rule="evenodd" clip-rule="evenodd" fill="#F38C28" cx="8" cy="6" r="2"/>
<circle fill-rule="evenodd" clip-rule="evenodd" fill="#FCAF15" cx="14" cy="6" r="2"/>
<circle fill-rule="evenodd" clip-rule="evenodd" fill="#31BB37" cx="20" cy="6" r="2"/>
<path fill="#919294" d="M9,10.5L8,12h3v1H8L9,14.6L8.5,15L6,12.5L8.5,10L9,10.5z"/>
<path fill="#919294" d="M18.5,10l2.5,2.5L18.5,15l-0.4-0.4L19,13h-3v-1h3l-0.9-1.6L18.5,10z"/>
<path fill-rule="evenodd" clip-rule="evenodd" fill="#D0D2D5" d="M31,3h34c0.6,0,1,0.4,1,1v6c0,0.6-0.4,1-1,1H31c-0.6,0-1-0.4-1-1V4
	C30,3.5,30.5,3,31,3z"/>
<path fill-rule="evenodd" clip-rule="evenodd" fill="#FFFFFF" d="M27.1,9h195.8c0.6,0,1.1,0.5,1.1,1.2v3.7c0,0.6-0.5,1.2-1.1,1.2
	H27.1c-0.6,0-1.1-0.5-1.1-1.2V10C26,9.4,26.5,9,27.1,9z"/>
<path fill-rule="evenodd" clip-rule="evenodd" fill="#A1A3A4" d="M232.5,12h-5c-0.3,0-0.5-0.2-0.5-0.5s0.2-0.5,0.5-0.5h5
	c0.3,0,0.5,0.2,0.5,0.5S232.8,12,232.5,12z M232.5,10h-5c-0.3,0-0.5-0.2-0.5-0.5s0.2-0.5,0.5-0.5h5c0.3,0,0.5,0.2,0.5,0.5
	S232.8,10,232.5,10z M227.5,13h5c0.3,0,0.5,0.2,0.5,0.5s-0.2,0.5-0.5,0.5h-5c-0.3,0-0.5-0.2-0.5-0.5S227.3,13,227.5,13z"/>
<polyline fill-rule="evenodd" clip-rule="evenodd" fill="none" stroke="#3594E8" stroke-miterlimit="10" points="20,136 20,134 
	30.8,125.4 43,105 56.5,96.7 68,113 80,110.2 89,100 95.1,103.2 102,117 113,124 125,102 129,115 137,94 144,107 151,97 164,126 
	169,114 175,125 192,93 195,112 203,102 212,112 "/>
<polygon opacity="0.2" fill-rule="evenodd" clip-rule="evenodd" fill="#3594E8" points="20,134 30.8,125.4 43,105 56.5,96.7 68,113 
	80,110.2 89,100 95.1,103.2 102,117 113,124 125,102 129,115 137,94 144,107 151,97 164,126 169,114 175,125 192,93 195,112 
	203,102 212,112 212,136 20,136 "/>
<circle fill-rule="evenodd" clip-rule="evenodd" fill="#FFFFFF" cx="179" cy="55" r="13.8"/>
<rect x="17" y="61.5" fill-rule="evenodd" clip-rule="evenodd" fill="#3594E8" width="6" height="15"/>
<rect x="27" y="55.5" fill-rule="evenodd" clip-rule="evenodd" fill="#3594E8" width="6" height="21"/>
<rect x="37" y="69.5" fill-rule="evenodd" clip-rule="evenodd" fill="#3594E8" width="6" height="7"/>
<rect x="47" y="38.5" fill-rule="evenodd" clip-rule="evenodd" fill="#3594E8" width="6" height="38"/>
<rect x="57" y="51.5" fill-rule="evenodd" clip-rule="evenodd" fill="#3594E8" width="6" height="25"/>
<rect x="67" y="41.5" fill-rule="evenodd" clip-rule="evenodd" fill="#3594E8" width="6" height="35"/>
<rect x="77" y="61.5" fill-rule="evenodd" clip-rule="evenodd" fill="#3594E8" width="6" height="15"/>
<rect x="87" y="71.5" fill-rule="evenodd" clip-rule="evenodd" fill="#3594E8" width="6" height="5"/>
<rect x="97" y="61.5" fill-rule="evenodd" clip-rule="evenodd" fill="#3594E8" width="6" height="15"/>
<rect x="107" y="51.5" fill-rule="evenodd" clip-rule="evenodd" fill="#3594E8" width="6" height="25"/>
<rect x="117" y="66.5" fill-rule="evenodd" clip-rule="evenodd" fill="#3594E8" width="6" height="10"/>
<rect x="127" y="51.5" fill-rule="evenodd" clip-rule="evenodd" fill="#3594E8" width="6" height="25"/>
<rect x="137" y="61.5" fill-rule="evenodd" clip-rule="evenodd" fill="#3594E8" width="6" height="15"/>
<rect x="147" y="70.5" fill-rule="evenodd" clip-rule="evenodd" fill="#3594E8" width="6" height="6"/>
<rect x="157" y="61.5" fill-rule="evenodd" clip-rule="evenodd" fill="#3594E8" width="6" height="15"/>
<rect x="167" y="51.5" fill-rule="evenodd" clip-rule="evenodd" fill="#3594E8" width="6" height="25"/>
<rect x="177" y="61.5" fill-rule="evenodd" clip-rule="evenodd" fill="#3594E8" width="6" height="15"/>
<rect x="187" y="31.5" fill-rule="evenodd" clip-rule="evenodd" fill="#3594E8" width="6" height="45"/>
<rect x="197" y="61.5" fill-rule="evenodd" clip-rule="evenodd" fill="#3594E8" width="6" height="15"/>
<rect x="207" y="71.5" fill-rule="evenodd" clip-rule="evenodd" fill="#3594E8" width="6" height="5"/>
</svg>
