<?xml version="1.0" encoding="utf-8"?>
<!-- Generator: Adobe Illustrator 18.0.0, SVG Export Plug-In . SVG Version: 6.00 Build 0)  -->
<!DOCTYPE svg PUBLIC "-//W3C//DTD SVG 1.1//EN" "http://www.w3.org/Graphics/SVG/1.1/DTD/svg11.dtd">
<svg version="1.1" id="Warstwa_1" xmlns="http://www.w3.org/2000/svg" xmlns:xlink="http://www.w3.org/1999/xlink" x="0px" y="0px"
	 viewBox="60 0 80 80" enable-background="new 60 0 80 80" xml:space="preserve">
<path fill="#1E88E6" d="M137.2,66c0,1.8,1.1,3.4,2.8,3.9V80H60V69.9c1.7-0.6,2.8-2.1,2.8-3.9S61.7,62.6,60,62V0h80v62
	C138.3,62.6,137.2,64.1,137.2,66z"/>
<path display="none" fill="#39AAFF" d="M134.2,66c0,1.7,0.6,3.2,1.5,4.4v5.5H64.2v-5.5c1-1.3,1.5-2.7,1.5-4.4c0-1.7-0.6-3.2-1.5-4.4
	V4.2h71.6v57.4C134.8,62.7,134.2,64.3,134.2,66z"/>
<path fill="#DBE2E5" d="M72.6,8.4h54.7c2.4,0,4.2,1.8,4.2,4.2v54.7c0,2.4-1.8,4.2-4.2,4.2H72.6c-2.4,0-4.2-1.8-4.2-4.2V12.6
	C68.4,10.2,70.2,8.4,72.6,8.4z"/>
<path fill="#F7A226" d="M68.4,2.8V0h33.7v2.8H68.4z M62.8,77.2v-5.6l5.6,5.6H62.8z"/>
<path opacity="7.000000e-002" enable-background="new    " d="M140,62V0h-40v80h40V69.9c-1.7-0.6-2.8-2.1-2.8-3.9S138.3,62.6,140,62
	z"/>
</svg>
