<?xml version="1.0" encoding="utf-8"?>
<!-- Generator: Adobe Illustrator 16.0.0, SVG Export Plug-In . SVG Version: 6.00 Build 0)  -->
<!DOCTYPE svg PUBLIC "-//W3C//DTD SVG 1.1//EN" "http://www.w3.org/Graphics/SVG/1.1/DTD/svg11.dtd">
<svg version="1.1" id="Layer_1" xmlns="http://www.w3.org/2000/svg" xmlns:xlink="http://www.w3.org/1999/xlink" x="0px" y="0px"
	 width="120px" height="120px" viewBox="0 0 120 120" enable-background="new 0 0 120 120" xml:space="preserve">
<path fill-rule="evenodd" clip-rule="evenodd" fill="#EDEFF2" d="M60,120C26.863,120,0,93.137,0,60C0,26.863,26.863,0,60,0
	s60,26.863,60,60C120,93.137,93.137,120,60,120z M60,53.995c-3.869,0-7.005,3.136-7.005,7.005c0,3.868,3.136,7.004,7.005,7.004
	c3.868,0,7.005-3.136,7.005-7.004C67.005,57.131,63.868,53.995,60,53.995z"/>
<g>
	<defs>
		<path id="SVGID_1_" d="M60,120C26.863,120,0,93.137,0,60C0,26.863,26.863,0,60,0s60,26.863,60,60C120,93.137,93.137,120,60,120z
			 M60,54.001c-3.866,0-7,3.134-7,7C53,64.866,56.134,68,60,68c3.865,0,7-3.134,7-6.999C67,57.135,63.865,54.001,60,54.001z"/>
	</defs>
	<clipPath id="SVGID_2_">
		<use xlink:href="#SVGID_1_"  overflow="visible"/>
	</clipPath>
	<path clip-path="url(#SVGID_2_)" fill-rule="evenodd" clip-rule="evenodd" fill="#E1E3E5" d="M44-1h30L62,60l12,62H44l13-62L44-1z"
		/>
	<path clip-path="url(#SVGID_2_)" fill-rule="evenodd" clip-rule="evenodd" fill="#E1E3E5" d="M3.479,31.5l5-7.98l50.827,36.893
		L115,90.02L111.001,99L58.807,60.742L3.479,31.5z"/>
	<path clip-path="url(#SVGID_2_)" fill-rule="evenodd" clip-rule="evenodd" fill="#F5F6F7" d="M17.577,15l-3.068,3.068l44.517,41.69
		l42.396,45.224l3.069-3.069L59.561,59.224L17.577,15z"/>
	<path clip-path="url(#SVGID_2_)" fill-rule="evenodd" clip-rule="evenodd" fill="#F5F6F7" d="M102.929,14.955L106,18.026
		L61.452,59.745L19.026,105l-3.071-3.071L60.917,59.21L102.929,14.955z"/>
</g>
<path opacity="0.1" fill-rule="evenodd" clip-rule="evenodd" d="M60,81c-11.046,0-20-8.954-20-20c0-11.047,8.954-20,20-20
	s20,8.953,20,20C80,72.046,71.046,81,60,81z M60.064,52.129c-4.935,0-8.936,4.001-8.936,8.936c0,4.934,4,8.936,8.936,8.936
	C64.998,70,69,65.998,69,61.064C69,56.13,64.998,52.129,60.064,52.129z"/>
<path fill-rule="evenodd" clip-rule="evenodd" fill="#F5F6F7" d="M60,80c-10.493,0-19-8.507-19-19c0-10.494,8.507-19,19-19
	s19,8.506,19,19C79,71.493,70.493,80,60,80z M60,54c-3.866,0-7,3.134-7,7c0,3.866,3.134,7,7,7s7-3.134,7-7
	C67,57.135,63.867,54,60,54z"/>
<path opacity="0.08" fill-rule="evenodd" clip-rule="evenodd" d="M60,0v53.995c3.868,0,7.005,3.136,7.005,7.005
	c0,3.868-3.137,7.004-7.005,7.004V120c33.137,0,60-26.863,60-60C120,26.863,93.137,0,60,0z"/>
</svg>
