<?xml version="1.0" encoding="utf-8"?>
<!-- Generator: Adobe Illustrator 18.0.0, SVG Export Plug-In . SVG Version: 6.00 Build 0)  -->
<!DOCTYPE svg PUBLIC "-//W3C//DTD SVG 1.1//EN" "http://www.w3.org/Graphics/SVG/1.1/DTD/svg11.dtd">
<svg version="1.1" id="Warstwa_1" xmlns="http://www.w3.org/2000/svg" xmlns:xlink="http://www.w3.org/1999/xlink" x="0px" y="0px"
	 viewBox="0 0 52 68" enable-background="new 0 0 52 68" xml:space="preserve">
<path fill-rule="evenodd" clip-rule="evenodd" fill="#DBE2E5" d="M52,12v56H0V0h40L52,12z"/>
<path fill-rule="evenodd" clip-rule="evenodd" fill="#D0D6D9" d="M52,68H26V0l14,0l12,12V68z"/>
<path fill-rule="evenodd" clip-rule="evenodd" fill="#C4C9CC" d="M52,12H40V0L52,12z"/>
<path fill-rule="evenodd" clip-rule="evenodd" fill="#FFFFFF" d="M33,62v-2h12v2H33z M8,46h37v2H8V46z M8,39h37v2H8V39z M8,33h37v2
	H8V33z M8,27h37v2H8V27z M8,21h37v2H8V21z M8,15h37v2H8V15z M8,9h12v2H8V9z"/>
</svg>
