<?xml version="1.0" encoding="utf-8"?>
<!-- Generator: Adobe Illustrator 18.0.0, SVG Export Plug-In . SVG Version: 6.00 Build 0)  -->
<!DOCTYPE svg PUBLIC "-//W3C//DTD SVG 1.1//EN" "http://www.w3.org/Graphics/SVG/1.1/DTD/svg11.dtd">
<svg version="1.1" id="Warstwa_1" xmlns="http://www.w3.org/2000/svg" xmlns:xlink="http://www.w3.org/1999/xlink" x="0px" y="0px"
	 viewBox="0 0 66 114" enable-background="new 0 0 66 114" xml:space="preserve">
<path fill-rule="evenodd" clip-rule="evenodd" fill="#2B3033" d="M63.5,0C64.9,0,66,1.2,66,2.7v108.6c0,1.5-1.1,2.7-2.5,2.7
	c-1.4,0-2.5-1.2-2.5-2.7V2.7C61,1.2,62.1,0,63.5,0z"/>
<path fill-rule="evenodd" clip-rule="evenodd" fill="#FFFFFF" d="M0,8h66v50H0V8z"/>
<path fill-rule="evenodd" clip-rule="evenodd" fill="#2B3033" d="M54,17V8h9v9H54z M36,17V8h9v9H36z M18,17V8h9v9H18z M0,17V8h9v9H0
	z M63,44v-9h3v9H63z M66,26h-3v-9h3V26z M63,35h-9v-9h9V35z M63,44v9h-9v-9H63z M45,58v-5h9v5H45z M45,35h-9v-9h9V35z M45,44v9h-9
	v-9H45z M45,17h9v9h-9V17z M54,44h-9v-9h9V44z M27,58v-5h9v5H27z M27,35h-9v-9h9V35z M27,44v9h-9v-9H27z M27,17h9v9h-9V17z M36,44
	h-9v-9h9V44z M9,58v-5h9v5H9z M9,26v9H0v-9H9z M9,44v9H0v-9H9z M9,17h9v9H9V17z M18,44H9v-9h9V44z M63,53h3v5h-3V53z"/>
</svg>
