<?xml version="1.0" encoding="utf-8"?>
<!-- Generator: Adobe Illustrator 18.0.0, SVG Export Plug-In . SVG Version: 6.00 Build 0)  -->
<!DOCTYPE svg PUBLIC "-//W3C//DTD SVG 1.1//EN" "http://www.w3.org/Graphics/SVG/1.1/DTD/svg11.dtd">
<svg version="1.1" id="Warstwa_1" xmlns="http://www.w3.org/2000/svg" xmlns:xlink="http://www.w3.org/1999/xlink" x="0px" y="0px"
	 viewBox="0 0 120 100" enable-background="new 0 0 120 100" xml:space="preserve">
<path fill-rule="evenodd" clip-rule="evenodd" fill="#2D7FB2" d="M3.5,0h113c1.9,0,3.5,1.6,3.5,3.5v93c0,1.9-1.6,3.5-3.5,3.5H3.5
	C1.6,100,0,98.4,0,96.5v-93C0,1.6,1.6,0,3.5,0z"/>
<path fill-rule="evenodd" clip-rule="evenodd" fill="#3594E8" d="M116.5,100H3.5C1.6,100,0,98.4,0,96.5V20v-5.2V6.1
	c0-1.9,1.6-3.5,3.5-3.5h33c1.9,0,3.5,1.6,3.5,3.5v5.2h76.5c1.9,0,3.5,1.6,3.5,3.5v81.7C120,98.4,118.4,100,116.5,100z"/>
<path fill="#FFFFFF" d="M38.7,54.1h-7.6l9.9,9.9l0.1,0.4l10.3-10.2h-7.6c0-4.9,1.7-9.1,5.2-12.5c3.4-3.4,7.6-5.2,12.5-5.2
	c4.9,0,9.1,1.7,12.5,5.2c3.4,3.4,5.2,7.6,5.2,12.5c0,4.9-1.7,9.1-5.2,12.5c-3.4,3.4-7.6,5.2-12.5,5.2c-4.9,0-9.1-1.7-12.5-5.2
	l-3.7,3.7c4.5,4.4,9.9,6.7,16.2,6.7c6.3,0,11.7-2.2,16.2-6.7c4.4-4.4,6.7-9.8,6.7-16.2c0-6.3-2.2-11.7-6.7-16.2
	c-4.4-4.4-9.8-6.7-16.2-6.7c-6.3,0-11.7,2.2-16.2,6.7C40.9,42.4,38.7,47.8,38.7,54.1L38.7,54.1z M59,56.6l10.8,6.5l1.8-3.1l-8.8-5.3
	V44H59V56.6z"/>
<path opacity="5.000000e-002" fill-rule="evenodd" clip-rule="evenodd" d="M116.5,0H59.8v100h56.7c1.9,0,3.5-1.6,3.5-3.5v-93
	C120,1.6,118.4,0,116.5,0z"/>
</svg>
