<?xml version="1.0" encoding="utf-8"?>
<!-- Generator: Adobe Illustrator 18.0.0, SVG Export Plug-In . SVG Version: 6.00 Build 0)  -->
<!DOCTYPE svg PUBLIC "-//W3C//DTD SVG 1.1//EN" "http://www.w3.org/Graphics/SVG/1.1/DTD/svg11.dtd">
<svg version="1.1" id="Warstwa_1" xmlns="http://www.w3.org/2000/svg" xmlns:xlink="http://www.w3.org/1999/xlink" x="0px" y="0px"
	 viewBox="57.5 0 82.5 80" enable-background="new 57.5 0 82.5 80" xml:space="preserve">
<path fill="#3594E8" d="M100.1,12.4c15.2,0,27.5,12.3,27.5,27.5s-12.3,27.5-27.5,27.5S72.6,55.1,72.6,39.9
	C72.6,24.7,84.9,12.4,100.1,12.4z"/>
<path fill="#1E88E5" d="M100.9,12.4v55.1c14.9-0.4,26.8-12.6,26.8-27.5C127.7,25,115.8,12.8,100.9,12.4z"/>
<path fill="#7BB9EF" d="M119.1,20.1c0.2,0.8-0.6,1.7-1.4,1.5c0.2-0.7-0.6-1.3-0.8-2c-0.3,0.2-1.4,0.6-1.5,0.7
	c-0.1-0.1-0.7-0.6-0.2-0.4c0-0.1,0-0.2,0-0.3c-0.2,0.1,0,0.1-0.2,0c0-0.1-0.2,0.2,0.2-0.1c-0.2,0.1-0.3-0.1-0.4-0.2
	c0.2-0.1,0.5-0.6,0.9-1.1c-0.7-0.1,0.6-0.3,0.6-0.3C117.1,18.3,118.3,19.2,119.1,20.1C119.2,20.1,119.1,20.1,119.1,20.1
	C119.1,20.1,119.1,20.1,119.1,20.1z M110.6,21.6C110.4,21.8,110.6,21.3,110.6,21.6C110.6,21.6,110.6,21.6,110.6,21.6z M113.3,23.1
	c-0.1,0.2-0.3,0.3-0.6,0.3c0,0.1,0.3,0,0.4,0c0,0.3-2.6,0.7-2.8,0.6c0.3-0.5,1-0.3,1.2-0.7c-0.3,0.1-0.7,0.1-1-0.1
	c0.7-0.6,0.3-0.2,0.3-0.5c0.1-0.1,0.7-1,0.6-0.9c-0.3-0.1-0.5,0.1-0.8,0c0.1-0.2,0.2-0.4,0.2-0.6c-0.1,0-0.2,0.1-0.3,0.2
	c0.1-0.8,0.2-0.2-0.1-0.3c0.3-0.5,0.2-1.3,1.2-1c0.1,0.2-0.4,0.2-0.5,0.4c0.1,0.1,0.7-0.1,0.8,0c0.2,0.4-0.7,0.4-0.3,0.6
	C111.1,21.5,113.3,22.5,113.3,23.1C113.3,23.2,113.3,23,113.3,23.1z M105.3,13.3c0.1,0,0.2,0,0.3,0c-0.1,0-0.3,0.1-0.4,0.1
	C105.2,13.4,105.2,13.4,105.3,13.3C105.3,13.3,105.2,13.4,105.3,13.3z M106.1,13.3c-0.1,0.1-0.6,0.2-0.7,0.1
	C105.4,13.4,106,13.3,106.1,13.3C106.1,13.3,105.9,13.3,106.1,13.3z M106.3,13.6c-0.2,0.1-0.8-0.1-0.9,0c0.1-0.1,1.2-0.1,0.6,0
	C106.1,13.5,106.3,13.5,106.3,13.6L106.3,13.6L106.3,13.6z M105.7,14.3c-0.1,0-0.5,0.2-0.7,0.2C104.8,14.3,106.3,14.2,105.7,14.3
	C105.7,14.3,105.7,14.3,105.7,14.3z M97,16.2c-0.1,0-0.1-0.1,0.1-0.1C97.2,16.1,97.1,16.2,97,16.2C97,16.2,97.1,16.2,97,16.2z
	 M96.7,15.3C96.8,15.3,96.9,15.3,96.7,15.3C96.7,15.4,96.7,15.3,96.7,15.3L96.7,15.3C96.8,15.3,96.7,15.3,96.7,15.3z M96.6,15.4
	C96.7,15.7,96.3,15.5,96.6,15.4C96.6,15.5,96.6,15.4,96.6,15.4z M96.1,14.5c0,0.1,0,0.2-0.1,0.1C96,14.6,96.1,14.6,96.1,14.5
	C96.2,14.6,96.1,14.5,96.1,14.5z M96.1,16.3c0,0-0.6-0.1-0.2-0.1c-0.1-0.1-0.1-0.1,0-0.1c0-0.5,0.8,0.1,0.8,0.1
	c-0.1,0-0.9,0.2-0.8,0.1S96.3,16.3,96.1,16.3C96.1,16.3,96.1,16.3,96.1,16.3z M83.1,18.5c0,0.4,0,0.5-0.7,0.3
	C82.7,18.4,82.9,18.3,83.1,18.5C83.1,18.7,83.1,18.5,83.1,18.5z M87.1,20.8c-0.1-0.1-1.8,0.3-2.1,0.3c0-0.2,0.7-1,0.8-1.2
	C86.1,20.2,86.6,20.7,87.1,20.8C87.1,20.8,87,20.8,87.1,20.8z M91.3,13.8c0,0-0.1,0-0.1,0C91.2,13.8,91.3,13.8,91.3,13.8L91.3,13.8
	C91.3,13.9,91.3,13.8,91.3,13.8z M90.6,14.1c-0.1,0-0.1,0.1-0.2,0.1C90.4,14.2,90.5,14.1,90.6,14.1L90.6,14.1
	C90.5,14.1,90.6,14.1,90.6,14.1z M90.5,14.3c0.2,0.3-0.9,0.4-1.1,0.4C89.2,14.3,90.2,14.2,90.5,14.3C90.5,14.4,90.4,14.3,90.5,14.3z
	 M88.3,15.4c-0.3,0.1-0.8,0.2-1.2,0.3c-0.1,0.1,2.2-1.4,2.5-0.5C89,15.6,88.7,15.5,88.3,15.4C88.2,15.4,88.3,15.4,88.3,15.4z
	 M89.3,18.5c0.6,0-0.2,0.8-0.5,0.5C88.5,18.9,89.2,18.5,89.3,18.5C89.4,18.5,89.2,18.5,89.3,18.5z M85.5,17.3
	c0.3-0.6,1.1-1.5,1.9-1.2c-0.8,0.6-0.5,0.7-0.8,1.3c0.6,0,0.5-0.1,0.3-0.5c0.1-0.1,0.3-0.2,0.5-0.1c0-0.1-0.2-0.1-0.3-0.1
	c0.1-0.3,0.3-0.2,0.6-0.2c0-0.1-0.1-0.1-0.2-0.1c1.1-0.8,1.2-0.1,0.9,0.6c0.5,0.1,1.8-0.8,2.2-0.1c0,0.1-0.2,0.2-0.4,0.2
	c0.2,0.2,1.7-0.3,0.9,0.2c0,0,1,0,1,0.1c-0.2,0-0.3,0.1-0.5,0.2c0.1,0.1,0.8-0.4,0.8,0.1c-0.2-0.1-0.3,0-0.4,0.1
	c0.2,0,0.3,0,0.5,0.2c0,0-0.9,0.2-0.8,0.2c0.1,0.6,1.3,0.1,1.4,0.6c-0.2,0-0.2,0-0.3,0.1c0.5-0.2,0.7-0.2,0.5,0.1
	c0.2-0.1,0.5-0.1,0.6,0.1c-0.2,0.3-0.3,0.1-0.6,0.2c0.2,0.6-0.4-0.1-0.4,0.7c-0.3,0-1.4-0.5-1.5-0.5c0,0.5,0.5,0.7,0.9,0.9
	c-0.3,0,0.2,0.3,0.1,0.6c-0.1-0.1-0.2-0.2-0.2-0.3c0,0.1,0,0.7,0,0.7c-0.6-0.2-0.7-0.6-1.3-0.6c0,0.3,0.7,0.5,0.8,0.9
	c-1-0.3-1.4-0.7-1.8-0.9c-0.3,0-1.5-0.1-1.9-0.2c0,0,4.4-2.4,1.2-2.1c0-0.3,0.3,0,0.4-0.3c-0.3-0.2-0.9-0.8-1.4-0.6
	c0,0,0.5,0.2,0.5,0.3c0,0.5-3.2,0-3.1-0.2c0.1,0,0.5,0,0.6-0.1C86.1,17.2,85.8,17.3,85.5,17.3C85.5,17.1,85.8,17.3,85.5,17.3z
	 M86.4,41.3c0,0.1-0.6,0-0.7-0.1C85.8,41,86.1,41,86.4,41.3C86.3,41.4,86.3,41.2,86.4,41.3z M86.7,33.6
	C86.7,33.7,86.7,33.7,86.7,33.6L86.7,33.6z M86.7,33.6C86.7,33.6,86.7,33.6,86.7,33.6L86.7,33.6z M86.7,33.9c-0.1,0-0.1-0.1-0.1-0.2
	C86.7,33.7,86.7,33.8,86.7,33.9C86.7,33.9,86.7,33.8,86.7,33.9z M87.1,40.5c-0.1,0.1-1,0.1-1.2,0.1c0-0.9-0.8-0.4-1.5-1
	c0.7-0.2-0.9,0.2-0.8,0.2C84.4,38.7,86.2,39.8,87.1,40.5C87.1,40.5,86.9,40.3,87.1,40.5z M87.3,40.7c0-0.4,1.7,0.3,1.8,0.5
	c-0.1,0.2-1.9,0.3-2.1,0c0.1-0.3,0.5,0.1,0.7,0C87.5,40.8,87.6,40.8,87.3,40.7C87.3,40.6,87.4,40.7,87.3,40.7z M89.7,41.4
	c-0.6,0-0.1-0.5,0.2-0.1C90,41.4,89.9,41.4,89.7,41.4C89.6,41.4,89.9,41.4,89.7,41.4z M90.1,45.9c0,0.3,0,0.3-0.3,0.3
	C89.8,46,89.9,45.9,90.1,45.9L90.1,45.9z M92.6,29.1c-0.2,0.2-0.4,0.3-0.6,0c0.1-0.2,0.2-0.4,0.3-0.5c0.4,0.3-0.2,0.3-0.2,0.6
	C92.3,29.3,92.5,28.8,92.6,29.1C92.6,29.3,92.5,28.8,92.6,29.1z M95.1,50.6c-0.6,0.3-0.8,0.2-0.7-0.4C94.6,50.2,95.4,50.1,95.1,50.6
	C95,50.7,95.1,50.5,95.1,50.6z M95.3,28.3c0,1.1-0.7-0.1-0.5-0.1c-0.1,0.3-0.3,0.5-0.6,0.4c0-0.2,0.1-0.3,0.4-0.3c0,0-1.4,0-1.6,0.1
	c-0.1-0.2,0.1-0.4,0.4-0.5c-0.2,0,0.5-1.6,1.1-1.4c0,0.1-0.6,0.7-0.6,0.9c0.2,0,0.7-0.1,1.1,0.2c-0.4,0.4-0.2,0.2,0.1,0.3
	C95.2,27.9,94.7,28.4,95.3,28.3C95.3,28.5,95.1,28.3,95.3,28.3z M98.2,20.7C98.6,20,98.3,21.1,98.2,20.7
	C98.3,20.6,98.2,20.7,98.2,20.7z M108.1,17c0.2,0.3-2.7,1.5-3.3,0.8c0.9-0.7-0.1,0-0.3-0.3c0.1-0.2,0.8,0,0.7-0.3
	c-0.1,0-0.8,0.1-0.8-0.1c0,0,0.6-0.5,1.1,0.1C106,16.8,107.4,16.3,108.1,17C108.2,17.1,108.1,17,108.1,17z M125.9,31.2
	c0-0.2-0.5-0.1,0.2-0.3C126.3,31.1,126.2,31.2,125.9,31.2C125.9,31.2,126.1,31.2,125.9,31.2z M127.1,34.3c-0.3-0.4-0.6-1.4-0.4-2
	c0.2,0.7,0.4,1.4,0.5,2.2C127.1,34.4,127.1,34.4,127.1,34.3C127,34.3,127.1,34.4,127.1,34.3z M125.7,30.5c-0.7-0.2-2.1-0.9-2.5-1
	c0-0.2,0.6-0.7-0.1-0.6c0-0.9,1-0.1,1.2-0.4c0,0-0.1,0-0.1,0c0.1-0.2,0.2-0.2,0.4-0.1c0-0.1-0.5,0.1-0.3-0.2
	C125.6,28.3,125.9,30.6,125.7,30.5C125.6,30.5,125.8,30.6,125.7,30.5z M123.2,30.9c0,0.3-1.4,0.2-1-0.2
	C122.1,30.9,123,31,123.2,30.9C123.1,30.9,123.1,30.9,123.2,30.9z M118.6,30.1c-0.3,0.1-1,0-1.1-0.3c0.1-0.3,1-0.2,1.2-0.2
	C118.7,28.7,118.6,30.3,118.6,30.1C118.6,30.2,118.7,30.1,118.6,30.1z M116.2,27.5c0.1-0.4,0.3,0.3,0,0.6
	C115.7,28,116.1,27.7,116.2,27.5C116.2,27.4,116.2,27.5,116.2,27.5z M115.8,28.4c0.9-0.8,0.4,0.7,0.2,0.8
	C115.9,29.2,115.8,28.5,115.8,28.4C115.8,28.4,115.8,28.5,115.8,28.4z M110.3,22.9c-0.3,0.9-1.7,0.3-1.7,0.3c0-0.1,0.5-0.1,0.6-0.3
	c-0.1,0-0.1,0-0.2,0c0.4-0.3,0.3-0.1-0.2-0.3c0.2-0.2,0.6-0.3,0.8-0.6c-0.1,0-0.2,0-0.2,0c0.2-0.2,0.8-0.4,1.1-0.2
	C110.5,22,110.4,22.7,110.3,22.9C110.3,22.9,110.4,22.7,110.3,22.9z M116.7,20.8c-0.2,0-0.7,0.2-0.8,0.1
	C116,20.7,117,20.1,116.7,20.8C116.5,20.8,116.7,20.8,116.7,20.8z M117.6,21.6c-0.1,0.2-0.6,0-0.5-0.2
	C117.4,21,117.5,21.6,117.6,21.6C117.5,21.6,117.5,21.6,117.6,21.6z M124,27c-0.1,1-0.5,0.2,0.3,1.2c0,0-1.1,0.5-1.2,0.5
	c0.1-0.5-0.5-0.4-1-0.3c0,0.1,0.3,0.1,0.3,0.3c-0.1,0-0.1-0.1-0.2-0.1c-0.1,0.1-0.1,0.1,0,0.2c-0.2,0-0.3-0.2-0.3-0.3
	c-0.4-0.1,0.3,0.8,0.2,0.7c-0.1,0.1,0,0-0.1,0c-0.1,0-0.2,0.2-0.2,0.2c0.2,0.1,0.4,0.2,0.6,0.3c0,0-0.2,0-0.4,0.1
	c0.1,0.1,0.1,0.1,0.2,0.2c-0.3,0,0,0-0.3-0.1c0,0.1,0,0.3,0.1,0.5c-1.1-0.6,0-0.4,0-0.7c-0.5,0-1.3-0.4-1.5-1
	c0.3,0.1-1.4-1.8-1.6-1.8c-0.6-0.2-0.1-0.5-0.7-0.2c-0.1-0.4,0-0.3-0.1-0.5c-0.2,0-0.5,0-0.6,0.2c0,0,2.4,2.7,2.5,2.5
	c0,0-0.5-0.4-0.5-0.3c0,0-0.1,1.5-0.7,1.1c0-0.3,0.2-1.4-0.5-1.2c0,0.1-2-2.1-2.6-1.5c-0.3,0.1-3.2,1.1-2.9,1.5
	c-0.6,1-0.7,1.8-2.2,1.8c-0.8,0.6-0.9-0.6-1.8-0.1c0-0.4,0.1-0.8,0-0.9c-0.1,0.1-0.1-2.1,0.4-2.1c0.2-0.4,1.4,0,1.8,0
	c0.8,0,0.8-0.5,1-0.6c0-0.6,0-0.5,0.2-0.2c-0.2-1.1-1.1-0.7-1.5-1.4c0.3,0,0.1,0,0.1-0.1c-0.6,0,1.2-0.2,1.1-0.1
	c0-0.2,0-0.3-0.2-0.5c0.2,0,0.6,0.4,0.9,0.1c-0.4-0.1,1.3-0.8,1.4-0.9c0-0.1,0.3-0.6,0.5-0.7c0.1,0.1-0.1,0.5,0.2,0.3
	c0.2-0.3-0.1-0.1,0-0.4c1.7-0.5,0.1,0,0.7,0c0.1-0.2,0.5-0.1,0.4-0.2c0.1,0,0.2-0.1,0.3-0.1c0,0-0.2-0.2-0.2-0.2c0.1,0-0.2-1,0.9-1
	c-0.6-0.5,0.2,1.5,0.1,1.2c1.2,0,1.3-0.3,2.6-0.4C121.4,21.8,124.3,25,124,27C124,27.1,124,26.8,124,27z M123.2,28
	C123,27.9,123.4,28.1,123.2,28C123.2,28,123.3,28,123.2,28z M112.7,43.6c-1.4,0.1-5,1.2-5.8-1.1c0.3,0-1.2-1.5-1.3-1.5
	c-0.2-0.6-0.5-3.4-0.3-3.7c-0.2-1.7,2.2-2.8,3-3.9c1-1.5,0.9-2.2,2.6-2.5c1.4-0.3,5.1-0.3,6-0.9c0,0.6,0,0.8-0.4,1.3
	c0.1,0.6,1.5,0.6,2.1,0.8c0.5,0.2,1,0.9,1.7,1c0.7,0.1,0.2-1.7,1.5-1.1c1.3,0.6,5.7,0.3,4.8,2.2c-0.4,0-0.6-0.3-0.7-0.9
	c-0.3,0.1,1.4,2.9,1.7,3.4c0.6,4.8-0.1,9.7-2.1,14.2c-0.4,0.9-4.8,8.4-5.3,7.8c-0.6,0-0.1-0.5-0.4-0.9c-0.6-1.1-3.8-6.3-1.8-6.9
	c1.3-0.8-2.5-5.1-1.4-5c0-0.5,0-1.2-0.3-1.6C115.9,43.9,113.4,43.1,112.7,43.6C112.6,43.6,112.8,43.5,112.7,43.6z M115.8,44.6
	C116.3,44.4,115.8,44.7,115.8,44.6C115.9,44.5,115.8,44.6,115.8,44.6z M90.6,63.4c-0.2,0.1-0.3-0.3-0.3-0.4
	C90.5,63,90.5,63.2,90.6,63.4C90.6,63.4,90.6,63.3,90.6,63.4z M92.5,65.4C92.2,65.4,92.6,65.6,92.5,65.4
	C92.5,65.4,92.5,65.5,92.5,65.4z M94.5,65.7c0.3,0,0.6,0.1,0.8,0.1c-0.1-0.1-1.4,0.2-1.6,0c-0.1-0.2,0.2,0,0.4-0.1
	c-0.4-0.1-0.5,0-0.7-0.2C93.3,65.3,94.5,65.7,94.5,65.7C94.7,65.8,94.3,65.7,94.5,65.7z M82.5,19.4c0.3-0.5-0.3,0-0.2-0.3
	c0.9-0.2,0.2,0.4,0.7,0.6c0.2-0.7,0.3-0.4,0.8-0.8c0-0.2-0.1-0.2-0.3-0.1c0.2-0.5,0.4,0.1,0.6-0.3c-0.2,0-0.7,0-0.9-0.2
	c1.3-1,1.7-0.8,1,0c0.1,0,0.5,0,0.6,0.1c-0.3,0.3,0,0.1-0.2,0.6c0.2-0.1,0.5-0.8,0.8-0.3c0.3,0.6-0.7,0.1,0,0.8
	c0.6-0.2,1.5-2.3,2.2-1.1c0.5,0.2-0.6,0.3-0.5,0.3c-0.2,1-0.9,0.9-0.7,1.2c-0.3,0.1-0.7-0.3-0.9,0c0.6,0-1,0.3-1.3,0.4
	c0.3,0.1,0.7,0.3,1,0.3c-0.2,0.8-2,0.6-2.1,0.7c-0.1,0,0.9,0.5,0.7,0.3c0,0-0.7,0.5-0.5,0.3c-0.4,0.6-0.8,0.5-1.1,1.3
	c-0.5,1,0.6,0.4,0.3,1.5c0.2,0,2.8,0.5,3,0.7c-0.3,0.8-0.2,1.5,0.6,1.9c-0.1-0.3,0-0.4,0.2-0.2c0.1-0.5,0.2-1.1,0.1-1.4
	c0.3,0.6,1.1-2.7,1.1-2.6c0.2-0.2,0.2-0.9,0.2-1.1c-0.2-0.9,2.6,0.2,2.7,0.2c0.1,0.3-0.5,1-0.3,1.2c1-0.1,1.1,0.2,1.9-0.9
	c0.6,0.6,0.9,1.4,0.5,1.6c0.2,0.3,0.7,0.4,0.5,0.8c0.4,0,0.7,0.1,1.1,0.2c-0.2,0.3-0.9,0.2-1.1,0.7c0.2-0.1,0.9-0.6,1.1-0.3
	c-0.2,0.3,1.3,1-0.7,1.2c-1.5,1.5-3.4,0-4.7,2.3c0.2-0.2,2.2-2,2.5-1c-0.1,0.2-0.8,0.3-0.8,0.3c0.1,0,0.6,0.1,0.6,0.1
	c-0.9,0.8,1,0.9,1.2,1.1c-0.2,0.1-1.1,0.3-1.1,0.3c-0.3,0.1-0.6,0.4-0.8,0.5c-0.1-0.2,0-0.3,0.1-0.4c-0.3,0.2,0.1,0,0-0.1
	c0.3,0,0.2-0.3,0.6-0.3c-0.1,0.3,0.2-0.1,0.3,0c-0.9-0.1-0.5,0.2-0.3-0.2c-0.2,0,0.1,0.1-0.1-0.1c0.1,0.2-0.3,0.5-0.6,0.3
	c0.1,0.2-0.3,0.1-0.3,0.1c0.1,0.4-0.6,0.3-0.6,0.3c0.1,0-0.4,0.5-0.3,0.3c-0.3,0.3-0.4,0.6-0.4,1c0.1,0,0.2,0,0.2-0.1
	c0,0-0.1,0-0.1-0.1c0.2,0.1-1.4,0.7-1.3,0.5c-0.1,0.3-0.1,0.7-0.5,1c0,0-0.1-0.5-0.1-0.4c-0.1,0.1,0.2,1-0.3,1.2
	c0-0.1,0.1-0.4,0.1-0.5c-0.2,0.1-0.1-0.3-0.1-0.3c-0.1,0,0-0.1,0.1-0.1c-0.1,0-0.1,0,0-0.1c0,0-0.1,0.1-0.1,0.1v0c0,0.1,0,0,0,0
	c-0.1,0.3-0.1,0.4,0,0.6c-0.1,0-0.1-0.1-0.2-0.1c0,0.1-0.2,0-0.1-0.1c-0.2,0.1,0.5,0.7,0.1,0.3c0,0,0.3,0.5,0,0.2
	c0,0,0.2,0.1,0.2,0.3c0,0,0,0,0,0c-0.1,0.1,0.1,0.3-0.1,0.2c0.1,0.1,0,0.1-0.1,0c0.1,0.1-0.1,0-0.1,0c0,0.2,0.1,0.1,0.2,0.3
	c0-0.4,0,0.5-0.2,0.1c0,0-0.1,0-0.1-0.1c0,0,0.3,0.5,0,0.2c0.1,0.3,0.1,0.1-0.7,0.7C84,35.9,85.4,37,85,38.4c-0.1,0-2.3-3.9-3.2-2.1
	c0,0.1,0.3,0.2,0.4,0.4c-0.2,0-0.9-0.2-0.9-0.2c-0.2,0-0.9,0.1-0.9-0.1c-0.2,0.2-0.6,0.5-0.8,0.8c0,0-0.2,2.4,0,2.7
	c0.5,1.1,1.7,0.9,1.8,0.9c0.4,0,0.3-1.9,1.5-0.9c0,0.2-0.2,0.9-0.3,1.1c-0.1,0-0.1-0.1-0.1-0.2c-0.1,0.1,0,0-0.1,0.2
	c0.4-0.1-0.2,0.9,0,1c0.3-0.2,2.2-0.1,1.6,0.8c-0.2,0.8,0.3,2.1,1.2,1.7c0.7-0.3,1,0.7,1,0.7c0,0.1,0.4-0.5,0.5,0
	c-0.1,0.2-0.5,0.8-0.1,1.1c0.3-0.1,0-0.7,0-0.7c0.2,0,0.4-0.1,0.6-0.2c-0.1-0.1-0.1,0-0.2-0.1c-0.2,0.8,2.5,0.5,2.9,0.6
	c0.1,0.1-0.3,0.1-0.2,0.1c0,0.3,0.5,0.3,0.8,0.5c0,0-0.3,0.3-0.3,0.3c0.6,0.1,1,0.1,1.2,0.8c0,0.4,5.2,0.9,2.6,3.1
	c0.2,0.1,1-0.1,1,0.3c0.8-0.4,1.4-0.7,1.8,0.3c2.9-2,4.7,3.8,2.6,3.4c0.2,1.6,0.4,3.2-1.4,3.3c0,0.1-1.1,0.7-1.3,0.7
	c0.2,0.7,0.2,1.4-0.3,1.8c0-0.4,0.3-0.3-0.1-0.5c0.6,1.6-1.9,1-2,1.1c1.4,1.8,0.3,0-0.7,1.1c0,0,0.3,0.5,0.3,0.5c0,0.2-0.8,0-0.9,0
	c-0.1,0.2,0.4,0.4,0.5,0.4c0,0,0,0-0.1,0c0.8-0.1-0.2,0.2-0.1,0.1c0.5,0.3-0.2,0,0.2,0.5c-0.9,0-0.1,0.4,0.3,0.5
	c0.1,0.1-0.4,0.7-0.4,0.7c0.1,0.2,0.3,0.3,0.6,0.4c-0.5,0.1-0.5-0.1-0.5,0.2c0.1,0-0.8-0.2-0.8-0.2c0.1,0,0.2,0,0.3,0
	c-0.5-0.1-0.9-0.2-1-0.5c-0.3,0-0.4-0.3-0.7-0.6c0.6,0-0.5-0.3-0.6-0.3c-0.2-0.2,0.6,0,0.5,0c0.1-0.2-0.1-1.3-0.6-1.3
	c-0.1,0.3-0.9-2.7-1-2.8c-0.8-1.5-0.3-3-1.4-4.5c-1.8-0.8-2.1-1.9-3.3-3.3c-0.9-1.2-0.3-0.6-0.5-1.9c0,0,0.5-3.1,0.2-3.9
	c0.5,0,1.8-2,0.8-1.7c-0.1,0.5-0.1,0,0,0.5c-0.3,0-0.4-0.1-0.4-0.1c-0.1,0-0.9-0.4-0.8-0.4c0.1,0,0.1,0.1,0.1,0.1
	c-0.2,0-0.5-0.6-0.7-0.7c0,0.2,0.2,0.1,0.1,0.3c-0.3-0.2-0.1-0.4-0.3-0.5c0.2,0-1-0.8-0.6-0.8c-0.6-1.5-5.3-0.8-5.5-3.1
	c0.3-0.4-2.4-4.2-2.4-4.2c-0.1,0.8,1.6,3.1,1.2,3.5c-1.3-0.8-1.4-3-2.1-4.3c-1.8,0.1,0.2-4.6,0.4-5C75.6,27,79,19.8,82.5,19.4
	C82.5,19.3,82.4,19.4,82.5,19.4z M86.7,33.6C86.7,33.6,86.7,33.6,86.7,33.6C86.7,33.6,86.7,33.6,86.7,33.6
	C86.7,33.6,86.7,33.6,86.7,33.6z M86.6,33.6C86.6,33.6,86.6,33.5,86.6,33.6C86.7,33.6,86.7,33.6,86.6,33.6
	C86.6,33.6,86.7,33.6,86.6,33.6z M106.1,13.1c-0.8,0-0.4,0.3-0.4,0c-0.1,0-0.5,0-0.5,0.1c-0.1,0-0.1,0-0.2,0c0,0,0.1,0,0.1,0
	c-0.2,0.1-0.4,0.1-0.6,0.2c0,0,0,0.2-0.1,0.1c0,0,0.6-0.1,0.7-0.1c-0.9,0.5,0.2-0.2,0.3,0.1c0,0.1-0.1,0.1-0.2,0.1
	c0.3-0.4,1.4,0.2,1.6,0.1c-0.1,0.3,0.6-0.1-0.2,0.1c-0.1,0.2-1.8-0.1-2.3,0c0,0,1,0.3,1.2,0.1c-0.1,0.2-0.6,0.2-0.8,0.3
	c0.4,0.1-0.2,0.1-0.1,0.3c0.1,0,0.8-0.1,0.9-0.2c0,0-0.6,0.3-0.6,0.2c0.7-0.1,1.4-0.4,2.1-0.6c0,0.1-0.3,0.2-0.2,0.2
	c-0.1,0.1-0.4,0.1-0.2,0.2c-0.1,0-0.1,0-0.2,0c0,0,0,0,0.1,0c-0.2,0.3-1.4,0.9-1.9,0.9c0,0,0.1,0,0.1,0.1c-0.4,0.3-0.6,0-0.7,0.1
	c0,0,0,0-0.1,0c0.1,0-0.3,0.6-0.4,0.7c0.3,0-0.8,0.6-0.7,0.4c0,0.1,0.3,0.2-0.2,0.2c0,0-0.5,0.3-0.4,0.3c-0.3,0,0-0.3,0.1-0.4
	c0.3-0.1-0.6,0.1-0.2,0.1c0.1-0.1-0.9,0.7-1,0.5c0,0,0.5,0,0.1,0.2c-0.2,0.1-0.3,0-0.5,0.1c0.2,0.1,0.4,0.2,0.4,0.3
	c-0.1,0.1-0.3,0.1-0.5,0.1c0,0,0.6,0.1,0.5,0.2c-0.1,0.1-0.3,0-0.5,0c0,0.1,0.4,0,0.4,0c0,0.2-0.6,0.6-0.8,0.7
	c0.2,0.2,0.3,0.1-0.1,0.1c0.4,0.3,0.2,0.4,0.3,0.4c0,0-0.4,0.5-0.5,0.3c0,0.1,0.5,0.1,0,0.2c0,0,0.1,0,0.1,0c-0.1,0-0.1,0-0.2,0
	c0,0.1,0.3,0,0.4,0c0,0.1-0.3,0.2-0.5,0.2c0,0.1,0.2,0.4-0.8,0.3c-0.1-0.1,0.2-0.2,0.1-0.2c0,0,0,0,0,0c0,0,0.1-0.1,0.1-0.1
	c-0.1,0-0.2,0.1-0.2,0.2c-0.1-0.2,0-0.1-0.3-0.1c0,0,0.6-0.6-0.1-0.2c0.2-0.5-0.6,0.2-1,0.2c0.5-0.1-0.2-0.2-0.3-0.3
	c0.5-0.1-0.2,0-0.3,0c0,0,0.3-0.2,0.2-0.3c-0.1,0-0.2,0.1-0.3,0.1c0.1-0.1,0.3-0.3-0.2-0.2c0.1,0,0.2-0.7,0-0.4c-0.1,0-0.1,0-0.2,0
	c-0.1-0.1-0.2-0.2,0.1-0.4c-0.3,0.1-0.3,0-0.5,0c0.3-0.5,0,0.3,0.1-0.1c0.2,0,0.5-0.1,0.6-0.2c-0.1-0.2-0.6,0.3-0.7,0.1
	c0.5-0.4,0.5-0.1,1-0.2c0-0.1-0.4-0.3-0.5-0.4c0,0-0.5,0.7-0.7,0.6c0.1,0.1,0-0.6,0.1-0.5c-0.1,0,0.2-0.3,0.2-0.3
	c-0.3-0.1-0.6,0.2-0.3-0.2c-0.8,0.2,1.2-0.6,1.3-0.7c-0.2,0-1.5,0.4-1.5,0.6c0.1-0.1,0.2-0.1,0.4-0.2c-0.1,0-0.2,0-0.2,0
	c0.9-0.2,0.1-0.1-0.1-0.2c0.3-0.1,0.7-0.1,1-0.1c-0.2-0.2-0.8,0.1-1,0c0.4-0.2,0.7-0.2,1.1-0.3c0-0.5-0.1,0.2-0.5,0l0,0
	c-0.1,0-0.6,0.2-0.7,0.2c-0.1-0.1,0.6-0.2,0.6-0.2c0-0.1-0.1-0.1-0.2-0.1c0.5-0.5,0.7,0.4,0.8-0.2c-0.1-0.1-0.6,0.1-0.8,0.1
	c0.1,0,0.9-0.4,1-0.3c-0.1,0-0.1,0-0.2,0.1c0.1-0.1,0.5-0.2,0.5-0.3c0,0-0.5,0-0.1-0.1c-0.1,0,0.1-0.2,0.2-0.3
	c-0.2,0-1.3,0.1-1.3-0.2c0.2-0.1,1.3,0.1,1.3,0c-0.2,0-0.2,0-0.2-0.1c0.1,0,0.1,0,0.2,0c0-0.1-0.3,0-0.3-0.1c0.1,0,0.5-0.2,0.3,0
	c-0.1-0.1-0.4,0-0.5,0c0.1,0,0.6-0.2,0.2-0.1c-0.6,0.2,0.1-0.1,0.1-0.1c-0.5,0.1-0.4,0.1-0.3-0.1c-0.3,0-0.7,0.6-1,0.3
	c-0.1-0.1,0.5-0.2,0.5-0.3c-0.1,0-0.1,0.2-0.3,0c0.4-0.4,0.4,0,0.1-0.2c0-0.1,0.3,0,0.4,0c0.1-0.2-0.1-0.1-0.3-0.2
	c0.2-0.2,0.3-0.5-0.1-0.4c0.7-0.6-0.5-0.9-1.3-0.7c-0.1,0,0.1-0.1,0.1-0.1c-0.2-0.1-1.1,0-0.3-0.1c-0.1,0-0.3-0.2-0.4-0.1
	c0.6-0.2,0.6,0.1,0.6-0.1c0.1,0,0.5,0,0.6-0.1l-0.7,0l0.1,0c0,0-0.1,0-0.1,0c0.1,0,0.1,0,0.2,0l0,0c1-0.2,10.7-0.9,10.5,0.1
	c0,0,0.2,0.2,0.2,0C105.9,12.9,106.6,13.1,106.1,13.1C106,13.1,106.1,13.1,106.1,13.1z M105.5,13C105.5,13,105.6,13,105.5,13
	C105.5,13,105.5,13,105.5,13z M105.7,12.9C105.7,12.9,105.7,12.9,105.7,12.9C105.7,12.9,105.7,12.9,105.7,12.9z"/>
<g>
	<path fill="#F7A226" d="M87.9,1.9L87.9,1.9L87.9,1.9z"/>
	<path fill="#F7A226" d="M87.9,3c3.8,0,8.7,3.4,13.6,9.5c0.5,0,0.9,0.1,1.4,0.1c-5.1-6.6-10.5-10.6-15-10.6V3L87.9,3z"/>
	<path fill="#F7A226" d="M119.8,59.2c0.5,6.4-0.3,11.7-2.2,14.9c-1.1,1.8-2.5,2.9-4.3,3.2c-0.3,0-0.6,0.1-1,0.1
		c-3.9,0-9-3.6-13.9-9.9C93.2,61,88.5,52,85.1,42.4c-5.3-15.2-6.3-29.7-2.4-36.2C83.8,4.4,85.3,3.3,87,3C87.3,3,87.6,3,88,3v-1l0,0
		c-0.4,0-0.8,0-1.1,0.1c-8.8,1.4-10,19.7-2.6,40.7c7.1,20.2,19.4,35.7,28.2,35.7c0.4,0,0.8,0,1.1-0.1c5.7-0.9,8.2-8.9,7.3-20.2
		C120.5,58.5,120.2,58.9,119.8,59.2z"/>
</g>
<g>
	<path fill="#F7A226" d="M107.7,13.5c0.5,0.1,0.9,0.3,1.3,0.4c4.4-2.6,8.5-4.1,11.6-4.1v-1l0,0C117.1,8.7,112.6,10.4,107.7,13.5z"/>
	<path fill="#F7A226" d="M126.5,11.2c-1.4-1.7-3.4-2.5-5.8-2.5v1l0,0c2.2,0,3.9,0.7,5,2.1c2.5,3,2.2,9.2-0.6,16.9
		c-3,8.1-8.5,17-15.4,25.1c-5.3,6.1-11,11.3-16.4,14.9c-5.2,3.4-10,5.3-13.5,5.3c-2.2,0-3.9-0.7-5-2.1c-2.5-3-2.2-9.2,0.6-16.9
		c0.2-0.6,0.5-1.3,0.7-1.9c-0.2-0.4-0.4-0.8-0.6-1.2c-3.9,9-4.7,16.7-1.6,20.6c1.4,1.7,3.4,2.5,5.8,2.5c7.7,0,19.7-7.8,30.7-20.6
		C125,37.6,132.2,18.2,126.5,11.2z"/>
</g>
<path fill="#F7A226" d="M127.3,35.4c0.1,0.4,0.1,0.8,0.2,1.3c5.1,2.6,8.8,5.7,10.5,8.7c1,1.9,1.3,3.7,0.6,5.3
	c-2,5.3-12.3,8.7-26.3,8.7c-5.8,0-11.8-0.6-17.9-1.7c-15.7-3-28.8-9.4-32.5-15.9c-1-1.9-1.3-3.7-0.6-5.3c1.3-3.5,6.3-6.2,13.5-7.6
	c0.2-0.4,0.3-0.8,0.6-1.1c-7.9,1.4-13.5,4.3-15.1,8.4c-3.2,8.3,12,18.5,33.8,22.6c6.3,1.2,12.5,1.7,18.1,1.7c14,0,25-3.4,27.2-9.4
	C141.6,45.9,136.6,40.1,127.3,35.4z"/>
<path fill-rule="evenodd" clip-rule="evenodd" fill="#3594E8" d="M61,35.1c1.9,0,3.5,1.6,3.5,3.5c0,1.9-1.6,3.5-3.5,3.5
	c-1.9,0-3.5-1.6-3.5-3.5C57.5,36.7,59.1,35.1,61,35.1z"/>
<path fill-rule="evenodd" clip-rule="evenodd" fill="#1E88E5" d="M61,35.1C61,35.1,61,35.1,61,35.1l0,7c0,0,0,0,0,0
	c1.9,0,3.5-1.6,3.5-3.5S62.9,35.1,61,35.1z"/>
<path fill-rule="evenodd" clip-rule="evenodd" fill="#3594E8" d="M127.6,19.4c1.9,0,3.5,1.6,3.5,3.5s-1.6,3.5-3.5,3.5
	s-3.5-1.6-3.5-3.5S125.6,19.4,127.6,19.4z"/>
<path fill-rule="evenodd" clip-rule="evenodd" fill="#1E88E5" d="M127.6,19.4C127.6,19.4,127.6,19.4,127.6,19.4l0,7c0,0,0,0,0,0
	c1.9,0,3.5-1.6,3.5-3.5S129.5,19.4,127.6,19.4z"/>
</svg>
