<?xml version="1.0" encoding="utf-8"?>
<!-- Generator: Adobe Illustrator 16.0.0, SVG Export Plug-In . SVG Version: 6.00 Build 0)  -->
<!DOCTYPE svg PUBLIC "-//W3C//DTD SVG 1.1//EN" "http://www.w3.org/Graphics/SVG/1.1/DTD/svg11.dtd">
<svg version="1.1" id="Layer_1" xmlns="http://www.w3.org/2000/svg" xmlns:xlink="http://www.w3.org/1999/xlink" x="0px" y="0px"
	 width="253.345px" height="95.018px" viewBox="0 0 253.345 95.018" enable-background="new 0 0 253.345 95.018"
	 xml:space="preserve">
<path fill="#D4882C" d="M143.894,59.001L130.67,29.922l48.924-22.691c7.954-3.685,17.355-0.16,20.998,7.865
	c3.643,8.032,0.167,17.522-7.786,21.207L143.894,59.001z"/>
<g>
	<g>
		<path fill="#E89531" d="M224.47,22.002c-3.649-8.026-13.044-11.549-20.991-7.865l-48.937,22.691l8.46,18.607
			c-7.734,8.122-18.034,4.185-19.835,3.455L66.927,28.78l-0.007,0.023c-1.8-0.592-3.809-0.552-5.684,0.283
			c-4.099,1.815-6.007,6.7-4.229,10.926c0.995,2.364,2.941,4.023,5.188,4.693l75.479,29.805
			c11.671,4.779,36.793,7.225,48.308-17.047l30.708-14.246C224.631,39.531,228.12,30.034,224.47,22.002z"/>
	</g>
</g>
<path fill-rule="evenodd" clip-rule="evenodd" fill="#DE8F2F" d="M216.69,43.216l-30.708,14.246
	c-11.515,24.271-36.637,21.825-48.308,17.047l-11.516-4.547V52.173l17.009,6.718c1.801,0.729,12.101,4.667,19.835-3.454
	l-8.46-18.608l48.937-22.691c7.947-3.685,17.342-0.161,20.991,7.865C228.12,30.034,224.631,39.531,216.69,43.216z"/>
<path fill="#FFB340" d="M252.051,29.142c-3.457-8.1-12.773-11.847-20.801-8.354l-50.854,22.104
	c0.432,5.335-0.377,10.442-1.906,14.345c-8.398,21.325-29.334,19.414-38.842,15.593L80.474,49.818l0.02-0.062
	c-1.677-0.557-3.134-1.726-3.888-3.5c-1.39-3.246,0.102-7.005,3.306-8.409c1.469-0.643,3.027-0.612,4.432-0.142l0.021-0.068
	l0.334,0.136c0.037,0.012,0.077,0.037,0.114,0.049l59.124,22.988c1.713,0.687,17.027,6.356,22.791-8.31
	c0.396-0.989,0.736-2.437,0.959-4.081l0.012-0.013c1.381-8.637-6.412-14.109-11.059-15.971L81.102,2.505
	C56.971-7.888,0,17.413,0,17.413l21.339,52.883L44.9,60.056l83.006,33.37c4.564,1.837,9.35,1.947,13.746,0.761
	c0.088-0.02,0.154-0.025,0.248-0.043c0.074-0.025,0.143-0.057,0.229-0.081c0.922-0.21,1.844-0.482,2.752-0.884l98.887-43.021
	C251.803,46.665,255.508,37.266,252.051,29.142z"/>
<path fill-rule="evenodd" clip-rule="evenodd" fill="#F5AB3D" d="M243.63,50.212l-98.836,43.021
	c-0.909,0.401-1.83,0.674-2.751,0.884c-0.087,0.024-0.154,0.056-0.229,0.08c-0.093,0.019-0.161,0.025-0.247,0.043
	c-4.396,1.188-9.178,1.077-13.739-0.76l-1.734-0.697v-25.14l13.471,5.241c9.501,3.821,30.427,5.732,38.822-15.594
	c1.526-3.9,2.336-9.008,1.903-14.344l50.828-22.104c8.024-3.493,17.334,0.253,20.789,8.354
	C255.364,37.321,251.661,46.719,243.63,50.212z M167.599,48.463l-0.013,0.012c-0.222,1.645-0.562,3.092-0.957,4.081
	c-5.762,14.666-21.068,8.996-22.781,8.31l-17.754-6.906v-33.54l30.452,12.072C161.189,34.354,168.978,39.825,167.599,48.463z"/>
<path fill-rule="evenodd" clip-rule="evenodd" fill="#FFD18C" d="M152.185,33.875c6.751,2.542,13.104,5.721,13.104,12.776
	c0,7.057-5.866,12.777-13.104,12.777c-4.847,0-16.588-5.358-16.588-5.358s4.563-5.408,6.629-10.996
	c2.184-5.904,3.145-12.266,3.145-12.266S149.922,33.024,152.185,33.875z"/>
</svg>
