<?xml version="1.0" encoding="utf-8"?>
<!-- Generator: Adobe Illustrator 19.0.0, SVG Export Plug-In . SVG Version: 6.00 Build 0)  -->
<svg version="1.1" id="Warstwa_1" xmlns="http://www.w3.org/2000/svg" xmlns:xlink="http://www.w3.org/1999/xlink" x="0px" y="0px"
	 viewBox="0 0 299 54" style="enable-background:new 0 0 299 54;" xml:space="preserve">
<style type="text/css">
	.st0{opacity:0.2;fill-rule:evenodd;clip-rule:evenodd;fill:#C6E2F6;}
</style>
<path class="st0" d="M297.4,3H264V0h33.4c0.9,0,1.7,0.7,1.7,1.5C299,2.3,298.3,3,297.4,3z M254,3H108.7c-0.9,0-1.7-0.7-1.7-1.5
	c0-0.8,0.7-1.5,1.7-1.5H254V3z M191,18.5c0,0.8-0.7,1.5-1.6,1.5H31.9v-3h157.4C190.3,17,191,17.7,191,18.5z M49.9,37H29.6
	c-0.9,0-1.6-0.7-1.6-1.5c0-0.8,0.7-1.5,1.6-1.5h20.3V37z M0,18.5C0,17.7,0.7,17,1.6,17h20.3v3H1.6C0.7,20,0,19.3,0,18.5z M174,35.5
	c0,0.8-0.7,1.5-1.6,1.5H59.9v-3h112.5C173.3,34,174,34.7,174,35.5z M102.6,51h93.7c0.9,0,1.6,0.7,1.6,1.5c0,0.8-0.7,1.5-1.6,1.5
	h-93.7c-0.9,0-1.6-0.7-1.6-1.5C101,51.7,101.7,51,102.6,51z"/>
</svg>
