<?xml version="1.0" encoding="utf-8"?>
<!-- Generator: Adobe Illustrator 18.0.0, SVG Export Plug-In . SVG Version: 6.00 Build 0)  -->
<!DOCTYPE svg PUBLIC "-//W3C//DTD SVG 1.1//EN" "http://www.w3.org/Graphics/SVG/1.1/DTD/svg11.dtd">
<svg version="1.1" id="Warstwa_1" xmlns="http://www.w3.org/2000/svg" xmlns:xlink="http://www.w3.org/1999/xlink" x="0px" y="0px"
	 viewBox="0 0 46 56" enable-background="new 0 0 46 56" xml:space="preserve">
<path fill-rule="evenodd" clip-rule="evenodd" fill="#FEB23F" d="M46,53c0,1.7-1.3,3-3,3H3c-1.7,0-3-1.3-3-3V23c0-1.7,1.3-3,3-3h40
	c1.7,0,3,1.3,3,3V53z"/>
<path fill-rule="evenodd" clip-rule="evenodd" fill="#DFE5EB" d="M34,20c0,0,0-0.9,0-4c0-6.1-4.9-11-11-11S12,9.9,12,16c0,3,0,4,0,4
	H7c0,0,0-1,0-4C7,7.2,14.2,0,23,0s16,7.2,16,16c0,4,0,4,0,4H34z"/>
<path fill-rule="evenodd" clip-rule="evenodd" fill="#6E4616" d="M25,38.4V43c0,1.1-0.9,2-2,2c-1.1,0-2-0.9-2-2v-4.6
	c-1.2-0.7-2-2-2-3.4c0-2.2,1.8-4,4-4s4,1.8,4,4C27,36.5,26.2,37.8,25,38.4z"/>
</svg>
