<?xml version="1.0" encoding="utf-8"?>
<!-- Generator: Adobe Illustrator 18.0.0, SVG Export Plug-In . SVG Version: 6.00 Build 0)  -->
<!DOCTYPE svg PUBLIC "-//W3C//DTD SVG 1.1//EN" "http://www.w3.org/Graphics/SVG/1.1/DTD/svg11.dtd">
<svg version="1.1" id="Warstwa_1" xmlns="http://www.w3.org/2000/svg" xmlns:xlink="http://www.w3.org/1999/xlink" x="0px" y="0px"
	 viewBox="0 0 420 195.7" enable-background="new 0 0 420 195.7" xml:space="preserve">
<path fill="none" stroke="#1E88E4" stroke-width="3" stroke-miterlimit="10" stroke-dasharray="6" d="M36.5,93.8"/>
<path fill="#1e88e4" d="M35.4,94.8c-0.5-0.5-0.4-1-0.3-1.6l1.8,0.2l0.7-0.7l-0.7,0.7l1.1,0.1c0,0.2,0,0.3,0,0.3l-1.5-0.1L35.4,94.8z
	 M39.1,87.9l-2.9-0.7c0.5-1.9,1.1-3.9,1.8-5.9l2.8,1C40.2,84.1,39.6,86,39.1,87.9z M43,76.8l-2.7-1.2c0.8-1.9,1.7-3.7,2.7-5.5
	l2.6,1.4C44.6,73.2,43.7,75,43,76.8z M48.5,66.4L46,64.8c1.1-1.7,2.3-3.4,3.5-5l2.4,1.8C50.7,63.2,49.6,64.8,48.5,66.4z M55.6,57.1
	l-2.2-2c1.3-1.5,2.8-3,4.2-4.4l2.1,2.2C58.3,54.2,56.9,55.6,55.6,57.1z M64.1,48.9l-1.9-2.3c1.5-1.3,3.2-2.6,4.8-3.8l1.8,2.4
	C67.1,46.4,65.6,47.6,64.1,48.9z M177.9,45.9c0,0-1.6-1.5-4.5-3.7l1.8-2.4c3.1,2.3,4.7,3.9,4.8,4L177.9,45.9z M73.6,41.9L72,39.4
	c1.7-1.1,3.5-2.1,5.2-3.1l1.4,2.6C76.9,39.9,75.2,40.9,73.6,41.9z M168.6,38.9c-1.6-1-3.4-2-5.1-2.9l1.4-2.7c1.8,1,3.6,2,5.3,3.1
	L168.6,38.9z M83.9,36.2l-1.3-2.7c1.8-0.9,3.7-1.7,5.6-2.4l1.1,2.8C87.5,34.6,85.7,35.4,83.9,36.2z M158.2,33.4
	c-1.8-0.8-3.6-1.5-5.5-2.2l1-2.8c1.9,0.7,3.8,1.4,5.7,2.3L158.2,33.4z M94.9,31.8l-1-2.8c1.9-0.7,3.9-1.3,5.8-1.8l0.8,2.9
	C98.7,30.5,96.8,31.1,94.9,31.8z M147.1,29.4c-1.9-0.5-3.8-1-5.7-1.4l0.6-2.9c2,0.4,4,0.9,5.9,1.4L147.1,29.4z M106.3,28.6l-0.6-2.9
	c2-0.4,4-0.8,6-1.1l0.5,3C110.1,27.8,108.2,28.1,106.3,28.6z M135.6,27.1c-1.9-0.2-3.9-0.4-5.9-0.5l0.2-3c2,0.1,4.1,0.3,6.1,0.5
	L135.6,27.1z M117.9,26.8l-0.3-3c2-0.2,4.1-0.3,6.1-0.3l0.1,3C121.9,26.5,119.9,26.6,117.9,26.8z"/>
<path fill="#1e88e4" d="M64,107.3l-3-0.2c0-0.3,0.4-2.7,1.2-6l2.9,0.7C64.3,105.3,64,107.3,64,107.3z M66.8,96.3l-2.8-1
	c0.6-1.9,1.4-3.8,2.1-5.7l2.8,1.1C68.1,92.5,67.4,94.4,66.8,96.3z M71.3,85.4L68.6,84c0.9-1.8,1.9-3.6,2.9-5.4l2.6,1.5
	C73.1,81.9,72.2,83.6,71.3,85.4z M77.3,75.3l-2.5-1.7c1.2-1.7,2.4-3.3,3.7-4.9l2.3,1.9C79.7,72.1,78.5,73.7,77.3,75.3z M84.9,66.2
	l-2.1-2.1c1.4-1.5,2.9-2.9,4.5-4.2l2,2.3C87.7,63.5,86.2,64.8,84.9,66.2z M93.8,58.6L92,56.2c1.6-1.2,3.4-2.3,5.1-3.3l1.5,2.6
	C97,56.4,95.3,57.5,93.8,58.6z M175.8,57.2c0,0-1.6-1.5-4.5-3.5l1.7-2.5c3.2,2.1,4.9,3.8,5,3.9L175.8,57.2z M103.8,52.6l-1.3-2.7
	c1.8-0.9,3.7-1.7,5.6-2.4l1.1,2.8C107.4,51,105.6,51.8,103.8,52.6z M166.2,50.8c-1.7-0.9-3.5-1.7-5.3-2.4l1.1-2.8
	c1.9,0.7,3.8,1.6,5.6,2.5L166.2,50.8z M114.8,48.4l-0.9-2.9c2-0.6,3.9-1.2,5.9-1.7l0.7,2.9C118.6,47.2,116.7,47.8,114.8,48.4z
	 M155.3,46.6c-1.9-0.5-3.8-0.9-5.7-1.3l0.5-3c2,0.3,4,0.8,6,1.3L155.3,46.6z M126.3,45.6l-0.5-3c2-0.4,4.1-0.6,6.1-0.8l0.3,3
	C130.2,45,128.2,45.2,126.3,45.6z M143.8,44.6c-1.9-0.1-3.9-0.2-5.9-0.2l0-3c2.1,0,4.1,0,6.1,0.2L143.8,44.6z"/>
<path fill="#1e88e4" d="M379.3,76c0,0-1.3-1.7-3.8-4.5l2.2-2c2.6,2.9,3.9,4.6,4,4.7L379.3,76z M371.4,67.2c-1.4-1.4-2.8-2.8-4.3-4.1
	l2.1-2.2c1.5,1.4,2.9,2.8,4.3,4.2L371.4,67.2z M362.7,59c-1.5-1.3-3-2.6-4.5-3.8l1.9-2.3c1.6,1.3,3.1,2.6,4.6,3.9L362.7,59z
	 M189.3,53.4l-2.3-1.9c0,0,0.6-0.8,1.9-2l2.2,2.1C189.9,52.7,189.3,53.4,189.3,53.4z M353.5,51.5c-1.6-1.2-3.2-2.4-4.8-3.5l1.7-2.5
	c1.6,1.2,3.3,2.4,4.9,3.6L353.5,51.5z M195.3,47.5l-2-2.2c1.5-1.3,3.1-2.6,4.7-3.9l1.9,2.4C198.3,44.9,196.7,46.2,195.3,47.5z
	 M343.8,44.7c-1.7-1.1-3.4-2.2-5-3.2l1.5-2.6c1.7,1,3.4,2.1,5.1,3.2L343.8,44.7z M204.6,40.1l-1.7-2.5c1.6-1.2,3.3-2.3,5.1-3.4
	l1.6,2.5C207.8,37.9,206.2,39,204.6,40.1z M333.6,38.5c-1.7-1-3.5-1.9-5.3-2.8l1.4-2.7c1.8,0.9,3.6,1.9,5.4,2.8L333.6,38.5z
	 M214.6,33.9l-1.5-2.6c1.8-1,3.6-1.9,5.4-2.8l1.3,2.7C218.1,32,216.3,32.9,214.6,33.9z M323,33.1c-1.8-0.8-3.6-1.6-5.4-2.4l1.1-2.8
	c1.9,0.8,3.7,1.6,5.6,2.4L323,33.1z M225.2,28.7l-1.2-2.8c1.9-0.8,3.8-1.5,5.7-2.2l1,2.8C228.9,27.2,227,27.9,225.2,28.7z M312,28.6
	c-1.9-0.7-3.7-1.3-5.6-1.9l0.9-2.9c1.9,0.6,3.8,1.3,5.7,2L312,28.6z M300.7,25c-1.9-0.5-3.8-1-5.8-1.5l0.7-2.9
	c1.9,0.4,3.9,1,5.9,1.5L300.7,25z M236.4,24.7l-0.9-2.9c1.9-0.6,3.9-1.1,5.9-1.6l0.7,2.9C240.2,23.6,238.3,24.1,236.4,24.7z
	 M289.1,22.3c-1.9-0.4-3.9-0.7-5.9-0.9l0.4-3c2,0.3,4,0.6,6,1L289.1,22.3z M247.9,22l-0.5-3c2-0.4,4-0.7,6-0.9l0.4,3
	C251.8,21.3,249.8,21.6,247.9,22z M277.4,20.7c-2-0.2-4-0.3-5.9-0.4l0.1-3c2,0.1,4,0.2,6.1,0.4L277.4,20.7z M259.6,20.5l-0.2-3
	c2-0.1,4-0.2,6.1-0.3l0,3C263.6,20.3,261.6,20.4,259.6,20.5z"/>
<path fill="#1e88e4" d="M417,195.7c0,0-0.3-2.1-1.3-5.7l2.9-0.8c1,3.8,1.4,5.9,1.4,6L417,195.7z M413.9,184.4
	c-0.6-1.8-1.3-3.7-2-5.6l2.8-1.1c0.7,1.9,1.4,3.8,2.1,5.7L413.9,184.4z M409.7,173.3c-0.8-1.8-1.6-3.6-2.5-5.4l2.7-1.3
	c0.9,1.8,1.7,3.7,2.5,5.5L409.7,173.3z M404.6,162.5c-0.9-1.7-1.9-3.5-2.8-5.2l2.6-1.5c1,1.8,2,3.6,2.9,5.3L404.6,162.5z
	 M398.8,152.1c-1-1.7-2.1-3.4-3.1-5.1l2.5-1.6c1.1,1.7,2.2,3.4,3.2,5.1L398.8,152.1z M392.3,142.1c-1.1-1.6-2.3-3.3-3.4-4.9l2.4-1.8
	c1.2,1.6,2.4,3.3,3.5,4.9L392.3,142.1z M385.3,132.5c-1.2-1.5-2.4-3.1-3.7-4.7l2.3-1.9c1.3,1.6,2.5,3.2,3.7,4.7L385.3,132.5z
	 M377.8,123.2c-1.3-1.5-2.6-3-3.9-4.5l2.2-2c1.4,1.5,2.7,3,4,4.5L377.8,123.2z M369.9,114.3c-1.3-1.4-2.7-2.9-4.1-4.3l2.1-2.1
	c1.4,1.4,2.8,2.9,4.2,4.3L369.9,114.3z M361.5,105.9c-1.4-1.4-2.9-2.7-4.3-4.1l2-2.2c1.5,1.4,3,2.8,4.4,4.1L361.5,105.9z
	 M352.7,97.8c-1.5-1.3-3-2.6-4.5-3.9l1.9-2.3c1.6,1.3,3.1,2.6,4.6,3.9L352.7,97.8z M343.6,90c-1.5-1.2-3.1-2.5-4.7-3.7l1.8-2.4
	c1.6,1.3,3.2,2.5,4.7,3.8L343.6,90z M334.2,82.7c-1.6-1.2-3.2-2.4-4.8-3.5l1.8-2.4c1.6,1.2,3.3,2.4,4.9,3.6L334.2,82.7z M324.5,75.7
	c-1.3-0.9-2.6-1.8-3.9-2.6l-1.1-0.7l1.7-2.5l1.1,0.7c1.3,0.9,2.6,1.8,3.9,2.7L324.5,75.7z M314.6,69.2c-1.7-1-3.4-2-5.1-3l1.5-2.6
	c1.8,1,3.5,2,5.2,3L314.6,69.2z M304.2,63.4c-1.8-0.9-3.6-1.8-5.4-2.6l1.2-2.7c1.8,0.8,3.7,1.7,5.5,2.6L304.2,63.4z M293.4,58.5
	c-1.8-0.7-3.7-1.5-5.5-2.1l1-2.8c1.9,0.7,3.8,1.4,5.7,2.2L293.4,58.5z M282.2,54.4c-1.9-0.6-3.8-1.2-5.7-1.7l0.8-2.9
	c1.9,0.5,3.9,1.1,5.8,1.7L282.2,54.4z M194.2,52.2l-0.8-2.9c1.9-0.5,3.9-1,5.9-1.4l0.6,2.9C198,51.3,196.1,51.7,194.2,52.2z
	 M270.8,51.3c-1.9-0.4-3.9-0.9-5.8-1.2l0.6-2.9c2,0.4,4,0.8,5.9,1.3L270.8,51.3z M205.8,49.7l-0.5-3c2-0.4,4-0.7,6-1l0.4,3
	C209.7,49,207.8,49.3,205.8,49.7z M259.1,49c-1.9-0.3-3.9-0.6-5.9-0.8l0.3-3c2,0.2,4,0.5,6,0.8L259.1,49z M217.6,48l-0.3-3
	c2-0.2,4-0.4,6-0.5l0.2,3C221.6,47.7,219.6,47.8,217.6,48z M247.3,47.6c-2-0.2-4-0.3-5.9-0.4l0.1-3c2,0.1,4.1,0.2,6,0.4L247.3,47.6z
	 M229.5,47.2l-0.1-3c1.8-0.1,3.5-0.1,5.3-0.1l0.7,0l0,3l-0.7,0C233,47.1,231.2,47.2,229.5,47.2z"/>
<path fill="#1e88e4" d="M4.6,70.5l-2.1-2.1l1.1,1.1L2,69.3c0-0.3,0.2-1.7,0.8-4.1l2.9,0.7C5.2,68.1,5,69.5,5,69.7L4.6,70.5z
	 M7.4,60.3l-2.8-1c0.7-1.9,1.4-3.8,2.3-5.7l2.7,1.2C8.8,56.6,8,58.5,7.4,60.3z M12.2,49.6l-2.6-1.4c1-1.8,2-3.5,3.1-5.2l2.5,1.6
	C14.1,46.2,13.1,47.8,12.2,49.6z M177.9,45.8c0,0-1.5-1.7-4.1-4.3l2.1-2.1c2.7,2.7,4.2,4.4,4.2,4.4L177.9,45.8z M18.6,39.7l-2.4-1.8
	c1.2-1.6,2.5-3.2,3.9-4.7l2.3,2C21,36.6,19.8,38.1,18.6,39.7z M169.5,37.4c-1.4-1.3-2.9-2.6-4.5-3.9l1.9-2.3c1.6,1.3,3.1,2.7,4.6,4
	L169.5,37.4z M26.4,30.8l-2.1-2.1c1.4-1.4,2.9-2.8,4.5-4.1l2,2.3C29.2,28.1,27.8,29.5,26.4,30.8z M160.4,29.7
	c-1.6-1.2-3.2-2.4-4.8-3.6l1.8-2.4c1.6,1.2,3.3,2.4,4.8,3.6L160.4,29.7z M35.3,23.1l-1.8-2.4c1.6-1.2,3.3-2.4,4.9-3.5l1.7,2.5
	C38.5,20.8,36.8,21.9,35.3,23.1z M150.8,22.8c-1.6-1.1-3.3-2.2-5-3.2l1.6-2.6c1.7,1,3.4,2.1,5.1,3.3L150.8,22.8z M140.6,16.6
	c-1.7-1-3.5-1.9-5.3-2.7l1.3-2.7c1.8,0.9,3.6,1.8,5.4,2.8L140.6,16.6z M45.1,16.5l-1.5-2.6c1.7-1,3.5-2,5.3-3l1.4,2.7
	C48.5,14.6,46.8,15.5,45.1,16.5z M129.9,11.4c-1.8-0.8-3.7-1.5-5.5-2.2l1-2.8c1.9,0.7,3.8,1.5,5.6,2.3L129.9,11.4z M55.6,11
	l-1.2-2.7c1.9-0.8,3.7-1.6,5.6-2.4L61,8.7C59.2,9.4,57.4,10.2,55.6,11z M118.8,7.3c-1.9-0.6-3.8-1.1-5.7-1.6l0.7-2.9
	c1.9,0.5,3.9,1,5.9,1.6L118.8,7.3z M66.6,6.8l-0.9-2.9c1.9-0.6,3.9-1.1,5.9-1.6l0.7,2.9C70.4,5.7,68.5,6.2,66.6,6.8z M107.4,4.4
	c-1.9-0.4-3.9-0.6-5.8-0.9l0.3-3c2,0.2,4,0.5,6,0.9L107.4,4.4z M78,4.1l-0.5-3c2-0.3,4-0.6,6.1-0.8l0.3,3C81.9,3.5,80,3.8,78,4.1z
	 M95.7,3.1C93.7,3,91.7,3,89.8,3l-0.1-3c2,0,4.1,0,6.1,0.1L95.7,3.1z"/>
<path fill="#1e88e4" d="M61,109.3c0,0-0.5-2.4-1.4-5.7l2.9-0.9c1,3.5,1.5,5.9,1.5,6L61,109.3z M57.7,98.1c-0.7-1.9-1.5-3.7-2.4-5.4
	l2.7-1.4c0.9,1.7,1.7,3.6,2.5,5.6L57.7,98.1z M11.1,92.6l-3-0.5c0.2-1.5,0.8-3.8,2.3-6.1l2.5,1.6C11.8,89.6,11.3,91.4,11.1,92.6z
	 M52.4,87.7c-1.2-1.7-2.4-3.1-3.7-4.3l2-2.2c1.5,1.3,2.8,2.9,4.2,4.8L52.4,87.7z M16.7,83.6l-1.8-2.4c1.6-1.2,3.5-2.2,5.7-3l1,2.8
	C19.7,81.7,18.1,82.6,16.7,83.6z M44.1,80.5c-1.1-0.5-2.3-0.8-3.5-0.9c-0.7-0.1-1.3-0.1-1.9-0.2l0.2-3c0.6,0.1,1.3,0.1,2,0.2
	c1.5,0.2,2.9,0.5,4.3,1.1L44.1,80.5z M27.1,79.7l-0.5-3c1.9-0.3,4-0.5,6.2-0.5l0,3C30.8,79.3,28.9,79.4,27.1,79.7z"/>
</svg>
