<?xml version="1.0" encoding="utf-8"?>
<!-- Generator: Adobe Illustrator 18.0.0, SVG Export Plug-In . SVG Version: 6.00 Build 0)  -->
<!DOCTYPE svg PUBLIC "-//W3C//DTD SVG 1.1//EN" "http://www.w3.org/Graphics/SVG/1.1/DTD/svg11.dtd">
<svg version="1.1" id="Warstwa_1" xmlns="http://www.w3.org/2000/svg" xmlns:xlink="http://www.w3.org/1999/xlink" x="0px" y="0px"
	 viewBox="0 0 146 69.9" enable-background="new 0 0 146 69.9" xml:space="preserve">
<path fill-rule="evenodd" clip-rule="evenodd" fill="#FFFFFF" d="M73,69.9c-3.6-0.1-5.8-0.3-5.8-0.3s0-0.1,0-0.1
	c-10-0.2-24.8-1.4-37-6.5C9.5,54.4-4.8,30.7,1.5,14.3C9.6-6.3,44.9-5.1,61.2,21c5.4,8.6,9.1,17,11.8,24.4V69.9z M48,25
	c-8.8-9.2-27.7-16.2-34-3.4c-4.6,9.3,7.9,22.5,20.3,27.8c11.3,4.9,25.8,4.4,25.8,4.4S58.2,35.6,48,25z"/>
<path fill-rule="evenodd" clip-rule="evenodd" fill="#E6EDF0" d="M115.8,63.4C101,69.7,82.3,70.1,73,69.9V45.3
	c0,0.1,0.1,0.2,0.1,0.3c2.6-7.4,6.4-15.8,11.8-24.5c16.3-26.3,51.6-27.5,59.6-6.7C150.8,30.8,136.6,54.7,115.8,63.4z M132,21.7
	c-6.3-12.9-25.2-5.8-34,3.4c-10.1,10.6-12,29-12,29s14.4,0.4,25.7-4.4C124.1,44.3,136.6,31.1,132,21.7z"/>
</svg>
