<?xml version="1.0" encoding="utf-8"?>
<!-- Generator: Adobe Illustrator 18.0.0, SVG Export Plug-In . SVG Version: 6.00 Build 0)  -->
<!DOCTYPE svg PUBLIC "-//W3C//DTD SVG 1.1//EN" "http://www.w3.org/Graphics/SVG/1.1/DTD/svg11.dtd">
<svg version="1.1" id="Layer_1" xmlns="http://www.w3.org/2000/svg" xmlns:xlink="http://www.w3.org/1999/xlink" x="0px" y="0px"
	 viewBox="51.4 0 97.2 80" enable-background="new 51.4 0 97.2 80" xml:space="preserve">
<path fill="#DBE2E5" d="M106.3,80H93.7c-0.6,0-1-0.4-1-1V58.5c0-0.6,0.4-1,1-1h12.6c0.6,0,1,0.4,1,1V79
	C107.3,79.6,106.8,80,106.3,80z M102,61.8c0-1.1-0.9-2-2-2s-2,0.9-2,2v6.6c0,1.1,0.9,2,2,2s2-0.9,2-2V61.8z"/>
<path fill="#D0D6D9" d="M106.3,57.5H100v2.3c1.1,0,2,0.9,2,2v6.6c0,1.1-0.9,2-2,2V80h6.3c0.6,0,1-0.4,1-1V58.5
	C107.3,58,106.8,57.5,106.3,57.5z"/>
<path fill="#39444D" d="M52.7,0h94.5c0.7,0,1.3,0.6,1.3,1.3v61.8c0,0.7-0.6,1.3-1.3,1.3H52.7c-0.7,0-1.3-0.6-1.3-1.3V1.3
	C51.4,0.6,52,0,52.7,0z"/>
<path fill="#333D45" d="M147.3,0H100v64.5h47.3c0.7,0,1.3-0.6,1.3-1.3V1.3C148.6,0.6,148,0,147.3,0z"/>
<path fill="#FFFFFF" d="M144.3,3.3c0.6,0,1,0.4,1,1v55.9c0,0.6-0.4,1-1,1l-89.6,0V3.3L144.3,3.3z"/>
<path fill="#EDF1F2" d="M145.3,3.3H100v57.9l45.3,0L145.3,3.3z"/>
<path fill="#D0D5D6" d="M77.1,77.7h24.3c0.6,0,1.2,0.5,1.2,1.2S102,80,101.3,80H77.1c-0.6,0-1.2-0.5-1.2-1.2S76.4,77.7,77.1,77.7z"
	/>
<path fill="#B3B9BA" d="M123.1,77.7H100V80h23.1c0.6,0,1.2-0.5,1.2-1.2S123.8,77.7,123.1,77.7z"/>
</svg>
