<?xml version="1.0" encoding="utf-8"?>
<!-- Generator: Adobe Illustrator 18.0.0, SVG Export Plug-In . SVG Version: 6.00 Build 0)  -->
<!DOCTYPE svg PUBLIC "-//W3C//DTD SVG 1.1//EN" "http://www.w3.org/Graphics/SVG/1.1/DTD/svg11.dtd">
<svg version="1.1" id="Warstwa_1" xmlns="http://www.w3.org/2000/svg" xmlns:xlink="http://www.w3.org/1999/xlink" x="0px" y="0px"
	 viewBox="0 0 90 112" enable-background="new 0 0 90 112" xml:space="preserve">
<g id="Server">
	<path fill="#39454E" d="M3.7,0h82.6C88.4,0,90,1.6,90,3.7v104.5c0,2.1-1.7,3.8-3.8,3.8H3.6c-2.1,0-3.6-1.6-3.6-3.7V3.7
		C0,1.5,1.6,0,3.7,0z"/>
	<g>
		<path fill="#22292E" d="M79,58H11c-1.1,0-2,0.9-2,2v12c0,1.1,0.9,2,2,2h68c1.1,0,2-0.9,2-2V60C81,58.9,80.1,58,79,58z"/>
		<path fill="#22292E" d="M79,78H11c-1.1,0-2,0.9-2,2v12c0,1.1,0.9,2,2,2h68c1.1,0,2-0.9,2-2V80C81,78.9,80.1,78,79,78z"/>
		<path fill="#22292E" d="M81,32c0,1.1-0.9,2-2,2H11c-1.1,0-2-0.9-2-2V20c0-1.1,0.9-2,2-2h68c1.1,0,2,0.9,2,2V32z"/>
		<path fill="#22292E" d="M81,52c0,1.1-0.9,2-2,2H11c-1.1,0-2-0.9-2-2V40c0-1.1,0.9-2,2-2h68c1.1,0,2,0.9,2,2V52z"/>
	</g>
	<g>
		<rect x="79" y="98" fill="#22292E" width="1" height="7"/>
		<rect x="21" y="98" fill="#22292E" width="1" height="7"/>
		<rect x="19" y="98" fill="#22292E" width="1" height="7"/>
		<rect x="17" y="98" fill="#22292E" width="1" height="7"/>
		<rect x="15" y="98" fill="#22292E" width="1" height="7"/>
		<rect x="9" y="98" fill="#22292E" width="1" height="7"/>
		<rect x="11" y="98" fill="#22292E" width="1" height="7"/>
		<rect x="13" y="98" fill="#22292E" width="1" height="7"/>
		<rect x="23" y="98" fill="#22292E" width="1" height="7"/>
		<rect x="25" y="98" fill="#22292E" width="1" height="7"/>
		<rect x="27" y="98" fill="#22292E" width="1" height="7"/>
		<rect x="29" y="98" fill="#22292E" width="1" height="7"/>
		<rect x="31" y="98" fill="#22292E" width="1" height="7"/>
		<rect x="33" y="98" fill="#22292E" width="1" height="7"/>
		<rect x="35" y="98" fill="#22292E" width="1" height="7"/>
		<rect x="37" y="98" fill="#22292E" width="1" height="7"/>
		<rect x="39" y="98" fill="#22292E" width="1" height="7"/>
		<rect x="41" y="98" fill="#22292E" width="1" height="7"/>
		<rect x="43" y="98" fill="#22292E" width="1" height="7"/>
		<rect x="45" y="98" fill="#22292E" width="1" height="7"/>
		<rect x="47" y="98" fill="#22292E" width="1" height="7"/>
		<rect x="49" y="98" fill="#22292E" width="1" height="7"/>
		<rect x="51" y="98" fill="#22292E" width="1" height="7"/>
		<rect x="53" y="98" fill="#22292E" width="1" height="7"/>
		<rect x="55" y="98" fill="#22292E" width="1" height="7"/>
		<rect x="57" y="98" fill="#22292E" width="1" height="7"/>
		<rect x="59" y="98" fill="#22292E" width="1" height="7"/>
		<rect x="61" y="98" fill="#22292E" width="1" height="7"/>
		<rect x="63" y="98" fill="#22292E" width="1" height="7"/>
		<rect x="65" y="98" fill="#22292E" width="1" height="7"/>
		<rect x="67" y="98" fill="#22292E" width="1" height="7"/>
		<rect x="69" y="98" fill="#22292E" width="1" height="7"/>
		<rect x="71" y="98" fill="#22292E" width="1" height="7"/>
		<rect x="73" y="98" fill="#22292E" width="1" height="7"/>
		<rect x="75" y="98" fill="#22292E" width="1" height="7"/>
		<rect x="77" y="98" fill="#22292E" width="1" height="7"/>
	</g>
	<g>
		<rect x="79" y="7" fill="#22292E" width="1" height="7"/>
		<rect x="21" y="7" fill="#22292E" width="1" height="7"/>
		<rect x="19" y="7" fill="#22292E" width="1" height="7"/>
		<rect x="17" y="7" fill="#22292E" width="1" height="7"/>
		<rect x="15" y="7" fill="#22292E" width="1" height="7"/>
		<rect x="9" y="7" fill="#22292E" width="1" height="7"/>
		<rect x="11" y="7" fill="#22292E" width="1" height="7"/>
		<rect x="13" y="7" fill="#22292E" width="1" height="7"/>
		<rect x="23" y="7" fill="#22292E" width="1" height="7"/>
		<rect x="25" y="7" fill="#22292E" width="1" height="7"/>
		<rect x="27" y="7" fill="#22292E" width="1" height="7"/>
		<rect x="29" y="7" fill="#22292E" width="1" height="7"/>
		<rect x="31" y="7" fill="#22292E" width="1" height="7"/>
		<rect x="33" y="7" fill="#22292E" width="1" height="7"/>
		<rect x="35" y="7" fill="#22292E" width="1" height="7"/>
		<rect x="37" y="7" fill="#22292E" width="1" height="7"/>
		<rect x="39" y="7" fill="#22292E" width="1" height="7"/>
		<rect x="41" y="7" fill="#22292E" width="1" height="7"/>
		<rect x="43" y="7" fill="#22292E" width="1" height="7"/>
		<rect x="45" y="7" fill="#22292E" width="1" height="7"/>
		<rect x="47" y="7" fill="#22292E" width="1" height="7"/>
		<rect x="49" y="7" fill="#22292E" width="1" height="7"/>
		<rect x="51" y="7" fill="#22292E" width="1" height="7"/>
		<rect x="53" y="7" fill="#22292E" width="1" height="7"/>
		<rect x="55" y="7" fill="#22292E" width="1" height="7"/>
		<rect x="57" y="7" fill="#22292E" width="1" height="7"/>
		<rect x="59" y="7" fill="#22292E" width="1" height="7"/>
		<rect x="61" y="7" fill="#22292E" width="1" height="7"/>
		<rect x="63" y="7" fill="#22292E" width="1" height="7"/>
		<rect x="65" y="7" fill="#22292E" width="1" height="7"/>
		<rect x="67" y="7" fill="#22292E" width="1" height="7"/>
		<rect x="69" y="7" fill="#22292E" width="1" height="7"/>
		<rect x="71" y="7" fill="#22292E" width="1" height="7"/>
		<rect x="73" y="7" fill="#22292E" width="1" height="7"/>
		<rect x="75" y="7" fill="#22292E" width="1" height="7"/>
		<rect x="77" y="7" fill="#22292E" width="1" height="7"/>
	</g>
	<g>
		<g>
			<circle fill="#3FB5A1" cx="17" cy="86" r="2"/>
			<circle fill="#3FB5A1" cx="24" cy="86" r="2"/>
			<circle fill="#3FB5A1" cx="31" cy="86" r="2"/>
		</g>
		<circle fill="#3FB5A1" cx="17" cy="26" r="2"/>
		<circle fill="#3FB5A1" cx="24" cy="26" r="2"/>
		<circle fill="#3FB5A1" cx="31" cy="26" r="2"/>
		<circle fill="#3FB5A1" cx="17" cy="46" r="2"/>
		<circle fill="#3FB5A1" cx="24" cy="46" r="2"/>
		<circle fill="#3FB5A1" cx="31" cy="46" r="2"/>
		<circle fill="#3FB5A1" cx="17" cy="66" r="2"/>
		<circle fill="#3FB5A1" cx="24" cy="66" r="2"/>
		<circle fill="#3FB5A1" cx="31" cy="66" r="2"/>
	</g>
	<g>
		<rect x="69" y="21" fill="#2B323A" width="2" height="2"/>
		<rect x="73" y="21" fill="#2B323A" width="2" height="2"/>
		<rect x="77" y="21" fill="#2B323A" width="2" height="2"/>
		<rect x="69" y="25" fill="#2B323A" width="2" height="2"/>
		<rect x="73" y="25" fill="#2B323A" width="2" height="2"/>
		<rect x="77" y="25" fill="#2B323A" width="2" height="2"/>
		<rect x="69" y="29" fill="#2B323A" width="2" height="2"/>
		<rect x="73" y="29" fill="#2B323A" width="2" height="2"/>
		<rect x="77" y="29" fill="#2B323A" width="2" height="2"/>
	</g>
	<g>
		<rect x="69" y="41" fill="#2B323A" width="2" height="2"/>
		<rect x="73" y="41" fill="#2B323A" width="2" height="2"/>
		<rect x="77" y="41" fill="#2B323A" width="2" height="2"/>
		<rect x="69" y="45" fill="#2B323A" width="2" height="2"/>
		<rect x="73" y="45" fill="#2B323A" width="2" height="2"/>
		<rect x="77" y="45" fill="#2B323A" width="2" height="2"/>
		<rect x="69" y="49" fill="#2B323A" width="2" height="2"/>
		<rect x="73" y="49" fill="#2B323A" width="2" height="2"/>
		<rect x="77" y="49" fill="#2B323A" width="2" height="2"/>
	</g>
	<g>
		<rect x="69" y="61" fill="#2B323A" width="2" height="2"/>
		<rect x="73" y="61" fill="#2B323A" width="2" height="2"/>
		<rect x="77" y="61" fill="#2B323A" width="2" height="2"/>
		<rect x="69" y="65" fill="#2B323A" width="2" height="2"/>
		<rect x="73" y="65" fill="#2B323A" width="2" height="2"/>
		<rect x="77" y="65" fill="#2B323A" width="2" height="2"/>
		<rect x="69" y="69" fill="#2B323A" width="2" height="2"/>
		<rect x="73" y="69" fill="#2B323A" width="2" height="2"/>
		<rect x="77" y="69" fill="#2B323A" width="2" height="2"/>
	</g>
	<g>
		<rect x="69" y="81" fill="#2B323A" width="2" height="2"/>
		<rect x="73" y="81" fill="#2B323A" width="2" height="2"/>
		<rect x="77" y="81" fill="#2B323A" width="2" height="2"/>
		<rect x="69" y="85" fill="#2B323A" width="2" height="2"/>
		<rect x="73" y="85" fill="#2B323A" width="2" height="2"/>
		<rect x="77" y="85" fill="#2B323A" width="2" height="2"/>
		<rect x="69" y="89" fill="#2B323A" width="2" height="2"/>
		<rect x="73" y="89" fill="#2B323A" width="2" height="2"/>
		<rect x="77" y="89" fill="#2B323A" width="2" height="2"/>
	</g>
	<path opacity="0.1" fill="#010101" d="M86.3,0H45.1v112h41.1c2.1,0,3.8-1.7,3.8-3.8V3.7C90,1.6,88.4,0,86.3,0z"/>
</g>
</svg>
