<?xml version="1.0" encoding="utf-8"?>
<!-- Generator: Adobe Illustrator 18.0.0, SVG Export Plug-In . SVG Version: 6.00 Build 0)  -->
<!DOCTYPE svg PUBLIC "-//W3C//DTD SVG 1.1//EN" "http://www.w3.org/Graphics/SVG/1.1/DTD/svg11.dtd">
<svg version="1.1" id="Warstwa_1" xmlns="http://www.w3.org/2000/svg" xmlns:xlink="http://www.w3.org/1999/xlink" x="0px" y="0px"
	 viewBox="0 0 161.4 63" enable-background="new 0 0 161.4 63" xml:space="preserve">
<path fill-rule="evenodd" clip-rule="evenodd" fill="#1E88E5" d="M159.5,43h-12c-1,0-1.8-0.7-1.8-1.5s0.8-1.5,1.8-1.5h12
	c1,0,1.8,0.7,1.8,1.5S160.5,43,159.5,43z M136.1,43H1.8c-1,0-1.8-0.7-1.8-1.5S0.8,40,1.8,40h134.3c1,0,1.8,0.7,1.8,1.5
	S137.1,43,136.1,43z M106.5,3h-12c-1,0-1.8-0.7-1.8-1.5c0-0.8,0.8-1.5,1.8-1.5h12c1,0,1.8,0.7,1.8,1.5C108.4,2.3,107.5,3,106.5,3z
	 M66.6,20c1,0,1.8,0.7,1.8,1.5c0,0.8-0.8,1.5-1.8,1.5h-12c-1,0-1.8-0.7-1.8-1.5c0-0.8,0.8-1.5,1.8-1.5H66.6z M1.8,20h41.3
	c1,0,1.8,0.7,1.8,1.5c0,0.8-0.8,1.5-1.8,1.5H1.8c-1,0-1.8-0.7-1.8-1.5C0,20.7,0.8,20,1.8,20z M83.1,3H1.8C0.8,3,0,2.3,0,1.5
	C0,0.7,0.8,0,1.8,0h81.3c1,0,1.8,0.7,1.8,1.5C84.9,2.3,84.1,3,83.1,3z"/>
<path fill-rule="evenodd" clip-rule="evenodd" fill="#FFA726" d="M99.5,63h-12c-1,0-1.8-0.7-1.8-1.5c0-0.8,0.8-1.5,1.8-1.5h12
	c1,0,1.8,0.7,1.8,1.5C101.4,62.3,100.5,63,99.5,63z M76.1,63H1.8c-1,0-1.8-0.7-1.8-1.5C0,60.7,0.8,60,1.8,60h74.3
	c1,0,1.8,0.7,1.8,1.5C77.9,62.3,77.1,63,76.1,63z"/>
</svg>
