<?xml version="1.0" encoding="utf-8"?>
<!-- Generator: Adobe Illustrator 18.0.0, SVG Export Plug-In . SVG Version: 6.00 Build 0)  -->
<!DOCTYPE svg PUBLIC "-//W3C//DTD SVG 1.1//EN" "http://www.w3.org/Graphics/SVG/1.1/DTD/svg11.dtd">
<svg version="1.1" id="ﾃ神xA1_ﾃ神xBB_ﾃ神xBE_ﾃ神xB9__x5F_1"
	 xmlns="http://www.w3.org/2000/svg" xmlns:xlink="http://www.w3.org/1999/xlink" x="0px" y="0px" viewBox="84 8 64 80"
	 enable-background="new 84 8 64 80" xml:space="preserve">
<path display="none" fill="#1E88E5" d="M116,8c0,0-16,16-32,16c0,0-2,46,32.3,64C150,70,148,24,148,24l0,0C130,24,116,8,116,8L116,8
	z"/>
<path display="none" fill="#40A2F7" d="M139.7,31.1c-10.2-2.1-18.7-7.9-23.9-12.3c-5.4,4.3-13.9,9.9-23.5,12.2
	c0.9,11.6,5.2,35.3,24,47.7C134.7,66.3,138.8,42.7,139.7,31.1z"/>
<path display="none" opacity="7.000000e-002" enable-background="new    " d="M148,24L148,24c-18,0-32-16-32-16v79.8
	c0.1,0.1,0.2,0.1,0.3,0.2C150,70,148,24,148,24z"/>
<path fill="#39444D" d="M116,8.2c0,0-15.9,16-31.9,16c0,0-2.3,45.9,31.9,63.8c33.5-18,31.9-63.8,31.9-63.8c0,0,0,0,0,0
	C129.9,24.2,116,8.2,116,8.2L116,8.2z"/>
<path fill="#3594E8" d="M116,15.6c0,0-13,13-26,13c0,0-1.9,37.3,26,52c27.3-14.6,25.9-52,25.9-52c0,0,0,0,0,0
	C127.3,28.6,116,15.6,116,15.6L116,15.6z"/>
<path opacity="7.000000e-002" d="M147.9,24.2C130,24.2,116,8.3,116,8.2V88C149.5,70,147.9,24.2,147.9,24.2
	C147.9,24.2,147.9,24.2,147.9,24.2z"/>
<path display="none" fill="#3FB29C" d="M141.9,29.6c-14.6,0-25.9-12.9-26-13v64.9c0,0,0,0,0,0C143.3,66.9,141.9,29.6,141.9,29.6
	C141.9,29.6,141.9,29.6,141.9,29.6z"/>
<path fill="#FFFFFF" d="M116,57l5.7-14.2c0.2-0.5,0.5-0.8,0.9-0.8c0.4,0,0.7,0.1,0.9,0.3c0.2,0.2,0.3,0.4,0.3,0.7
	c0,0.2,0,0.4-0.1,0.5l-6,14.5c-0.3,0.7-0.8,1.1-1.5,1.1h-0.5c-0.7,0-1.2-0.4-1.5-1.1l-2.3-5.6h1.4h0.8L116,57z"/>
<path fill="#145180" d="M110.4,42.8L110.4,42.8c-0.2-0.5-0.7-0.8-1.2-0.8c0,0,0,0,0,0h0h-3l0,0h0c-0.6,0-1.1,0.5-1.1,1.1
	s0.5,1.1,1.1,1.1c0,0,0,0,0,0l2.4,0l1.2,3l1.3,3.2h2.3L110.4,42.8z"/>
</svg>
