<?xml version="1.0" encoding="utf-8"?>
<!-- Generator: Adobe Illustrator 16.0.0, SVG Export Plug-In . SVG Version: 6.00 Build 0)  -->
<!DOCTYPE svg PUBLIC "-//W3C//DTD SVG 1.1//EN" "http://www.w3.org/Graphics/SVG/1.1/DTD/svg11.dtd">
<svg version="1.1" id="Layer_1" xmlns="http://www.w3.org/2000/svg" xmlns:xlink="http://www.w3.org/1999/xlink" x="0px" y="0px"
	 width="278px" height="217px" viewBox="0 0 278 217" enable-background="new 0 0 278 217" xml:space="preserve">
<path opacity="0.1" fill-rule="evenodd" clip-rule="evenodd" fill="#1E88E6" d="M277,210v-64h-69v70h65v1H5v-1h64v-70H1v67H0v-67v-1
	V74v-1V25h1v48h68V1H10V0h59h1h68h1h68h1h59v1h-59v72h69V4h1v206H277z M69,74H1v71h68V74z M138,1H70v72h68V1z M138,74H70v71h68V74z
	 M138,146H70v70h68V146z M207,1h-68v72h68V1z M207,74h-68v71h68V74z M207,146h-68v70h68V146z M277,74h-69v71h69V74z"/>
<path fill-rule="evenodd" clip-rule="evenodd" fill="#1E88E6" d="M276.5,30c-0.828,0-1.5-0.672-1.5-1.5
	c0-0.178,0.045-0.342,0.101-0.5H275V6c0-1.657-1.344-3-3-3h-22V2.899C249.842,2.956,249.678,3,249.5,3c-0.828,0-1.5-0.672-1.5-1.5
	s0.672-1.5,1.5-1.5c0.178,0,0.342,0.044,0.5,0.101V0h24c2.209,0,4,1.791,4,4v24h-0.102c0.057,0.158,0.102,0.322,0.102,0.5
	C278,29.328,277.328,30,276.5,30z M28.5,217c-0.178,0-0.342-0.045-0.5-0.101V217H4c-2.209,0-4-1.791-4-4v-23h0.101
	C0.044,189.842,0,189.678,0,189.5c0-0.828,0.671-1.5,1.5-1.5c0.828,0,1.5,0.672,1.5,1.5c0,0.178-0.044,0.342-0.101,0.5H3v21
	c0,1.656,1.343,3,3,3h22v0.101c0.158-0.056,0.322-0.101,0.5-0.101c0.828,0,1.5,0.672,1.5,1.5S29.328,217,28.5,217z M28.5,3
	c-0.178,0-0.342-0.044-0.5-0.101V3H6C4.343,3,3,4.343,3,6v22H2.899C2.956,28.158,3,28.322,3,28.5C3,29.328,2.328,30,1.5,30
	C0.671,30,0,29.328,0,28.5c0-0.178,0.044-0.342,0.101-0.5H0V4c0-2.209,1.791-4,4-4h24v0.101C28.158,0.044,28.322,0,28.5,0
	C29.328,0,30,0.672,30,1.5S29.328,3,28.5,3z M249.5,214c0.178,0,0.342,0.045,0.5,0.101V214h22c1.656,0,3-1.344,3-3v-21h0.102
	c-0.057-0.158-0.102-0.322-0.102-0.5c0-0.828,0.672-1.5,1.5-1.5s1.5,0.672,1.5,1.5c0,0.178-0.045,0.342-0.102,0.5H278v23
	c0,2.209-1.791,4-4,4h-24v-0.101c-0.158,0.056-0.322,0.101-0.5,0.101c-0.828,0-1.5-0.672-1.5-1.5S248.672,214,249.5,214z"/>
</svg>
