<?xml version="1.0" encoding="utf-8"?>
<!-- Generator: Adobe Illustrator 18.0.0, SVG Export Plug-In . SVG Version: 6.00 Build 0)  -->
<!DOCTYPE svg PUBLIC "-//W3C//DTD SVG 1.1//EN" "http://www.w3.org/Graphics/SVG/1.1/DTD/svg11.dtd">
<svg version="1.1" id="Warstwa_1" xmlns="http://www.w3.org/2000/svg" xmlns:xlink="http://www.w3.org/1999/xlink" x="0px" y="0px"
	 viewBox="0 0 200 200" enable-background="new 0 0 200 200" xml:space="preserve">
<path fill-rule="evenodd" clip-rule="evenodd" fill="#39444D" d="M96.1,111.4c-0.1,0-0.1-0.2-0.1-0.3c-4.1-1.8-6.9-5.8-6.9-10.6
	c0-6.3,5.1-11.5,11.5-11.5c3.1,0,6,1.2,8,3.3c0,0,0.1,0,0.1,0l51.8,42.9L96.1,111.4z M100.5,97c-1.9,0-3.4,1.5-3.4,3.4
	c0,1.9,1.5,3.4,3.4,3.4c1.9,0,3.4-1.5,3.4-3.4C103.9,98.6,102.4,97,100.5,97z"/>
</svg>
