<?xml version="1.0" encoding="utf-8"?>
<!-- Generator: Adobe Illustrator 18.0.0, SVG Export Plug-In . SVG Version: 6.00 Build 0)  -->
<!DOCTYPE svg PUBLIC "-//W3C//DTD SVG 1.1//EN" "http://www.w3.org/Graphics/SVG/1.1/DTD/svg11.dtd">
<svg version="1.1" id="Warstwa_1" xmlns="http://www.w3.org/2000/svg" xmlns:xlink="http://www.w3.org/1999/xlink" x="0px" y="0px"
	 viewBox="0 0 200 200" enable-background="new 0 0 200 200" xml:space="preserve">
<path fill-rule="evenodd" clip-rule="evenodd" fill="#39444D" d="M100,0c55.2,0,100,44.8,100,100c0,55.2-44.8,100-100,100
	C44.8,200,0,155.2,0,100C0,44.8,44.8,0,100,0z"/>
<path fill-rule="evenodd" clip-rule="evenodd" fill="#333D45" d="M100,200C100,200,100,200,100,200l0-200c0,0,0,0,0,0
	c55.2,0,100,44.8,100,100C200,155.2,155.2,200,100,200z"/>
<path fill-rule="evenodd" clip-rule="evenodd" fill="#FFFFFF" d="M100,14c47.5,0,86,38.5,86,86c0,47.5-38.5,86-86,86
	c-47.5,0-86-38.5-86-86C14,52.5,52.5,14,100,14z"/>
<path fill-rule="evenodd" clip-rule="evenodd" fill="#E1E3E5" d="M154.7,83.7c-7-23.5-28.8-40.7-54.6-40.7c-31.5,0-57,25.5-57,57
	c0,15.8,6.4,30.1,16.8,40.4L48.3,153C34.6,139.5,26,120.8,26,100.1C26,59.2,59.2,26,100.1,26c33.5,0,61.7,22.2,70.9,52.7L154.7,83.7
	z"/>
<path fill-rule="evenodd" clip-rule="evenodd" fill="#D83A3A" d="M157.1,99.8c0-5-0.7-9.9-1.9-14.6l16.4-4.5
	c1.6,6.1,2.5,12.5,2.5,19.1c0,20.9-8.7,39.8-22.6,53.2L139,141.4C150.2,131,157.1,116.2,157.1,99.8z"/>
<path display="none" fill-rule="evenodd" clip-rule="evenodd" fill="#39444D" d="M96.1,111.4c-0.1,0-0.1-0.2-0.1-0.3
	c-4.1-1.8-6.9-5.8-6.9-10.6c0-6.3,5.1-11.5,11.5-11.5c3.1,0,6,1.2,8,3.3c0,0,0.1,0,0.1,0l51.8,42.9L96.1,111.4z M100.5,97
	c-1.9,0-3.4,1.5-3.4,3.4c0,1.9,1.5,3.4,3.4,3.4c1.9,0,3.4-1.5,3.4-3.4C103.9,98.6,102.4,97,100.5,97z"/>
<path opacity="5.000000e-002" fill-rule="evenodd" clip-rule="evenodd" d="M100,186C100,186,100,186,100,186l0-172c0,0,0,0,0,0
	c47.5,0,86,38.5,86,86C186,147.5,147.5,186,100,186z"/>
</svg>
