<?xml version="1.0" encoding="utf-8"?>
<!-- Generator: Adobe Illustrator 18.0.0, SVG Export Plug-In . SVG Version: 6.00 Build 0)  -->
<!DOCTYPE svg PUBLIC "-//W3C//DTD SVG 1.1//EN" "http://www.w3.org/Graphics/SVG/1.1/DTD/svg11.dtd">
<svg version="1.1" id="Warstwa_1" xmlns="http://www.w3.org/2000/svg" xmlns:xlink="http://www.w3.org/1999/xlink" x="0px" y="0px"
	 viewBox="0 0 234 292" enable-background="new 0 0 234 292" xml:space="preserve">
<path fill-rule="evenodd" clip-rule="evenodd" fill="#DBE2E5" d="M9.9,0h213.2c5.7,0,10.9,5,10.9,10.8V282c0,5.7-5.1,10-10.9,10H9.9
	c-5.7,0-9.9-4.3-9.9-10V10.8C0,5,4.2,0,9.9,0z"/>
<path fill-rule="evenodd" clip-rule="evenodd" fill="#8E9699" d="M88,64.4c-1.7,0-3-1.3-3-3c0-0.3,0.1-0.8,0.2-1.1L68.1,43H68v0.3
	L67.7,43l0.3-0.3V0h2v42.5l16.4,16.4c0.5-0.3,1-0.5,1.6-0.5c1.7,0,3,1.3,3,3C91,63,89.7,64.4,88,64.4z M73,23.8l0.2-0.2L73,23.4V0h2
	v22.9l9,9l-1.4,1.4L73,23.8z M65,70h-0.5L47.8,87.2c0.1,0.3,0.2,0.7,0.2,1c0,1.7-1.3,3.1-3,3.1c-1.6,0-3-1.3-3-3c0-1.7,1.3-3,3-3
	c0.6,0,1.1,0.2,1.6,0.5L63,69V24.4v-1V0h2v23.4v1v45.4l0,0l0,0V70z M58,0h2v45h-2V0z"/>
<path fill-rule="evenodd" clip-rule="evenodd" fill="#39444D" d="M26,292v-20.6c0-1.7,0.4-2.4,2-2.4h176c1.7,0,2,0.7,2,2.4V292H26z"
	/>
<path fill-rule="evenodd" clip-rule="evenodd" fill="#FEB23F" d="M32,274h170v14H32V274z"/>
<path fill-rule="evenodd" clip-rule="evenodd" fill="#E5A139" d="M198,286v-12h2v12H198z M194,274h2v12h-2V274z M190,274h2v12h-2
	V274z M186,274h2v12h-2V274z M182,274h2v12h-2V274z M178,274h2v12h-2V274z M174,274h2v12h-2V274z M170,274h2v12h-2V274z M166,274h2
	v12h-2V274z M162,274h2v12h-2V274z M158,274h2v12h-2V274z M154,274h2v12h-2V274z M150,274h2v12h-2V274z M146,274h2v12h-2V274z
	 M142,274h2v12h-2V274z M138,274h2v12h-2V274z M134,274h2v12h-2V274z M130,274h2v12h-2V274z M126,274h2v12h-2V274z M122,274h2v12h-2
	V274z M118,274h2v12h-2V274z M114,274h2v12h-2V274z M110,274h2v12h-2V274z M106,274h2v12h-2V274z M102,274h2v12h-2V274z M98,274h2
	v12h-2V274z M94,274h2v12h-2V274z M90,274h2v12h-2V274z M86,274h2v12h-2V274z M82,274h2v12h-2V274z M78,274h2v12h-2V274z M74,274h2
	v12h-2V274z M70,274h2v12h-2V274z M66,274h2v12h-2V274z M62,274h2v12h-2V274z M58,274h2v12h-2V274z M54,274h2v12h-2V274z M50,274h2
	v12h-2V274z M46,274h2v12h-2V274z M42,274h2v12h-2V274z M38,274h2v12h-2V274z M34,274h2v12h-2V274z"/>
<path opacity="7.000000e-002" fill-rule="evenodd" clip-rule="evenodd" d="M223.4,292H117V0h106.4C229,0,234,4.9,234,10.5v271.7
	C234,287.8,229,292,223.4,292z"/>
<path fill-rule="evenodd" clip-rule="evenodd" fill="#8E9699" d="M138,221.9c-0.6,0-1.2-0.2-1.6-0.5L120,237.8V269h-2v-31.5
	l-0.3-0.3l0.3-0.3v0h0.1l17.1-17.1c-0.1-0.3-0.2-0.6-0.2-1c0-1.7,1.3-3,3-3s3,1.3,3,3S139.7,221.9,138,221.9z M115,245.9v11V269h-2
	v-12.1v-11v-34.6l-16.4-16.8c-0.5,0.3-1,0.5-1.6,0.5c-1.6,0-3-1.4-3-3c0-1.7,1.3-3,3-3c1.6,0,3,1.4,3,3c0,0.3-0.1,0.7-0.2,1
	l16.7,17.1h0.5v0.4l0,0l0,0V245.9z M110,269h-2v-23h2V269z M132.6,236.9l1.4,1.4l-9,9V269h-2v-22.1l0.2-0.2l-0.2-0.2L132.6,236.9z"
	/>
<g>
	<g>
		<path fill="#8E9699" d="M89.5,140.5c-1.2-1-2.7-1.9-4.5-2.5c-1.8-0.7-3.8-1.3-6-1.9c-1.7-0.5-3.1-0.9-4.4-1.2
			c-1.3-0.4-2.4-0.8-3.2-1.2c-0.8-0.5-1.5-1-1.9-1.6c-0.4-0.6-0.7-1.4-0.7-2.3c0-1.6,0.6-2.8,1.8-3.7c1.2-0.9,3-1.3,5.4-1.3
			c1.3,0,2.7,0.2,4,0.5c1.3,0.3,2.5,0.7,3.6,1.2c1.1,0.5,2.1,1,2.8,1.5c0.8,0.5,1.3,0.9,1.6,1.2l3.8-7.1c-2-1.3-4.3-2.5-6.9-3.5
			c-2.6-1-5.5-1.5-8.7-1.5c-2.3,0-4.4,0.3-6.4,0.9c-2,0.6-3.7,1.5-5.2,2.7c-1.5,1.2-2.7,2.6-3.5,4.4c-0.8,1.8-1.3,3.8-1.3,6.1
			c0,1.7,0.3,3.2,0.8,4.4c0.5,1.2,1.3,2.3,2.4,3.3c1,0.9,2.4,1.8,3.9,2.5c1.6,0.7,3.4,1.3,5.6,1.9c1.8,0.5,3.3,1,4.8,1.4
			c1.4,0.4,2.7,0.9,3.7,1.4c1,0.5,1.8,1.1,2.3,1.8c0.5,0.7,0.8,1.5,0.8,2.5c0,3.1-2.4,4.7-7.2,4.7c-1.7,0-3.4-0.2-5-0.6
			c-1.6-0.4-3.1-0.9-4.5-1.5c-1.3-0.6-2.5-1.2-3.5-1.8c-1-0.6-1.7-1.1-2-1.5l-3.8,7.5c2.6,1.8,5.5,3.2,8.8,4.2c3.3,1,6.6,1.5,10,1.5
			c2.2,0,4.3-0.2,6.3-0.7c2-0.5,3.8-1.2,5.3-2.3c1.5-1,2.8-2.4,3.7-4.1c0.9-1.7,1.4-3.7,1.4-6.1c0-2.1-0.3-3.8-1-5.2
			C91.7,142.7,90.7,141.5,89.5,140.5z M128.1,140.5c-1.2-1-2.7-1.9-4.5-2.5c-1.8-0.7-3.8-1.3-6-1.9c-1.7-0.5-3.1-0.9-4.4-1.2
			c-1.3-0.4-2.4-0.8-3.2-1.2c-0.8-0.5-1.5-1-1.9-1.6c-0.4-0.6-0.7-1.4-0.7-2.3c0-1.6,0.6-2.8,1.8-3.7c1.2-0.9,3-1.3,5.4-1.3
			c1.3,0,2.7,0.2,4,0.5c1.3,0.3,2.5,0.7,3.6,1.2c1.1,0.5,2.1,1,2.8,1.5c0.8,0.5,1.3,0.9,1.6,1.2l3.8-7.1c-2-1.3-4.3-2.5-6.9-3.5
			c-2.6-1-5.5-1.5-8.7-1.5c-2.3,0-4.4,0.3-6.4,0.9c-2,0.6-3.7,1.5-5.2,2.7c-1.5,1.2-2.7,2.6-3.5,4.4c-0.8,1.8-1.3,3.8-1.3,6.1
			c0,1.7,0.3,3.2,0.8,4.4c0.5,1.2,1.3,2.3,2.4,3.3c1,0.9,2.4,1.8,3.9,2.5c1.6,0.7,3.4,1.3,5.6,1.9c1.8,0.5,3.3,1,4.8,1.4
			c1.4,0.4,2.7,0.9,3.7,1.4c1,0.5,1.8,1.1,2.3,1.8c0.5,0.7,0.8,1.5,0.8,2.5c0,3.1-2.4,4.7-7.2,4.7c-1.7,0-3.4-0.2-5-0.6
			c-1.6-0.4-3.1-0.9-4.5-1.5c-1.3-0.6-2.5-1.2-3.5-1.8c-1-0.6-1.7-1.1-2-1.5l-3.8,7.5c2.6,1.8,5.5,3.2,8.8,4.2c3.3,1,6.6,1.5,10,1.5
			c2.2,0,4.3-0.2,6.3-0.7c2-0.5,3.8-1.2,5.3-2.3c1.5-1,2.8-2.4,3.7-4.1c0.9-1.7,1.4-3.7,1.4-6.1c0-2.1-0.3-3.8-1-5.2
			C130.3,142.7,129.3,141.5,128.1,140.5z M175.5,130.9c-0.9-2.7-2.3-5.1-4.2-7.1c-1.9-2-4.2-3.6-6.9-4.8c-2.8-1.2-6-1.8-9.6-1.8
			h-16.3V162h16.3c3.4,0,6.4-0.5,9.1-1.6c2.7-1.1,5-2.6,7-4.5c1.9-2,3.4-4.3,4.5-7.1c1-2.7,1.6-5.8,1.6-9.2
			C176.9,136.5,176.4,133.6,175.5,130.9z M167.2,145.5c-0.6,1.8-1.4,3.4-2.6,4.7c-1.1,1.3-2.5,2.4-4.2,3.1c-1.7,0.8-3.6,1.1-5.7,1.1
			h-7.6v-29.5h7.6c2.1,0,4,0.4,5.6,1.1c1.7,0.7,3.1,1.7,4.2,3c1.1,1.3,2,2.9,2.6,4.7c0.6,1.8,0.9,3.8,0.9,5.9
			C168,141.7,167.7,143.7,167.2,145.5z"/>
	</g>
</g>
</svg>
