<?xml version="1.0" encoding="utf-8"?>
<!-- Generator: Adobe Illustrator 18.0.0, SVG Export Plug-In . SVG Version: 6.00 Build 0)  -->
<!DOCTYPE svg PUBLIC "-//W3C//DTD SVG 1.1//EN" "http://www.w3.org/Graphics/SVG/1.1/DTD/svg11.dtd">
<svg version="1.1" id="Warstwa_1" xmlns="http://www.w3.org/2000/svg" xmlns:xlink="http://www.w3.org/1999/xlink" x="0px" y="0px"
	 viewBox="0 0 200 71.6" enable-background="new 0 0 200 71.6" xml:space="preserve">
<path fill="#1E88E5" d="M146.5,22.7c-1.1,0-2,0.8-2,1.7s0.9,1.7,2,1.7H191c1.1,0,2-0.8,2-1.7s-0.9-1.7-2-1.7H146.5z M119.9,22.7
	c-1.1,0-2,0.8-2,1.7s0.9,1.7,2,1.7h13.6c1.1,0,2-0.8,2-1.7s-0.9-1.7-2-1.7H119.9z M193.2,47.2c0-0.9-0.9-1.7-2-1.7H28.6
	c-1.1,0-2,0.8-2,1.7c0,0.9,0.9,1.7,2,1.7h162.5C192.3,48.9,193.2,48.1,193.2,47.2z M15.7,45.5H2c-1.1,0-2,0.8-2,1.7
	c0,0.9,0.9,1.7,2,1.7h13.6c1.1,0,2-0.8,2-1.7C17.7,46.3,16.8,45.5,15.7,45.5z M78.5,3.4H198c1.1,0,2-0.8,2-1.7S199.1,0,198,0H78.5
	c-1.1,0-2,0.8-2,1.7C76.5,2.6,77.4,3.4,78.5,3.4z M51.9,3.4h13.6c1.1,0,2-0.8,2-1.7S66.7,0,65.6,0H51.9c-1.1,0-2,0.8-2,1.7
	C49.8,2.6,50.8,3.4,51.9,3.4z"/>
<path fill="#F9A628" d="M197.9,68.2h-77.4c-1.1,0-2,0.8-2,1.7c0,0.9,0.9,1.7,2,1.7h77.4c1.1,0,2-0.8,2-1.7
	C200.1,69,199.1,68.2,197.9,68.2z"/>
<path fill="#F9A628" d="M107.6,68.2H94c-1.1,0-2,0.8-2,1.7c0,0.9,0.9,1.7,2,1.7h13.6c1.1,0,2-0.8,2-1.7
	C109.7,69,108.7,68.2,107.6,68.2z"/>
</svg>
