<?xml version="1.0" encoding="utf-8"?>
<!-- Generator: Adobe Illustrator 18.0.0, SVG Export Plug-In . SVG Version: 6.00 Build 0)  -->
<!DOCTYPE svg PUBLIC "-//W3C//DTD SVG 1.1//EN" "http://www.w3.org/Graphics/SVG/1.1/DTD/svg11.dtd">
<svg version="1.1" id="Warstwa_1" xmlns="http://www.w3.org/2000/svg" xmlns:xlink="http://www.w3.org/1999/xlink" x="0px" y="0px"
	 viewBox="108 0 64 80" enable-background="new 108 0 64 80" xml:space="preserve">
<path fill="#D2D6DB" d="M164.9,20.4l3.5,3.5l-6.5,6.5l-3.9-3.5L164.9,20.4z"/>
<path fill="#C3C7CB" d="M166.8,22.3l1.6,1.6l-6.5,6.5l-2-1.6L166.8,22.3z"/>
<path fill="#E09426" d="M140,17.6c-4.9,0-8.8-3.9-8.8-8.8S135.1,0,140,0s8.8,3.9,8.8,8.8S144.9,17.6,140,17.6z M140,0.8
	c-4.4,0-8,3.6-8,8s3.6,8,8,8s8-3.6,8-8S144.4,0.8,140,0.8z"/>
<path fill="#D28B29" d="M140,0L140,0v0.8l0,0c4.4,0,8,3.6,8,8s-3.6,8-8,8l0,0v0.8l0,0c4.9,0,8.8-3.9,8.8-8.8C148.8,4,144.9,0,140,0z
	"/>
<path fill="#EB9A23" d="M136.8,12h6.4v9.2h-6.4V12z"/>
<path fill="#D78E28" d="M140,12h3.2v9.2H140V12z"/>
<path fill="#F9A628" d="M140,16c17.7,0,32,14.3,32,32s-14.3,32-32,32s-32-14.3-32-32S122.3,16,140,16z"/>
<path fill="#EF9E24" d="M140,16v64c17.7,0,32-14.3,32-32S157.7,16,140,16z"/>
<path fill="#FFFFFF" d="M140,21.2c15,0,27.2,12.2,27.2,27.2S155,75.6,140,75.6s-27.2-12.2-27.2-27.2S125,21.2,140,21.2z"/>
<path fill="#EDF0F2" d="M140,21.2v54.4c15,0,27.2-12.2,27.2-27.2S155,21.2,140,21.2z"/>
<path fill="#F9A628" d="M134.8,7.6h10.4c0.7,0,1.2,0.5,1.2,1.2V12c0,0.7-0.5,1.2-1.2,1.2h-10.4c-0.7,0-1.2-0.5-1.2-1.2V8.8
	C133.6,8.1,134.1,7.6,134.8,7.6z"/>
<path fill="#EF9E24" d="M145.2,7.6H140v5.6h5.2c0.7,0,1.2-0.5,1.2-1.2V8.8C146.4,8.1,145.9,7.6,145.2,7.6z"/>
<path fill="#FCBC5A" d="M145,12c-0.1,0-0.2-0.1-0.2-0.2V9c0-0.1,0.1-0.2,0.2-0.2s0.2,0.1,0.2,0.2v2.8C145.2,11.9,145.1,12,145,12z
	 M144.2,12c-0.1,0-0.2-0.1-0.2-0.2V9c0-0.1,0.1-0.2,0.2-0.2s0.2,0.1,0.2,0.2v2.8C144.4,11.9,144.3,12,144.2,12z M143.4,12
	c-0.1,0-0.2-0.1-0.2-0.2V9c0-0.1,0.1-0.2,0.2-0.2s0.2,0.1,0.2,0.2v2.8C143.6,11.9,143.5,12,143.4,12z M142.6,12
	c-0.1,0-0.2-0.1-0.2-0.2V9c0-0.1,0.1-0.2,0.2-0.2s0.2,0.1,0.2,0.2v2.8C142.8,11.9,142.7,12,142.6,12z M141.8,12
	c-0.1,0-0.2-0.1-0.2-0.2V9c0-0.1,0.1-0.2,0.2-0.2S142,8.9,142,9v2.8C142,11.9,141.9,12,141.8,12z M141,12c-0.1,0-0.2-0.1-0.2-0.2V9
	c0-0.1,0.1-0.2,0.2-0.2s0.2,0.1,0.2,0.2v2.8C141.2,11.9,141.1,12,141,12z M140.2,12c-0.1,0-0.2-0.1-0.2-0.2V9c0-0.1,0.1-0.2,0.2-0.2
	s0.2,0.1,0.2,0.2v2.8C140.4,11.9,140.3,12,140.2,12z M139.4,12c-0.1,0-0.2-0.1-0.2-0.2V9c0-0.1,0.1-0.2,0.2-0.2s0.2,0.1,0.2,0.2v2.8
	C139.6,11.9,139.5,12,139.4,12z M138.6,12c-0.1,0-0.2-0.1-0.2-0.2V9c0-0.1,0.1-0.2,0.2-0.2s0.2,0.1,0.2,0.2v2.8
	C138.8,11.9,138.7,12,138.6,12z M137.8,12c-0.1,0-0.2-0.1-0.2-0.2V9c0-0.1,0.1-0.2,0.2-0.2S138,8.9,138,9v2.8
	C138,11.9,137.9,12,137.8,12z M137,12c-0.1,0-0.2-0.1-0.2-0.2V9c0-0.1,0.1-0.2,0.2-0.2s0.2,0.1,0.2,0.2v2.8
	C137.2,11.9,137.1,12,137,12z M136.2,12c-0.1,0-0.2-0.1-0.2-0.2V9c0-0.1,0.1-0.2,0.2-0.2s0.2,0.1,0.2,0.2v2.8
	C136.4,11.9,136.3,12,136.2,12z M135.4,12c-0.1,0-0.2-0.1-0.2-0.2V9c0-0.1,0.1-0.2,0.2-0.2s0.2,0.1,0.2,0.2v2.8
	C135.6,11.9,135.5,12,135.4,12z M134.6,12c-0.1,0-0.2-0.1-0.2-0.2V9c0-0.1,0.1-0.2,0.2-0.2s0.2,0.1,0.2,0.2v2.8
	C134.8,11.9,134.7,12,134.6,12z"/>
<g>
	<g>
		<path fill="#D0D5D8" d="M139.8,23.2c-0.3,0-0.6,0.3-0.6,0.6V25c0,0.3,0.3,0.6,0.6,0.6s0.6-0.3,0.6-0.6v-1.2
			C140.4,23.5,140.1,23.2,139.8,23.2z M139.8,70.8c-0.3,0-0.6,0.3-0.6,0.6v1.2c0,0.3,0.3,0.6,0.6,0.6s0.6-0.3,0.6-0.6v-1.2
			C140.4,71.1,140.1,70.8,139.8,70.8z M116.6,47.6h-1.2c-0.3,0-0.6,0.3-0.6,0.6s0.3,0.6,0.6,0.6h1.2c0.3,0,0.6-0.3,0.6-0.6
			S116.9,47.6,116.6,47.6z M164.2,47.6h-1.6c-0.3,0-0.6,0.3-0.6,0.6s0.3,0.6,0.6,0.6h1.6c0.3,0,0.6-0.3,0.6-0.6
			S164.5,47.6,164.2,47.6z M156.6,30.5l-0.8,0.8c-0.2,0.2-0.2,0.6,0,0.8c0.2,0.2,0.6,0.2,0.8,0l0.8-0.8c0.2-0.2,0.2-0.6,0-0.8
			C157.2,30.3,156.9,30.3,156.6,30.5z M123,64.2l-0.8,0.8c-0.2,0.2-0.2,0.6,0,0.8c0.2,0.2,0.6,0.2,0.8,0l0.8-0.8
			c0.2-0.2,0.2-0.6,0-0.8C123.6,64,123.2,64,123,64.2z M123,30.5c-0.2-0.2-0.6-0.2-0.8,0c-0.2,0.2-0.2,0.6,0,0.8l0.8,0.8
			c0.2,0.2,0.6,0.2,0.8,0c0.2-0.2,0.2-0.6,0-0.8L123,30.5z M156.4,63.9c-0.2-0.2-0.6-0.2-0.8,0c-0.2,0.2-0.2,0.6,0,0.8l1.1,1.1
			c0.2,0.2,0.6,0.2,0.8,0s0.2-0.6,0-0.8L156.4,63.9z"/>
	</g>
</g>
<path fill="#DCE2E5" d="M165.4,16.9l6.4,6.4c0.3,0.3,0.3,0.8,0,1.1l-2.3,2.3c-0.3,0.3-0.8,0.3-1.1,0l-6.4-6.4
	c-0.3-0.3-0.3-0.8,0-1.1l2.3-2.3C164.6,16.6,165.1,16.6,165.4,16.9z"/>
<path fill="#CFD5D7" d="M168.7,20.2l-3.4,3.4l3.1,3.1c0.3,0.3,0.8,0.3,1.1,0l2.3-2.3c0.3-0.3,0.3-0.8,0-1.1L168.7,20.2z"/>
</svg>
