<?xml version="1.0" encoding="utf-8"?>
<!-- Generator: Adobe Illustrator 18.0.0, SVG Export Plug-In . SVG Version: 6.00 Build 0)  -->
<!DOCTYPE svg PUBLIC "-//W3C//DTD SVG 1.1//EN" "http://www.w3.org/Graphics/SVG/1.1/DTD/svg11.dtd">
<svg version="1.1" id="Warstwa_1" xmlns="http://www.w3.org/2000/svg" xmlns:xlink="http://www.w3.org/1999/xlink" x="0px" y="0px"
	 viewBox="0 0 133 130" enable-background="new 0 0 133 130" xml:space="preserve">
<path fill-rule="evenodd" clip-rule="evenodd" fill="#39444D" d="M65.3,77c0,0-9.7,0-29.7,0c-20,0-37.3,36-35.1,44.2
	c2.2,8.3,37.7,8.8,66.8,8.8c29.4,0,62.1,0.1,65.5-6c4.5-7.9-15.7-47-29.7-47C89.1,77,65.3,77,65.3,77z"/>
<path fill-rule="evenodd" clip-rule="evenodd" fill="#364149" d="M103.1,77c-12.2,0-31.7,0-36.7,0v53c0.3,0,0.6,0,0.8,0
	c29.4,0,62.1,0.1,65.5-6C137.4,116.1,117.2,77,103.1,77z"/>
<path fill-rule="evenodd" clip-rule="evenodd" fill="#FFFFFF" d="M50.5,77h35.2l-16.2,51.2h-2.7L50.5,77z"/>
<polygon fill-rule="evenodd" clip-rule="evenodd" fill="#F2F2F2" points="66.5,77 66.5,127.5 66.7,128.2 69.4,128.2 85.7,77 "/>
<path fill-rule="evenodd" clip-rule="evenodd" fill="#FFA826" d="M60.5,86h14l-5.6,6.3l5.6,16L68.9,127h-2.8l-5.6-18.7l5.6-16
	L60.5,86z"/>
<polygon fill-rule="evenodd" clip-rule="evenodd" fill="#F29F24" points="74.5,86 66.5,86 66.5,127 68.9,127 74.5,108.3 68.9,92.3 
	"/>
<path fill-rule="evenodd" clip-rule="evenodd" fill="#414B54" d="M92.9,88.1l-10.8,8.3l5.2,12.2L72.8,130l-4.3,0l0,0l-1.4,0l-1.6,0
	l0,0l-3.2,0l-16.7-23.5l6.7-10l-10.8-8.3L49.6,77L67,125.8l17.5-48.3L92.9,88.1z"/>
<polygon fill-rule="evenodd" clip-rule="evenodd" fill="#434D54" points="92.9,88.1 84.5,77.5 67,125.8 66.5,124.4 66.5,130 
	67.1,130 68.5,130 68.5,130 72.8,130 87.2,108.6 82.1,96.4 "/>
<path fill-rule="evenodd" clip-rule="evenodd" fill="#EFDA90" d="M103,45.7 M100.3,37.6c0,0,3.2-37.6-32.4-37.6
	C27.5,0,32.7,37.6,32.7,37.6S30,38.1,30,45.7c0,9.8,2.7,10.8,2.7,10.8S52.4,86,62.4,86c11.3,0-0.5,0,10.9,0c10,0,27-29.6,27-29.6
	s2.7-1,2.7-10.8C103,38.1,100.3,37.6,100.3,37.6"/>
<path fill-rule="evenodd" clip-rule="evenodd" fill="#E3CF89" d="M100.3,37.6L100.3,37.6c0,0,3.2-37.6-32.4-37.6c-0.5,0-0.9,0-1.3,0
	v86c0.9,0,1.2,0,1.3,0c0.1,0,0.1,0,0.1,0c0.2,0,1.3,0,5.4,0c10,0,27-29.6,27-29.6s2.7-1,2.7-10.8C103,38.1,100.3,37.6,100.3,37.6z"
	/>
<path fill-rule="evenodd" clip-rule="evenodd" fill="#4F4C40" d="M100.2,35.3c-3.4,0.2-5.7-4.3-8-5.4c-2.9-1.3-5.8,3.4-11,2.7
	c-9.4-1.3-8.8-6.2-13.7-5.4c-5,0.8-5.7,1.4-19.2,2.7c-4.1,0.4-3.1-6.1-5.5-5.4c-5.4,1.6-11,10.8-11,10.8l-0.4-0.4
	C31,26.3,32.9,0,67.2,0C97.9,0,100.2,27.2,100.2,35.3z"/>
<path fill-rule="evenodd" clip-rule="evenodd" fill="#4B483D" d="M67.2,0c-0.2,0-0.4,0-0.7,0v27.4c0.3-0.1,0.6-0.1,0.9-0.2
	c5-0.8,4.3,4,13.7,5.4c5.2,0.7,8.1-4,11-2.7c2.3,1.1,4.6,5.6,8,5.4C100.2,27.2,97.9,0,67.2,0z"/>
</svg>
