<?xml version="1.0" encoding="utf-8"?><svg id="feature4" image-rendering="auto" baseProfile="basic" version="1.1" x="0px" y="0px" width="188" height="188" xmlns="http://www.w3.org/2000/svg" xmlns:xlink="http://www.w3.org/1999/xlink"><g id="Scene-1" overflow="visible"><path fill="#786FE0" stroke="none" d="M184.95 115.2L188 115.2 188 60.65 .05 60.65 .05 115.2 3.05 115.2Q6.8 115.2 9.5 117.9 12.15 120.55 12.15 124.35 12.15 128.1 9.5 130.75 6.8 133.4 3.05 133.4L.05 133.4 .05 188 188 188 188 133.4 184.95 133.4Q181.25 133.4 178.55 130.75 175.9 128.1 175.9 124.35 175.9 120.55 178.55 117.9 181.2 115.2 184.95 115.2M181.95 109.5Q176.7 110.55 173.3 114.7 169.8 118.9 169.8 124.35 169.8 129.75 173.3 133.95 176.7 138.1 181.95 139.2L181.95 181.95 6.1 181.95 6.1 139.2Q11.3 138.1 14.75 133.95 18.2 129.75 18.2 124.35 18.2 118.9 14.75 114.7 11.3 110.55 6.1 109.5L6.1 66.7 36.4 66.7 36.4 109.15 30.35 109.15 30.35 139.5 36.4 139.5 36.4 145.55 30.35 145.55 30.35 175.85 157.7 175.85 157.7 145.55 151.6 145.55 151.6 139.5 157.7 139.5 157.7 109.15 151.6 109.15 151.6 66.7 181.95 66.7 181.95 109.5M72.8 121.3L66.7 121.3 66.7 133.4 60.65 133.4 60.65 121.3 54.6 121.3 54.6 133.4 48.55 133.4 48.55 121.3 42.45 121.3 42.45 133.4 36.4 133.4 36.4 115.2 81.95 115.2Q78.85 119.35 78.85 124.35 78.85 129.25 81.95 133.4L72.8 133.4 72.8 121.3M42.45 145.55L42.45 139.5 145.55 139.5 145.55 145.55 42.45 145.55M36.4 169.8L36.4 151.6 81.95 151.6Q78.85 155.75 78.85 160.7 78.85 165.65 81.95 169.8L72.8 169.8 72.8 157.65 66.7 157.65 66.7 169.8 60.65 169.8 60.65 157.65 54.6 157.65 54.6 169.8 48.55 169.8 48.55 157.65 42.45 157.65 42.45 169.8 36.4 169.8M133.4 121.3L127.35 121.3 127.35 133.4 121.3 133.4 121.3 121.3 115.25 121.3 115.25 133.4 106.05 133.4Q109.15 129.35 109.15 124.35 109.15 119.3 106.05 115.2L151.6 115.2 151.6 133.4 145.55 133.4 145.55 121.3 139.5 121.3 139.5 133.4 133.4 133.4 133.4 121.3M87.55 117.9Q90.25 115.2 94 115.2 97.8 115.2 100.45 117.9 103.1 120.55 103.1 124.35 103.1 128.1 100.45 130.75 97.8 133.4 94 133.4 90.25 133.4 87.55 130.75 84.9 128.1 84.9 124.35 84.9 120.55 87.55 117.9M121.3 169.8L121.3 157.65 115.25 157.65 115.25 169.8 106.05 169.8Q109.15 165.75 109.15 160.7 109.15 155.7 106.05 151.6L151.6 151.6 151.6 169.8 145.55 169.8 145.55 157.65 139.5 157.65 139.5 169.8 133.4 169.8 133.4 157.65 127.35 157.65 127.35 169.8 121.3 169.8M94 169.8Q90.25 169.8 87.55 167.15 84.9 164.45 84.9 160.7 84.9 156.95 87.55 154.3 90.25 151.6 94 151.6 97.8 151.6 100.45 154.3 103.1 156.95 103.1 160.7 103.1 164.45 100.45 167.15 97.8 169.8 94 169.8M145.55 109.15L42.45 109.15 42.45 66.7 145.55 66.7 145.55 109.15Z"/><path fill="#F555F0" stroke="none" d="M18.2 145.55L12.15 145.55 12.15 175.85 18.2 175.85 18.2 145.55M18.2 72.8L12.15 72.8 12.15 103.1 18.2 103.1 18.2 72.8M175.9 145.55L169.8 145.55 169.8 175.85 175.9 175.85 175.9 145.55M175.9 72.8L169.8 72.8 169.8 103.1 175.9 103.1 175.9 72.8Z"/><g display="none"><g id="s7" transform="translate(21.25 32.3)"><animateTransform attributeName="transform" additive="replace" type="translate" repeatCount="indefinite" dur="3.733s" keyTimes="0;.054;.134;1" values="21.25,32.3;21.25,32.3;21.25,27.3;21.25,27.3"/><animate attributeName="opacity" repeatCount="indefinite" dur="3.733s" keyTimes="0;.054;.134;.92899;.991;1" values="0;0;1;1;0;0"/><path fill="#F555F0" stroke="none" d="M-3.05 -3L-9.1 -3 -9.1 3.05 -3.05 3.05 -3.05 -3M3.05 9.1L3.05 3.05 -3.05 3.05 -3.05 9.1 3.05 9.1M3.05 -3L3.05 -9.1 -3.05 -9.1 -3.05 -3 3.05 -3M9.1 -3L3.05 -3 3.05 3.05 9.1 3.05 9.1 -3Z"/></g><animate attributeName="display" repeatCount="indefinite" dur="3.733s" keyTimes="0;.054;1" values="none;inline;inline"/></g><g display="none"><g id="s6" transform="translate(57.6 20.2)"><animateTransform attributeName="transform" additive="replace" type="translate" repeatCount="indefinite" dur="3.733s" keyTimes="0;.098;.179;1" values="57.6,20.2;57.6,20.2;57.6,15.2;57.6,15.2"/><animate attributeName="opacity" repeatCount="indefinite" dur="3.733s" keyTimes="0;.098;.179;.92899;.991;1" values="0;0;1;1;0;0"/><path fill="#F555F0" stroke="none" d="M-3 -3.05L-9.05 -3.05 -9.05 3 -3 3 -3 -3.05M3.05 9.1L3.05 3 -3 3 -3 9.1 3.05 9.1M9.1 -3.05L3.05 -3.05 3.05 3 9.1 3 9.1 -3.05M3.05 -3.05L3.05 -9.1 -3 -9.1 -3 -3.05 3.05 -3.05Z"/></g><animate attributeName="display" repeatCount="indefinite" dur="3.733s" keyTimes="0;.098;1" values="none;inline;inline"/></g><g display="none"><g id="s5" transform="translate(142.5 14.1)"><animateTransform attributeName="transform" additive="replace" type="translate" repeatCount="indefinite" dur="3.733s" keyTimes="0;.143;.223;1" values="142.5,14.1;142.5,14.1;142.5,9.1;142.5,9.1"/><animate attributeName="opacity" repeatCount="indefinite" dur="3.733s" keyTimes="0;.143;.223;.92899;.991;1" values="0;0;1;1;0;0"/><path fill="#F555F0" stroke="none" d="M-3 -3L-9.1 -3 -9.1 3.05 -3 3.05 -3 -3M3.05 9.1L3.05 3.05 -3 3.05 -3 9.1 3.05 9.1M3.05 -3L3.05 -9.1 -3 -9.1 -3 -3 3.05 -3M9.1 -3L3.05 -3 3.05 3.05 9.1 3.05 9.1 -3Z"/></g><animate attributeName="display" repeatCount="indefinite" dur="3.733s" keyTimes="0;.143;1" values="none;inline;inline"/></g><g display="none"><g id="s4" transform="translate(178.9 44.45)"><animateTransform attributeName="transform" additive="replace" type="translate" repeatCount="indefinite" dur="3.733s" keyTimes="0;.188;.268;1" values="178.9,44.45;178.9,44.45;178.9,39.45;178.9,39.45"/><animate attributeName="opacity" repeatCount="indefinite" dur="3.733s" keyTimes="0;.188;.268;.92899;.991;1" values="0;0;1;1;0;0"/><path fill="#F555F0" stroke="none" d="M-3 -3.05L-9.1 -3.05 -9.1 3 -3 3 -3 -3.05M3.05 9.1L3.05 3 -3 3 -3 9.1 3.05 9.1M9.1 -3.05L3.05 -3.05 3.05 3 9.1 3 9.1 -3.05M3.05 -3.05L3.05 -9.1 -3 -9.1 -3 -3.05 3.05 -3.05Z"/></g><animate attributeName="display" repeatCount="indefinite" dur="3.733s" keyTimes="0;.188;1" values="none;inline;inline"/></g><g id="thumpsup" transform="matrix(.997 -.082 .082 .997 86.7 54)"><animateTransform attributeName="transform" additive="replace" type="translate" repeatCount="indefinite" dur="3.733s" keyTimes="0;.063;.107;.143;.17;.92899;.991;1" values="46.995,71.804;53.09,66.826;53.118,66.737;52.993,66.814;53,66.7;53,66.7;46.995,71.804;46.995,71.804" keySplines=".5 0 .75 .5;0 0 1 1;0 0 1 1;0 0 1 1;.1 .1 .9 .9;0 0 1 1;.1 .1 .9 .9" calcMode="spline"/><animateTransform attributeName="transform" additive="sum" type="rotate" repeatCount="indefinite" dur="3.733s" keyTimes="0;.063;.107;.143;.17;.92899;.991;1" values="-4.706,0,0;4.927,0,0;2.157,0,0;3.44,0,0;0,0,0;0,0,0;-4.706,0,0;-4.706,0,0" keySplines=".5 0 .75 .5;0 0 1 1;0 0 1 1;0 0 1 1;.1 .1 .9 .9;0 0 1 1;.1 .1 .9 .9" calcMode="spline"/><animateTransform attributeName="transform" additive="sum" type="translate" repeatCount="indefinite" dur="3.733s" keyTimes="0;.063;.107;.143;.17;.92899;.991;1" values="41,-14.55;40.9,-14.55;40.8,-14.45;41,-14.5;41,-14.4;41,-14.4;41,-14.55;41,-14.55" keySplines=".5 0 .75 .5;0 0 1 1;0 0 1 1;0 0 1 1;.1 .1 .9 .9;0 0 1 1;.1 .1 .9 .9" calcMode="spline"/><path fill="#786FE0" stroke="none" d="M22.3 -20Q21.25 -21.1 21.25 -22.6L21.25 -37.1Q21.25 -42.75 17.25 -46.75 13.25 -50.75 7.6 -50.75 1.95 -50.75 -2.05 -46.75 -6.05 -42.75 -6.05 -37.1L-6.05 -26.05Q-6.05 -20.9 -9.6 -17.1 -13.1 -13.35 -18.2 -12.95 -18.2 -16.7 -20.9 -19.3 -23.55 -21.95 -27.3 -21.95L-54.55 -21.95Q-58.3 -21.95 -61 -19.3 -63.65 -16.6 -63.65 -12.85L-63.65 41.7Q-63.65 44.65 -61.95 47 -60.3 49.3 -57.6 50.25L-51.55 50.8 -27.3 50.8Q-23.5 50.8 -20.85 48.15 -18.2 45.5 -18.2 41.7L-14.55 41.7Q-12.75 41.7 -11.15 42.55 -9.6 43.4 -8.6 44.9 -6.7 47.7 -3.8 49.25 -.85 50.8 2.45 50.8L48.55 50.8Q49.95 50.8 51.55 50.5L57.6 47.8 57.55 47.8Q60.4 45.65 62 42.55 63.7 39.3 63.7 35.65L63.7 -3.75Q63.7 -10.05 59.25 -14.5 54.8 -18.95 48.55 -18.95L24.9 -18.95Q23.4 -18.95 22.3 -20M0 -26.05L0 -37.1Q0 -40.25 2.25 -42.45 4.45 -44.7 7.6 -44.7 10.75 -44.7 12.95 -42.45 15.15 -40.25 15.15 -37.1L15.15 -22.6Q15.15 -18.55 18 -15.7 20.9 -12.85 24.9 -12.85L48.55 -12.85Q52.3 -12.85 54.95 -10.2 57.6 -7.5 57.6 -3.75L57.6 35.65Q57.6 39.4 54.95 42.1 52.3 44.75 48.55 44.75L2.45 44.75Q.65 44.75 -.95 43.9 -2.55 43.05 -3.55 41.55 -5.35 38.75 -8.3 37.2 -11.2 35.65 -14.55 35.65L-18.2 35.65 -18.2 -6.85Q-10.55 -7.25 -5.3 -12.8 0 -18.4 0 -26.05M-57.6 -12.85Q-57.6 -14.15 -56.7 -15 -55.85 -15.9 -54.55 -15.9L-27.3 -15.9Q-26 -15.9 -25.15 -15 -24.25 -14.15 -24.25 -12.85L-24.25 41.7Q-24.25 42.95 -25.15 43.85 -26 44.75 -27.3 44.75L-54.55 44.75Q-55.85 44.75 -56.7 43.85 -57.6 42.95 -57.6 41.7L-57.6 -12.85Z"/><path fill="#FFF" stroke="none" d="M-56.7 -15Q-57.6 -14.15 -57.6 -12.85L-57.6 41.7Q-57.6 42.95 -56.7 43.85 -55.85 44.75 -54.55 44.75L-27.3 44.75Q-26 44.75 -25.15 43.85 -24.25 42.95 -24.25 41.7L-24.25 -12.85Q-24.25 -14.15 -25.15 -15 -26 -15.9 -27.3 -15.9L-54.55 -15.9Q-55.85 -15.9 -56.7 -15M-33.35 29.6Q-33.35 33.35 -36 36 -38.65 38.65 -42.45 38.65 -46.2 38.65 -48.9 36 -51.55 33.35 -51.55 29.6 -51.55 25.8 -48.9 23.15 -46.2 20.5 -42.45 20.5 -38.65 20.5 -36 23.15 -33.35 25.8 -33.35 29.6M-40.3 31.7Q-39.4 30.85 -39.4 29.6 -39.4 28.3 -40.3 27.45 -41.15 26.55 -42.45 26.55 -43.7 26.55 -44.55 27.45 -45.45 28.3 -45.45 29.6 -45.45 30.85 -44.55 31.7 -43.7 32.6 -42.45 32.6 -41.15 32.6 -40.3 31.7M0 -37.1L0 -26.05Q0 -18.4 -5.3 -12.8 -10.55 -7.25 -18.2 -6.85L-18.2 35.65 -14.55 35.65Q-11.2 35.65 -8.3 37.2 -5.35 38.75 -3.55 41.55 -2.55 43.05 -.95 43.9 .65 44.75 2.45 44.75L48.55 44.75Q52.3 44.75 54.95 42.1 57.6 39.4 57.6 35.65L57.6 -3.75Q57.6 -7.5 54.95 -10.2 52.3 -12.85 48.55 -12.85L24.9 -12.85Q20.9 -12.85 18 -15.7 15.15 -18.55 15.15 -22.6L15.15 -37.1Q15.15 -40.25 12.95 -42.45 10.75 -44.7 7.6 -44.7 4.45 -44.7 2.25 -42.45 0 -40.25 0 -37.1Z"/><path fill="#F555F0" stroke="none" d="M-36 36Q-33.35 33.35 -33.35 29.6 -33.35 25.8 -36 23.15 -38.65 20.5 -42.45 20.5 -46.2 20.5 -48.9 23.15 -51.55 25.8 -51.55 29.6 -51.55 33.35 -48.9 36 -46.2 38.65 -42.45 38.65 -38.65 38.65 -36 36M-39.4 29.6Q-39.4 30.85 -40.3 31.7 -41.15 32.6 -42.45 32.6 -43.7 32.6 -44.55 31.7 -45.45 30.85 -45.45 29.6 -45.45 28.3 -44.55 27.45 -43.7 26.55 -42.45 26.55 -41.15 26.55 -40.3 27.45 -39.4 28.3 -39.4 29.6Z"/></g></g></svg>