<?xml version="1.0" encoding="utf-8"?><svg id="feature2" image-rendering="auto" baseProfile="basic" version="1.1" x="0px" y="0px" width="188" height="188" xmlns="http://www.w3.org/2000/svg" xmlns:xlink="http://www.w3.org/1999/xlink"><g id="Scene-1" overflow="visible"><g id="d29" transform="translate(111.9 142.15)"><animateTransform attributeName="transform" additive="replace" type="translate" repeatCount="indefinite" dur="1.3s" keyTimes="0;.359;.744;1" values="111.9,142.15;111.9,145.485;111.9,142.15;111.9,142.15"/><animateTransform attributeName="transform" additive="sum" type="scale" repeatCount="indefinite" dur="1.3s" keyTimes="0;.359;.744;1" values="1,1;1,.846;1,1;1,1"/><animateTransform attributeName="transform" additive="sum" type="translate" repeatCount="indefinite" dur="1.3s" keyTimes="0;.359;.744;1" values="0,0;0,-.1;0,0;0,0"/><path fill="#786FE0" stroke="none" d="M3.05 -21.15L-3 -21.15 -3 21.2 3.05 21.2 3.05 -21.15Z"/></g><g id="d28" transform="translate(99.8 142.15)"><animateTransform attributeName="transform" additive="replace" type="translate" repeatCount="indefinite" dur="1.3s" keyTimes="0;.23099;.59;.974;1" values="99.8,142.15;99.8,142.15;99.85,145.737;99.8,142.15;99.8,142.15"/><animateTransform attributeName="transform" additive="sum" type="scale" repeatCount="indefinite" dur="1.3s" keyTimes="0;.23099;.59;.974;1" values="1,1;1,1;1,.871;1,1;1,1"/><animateTransform attributeName="transform" additive="sum" type="translate" repeatCount="indefinite" dur="1.3s" keyTimes="0;.23099;.59;.974;1" values="0,0;0,0;-.1,-.1;0,0;0,0"/><path fill="#786FE0" stroke="none" d="M3.05 -27.2L-3 -27.2 -3 27.25 3.05 27.25 3.05 -27.2Z"/></g><g id="d27" transform="translate(87.7 139.15)"><animateTransform attributeName="transform" additive="replace" type="translate" repeatCount="indefinite" dur="1.3s" keyTimes="0;.12799;.487;.872;1" values="87.7,139.15;87.7,139.15;87.7,141.539;87.7,139.15;87.7,139.15"/><animateTransform attributeName="transform" additive="sum" type="scale" repeatCount="indefinite" dur="1.3s" keyTimes="0;.12799;.487;.872;1" values="1,1;1,1;1,.926;1,1;1,1"/><animateTransform attributeName="transform" additive="sum" type="translate" repeatCount="indefinite" dur="1.3s" keyTimes="0;.12799;.487;.872;1" values="0,0;0,0;0,-.15;0,0;0,0"/><path fill="#786FE0" stroke="none" d="M3.05 -30.25L-3 -30.25 -3 30.25 3.05 30.25 3.05 -30.25Z"/></g><g id="d26" transform="translate(75.6 139.15)"><animateTransform attributeName="transform" additive="replace" type="translate" repeatCount="indefinite" dur="1.3s" keyTimes="0;.05099;.41;.795;1" values="75.6,139.15;75.6,139.15;75.6,142.144;75.6,139.15;75.6,139.15"/><animateTransform attributeName="transform" additive="sum" type="scale" repeatCount="indefinite" dur="1.3s" keyTimes="0;.05099;.41;.795;1" values="1,1;1,1;1,.876;1,1;1,1"/><animateTransform attributeName="transform" additive="sum" type="translate" repeatCount="indefinite" dur="1.3s" keyTimes="0;.05099;.41;.795;1" values="0,0;0,0;0,-.05;0,0;0,0"/><path fill="#786FE0" stroke="none" d="M3.05 -24.2L-3 -24.2 -3 24.2 3.05 24.2 3.05 -24.2Z"/></g><g><g id="d25" transform="translate(111.9 106.9)"><animateTransform attributeName="transform" additive="replace" type="translate" repeatCount="indefinite" dur="1.3s" keyTimes="0;.359;.692;1" values="111.9,106.9;111.9,111.9;111.9,116.9;111.9,116.9"/><animate attributeName="opacity" repeatCount="indefinite" dur="1.3s" keyTimes="0;.359;.692;1" values="0;1;0;0"/><path fill="#F555F0" stroke="none" d="M3.05 -3L-3 -3 -3 3.05 3.05 3.05 3.05 -3Z"/></g><animate attributeName="display" repeatCount="indefinite" dur="1.3s" keyTimes="0;.718;1" values="inline;none;none"/></g><g display="none"><g id="d24" transform="translate(99.8 100.85)"><animateTransform attributeName="transform" additive="replace" type="translate" repeatCount="indefinite" dur="1.3s" keyTimes="0;.179;.538;.872;1" values="99.8,100.85;99.8,100.85;99.8,105.85;99.8,110.85;99.8,110.85"/><animate attributeName="opacity" repeatCount="indefinite" dur="1.3s" keyTimes="0;.179;.538;.872;1" values="0;0;1;0;0"/><path fill="#F555F0" stroke="none" d="M3.05 -3L-3 -3 -3 3.05 3.05 3.05 3.05 -3Z"/></g><animate attributeName="display" repeatCount="indefinite" dur="1.3s" keyTimes="0;.179;.897;1" values="none;inline;none;none"/></g><g display="none"><g id="d23" transform="translate(87.7 94.8)"><animateTransform attributeName="transform" additive="replace" type="translate" repeatCount="indefinite" dur="1.3s" keyTimes="0;.077;.436;.769;1" values="87.7,94.8;87.7,94.8;87.7,99.8;87.7,104.8;87.7,104.8"/><animate attributeName="opacity" repeatCount="indefinite" dur="1.3s" keyTimes="0;.077;.436;.769;1" values="0;0;1;0;0"/><path fill="#F555F0" stroke="none" d="M3.05 -3L-3 -3 -3 3.05 3.05 3.05 3.05 -3Z"/></g><animate attributeName="display" repeatCount="indefinite" dur="1.3s" keyTimes="0;.077;.795;1" values="none;inline;none;none"/></g><g display="none"><g id="d22" transform="translate(75.6 100.85)"><animateTransform attributeName="transform" additive="replace" type="translate" repeatCount="indefinite" dur="1.3s" keyTimes="0;.026;.385;.718;1" values="75.6,100.85;75.6,100.85;75.6,105.85;75.6,110.85;75.6,110.85"/><animate attributeName="opacity" repeatCount="indefinite" dur="1.3s" keyTimes="0;.026;.385;.718;1" values="0;0;1;0;0"/><path fill="#F555F0" stroke="none" d="M3.05 -3L-3 -3 -3 3.05 3.05 3.05 3.05 -3Z"/></g><animate attributeName="display" repeatCount="indefinite" dur="1.3s" keyTimes="0;.026;.744;1" values="none;inline;none;none"/></g><g display="none"><g id="d21" transform="translate(99.8 88.75)"><animateTransform attributeName="transform" additive="replace" type="translate" repeatCount="indefinite" dur="1.3s" keyTimes="0;.282;.641;.974;1" values="99.8,88.75;99.8,88.75;99.8,93.75;99.8,98.75;99.8,98.75"/><animate attributeName="opacity" repeatCount="indefinite" dur="1.3s" keyTimes="0;.282;.641;.974;1" values="0;0;1;0;0"/><path fill="#F555F0" stroke="none" d="M3.05 -3L-3 -3 -3 3.05 3.05 3.05 3.05 -3Z"/></g><animate attributeName="display" repeatCount="indefinite" dur="1.3s" keyTimes="0;.282;1" values="none;inline;inline"/></g><g display="none"><g id="d20" transform="translate(117.95 73.6)"><animateTransform attributeName="transform" additive="replace" type="translate" repeatCount="indefinite" dur="1.3s" keyTimes="0;.231;.59;.923;1" values="117.95,73.6;117.95,73.6;117.95,78.6;117.95,83.6;117.95,83.6"/><animate attributeName="opacity" repeatCount="indefinite" dur="1.3s" keyTimes="0;.231;.59;.923;1" values="0;0;1;0;0"/><path fill="#F555F0" stroke="none" d="M3.05 -3L-3 -3 -3 3.05 3.05 3.05 3.05 -3Z"/></g><animate attributeName="display" repeatCount="indefinite" dur="1.3s" keyTimes="0;.231;.949;1" values="none;inline;none;none"/></g><g display="none"><g id="d19" transform="translate(111.9 67.6)"><animateTransform attributeName="transform" additive="replace" type="translate" repeatCount="indefinite" dur="1.3s" keyTimes="0;.128;.487;.821;1" values="111.9,67.6;111.9,67.6;111.9,72.6;111.9,77.6;111.9,77.6"/><animate attributeName="opacity" repeatCount="indefinite" dur="1.3s" keyTimes="0;.128;.487;.821;1" values="0;0;1;0;0"/><path fill="#F555F0" stroke="none" d="M3.05 -3L-3 -3 -3 3 3.05 3 3.05 -3Z"/></g><animate attributeName="display" repeatCount="indefinite" dur="1.3s" keyTimes="0;.128;.846;1" values="none;inline;none;none"/></g><g display="none"><g id="d18" transform="translate(117.95 61.55)"><animateTransform attributeName="transform" additive="replace" type="translate" repeatCount="indefinite" dur="1.3s" keyTimes="0;.051;.41;.744;1" values="117.95,61.55;117.95,61.55;117.95,66.55;117.95,71.55;117.95,71.55"/><animate attributeName="opacity" repeatCount="indefinite" dur="1.3s" keyTimes="0;.051;.41;.744;1" values="0;0;1;0;0"/><path fill="#F555F0" stroke="none" d="M3.05 -3.05L-3 -3.05 -3 3.05 3.05 3.05 3.05 -3.05Z"/></g><animate attributeName="display" repeatCount="indefinite" dur="1.3s" keyTimes="0;.051;.769;1" values="none;inline;none;none"/></g><g display="none"><g id="d17" transform="translate(69.55 73.6)"><animateTransform attributeName="transform" additive="replace" type="translate" repeatCount="indefinite" dur="1.3s" keyTimes="0;.077;.436;.769;1" values="69.55,73.6;69.55,73.6;69.55,78.6;69.55,83.6;69.55,83.6"/><animate attributeName="opacity" repeatCount="indefinite" dur="1.3s" keyTimes="0;.077;.436;.769;1" values="0;0;1;0;0"/><path fill="#F555F0" stroke="none" d="M3.05 -3L-3 -3 -3 3.05 3.05 3.05 3.05 -3Z"/></g><animate attributeName="display" repeatCount="indefinite" dur="1.3s" keyTimes="0;.077;.795;1" values="none;inline;none;none"/></g><g display="none"><g id="d16" transform="translate(75.6 67.6)"><animateTransform attributeName="transform" additive="replace" type="translate" repeatCount="indefinite" dur="1.3s" keyTimes="0;.282;.641;.974;1" values="75.6,67.6;75.6,67.6;75.6,72.6;75.6,77.6;75.6,77.6"/><animate attributeName="opacity" repeatCount="indefinite" dur="1.3s" keyTimes="0;.282;.641;.974;1" values="0;0;1;0;0"/><path fill="#F555F0" stroke="none" d="M3.05 -3L-3 -3 -3 3 3.05 3 3.05 -3Z"/></g><animate attributeName="display" repeatCount="indefinite" dur="1.3s" keyTimes="0;.282;1" values="none;inline;inline"/></g><g display="none"><g id="d15" transform="translate(69.55 61.55)"><animateTransform attributeName="transform" additive="replace" type="translate" repeatCount="indefinite" dur="1.3s" keyTimes="0;.026;.385;.718;1" values="69.55,61.55;69.55,61.55;69.55,66.55;69.55,71.55;69.55,71.55"/><animate attributeName="opacity" repeatCount="indefinite" dur="1.3s" keyTimes="0;.026;.385;.718;1" values="0;0;1;0;0"/><path fill="#F555F0" stroke="none" d="M3.05 -3.05L-3 -3.05 -3 3.05 3.05 3.05 3.05 -3.05Z"/></g><animate attributeName="display" repeatCount="indefinite" dur="1.3s" keyTimes="0;.026;.744;1" values="none;inline;none;none"/></g><path fill="#786FE0" stroke="none" d="M66.55 121L60.5 121 60.5 157.3 40.05 157.3 93.8 188 147.55 157.3 127.05 157.3 127.05 114.95 121 114.95 121 163.35 124.75 163.35 93.8 181.05 62.8 163.35 66.55 163.35 66.55 121M181.5 30.25L181.5 145.2 133.1 145.2 133.1 151.25 187.55 151.25 187.55 0 0 0 0 151.25 54.45 151.25 54.45 145.2 6.05 145.2 6.05 30.25 181.5 30.25M181.5 6.05L181.5 24.2 6.05 24.2 6.05 6.05 181.5 6.05M30.25 12.1L12.1 12.1 12.1 18.15 30.25 18.15 30.25 12.1M42.35 18.15L42.35 12.1 36.3 12.1 36.3 18.15 42.35 18.15Z"/><path fill="#F555F0" stroke="none" d="M164.8 98.25Q169.85 93.25 172.6 86.7 175.45 79.95 175.45 72.6 175.45 65.25 172.6 58.5 169.85 51.95 164.8 46.95 159.8 41.95 153.25 39.15 146.5 36.3 139.15 36.3L138.75 36.3Q131.1 36.3 124.1 39.45 117.05 42.55 111.9 48.2L93.8 68.1 75.65 48.2Q70.55 42.55 63.5 39.45 56.45 36.3 48.8 36.3L48.4 36.3Q41.05 36.3 34.3 39.15 27.8 41.95 22.75 46.95 17.75 51.95 14.95 58.5 12.1 65.25 12.1 72.6 12.1 79.95 14.95 86.7 17.75 93.25 22.75 98.25 27.8 103.25 34.3 106.05 41.05 108.9 48.4 108.9L48.8 108.9Q56.45 108.9 63.5 105.8 70.55 102.7 75.65 97.05L93.8 77.1 111.9 97.05Q117.05 102.7 124.1 105.8 131.1 108.9 138.75 108.9L139.15 108.9Q146.5 108.9 153.25 106.05 159.8 103.25 164.8 98.25M126.55 44.95Q132.4 42.4 138.75 42.4L139.15 42.4Q151.65 42.4 160.55 51.25 169.4 60.1 169.4 72.6 169.4 85.1 160.55 93.95 151.65 102.85 139.15 102.85L138.75 102.85Q132.4 102.85 126.5 100.25 120.65 97.65 116.35 92.95L97.85 72.6 116.35 52.25Q120.7 47.55 126.55 44.95M48.4 42.4L48.8 42.4Q55.2 42.4 61.05 44.95 66.9 47.55 71.2 52.25L89.7 72.6 71.2 92.95Q66.9 97.65 61.05 100.25 55.2 102.85 48.8 102.85L48.4 102.85Q35.9 102.85 27 93.95 18.15 85.1 18.15 72.6 18.15 60.1 27 51.25 35.9 42.4 48.4 42.4Z"/></g></svg>