<?xml version="1.0" encoding="utf-8"?><svg id="feature3" image-rendering="auto" baseProfile="basic" version="1.1" x="0px" y="0px" width="188" height="188" xmlns="http://www.w3.org/2000/svg" xmlns:xlink="http://www.w3.org/1999/xlink"><g id="Scene-1" overflow="visible"><path fill="#786FE0" stroke="none" d="M0 48.55L6.1 48.55 6.1 63.7 0 63.7 0 112.2 6.1 112.2 6.1 127.35 0 127.35 0 175.9 6.1 175.9 6.1 188 48.55 188 48.55 175.9 97.05 175.9 97.05 188 139.5 188 139.5 175.9 145.6 175.9 145.6 0 0 0 0 48.55M109.2 6.15L103.1 6.15 103.1 42.45 88.8 42.45Q92.65 39.05 94.8 34.4 97.05 29.6 97.05 24.3 97.05 18.95 94.8 14.15 92.65 9.5 88.8 6.1L139.5 6.1 139.5 106.15 133.45 106.15 133.45 83.05 127.4 83.05 127.4 106.15 121.3 106.15 121.3 83.05 115.25 83.05 115.25 106.15 109.2 106.15 109.2 83.05 103.1 83.05 103.1 106.15 88.8 106.15Q92.65 102.7 94.8 98.1 97.05 93.3 97.05 87.95 97.05 82.6 94.8 77.8 92.65 73.15 88.8 69.75L139.45 69.75 139.45 63.7 12.15 63.7 12.15 48.55 109.2 48.55 109.2 6.15M85.65 11.4Q91 16.75 91 24.3 91 31.8 85.65 37.15 80.3 42.45 72.8 42.45 65.25 42.45 59.95 37.15 54.6 31.8 54.6 24.3 54.6 16.75 59.95 11.4 65.25 6.1 72.8 6.1 80.35 6.1 85.65 11.4M85.65 75.1Q91 80.4 91 87.95 91 95.45 85.65 100.8 80.3 106.15 72.8 106.15 65.25 106.15 59.95 100.8 54.6 95.45 54.6 87.95 54.6 80.4 59.95 75.1 65.25 69.75 72.8 69.75 80.3 69.75 85.65 75.1M56.8 6.1Q52.95 9.5 50.75 14.15 48.55 18.95 48.55 24.3 48.55 29.6 50.75 34.4 52.95 39.05 56.8 42.45L42.45 42.45 42.45 18.2 36.4 18.2 36.4 42.45 30.35 42.45 30.35 18.2 24.25 18.2 24.25 42.45 18.2 42.45 18.2 18.2 12.15 18.2 12.15 42.45 6.1 42.45 6.1 6.1 56.8 6.1M30.35 81.9L24.25 81.9 24.25 106.15 18.2 106.15 18.2 81.9 12.15 81.9 12.15 106.15 6.1 106.15 6.1 69.75 56.8 69.75Q52.95 73.15 50.75 77.8 48.55 82.6 48.55 87.95 48.55 93.3 50.75 98.1 52.95 102.7 56.8 106.15L42.45 106.15 42.45 81.9 36.4 81.9 36.4 106.15 30.35 106.15 30.35 81.9M56.8 133.45Q52.95 136.85 50.75 141.5 48.55 146.3 48.55 151.6 48.55 156.95 50.75 161.75 52.95 166.4 56.8 169.8L42.45 169.8 42.45 145.55 36.4 145.55 36.4 169.8 30.35 169.8 30.35 145.55 24.25 145.55 24.25 169.8 18.2 169.8 18.2 145.55 12.15 145.55 12.15 169.8 6.1 169.8 6.1 133.45 56.8 133.45M59.95 138.75Q65.25 133.45 72.8 133.45 80.3 133.45 85.65 138.75 91 144.1 91 151.6 91 159.15 85.65 164.45 80.3 169.8 72.8 169.8 65.25 169.8 59.95 164.45 54.6 159.15 54.6 151.6 54.6 144.1 59.95 138.75M12.15 127.35L12.15 112.2 139.5 112.2 139.5 127.35 12.15 127.35M12.15 181.95L12.15 175.9 42.45 175.9 42.45 181.95 12.15 181.95M133.45 145.55L127.4 145.55 127.4 169.8 121.3 169.8 121.3 145.55 115.25 145.55 115.25 169.8 109.2 169.8 109.2 145.55 103.1 145.55 103.1 169.8 88.8 169.8Q92.65 166.4 94.8 161.75 97.05 156.95 97.05 151.6 97.05 146.3 94.8 141.5 92.65 136.85 88.8 133.45L139.5 133.45 139.5 169.8 133.45 169.8 133.45 145.55M103.1 181.95L103.1 175.9 133.45 175.9 133.45 181.95 103.1 181.95Z"/><g id="lock" transform="translate(145.55 72.8)"><animateTransform attributeName="transform" additive="replace" type="translate" repeatCount="indefinite" dur="4.667s" keyTimes="0;.1;.129;.157;.186;.221;.307;1" values="145.6,17.3;145.658,17.393;147.776,14.412;145.629,17.405;147.226,15.94;145.167,17.961;145.6,17.3;145.6,17.3" keySplines=".5 0 .75 .5;.25 .5 .5 1;.5 0 .75 .5;.065 0 .533 .5;.25 .5 .5 1;.5 0 .75 .5;.1 .1 .9 .9" calcMode="spline"/><animateTransform attributeName="transform" additive="sum" type="rotate" repeatCount="indefinite" dur="4.667s" keyTimes="0;.1;.129;.157;.186;.221;.307;1" values="0,0,0;22.741,0,0;19.771,0,0;24.979,0,0;20.975,0,0;27.204,0,0;0,0,0;0,0,0" keySplines=".5 0 .75 .5;.25 .5 .5 1;.5 0 .75 .5;.065 0 .533 .5;.25 .5 .5 1;.5 0 .75 .5;.1 .1 .9 .9" calcMode="spline"/><animateTransform attributeName="transform" additive="sum" type="scale" repeatCount="indefinite" dur="4.667s" keyTimes="0;.1;.221;.307;1" values="1,1;1,.999;1,.999;1,1;1,1" keySplines=".5 0 .75 .5;.25 .5 .5 1;.5 0 .75 .5;.1 .1 .9 .9" calcMode="spline"/><animateTransform attributeName="transform" additive="sum" type="translate" repeatCount="indefinite" dur="4.667s" keyTimes="0;.1;.129;.157;.186;.221;.307;1" values="-.05,55.5;-.2,55.45;-.25,55.45;-.15,55.4;-.3,55.45;-.25,55.4;-.05,55.5;-.05,55.5" keySplines=".5 0 .75 .5;.25 .5 .5 1;.5 0 .75 .5;.065 0 .533 .5;.25 .5 .5 1;.5 0 .75 .5;.1 .1 .9 .9" calcMode="spline"/><path fill="#786FE0" stroke="none" d="M25.75 -56.05Q20.7 -61.1 14.15 -63.85 7.4 -66.7 .05 -66.7L-6.05 -66.15Q-19.05 -63.95 -27.65 -53.9 -36.1 -44 -36.35 -31.1L-36.35 -15.15 -42.45 -15.15 -42.45 66.7 42.45 66.7 42.45 -15.15 36.4 -15.15 36.4 -30.35Q36.4 -37.7 33.55 -44.45 30.8 -51 25.75 -56.05M.05 -60.65Q12.55 -60.65 21.45 -51.75 30.35 -42.85 30.35 -30.35L30.35 -15.15 21.25 -15.15 21.25 -30.35Q21.25 -39.1 15.05 -45.35 8.8 -51.55 .05 -51.55 -8.75 -51.55 -15 -45.35 -21.2 -39.1 -21.2 -30.35L-21.2 -15.15 -30.3 -15.15 -30.3 -30.35Q-30.3 -42.85 -21.4 -51.75 -12.55 -60.65 .05 -60.65M.05 -45.5Q6.3 -45.5 10.75 -41 15.15 -36.6 15.15 -30.35L15.15 -15.15 -15.15 -15.15 -15.15 -30.35Q-15.15 -36.6 -10.7 -41 -6.25 -45.5 .05 -45.5M36.4 -9.1L36.4 60.65 -36.35 60.65 -36.35 -9.1 36.4 -9.1Z"/><path fill="#FFF" stroke="none" d="M36.4 60.65L36.4 -9.1 -36.35 -9.1 -36.35 60.65 36.4 60.65M3.05 26.95L3.05 48.5 -3.05 48.5 -3.05 26.95Q-7.8 25.85 -11.35 21.75 -15.15 17.4 -15.15 12.1 -15.15 5.85 -10.7 1.4 -6.25 -3.05 .05 -3.05 6.3 -3.05 10.75 1.4 15.15 5.85 15.15 12.1 15.15 17.55 11.7 21.75 8.3 25.9 3.05 26.95M6.45 5.7Q3.8 3.05 .05 3.05 -3.75 3.05 -6.4 5.7 -9.1 8.35 -9.1 12.1 -9.1 15.9 -6.4 18.55 -3.75 21.25 .05 21.25 3.8 21.25 6.45 18.55 9.1 15.9 9.1 12.1 9.1 8.4 6.45 5.7M21.45 -51.75Q12.55 -60.65 .05 -60.65 -12.55 -60.65 -21.4 -51.75 -30.3 -42.85 -30.3 -30.35L-30.3 -15.15 -21.2 -15.15 -21.2 -30.35Q-21.2 -39.1 -15 -45.35 -8.75 -51.55 .05 -51.55 8.8 -51.55 15.05 -45.35 21.25 -39.1 21.25 -30.35L21.25 -15.15 30.35 -15.15 30.35 -30.35Q30.35 -42.85 21.45 -51.75Z"/><path fill="#F555F0" stroke="none" d="M3.05 48.5L3.05 26.95Q8.3 25.9 11.7 21.75 15.15 17.55 15.15 12.1 15.15 5.85 10.75 1.4 6.3 -3.05 .05 -3.05 -6.25 -3.05 -10.7 1.4 -15.15 5.85 -15.15 12.1 -15.15 17.4 -11.35 21.75 -7.8 25.85 -3.05 26.95L-3.05 48.5 3.05 48.5M.05 3.05Q3.8 3.05 6.45 5.7 9.1 8.4 9.1 12.1 9.1 15.9 6.45 18.55 3.8 21.25 .05 21.25 -3.75 21.25 -6.4 18.55 -9.1 15.9 -9.1 12.1 -9.1 8.35 -6.4 5.7 -3.75 3.05 .05 3.05Z"/></g></g></svg>