<?xml version="1.0" encoding="utf-8"?><svg id="feature1" image-rendering="auto" baseProfile="basic" version="1.1" x="0px" y="0px" width="188" height="188" xmlns="http://www.w3.org/2000/svg" xmlns:xlink="http://www.w3.org/1999/xlink"><g id="Scene-1" overflow="visible"><path fill="#786FE0" stroke="none" d="M42.45 145.55L145.55 145.55 145.55 42.45 42.45 42.45 42.45 145.55M127.35 60.65L127.35 54.6 48.5 54.6 48.5 48.5 139.45 48.5 139.45 54.6 133.4 54.6 133.4 60.65 139.45 60.65 139.45 139.45 48.5 139.45 48.5 60.65 127.35 60.65Z"/><path fill="#F555F0" stroke="none" d="M94 66.7Q87.2 66.7 81 69.3 75.05 71.85 70.4 76.45 65.8 81.1 63.25 87.05 60.6 93.3 60.6 100.05 60.6 106.85 63.25 113 65.8 119 70.4 123.65 75.05 128.25 81 130.8 87.2 133.4 94 133.4 100.75 133.4 106.95 130.8 112.95 128.25 117.55 123.65 122.15 119 124.7 113 127.35 106.85 127.35 100.05 127.35 93.3 124.7 87.05 122.15 81.1 117.55 76.45 112.95 71.85 106.95 69.3 100.75 66.7 94 66.7M97 84.8L97 76.55Q100.1 79.9 102.35 84.2 99.65 84.65 97 84.8M90.95 84.8Q88.3 84.65 85.65 84.2 87.85 79.9 90.95 76.55L90.95 84.8M90.95 90.9L90.95 97.05 82 97.05Q82.3 93.35 83.3 90 87.15 90.7 90.95 90.9M97 97.05L97 90.9Q100.8 90.7 104.65 90 105.65 93.4 105.95 97.05L97 97.05M113.45 81Q111.2 82.05 108.4 82.85 106.3 78.3 103.1 74.35 109.1 76.5 113.45 81M112.05 97.05Q111.7 92.5 110.55 88.55 114.2 87.45 117.3 85.9 120.45 91.15 121.1 97.05L112.05 97.05M79.55 82.85Q76.85 82.05 74.5 81 78.9 76.5 84.85 74.35 81.65 78.35 79.55 82.85M70.7 85.9Q73.75 87.45 77.4 88.55 76.25 92.5 75.95 97.05L66.85 97.05Q67.55 91.1 70.7 85.9M74.5 119.1Q77 118 79.55 117.2 81.65 121.75 84.85 125.75 78.95 123.65 74.5 119.1M66.85 103.1L75.95 103.1Q76.25 107.65 77.4 111.55 73.65 112.7 70.7 114.2 67.55 109.05 66.85 103.1M105.95 103.1Q105.7 106.55 104.65 110.1 100.8 109.4 97 109.2L97 103.1 105.95 103.1M121.1 103.1Q120.45 109 117.3 114.2 114.35 112.7 110.55 111.55 111.7 107.65 112.05 103.1L121.1 103.1M108.4 117.25Q111.15 118.05 113.45 119.1 109.05 123.65 103.1 125.75 106.3 121.8 108.4 117.25M83.3 110.1Q82.35 106.8 82 103.1L90.95 103.1 90.95 109.2Q87.15 109.4 83.3 110.1M90.95 123.6Q87.8 120.1 85.65 115.85 88 115.5 90.95 115.3L90.95 123.6M97 123.6L97 115.3Q99.95 115.5 102.35 115.85 100.15 120.1 97 123.6Z"/><g id="circle" transform="translate(94 94)"><animateTransform attributeName="transform" additive="replace" type="translate" repeatCount="indefinite" dur="16.667s" keyTimes="0;.998;1" values="94,94;94.053,94.048;94.053,94.048"/><animateTransform attributeName="transform" additive="sum" type="rotate" repeatCount="indefinite" dur="16.667s" keyTimes="0;.998;1" values="0,0,0;178.516,0,0;178.516,0,0"/><animateTransform attributeName="transform" additive="sum" type="translate" repeatCount="indefinite" dur="16.667s" keyTimes="0;.998;1" values="0,0;.1,.15;.1,.15"/><path fill="#786FE0" stroke="none" d="M-81.9 -12.15Q-86.9 -12.15 -90.45 -8.6 -94 -5.05 -94 -.05 -94 4.4 -91.15 7.8 -88.3 11.15 -84 11.9 -80.45 36.95 -63.5 56.2 -46.5 75.45 -22 82L-20.45 76.15Q-43.1 70.1 -58.85 52.3 -74.55 34.55 -77.95 11.4 -74.3 10.15 -72.05 7.05 -69.75 3.9 -69.75 -.05 -69.75 -5.05 -73.3 -8.6 -76.85 -12.15 -81.9 -12.15M-87.95 -.05Q-87.95 -2.55 -86.15 -4.3 -84.4 -6.1 -81.9 -6.1 -79.4 -6.1 -77.6 -4.3 -75.8 -2.55 -75.8 -.05 -75.8 2.5 -77.6 4.25 -79.35 6.05 -81.9 6.05 -84.4 6.05 -86.15 4.25 -87.95 2.5 -87.95 -.05M22 -82L20.45 -76.15Q43.05 -70.1 58.85 -52.3 74.55 -34.55 77.9 -11.45 74.3 -10.2 72.05 -7.1 69.75 -3.95 69.75 -.05 69.75 5 73.3 8.55 76.85 12.1 81.85 12.1 86.85 12.1 90.45 8.55 94 5 94 -.05 94 -4.45 91.1 -7.85 88.25 -11.2 84 -11.95 80.45 -37 63.5 -56.2 46.45 -75.45 22 -82M75.8 -.05Q75.8 -2.55 77.6 -4.3 79.35 -6.1 81.85 -6.1 84.35 -6.1 86.15 -4.3 87.95 -2.55 87.95 -.05 87.95 2.5 86.15 4.25 84.35 6.05 81.85 6.05 79.35 6.05 77.6 4.25 75.8 2.5 75.8 -.05Z"/><path fill="#F555F0" stroke="none" d="M11.4 77.95Q10.15 74.3 7.1 72.05 3.9 69.7 0 69.7 -5.05 69.7 -8.6 73.3 -12.15 76.85 -12.15 81.85 -12.15 86.85 -8.6 90.45 -5.05 94 0 94 4.45 94 7.8 91.1 11.15 88.3 11.9 84 36.95 80.45 56.15 63.5 75.45 46.45 82 22L76.15 20.4Q70.1 43.05 52.3 58.8 34.55 74.55 11.4 77.95M0 75.8Q2.5 75.8 4.3 77.55 6.05 79.35 6.05 81.85 6.05 84.4 4.3 86.15 2.5 87.9 0 87.9 -2.5 87.9 -4.3 86.15 -6.05 84.4 -6.05 81.85 -6.05 79.35 -4.3 77.55 -2.5 75.8 0 75.8M12.1 -81.85Q12.1 -86.9 8.55 -90.45 5 -94 0 -94 -4.45 -94 -7.8 -91.15 -11.15 -88.3 -11.9 -84 -36.95 -80.45 -56.2 -63.5 -75.45 -46.5 -82 -22.05L-76.15 -20.45Q-70.1 -43.05 -52.3 -58.85 -34.55 -74.55 -11.45 -77.95 -10.2 -74.3 -7.1 -72.05 -3.95 -69.75 0 -69.75 5 -69.75 8.55 -73.3 12.1 -76.85 12.1 -81.85M0 -87.95Q2.5 -87.95 4.3 -86.15 6.05 -84.35 6.05 -81.85 6.05 -79.35 4.3 -77.6 2.5 -75.8 0 -75.8 -2.5 -75.8 -4.3 -77.6 -6.05 -79.35 -6.05 -81.85 -6.05 -84.35 -4.3 -86.15 -2.5 -87.95 0 -87.95Z"/></g></g></svg>