
<svg xmlns="http://www.w3.org/2000/svg" version="1.1" xmlns:xlink="http://www.w3.org/1999/xlink" preserveAspectRatio="none" x="0px" y="0px" width="110px" height="94px" viewBox="0 0 110 94">
<defs>
<g id="Layer0_0_MEMBER_0_FILL">
<path fill="#00D7DF" stroke="none" d="
M 137.1 238.45
Q 131.65 230.7 123.35 226.25 114.75 221.65 104.95 221.65 95.95 221.65 87.95 225.5 80.15 229.25 74.65 235.9 70.35 241.1 68.05 247.4 65.65 253.95 65.65 260.95 65.65 266.1 66.95 271 58.5 266.55 48.8 266.55 34.15 266.55 23.05 276.2 12.1 285.75 10 300
L 199.95 300
Q 200.3 297.55 200.3 294.6 200.3 278.3 188.8 266.8 177.3 255.3 161.05 255.3 152.25 255.3 144.15 259.15 143.65 247.75 137.1 238.45 Z"/>
</g>

<g id="Layer0_0_MEMBER_1_FILL">
<path fill="#CCF7F9" stroke="none" d="
M 42.9 140
L 0 140 32.15 204.4
Q 38.05 216.2 45 222.7 56.45 233.45 74.65 235.9 80.15 229.25 87.95 225.5 95.95 221.65 104.95 221.65 114.75 221.65 123.35 226.25 131.65 230.7 137.1 238.45
L 219.85 241.4 219.85 204.4 171.7 204.4 149.5 177.8 75.1 182.95 42.9 140 Z"/>
</g>

<g id="Layer0_0_MEMBER_2_FILL">
<path fill="#00A1A7" stroke="none" d="
M 171.7 204.4
L 311.2 204.4 171.7 140 118 140 171.7 204.4 Z"/>
</g>

<g id="Layer0_0_MEMBER_3_FILL">
<path fill="#00D7DF" stroke="none" d="
M 429 180.15
Q 420.9 171.75 409.1 166.6 397.4 161.5 386.3 161.5
L 240.05 171.6 311.2 204.4 219.85 204.4 219.85 241.4 386.3 247.35
Q 403.35 247.35 419.45 236.6 436.35 225.3 439.4 210.05
L 370 210.05 370 190 429 180.15 Z"/>
</g>

<g id="Layer0_0_MEMBER_4_FILL">
<path fill="#CCF7F9" stroke="none" d="
M 437 191.5
Q 434.2 185.55 429 180.15
L 370 190 370 210 439.4 210
Q 439.95 207.15 439.95 204.4 440 197.9 437 191.5 Z"/>
</g>
</defs>

<g transform="matrix( 0.2366180419921875, -0.0847625732421875, 0.084747314453125, 0.23663330078125, -11.85,9.6) ">
<use xlink:href="#Layer0_0_MEMBER_0_FILL"/>
</g>

<g transform="matrix( 0.2366180419921875, -0.0847625732421875, 0.084747314453125, 0.23663330078125, -11.85,9.6) ">
<use xlink:href="#Layer0_0_MEMBER_1_FILL"/>
</g>

<g transform="matrix( 0.2366180419921875, -0.0847625732421875, 0.084747314453125, 0.23663330078125, -11.85,9.6) ">
<use xlink:href="#Layer0_0_MEMBER_2_FILL"/>
</g>

<g transform="matrix( 0.2366180419921875, -0.0847625732421875, 0.084747314453125, 0.23663330078125, -11.85,9.6) ">
<use xlink:href="#Layer0_0_MEMBER_3_FILL"/>
</g>

<g transform="matrix( 0.2366180419921875, -0.0847625732421875, 0.084747314453125, 0.23663330078125, -11.85,9.6) ">
<use xlink:href="#Layer0_0_MEMBER_4_FILL"/>
</g>
</svg>
