
<svg xmlns="http://www.w3.org/2000/svg" version="1.1" xmlns:xlink="http://www.w3.org/1999/xlink" preserveAspectRatio="none" x="0px" y="0px" width="110px" height="94px" viewBox="0 0 110 94">
<defs>
<g id="Layer0_0_MEMBER_0_FILL">
<path fill="#ACABB1" stroke="none" d="
M 142.5 330
L 142.5 332.5
Q 142.5 352.2 156.4 366.1 170.3 380 190 380 209.65 380 223.6 366.1 237.5 352.2 237.5 332.5
L 237.5 330 142.5 330 Z"/>
</g>

<g id="Layer0_0_MEMBER_1_FILL">
<path fill="#565659" stroke="none" d="
M 142.5 300
L 142.5 330 237.5 330 237.5 300 142.5 300 Z"/>
</g>

<g id="Layer0_0_MEMBER_2_FILL">
<path fill="#FFE98F" stroke="none" d="
M 172.35 167.7
Q 179.65 175 190 175
L 190 0
Q 163.4 0 139.15 10.25 115.7 20.2 97.6 38.25 79.55 56.35 69.6 79.8 59.35 104.05 59.35 130.65 59.35 166.35 77.4 196.95 94.95 226.65 124.8 243.9
L 142.5 300 175 300 175 202.95
Q 157.5 198 146.35 183.45 135 168.65 135 150
L 165 150
Q 165 160.35 172.35 167.7 Z"/>
</g>

<g id="Layer0_0_MEMBER_3_FILL">
<path fill="#FFDA44" stroke="none" d="
M 310.35 79.8
Q 300.4 56.35 282.35 38.25 264.25 20.2 240.8 10.25 216.55 0 190 0
L 190 175
Q 200.3 175 207.65 167.7 215 160.35 215 150
L 245 150
Q 245 168.65 233.65 183.45 222.5 198 205 202.95
L 205 300 237.5 300 255.15 243.9
Q 285 226.65 302.55 196.95 320.6 166.35 320.6 130.65 320.6 104.05 310.35 79.8 Z"/>
</g>

<g id="Layer0_0_MEMBER_4_FILL">
<path fill="#FF9811" stroke="none" d="
M 172.35 167.7
Q 165 160.35 165 150
L 135 150
Q 135 168.65 146.35 183.45 157.5 198 175 202.95
L 175 300 205 300 205 202.95
Q 222.5 198 233.65 183.45 245 168.65 245 150
L 215 150
Q 215 160.35 207.65 167.7 200.3 175 190 175 179.65 175 172.35 167.7 Z"/>
</g>
</defs>

<g transform="matrix( 0.2476348876953125, 0, 0, 0.24737548828125, 7.95,0) ">
<use xlink:href="#Layer0_0_MEMBER_0_FILL"/>
</g>

<g transform="matrix( 0.2476348876953125, 0, 0, 0.24737548828125, 7.95,0) ">
<use xlink:href="#Layer0_0_MEMBER_1_FILL"/>
</g>

<g transform="matrix( 0.2476348876953125, 0, 0, 0.24737548828125, 7.95,0) ">
<use xlink:href="#Layer0_0_MEMBER_2_FILL"/>
</g>

<g transform="matrix( 0.2476348876953125, 0, 0, 0.24737548828125, 7.95,0) ">
<use xlink:href="#Layer0_0_MEMBER_3_FILL"/>
</g>

<g transform="matrix( 0.2476348876953125, 0, 0, 0.24737548828125, 7.95,0) ">
<use xlink:href="#Layer0_0_MEMBER_4_FILL"/>
</g>
</svg>
