<?xml version="1.0" encoding="utf-8"?>
<!-- Generator: Adobe Illustrator 18.0.0, SVG Export Plug-In . SVG Version: 6.00 Build 0)  -->
<!DOCTYPE svg PUBLIC "-//W3C//DTD SVG 1.1//EN" "http://www.w3.org/Graphics/SVG/1.1/DTD/svg11.dtd">
<svg version="1.1" id="Warstwa_1" xmlns="http://www.w3.org/2000/svg" xmlns:xlink="http://www.w3.org/1999/xlink" x="0px" y="0px"
	 viewBox="0 0 1000 158" enable-background="new 0 0 1000 158" xml:space="preserve">
<rect x="7" y="121" opacity="0.2" fill="#FFFFFF" width="4" height="36"/>
<rect x="27" y="101" opacity="0.2" fill="#FFFFFF" width="4" height="56"/>
<rect x="48" y="91" opacity="0.2" fill="#FFFFFF" width="4" height="66"/>
<rect x="69" y="131" opacity="0.2" fill="#FFFFFF" width="4" height="26"/>
<rect x="88" y="111" opacity="0.2" fill="#FFFFFF" width="4" height="46"/>
<rect x="108" y="105" opacity="0.2" fill="#FFFFFF" width="4" height="52"/>
<rect x="129" y="100" opacity="0.2" fill="#FFFFFF" width="4" height="57"/>
<rect x="148" y="94" opacity="0.2" fill="#FFFFFF" width="4" height="63"/>
<rect x="169" y="111" opacity="0.2" fill="#FFFFFF" width="4" height="46"/>
<rect x="189" y="104" opacity="0.2" fill="#FFFFFF" width="4" height="53"/>
<rect x="209" y="111" opacity="0.2" fill="#FFFFFF" width="4" height="46"/>
<rect x="228" y="111" opacity="0.2" fill="#FFFFFF" width="4" height="46"/>
<rect x="249" y="121" opacity="0.2" fill="#FFFFFF" width="4" height="36"/>
<rect x="268" y="131" opacity="0.2" fill="#FFFFFF" width="4" height="26"/>
<rect x="288" y="101" opacity="0.2" fill="#FFFFFF" width="4" height="56"/>
<rect x="308" y="91" opacity="0.2" fill="#FFFFFF" width="4" height="66"/>
<rect x="329" y="51" opacity="0.2" fill="#FFFFFF" width="4" height="106"/>
<rect x="349" y="111" opacity="0.2" fill="#FFFFFF" width="4" height="46"/>
<rect x="369" y="111" opacity="0.2" fill="#FFFFFF" width="4" height="46"/>
<rect x="389" y="91" opacity="0.2" fill="#FFFFFF" width="4" height="66"/>
<rect x="409" y="101" opacity="0.2" fill="#FFFFFF" width="4" height="56"/>
<rect x="429" y="111" opacity="0.2" fill="#FFFFFF" width="4" height="46"/>
<rect x="449" y="111" opacity="0.2" fill="#FFFFFF" width="4" height="46"/>
<rect x="469" y="71" opacity="0.2" fill="#FFFFFF" width="4" height="86"/>
<rect x="489" y="141" opacity="0.2" fill="#FFFFFF" width="4" height="16"/>
<rect x="509" y="131" opacity="0.2" fill="#FFFFFF" width="4" height="26"/>
<rect x="528" y="111" opacity="0.2" fill="#FFFFFF" width="4" height="46"/>
<rect x="548" y="91" opacity="0.2" fill="#FFFFFF" width="4" height="66"/>
<rect x="568" y="111" opacity="0.2" fill="#FFFFFF" width="4" height="46"/>
<rect x="588" y="111" opacity="0.2" fill="#FFFFFF" width="4" height="46"/>
<rect x="608" y="111" opacity="0.2" fill="#FFFFFF" width="4" height="46"/>
<rect x="628" y="111" opacity="0.2" fill="#FFFFFF" width="4" height="46"/>
<rect x="649" y="130.8" opacity="0.2" fill="#FFFFFF" width="4" height="27.2"/>
<rect x="669" y="151" opacity="0.2" fill="#FFFFFF" width="4" height="6"/>
<rect x="689" y="71" opacity="0.2" fill="#FFFFFF" width="4" height="86"/>
<rect x="709" y="91" opacity="0.2" fill="#FFFFFF" width="4" height="66"/>
<rect x="729" y="91" opacity="0.2" fill="#FFFFFF" width="4" height="66"/>
<rect x="749" y="81" opacity="0.2" fill="#FFFFFF" width="4" height="76"/>
<rect x="769" y="111" opacity="0.2" fill="#FFFFFF" width="4" height="46"/>
<rect x="789" y="101" opacity="0.2" fill="#FFFFFF" width="4" height="56"/>
<rect x="809" y="91" opacity="0.2" fill="#FFFFFF" width="4" height="66"/>
<rect x="829" y="101" opacity="0.2" fill="#FFFFFF" width="4" height="56"/>
<rect x="849" y="101" opacity="0.2" fill="#FFFFFF" width="4" height="56"/>
<rect x="869" y="106" opacity="0.2" fill="#FFFFFF" width="4" height="51"/>
<rect x="889" y="111" opacity="0.2" fill="#FFFFFF" width="4" height="46"/>
<rect x="909" y="131" opacity="0.2" fill="#FFFFFF" width="4" height="26"/>
<rect x="929" y="106" opacity="0.2" fill="#FFFFFF" width="4" height="51"/>
<rect x="948" y="116" opacity="0.2" fill="#FFFFFF" width="4" height="41"/>
<rect x="968" y="113" opacity="0.2" fill="#FFFFFF" width="4" height="44"/>
<rect x="988" y="121" opacity="0.2" fill="#FFFFFF" width="4" height="36"/>
</svg>
