<?xml version="1.0" encoding="utf-8"?>
<!-- Generator: Adobe Illustrator 18.0.0, SVG Export Plug-In . SVG Version: 6.00 Build 0)  -->
<!DOCTYPE svg PUBLIC "-//W3C//DTD SVG 1.1//EN" "http://www.w3.org/Graphics/SVG/1.1/DTD/svg11.dtd">
<svg version="1.1" id="Warstwa_1" xmlns="http://www.w3.org/2000/svg" xmlns:xlink="http://www.w3.org/1999/xlink" x="0px" y="0px"
	 viewBox="0 0 1000 158" enable-background="new 0 0 1000 158" xml:space="preserve">
<rect x="3" y="37" opacity="0.5" fill="#FFFFFF" width="4" height="120.5"/>
<rect x="23" y="68" opacity="0.5" fill="#FFFFFF" width="4" height="89"/>
<rect x="44" y="18" opacity="0.5" fill="#FFFFFF" width="4" height="139"/>
<rect x="65" y="48" opacity="0.5" fill="#FFFFFF" width="4" height="109"/>
<rect x="84" y="78" opacity="0.5" fill="#FFFFFF" width="4" height="79"/>
<rect x="104" y="28" opacity="0.5" fill="#FFFFFF" width="4" height="129"/>
<rect x="125" y="4" opacity="0.5" fill="#FFFFFF" width="4" height="153"/>
<rect x="144" y="12" opacity="0.5" fill="#FFFFFF" width="4" height="145"/>
<rect x="165" y="20" opacity="0.5" fill="#FFFFFF" width="4" height="137"/>
<rect x="185" y="28" opacity="0.5" fill="#FFFFFF" width="4" height="129"/>
<rect x="205" y="38" opacity="0.5" fill="#FFFFFF" width="4" height="119"/>
<rect x="224" y="26" opacity="0.5" fill="#FFFFFF" width="4" height="131"/>
<rect x="245" y="28" opacity="0.5" fill="#FFFFFF" width="4" height="129"/>
<rect x="264" y="38" opacity="0.5" fill="#FFFFFF" width="4" height="119"/>
<rect x="284" y="28" opacity="0.5" fill="#FFFFFF" width="4" height="129"/>
<rect x="304" y="58" opacity="0.5" fill="#FFFFFF" width="4" height="99"/>
<rect x="325" y="78" opacity="0.5" fill="#FFFFFF" width="4" height="79"/>
<rect x="345" y="88" opacity="0.5" fill="#FFFFFF" width="4" height="69"/>
<rect x="365" y="48" opacity="0.5" fill="#FFFFFF" width="4" height="109"/>
<rect x="385" y="58" opacity="0.5" fill="#FFFFFF" width="4" height="99"/>
<rect x="405" y="38" opacity="0.5" fill="#FFFFFF" width="4" height="119"/>
<rect x="425" y="78" opacity="0.5" fill="#FFFFFF" width="4" height="79"/>
<rect x="445" y="28" opacity="0.5" fill="#FFFFFF" width="4" height="129"/>
<rect x="465" y="38" opacity="0.5" fill="#FFFFFF" width="4" height="119"/>
<rect x="485" y="28" opacity="0.5" fill="#FFFFFF" width="4" height="129"/>
<rect x="505" y="28" opacity="0.5" fill="#FFFFFF" width="4" height="129"/>
<rect x="524" y="48" opacity="0.5" fill="#FFFFFF" width="4" height="109"/>
<rect x="544" y="38" opacity="0.5" fill="#FFFFFF" width="4" height="119"/>
<rect x="564" y="18" opacity="0.5" fill="#FFFFFF" width="4" height="139"/>
<rect x="584" y="38" opacity="0.5" fill="#FFFFFF" width="4" height="119"/>
<rect x="604" y="18" opacity="0.5" fill="#FFFFFF" width="4" height="139"/>
<rect x="624" y="38" opacity="0.5" fill="#FFFFFF" width="4" height="119"/>
<polygon opacity="0.5" fill="#FFFFFF" points="649,157.5 645,158 645,28 649,27.8 "/>
<rect x="665" y="18" opacity="0.5" fill="#FFFFFF" width="4" height="139"/>
<rect x="685" y="8" opacity="0.5" fill="#FFFFFF" width="4" height="149"/>
<rect x="705" y="58" opacity="0.5" fill="#FFFFFF" width="4" height="99"/>
<rect x="725" y="28" opacity="0.5" fill="#FFFFFF" width="4" height="129"/>
<rect x="745" y="48" opacity="0.5" fill="#FFFFFF" width="4" height="109"/>
<rect x="765" y="58" opacity="0.5" fill="#FFFFFF" width="4" height="99"/>
<rect x="785" y="18" opacity="0.5" fill="#FFFFFF" width="4" height="139"/>
<rect x="805" y="28" opacity="0.5" fill="#FFFFFF" width="4" height="129"/>
<rect x="825" y="28" opacity="0.5" fill="#FFFFFF" width="4" height="129"/>
<rect x="845" y="58" opacity="0.5" fill="#FFFFFF" width="4" height="99"/>
<rect x="865" y="58" opacity="0.5" fill="#FFFFFF" width="4" height="99"/>
<rect x="885" y="28" opacity="0.5" fill="#FFFFFF" width="4" height="129"/>
<rect x="905" y="38" opacity="0.5" fill="#FFFFFF" width="4" height="119"/>
<rect x="925" y="58" opacity="0.5" fill="#FFFFFF" width="4" height="99"/>
<rect x="944" y="28" opacity="0.5" fill="#FFFFFF" width="4" height="129"/>
<rect x="964" y="48" opacity="0.5" fill="#FFFFFF" width="4" height="109"/>
<rect x="984" y="38" opacity="0.5" fill="#FFFFFF" width="4" height="119"/>
</svg>
