<?xml version="1.0" encoding="utf-8"?>
<!-- Generator: Adobe Illustrator 18.0.0, SVG Export Plug-In . SVG Version: 6.00 Build 0)  -->
<!DOCTYPE svg PUBLIC "-//W3C//DTD SVG 1.1//EN" "http://www.w3.org/Graphics/SVG/1.1/DTD/svg11.dtd">
<svg version="1.1" id="Warstwa_1" xmlns="http://www.w3.org/2000/svg" xmlns:xlink="http://www.w3.org/1999/xlink" x="0px" y="0px"
	 viewBox="0 0 1001.2 158.9" enable-background="new 0 0 1001.2 158.9" xml:space="preserve">
<path opacity="0.7" fill="none" stroke="#FFFFFF" stroke-linecap="round" stroke-linejoin="round" stroke-miterlimit="10" d="
	M0.5,159.4l5.3-40l2.7,24.3l9-90l3.7,96.7l7.7-21.7c0,0,2.7,10.3,2.7,9.3s3.3-33.7,3.3-33.7l1.7,35.7l2.3-14.7l10,26l5.3-27
	l4.3,18.7l1.7-22.7l2.3,29.3l4-24.3l1.7,16.3l2.3,3.7l3.3-6.3l2.7,9.3c0,0,2.3-66.7,2.7-65.7c0.3,1,2,16.3,2,16.3l3.3,6l1.7-3.7
	l3.7,0.7l2.7-17l5.3,23.3l4.7-12.3l3.3-0.7l2.3-11.7l1.7,13.3l3,3l3.3,14.7l3.7-31l3.7,33V84.4l4.7,5l2,1l4,16.7l1.3-26.7l3.3,25.3
	l4-4.7l2-10.3l2,10.3l2.3-10.7l2.3-4l5,18.7l3.7-12.3l1.7,10l3.7-10.7l4.3-12l5,12l4.3-12.7l4.7,37l1.7,15l8.3-29l3.3-2.7l6.7-29.3
	l3.3,48.3l3.3-6.3l1.3,9.3l5.3,7.3l8,24.3l2.7-30l2,25.7l1.7-16.7l2,10l3-10.7l4.7,7.3l4.7-8.7l4,14.7l4.7-17v8l3-3l5,10.7l4-10.7
	v10l7,11.7l3-21l5.1-16.7c0,0,2.1-16.8,2.3-16.6s2.3,14.8,2.4,14.1c0.2-0.7,1.5-18.9,1.5-18.9l2.8,17.7l5.4-6.9l2.3,4.3
	c0,0,2.4-7.8,2.6-7.5c0.2,0.3,2.1,21.8,2.1,21.8s3.7-33.9,4.7-33.3c1,0.6,8.3,28.1,8.3,28.1l2.4-2.4l2.5-28.3l1.8,38.4l3.1-31.8
	l2.2,29.3l5.2-3.1l1.8,21.8l2.3,1l2.9-10.2l2.2,4.1l3-0.5l2.8-17.4l1.6,21.6l4.9-27.5l1.7,12.8c0,0,2.7-3.8,2.8-3.6
	c0.2,0.3,2.4,8,2.4,8l3.3,1.6l2.4-18.8l2.2,3.3l5.3,25.3l2.1-20.9l2.1,8.9l3.2-129.7l2.3,78.6l2.8-49.8l1.7,58.7l4.8-73.1l4.1,24.4
	l3.3,79.2l3-60.8l4.2,75.3l2.8,2.3l3-68l4.3,70.8l2.9-27.7l2.3,22.3l3.1-12l2.2,24.8l7.3-32.3l1,16.8l2.4-18c0,0,1.4,31.1,1.8,30.8
	s6.8-13.9,6.8-13.9s2.6,6.5,2.6,6.3s1.8-20.2,1.8-20.2l1.4,21.4l2.8,4.7l3.3-37.3l2.3,32.7l2.5-11.1l2.3,2.3l1.7,12.3l2.5,1.8
	l3.5-5.9l2.2,1.8l4.2,1.1c0,0,6.1,16.6,6.1,16.3s1.3-25.1,1.5-25c0.3,0.1,2,16,2,15.8s2.7-12.5,2.7-12.5l2.8,12.6l1.6,0.2l3.9-6.8
	l5.3,10.3c0,0,0.5-18.1,0.8-17.8s4.6,15.8,4.6,15.8l2.8-21.3c0,0,5.3,31.1,5.3,30.8s2.6-24.8,2.6-24.8s1.6,6.2,1.8,6.1
	c0.3-0.1,3-9.3,3-9.3s1.8,21.3,1.9,21c0.1-0.3,4.4-18.8,4.4-18.8s2.9,19.6,3,19.3c0.1-0.3,2.5-10,2.5-10l2.7,4.8l2.7-11.7
	c0,0,2.6,4.8,2.6,4.5s2.2-12.8,2.2-12.8l3.9,28l1.6-21.2l1.4,3.8l4.3-2.3l3.3,11.9c0,0,2.6-13,2.8-12.7c0.2,0.3,6.3,14.9,6.3,14.9
	s3.5-17.1,3.7-16.8c0.2,0.3,1.8,11.1,2,10.9c0.3-0.2,2.3-7.5,2.6-7.3s2.7,10.4,2.7,10.4l4.3-6l3.1,4.5l2.3-42.7l1.3,19.4l5.4-11.3
	l2.8,8.1l3.4-12.8l1.3-6.9l2.6,6.7l3-8l2.7-0.8l1.7,4.8l2.2-3.1l3-2l5.2-12.7l2.6,4.3l4.3-55.3l3,69.3l1.7,0.4l1.9,17.6l3.2-14.8
	l5.8,13.8c0,0,2.3-38.7,2.5-38.5c0.3,0.2,3.8,2.2,3.8,2.2l2.2,4.3l2.5-16l2.9,2.9l1.7,16.7l6.1-5.2c0,0,2.3-11.2,2.2-10.9
	c-0.1,0.3,3.8,7.8,3.8,7.8l3.4,2.5l2.1-4.7l3.8-35.9c0,0,3.5-6.2,3.8-6c0.3,0.2,2.7,13.5,2.8,13.2s2.5-14.3,2.6-14.1
	c0.1,0.3,2.2,1.6,2.2,1.6l2.3,13.9"/>
<path opacity="0.7" fill="none" stroke="#FFFFFF" stroke-linecap="round" stroke-linejoin="round" stroke-miterlimit="10" d="
	M700.8,52.4l8.3-38l-0.3,22.3l6-10l6.7,6.7l7.7-11.7c0,0,2.7,50.3,2.7,49.3s3.3,15.3,3.3,15.3l1.7-13.3l2.3-14.7l10,56l5.3,3
	l4.3-11.3l1.7,7.3l2.3-0.7l4,5.7l1.7-13.7l2.3,33.7l3.3-6.3l2.7-10.7c0,0,2.3-26.7,2.7-25.7c0.3,1,2,16.3,2,16.3l3.3,6l1.7-3.7
	l3.7-9.3l2.7-37l5.3,43.3l4.7-12.3l3.3-0.7l2.3-1.7l1.7,3.3l3,3l3.3,14.7l3.7-21l3.7,13V97.4l4.7-5l2,1l4,16.7l1.3-26.7l3.3,25.3
	l4-4.7l2-10.3l2,10.3l2.3-10.7l2.3-4l5,18.7l3.7-12.3l1.7,30l3.7-10.7l4.3-12l5,12l4.3-2.7l4.7-3l1.7-5l8.3-29l3.3-2.7l6.7-19.3
	l3.3,38.3l3.3-6.3l1.3,9.3l5.3-12.7l8,24.3l2.7-10l2,25.7l1.7-16.7l2,10l3-10.7l4.7,7.3l4.7-8.7l4,14.7l4.7-17v8l3-3l5,10.7l4-40.7
	v10l7,11.7l3-21l5.1-16.7c0,0,2.1-36.8,2.3-36.6s2.3,14.8,2.4,14.1c0.2-0.7,1.5-18.9,1.5-18.9l2.8,17.7l5.4,13.1l2.3,4.3
	c0,0,2.4-7.8,2.6-7.5"/>
</svg>
